M48
; DRILL file KiCad 10.0.6-10.0.6~ubuntu24.04.1 date 2026-10-07T03:03:19
; FORMAT={-:-/ absolute / metric / decimal}
; #@! TF.CreationDate,2026-10-07T03:03:19+00:00
; #@! TF.GenerationSoftware,Kicad,Pcbnew,10.0.6-10.0.6~ubuntu24.04.1
; #@! TF.FileFunction,Plated,1,4,PTH
FMAT,2
METRIC
; #@! TA.AperFunction,Plated,PTH,ComponentDrill
T1C0.200
; #@! TA.AperFunction,Plated,PTH,ViaDrill
T2C0.300
; #@! TA.AperFunction,Plated,PTH,ViaDrill
T3C0.350
; #@! TA.AperFunction,Plated,PTH,ComponentDrill
T4C0.920
; #@! TA.AperFunction,Plated,PTH,ComponentDrill
T5C1.000
; #@! TA.AperFunction,Plated,PTH,ComponentDrill
T6C1.075
; #@! TA.AperFunction,Plated,PTH,ComponentDrill
T7C2.300
; #@! TA.AperFunction,Plated,PTH,ComponentDrill
T8C3.200
%
G90
G05
T1
X93.55Y-15.55
X93.55Y-17.0
X93.55Y-18.45
X95.0Y-15.55
X95.0Y-17.0
X95.0Y-18.45
X96.45Y-15.55
X96.45Y-17.0
X96.45Y-18.45
T2
X9.231Y-7.829
X9.748Y-6.453
X10.214Y-33.786
X12.001Y-14.814
X12.458Y-29.499
X12.464Y-6.588
X12.482Y-8.946
X12.999Y-32.155
X13.155Y-7.305
X13.377Y-10.216
X13.54Y-30.399
X14.166Y-16.6
X14.8Y-30.41
X15.313Y-14.799
X15.745Y-26.425
X16.259Y-27.018
X16.53Y-37.235
X16.598Y-14.817
X16.947Y-38.505
X16.994Y-34.887
X17.068Y-39.775
X17.177Y-31.095
X17.25Y-35.965
X17.4Y-32.746
X17.408Y-16.336
X17.638Y-28.973
X17.94Y-37.888
X17.988Y-34.695
X18.214Y-30.404
X18.272Y-19.888
X18.383Y-26.697
X19.2Y-26.799
X20.952Y-36.546
X21.048Y-26.795
X21.223Y-30.424
X21.544Y-29.079
X23.443Y-28.382
X25.2Y-30.426
X25.792Y-13.148
X26.0Y-30.406
X26.092Y-28.6
X26.188Y-26.815
X26.8Y-30.382
X26.971Y-26.804
X27.018Y-28.598
X27.382Y-31.254
X27.964Y-33.977
X28.606Y-34.647
X28.844Y-30.247
X29.005Y-37.235
X29.102Y-35.965
X29.21Y-38.505
X29.731Y-28.818
X29.802Y-7.758
X29.814Y-6.514
X30.024Y-36.63
X30.14Y-9.073
X30.14Y-10.324
X30.14Y-11.264
X30.208Y-5.518
X30.209Y-37.87
X30.246Y-30.867
X31.69Y-28.6
X31.707Y-26.019
X32.176Y-6.514
X32.936Y-34.695
X33.192Y-30.401
X35.43Y-13.778
X36.267Y-7.784
X36.421Y-6.753
X36.548Y-27.018
X37.022Y-34.929
X37.2Y-30.396
X38.0Y-30.383
X38.582Y-28.6
X38.648Y-26.805
X39.132Y-30.399
X40.166Y-34.727
X40.249Y-25.101
X40.497Y-37.235
X40.563Y-30.194
X40.684Y-6.947
X40.919Y-38.505
X41.125Y-29.373
X41.146Y-36.201
X41.19Y-7.782
X41.295Y-28.382
X41.418Y-37.87
X41.605Y-35.42
X42.003Y-34.695
X44.279Y-30.492
X44.426Y-4.65
X44.654Y-28.6
X45.005Y-6.003
X45.081Y-30.462
X48.45Y-29.5
X48.734Y-6.459
X49.034Y-39.775
X49.057Y-37.235
X49.401Y-30.393
X50.156Y-9.0
X50.8Y-30.425
X50.973Y-26.815
X52.33Y-40.87
X52.338Y-34.695
X52.343Y-37.25
X52.517Y-6.639
X52.611Y-36.099
X52.614Y-38.122
X52.852Y-28.981
X53.052Y-30.182
X53.173Y-39.699
X53.732Y-34.695
X53.782Y-35.478
X54.667Y-30.453
X55.64Y-26.815
X56.589Y-30.77
X56.812Y-11.0
X57.458Y-28.382
X58.173Y-30.182
X59.067Y-8.852
X59.849Y-40.396
X69.176Y-29.093
X71.635Y-23.0
X80.3Y-27.73
X80.3Y-30.27
X80.321Y-3.53
X80.38Y-21.299
X81.045Y-29.0
X81.9Y-6.85
X81.9Y-12.85
X81.9Y-18.85
X81.9Y-24.85
X81.9Y-27.2
X81.9Y-30.8
X83.45Y-5.675
X83.6Y-36.7
X85.423Y-9.477
X85.65Y-33.5
X87.271Y-15.351
X88.46Y-13.3
X88.46Y-17.0
X88.46Y-18.2
X88.46Y-19.5
X88.46Y-20.55
X88.46Y-21.6
X88.464Y-14.273
X89.439Y-14.86
X89.8Y-37.0
X90.06Y-25.6
X90.28Y-16.14
X90.28Y-24.48
X90.35Y-32.55
X90.382Y-15.338
X91.14Y-13.3
X91.14Y-20.55
X91.55Y-5.675
X91.6Y-31.7
X91.6Y-35.3
X91.9Y-10.78
X92.3Y-21.75
X92.435Y-16.2
X92.456Y-15.358
X92.723Y-9.713
X92.74Y-7.12
X93.345Y-14.45
X94.2Y-12.663
X94.25Y-6.35
X94.35Y-9.46
X94.65Y-25.674
X95.6Y-22.25
X95.8Y-41.8
X96.8Y-23.74
X97.022Y-14.921
X97.85Y-23.74
X98.0Y-30.35
X98.9Y-23.74
X98.95Y-8.05
X99.6Y-5.06
X99.87Y-13.04
X99.87Y-14.94
X99.87Y-18.94
X101.69Y-13.9
X101.69Y-15.8
X101.69Y-17.8
X101.69Y-19.8
X102.387Y-13.0
X106.65Y-15.0
X106.688Y-13.0
X107.875Y-17.95
X108.925Y-25.0
X110.275Y-25.675
X110.325Y-29.525
T3
X11.025Y-14.97
X14.45Y-5.825
X14.525Y-42.57
X15.975Y-3.03
X17.5Y-7.095
X17.5Y-8.365
X17.5Y-9.635
X17.5Y-10.905
X17.5Y-12.175
X17.95Y-33.425
X18.325Y-3.575
X19.475Y-30.63
X20.9Y-4.6
X21.825Y-31.175
X23.062Y-17.238
X24.0Y-9.65
X24.4Y-32.2
X26.525Y-42.57
X28.525Y-14.97
X29.95Y-33.425
X31.475Y-30.63
X33.475Y-3.03
X33.825Y-31.175
X35.0Y-12.175
X35.825Y-3.575
X36.4Y-32.2
X38.4Y-4.6
X38.525Y-42.57
X41.95Y-33.425
X42.525Y-14.97
X43.475Y-30.63
X45.825Y-31.175
X47.475Y-3.03
X48.4Y-32.2
X49.0Y-12.175
X49.825Y-3.575
X50.525Y-42.57
X52.4Y-4.6
X53.688Y-3.0
X53.95Y-33.425
X55.475Y-30.63
X57.825Y-31.175
X59.375Y-33.225
X60.188Y-31.2
X61.175Y-34.025
X64.2Y-33.0
X64.244Y-39.0
X64.8Y-41.9
X67.8Y-33.0
X69.4Y-41.6
X69.45Y-36.0
X70.1Y-3.2
X70.1Y-6.8
X70.1Y-9.2
X70.1Y-12.8
X70.1Y-15.2
X70.1Y-18.8
X70.1Y-21.2
X70.1Y-24.8
X70.1Y-30.85
X71.7Y-3.73
X71.7Y-6.27
X71.7Y-9.73
X71.7Y-12.27
X71.7Y-15.73
X71.7Y-18.27
X71.7Y-21.73
X71.7Y-24.27
X87.422Y-42.209
T4
X102.75Y-34.6
X102.75Y-37.8
X105.25Y-34.6
X105.25Y-37.8
T5
X13.84Y-19.16
X13.84Y-24.84
X15.225Y-22.0
X16.61Y-19.16
X16.61Y-24.84
X17.995Y-22.0
X19.38Y-19.16
X19.38Y-24.84
X20.765Y-22.0
X22.15Y-19.16
X22.15Y-24.84
X23.535Y-22.0
X24.92Y-19.16
X24.92Y-24.84
X26.305Y-22.0
X27.69Y-19.16
X27.69Y-24.84
X29.075Y-22.0
X30.46Y-19.16
X30.46Y-24.84
X31.845Y-22.0
X33.23Y-19.16
X33.23Y-24.84
X34.615Y-22.0
X36.0Y-19.16
X36.0Y-24.84
X37.385Y-22.0
X38.77Y-19.16
X38.77Y-24.84
X40.155Y-22.0
X41.54Y-19.16
X41.54Y-24.84
X42.925Y-22.0
X44.31Y-19.16
X44.31Y-24.84
X45.695Y-22.0
X47.08Y-19.16
X47.08Y-24.84
X48.465Y-22.0
X49.85Y-19.16
X49.85Y-24.84
X51.235Y-22.0
X52.62Y-19.16
X52.62Y-24.84
X54.005Y-22.0
X55.39Y-19.16
X55.39Y-24.84
X56.775Y-22.0
X58.16Y-19.16
X58.16Y-24.84
X93.46Y-2.6
X96.0Y-2.6
X98.54Y-2.6
T6
X72.19Y-38.5
X74.73Y-38.5
X77.27Y-38.5
X79.81Y-38.5
T7
X97.98Y-37.31
X110.02Y-37.31
T8
X5.445Y-22.0
X66.555Y-22.0
M30
