%TF.GenerationSoftware,KiCad,Pcbnew,10.0.6-10.0.6~ubuntu24.04.1*%
%TF.CreationDate,2026-10-07T06:03:25+00:00*%
%TF.ProjectId,solartron_7075_interface,736f6c61-7274-4726-9f6e-5f373037355f,rev?*%
%TF.SameCoordinates,Original*%
%TF.FileFunction,Paste,Top*%
%TF.FilePolarity,Positive*%
%FSLAX46Y46*%
G04 Gerber Fmt 4.6, Leading zero omitted, Abs format (unit mm)*
G04 Created by KiCad (PCBNEW 10.0.6-10.0.6~ubuntu24.04.1) date 2026-10-07 06:03:25*
%MOMM*%
%LPD*%
G01*
G04 APERTURE LIST*
G04 Aperture macros list*
%AMRoundRect*
0 Rectangle with rounded corners*
0 $1 Rounding radius*
0 $2 $3 $4 $5 $6 $7 $8 $9 X,Y pos of 4 corners*
0 Add a 4 corners polygon primitive as box body*
4,1,4,$2,$3,$4,$5,$6,$7,$8,$9,$2,$3,0*
0 Add four circle primitives for the rounded corners*
1,1,$1+$1,$2,$3*
1,1,$1+$1,$4,$5*
1,1,$1+$1,$6,$7*
1,1,$1+$1,$8,$9*
0 Add four rect primitives between the rounded corners*
20,1,$1+$1,$2,$3,$4,$5,0*
20,1,$1+$1,$4,$5,$6,$7,0*
20,1,$1+$1,$6,$7,$8,$9,0*
20,1,$1+$1,$8,$9,$2,$3,0*%
%AMFreePoly0*
4,1,9,3.862500,-0.866500,0.737500,-0.866500,0.737500,-0.450000,-0.737500,-0.450000,-0.737500,0.450000,0.737500,0.450000,0.737500,0.866500,3.862500,0.866500,3.862500,-0.866500,3.862500,-0.866500,$1*%
G04 Aperture macros list end*
%ADD10RoundRect,0.250000X0.450000X0.350000X-0.450000X0.350000X-0.450000X-0.350000X0.450000X-0.350000X0*%
%ADD11R,0.500000X0.800000*%
%ADD12R,0.400000X0.800000*%
%ADD13RoundRect,0.225000X0.250000X-0.225000X0.250000X0.225000X-0.250000X0.225000X-0.250000X-0.225000X0*%
%ADD14RoundRect,0.135000X0.185000X-0.135000X0.185000X0.135000X-0.185000X0.135000X-0.185000X-0.135000X0*%
%ADD15RoundRect,0.150000X-0.825000X-0.150000X0.825000X-0.150000X0.825000X0.150000X-0.825000X0.150000X0*%
%ADD16RoundRect,0.200000X0.275000X-0.200000X0.275000X0.200000X-0.275000X0.200000X-0.275000X-0.200000X0*%
%ADD17RoundRect,0.200000X-0.200000X-0.275000X0.200000X-0.275000X0.200000X0.275000X-0.200000X0.275000X0*%
%ADD18R,1.000000X0.750000*%
%ADD19RoundRect,0.140000X0.170000X-0.140000X0.170000X0.140000X-0.170000X0.140000X-0.170000X-0.140000X0*%
%ADD20RoundRect,0.140000X-0.140000X-0.170000X0.140000X-0.170000X0.140000X0.170000X-0.140000X0.170000X0*%
%ADD21RoundRect,0.140000X-0.170000X0.140000X-0.170000X-0.140000X0.170000X-0.140000X0.170000X0.140000X0*%
%ADD22RoundRect,0.150000X0.150000X-0.512500X0.150000X0.512500X-0.150000X0.512500X-0.150000X-0.512500X0*%
%ADD23RoundRect,0.225000X-0.225000X-0.250000X0.225000X-0.250000X0.225000X0.250000X-0.225000X0.250000X0*%
%ADD24RoundRect,0.218750X-0.218750X-0.256250X0.218750X-0.256250X0.218750X0.256250X-0.218750X0.256250X0*%
%ADD25RoundRect,0.140000X0.140000X0.170000X-0.140000X0.170000X-0.140000X-0.170000X0.140000X-0.170000X0*%
%ADD26RoundRect,0.200000X0.400000X0.200000X-0.400000X0.200000X-0.400000X-0.200000X0.400000X-0.200000X0*%
%ADD27RoundRect,0.150000X-0.512500X-0.150000X0.512500X-0.150000X0.512500X0.150000X-0.512500X0.150000X0*%
%ADD28R,0.750000X1.000000*%
%ADD29RoundRect,0.225000X0.425000X0.225000X-0.425000X0.225000X-0.425000X-0.225000X0.425000X-0.225000X0*%
%ADD30FreePoly0,180.000000*%
%ADD31RoundRect,0.137500X0.137500X0.662500X-0.137500X0.662500X-0.137500X-0.662500X0.137500X-0.662500X0*%
%ADD32RoundRect,0.250000X-0.375000X-0.625000X0.375000X-0.625000X0.375000X0.625000X-0.375000X0.625000X0*%
%ADD33RoundRect,0.250000X0.410000X0.410000X-0.410000X0.410000X-0.410000X-0.410000X0.410000X-0.410000X0*%
%ADD34RoundRect,0.050000X0.350000X0.050000X-0.350000X0.050000X-0.350000X-0.050000X0.350000X-0.050000X0*%
%ADD35RoundRect,0.050000X0.050000X0.350000X-0.050000X0.350000X-0.050000X-0.350000X0.050000X-0.350000X0*%
%ADD36RoundRect,0.150000X-0.587500X-0.150000X0.587500X-0.150000X0.587500X0.150000X-0.587500X0.150000X0*%
%ADD37RoundRect,0.135000X-0.135000X-0.185000X0.135000X-0.185000X0.135000X0.185000X-0.135000X0.185000X0*%
%ADD38RoundRect,0.200000X-0.400000X-0.200000X0.400000X-0.200000X0.400000X0.200000X-0.400000X0.200000X0*%
%ADD39RoundRect,0.135000X-0.185000X0.135000X-0.185000X-0.135000X0.185000X-0.135000X0.185000X0.135000X0*%
G04 APERTURE END LIST*
D10*
%TO.C,Y1*%
X97700000Y-6350000D03*
X95500000Y-6350000D03*
X95500000Y-8050000D03*
X97700000Y-8050000D03*
%TD*%
D11*
%TO.C,RN8*%
X15600000Y-27700000D03*
D12*
X14800000Y-27700000D03*
X14000000Y-27700000D03*
D11*
X13200000Y-27700000D03*
X13200000Y-29500000D03*
D12*
X14000000Y-29500000D03*
X14800000Y-29500000D03*
D11*
X15600000Y-29500000D03*
%TD*%
D13*
%TO.C,C33*%
X70100000Y-5775000D03*
X70100000Y-4225000D03*
%TD*%
D14*
%TO.C,R6*%
X94650000Y-24910000D03*
X94650000Y-23890000D03*
%TD*%
%TO.C,R7*%
X91900000Y-9910000D03*
X91900000Y-8890000D03*
%TD*%
D13*
%TO.C,C22*%
X83600000Y-39275000D03*
X83600000Y-37725000D03*
%TD*%
D15*
%TO.C,U15*%
X28525000Y-4555000D03*
X28525000Y-5825000D03*
X28525000Y-7095000D03*
X28525000Y-8365000D03*
X28525000Y-9635000D03*
X28525000Y-10905000D03*
X28525000Y-12175000D03*
X28525000Y-13445000D03*
X33475000Y-13445000D03*
X33475000Y-12175000D03*
X33475000Y-10905000D03*
X33475000Y-9635000D03*
X33475000Y-8365000D03*
X33475000Y-7095000D03*
X33475000Y-5825000D03*
X33475000Y-4555000D03*
%TD*%
%TO.C,U14*%
X11025000Y-4555000D03*
X11025000Y-5825000D03*
X11025000Y-7095000D03*
X11025000Y-8365000D03*
X11025000Y-9635000D03*
X11025000Y-10905000D03*
X11025000Y-12175000D03*
X11025000Y-13445000D03*
X15975000Y-13445000D03*
X15975000Y-12175000D03*
X15975000Y-10905000D03*
X15975000Y-9635000D03*
X15975000Y-8365000D03*
X15975000Y-7095000D03*
X15975000Y-5825000D03*
X15975000Y-4555000D03*
%TD*%
D14*
%TO.C,R3*%
X90280000Y-23610000D03*
X90280000Y-22590000D03*
%TD*%
%TO.C,R4*%
X95450000Y-10410000D03*
X95450000Y-9390000D03*
%TD*%
D11*
%TO.C,RN9*%
X14300000Y-17500000D03*
D12*
X15100000Y-17500000D03*
X15900000Y-17500000D03*
D11*
X16700000Y-17500000D03*
X16700000Y-15700000D03*
D12*
X15900000Y-15700000D03*
X15100000Y-15700000D03*
D11*
X14300000Y-15700000D03*
%TD*%
D16*
%TO.C,R15*%
X81900000Y-11825000D03*
X81900000Y-10175000D03*
%TD*%
D17*
%TO.C,R13*%
X54675000Y-6000000D03*
X56325000Y-6000000D03*
%TD*%
D18*
%TO.C,SW2*%
X84500000Y-1925000D03*
X90500000Y-1925000D03*
X84500000Y-5675000D03*
X90500000Y-5675000D03*
%TD*%
D19*
%TO.C,C19*%
X94350000Y-11280000D03*
X94350000Y-10320000D03*
%TD*%
D11*
%TO.C,RN1*%
X44800000Y-27700000D03*
D12*
X44000000Y-27700000D03*
X43200000Y-27700000D03*
D11*
X42400000Y-27700000D03*
X42400000Y-29500000D03*
D12*
X43200000Y-29500000D03*
X44000000Y-29500000D03*
D11*
X44800000Y-29500000D03*
%TD*%
D20*
%TO.C,C6*%
X99870000Y-15800000D03*
X100830000Y-15800000D03*
%TD*%
D11*
%TO.C,RN4*%
X51600000Y-27700000D03*
D12*
X50800000Y-27700000D03*
X50000000Y-27700000D03*
D11*
X49200000Y-27700000D03*
X49200000Y-29500000D03*
D12*
X50000000Y-29500000D03*
X50800000Y-29500000D03*
D11*
X51600000Y-29500000D03*
%TD*%
D17*
%TO.C,R11*%
X61175000Y-33000000D03*
X62825000Y-33000000D03*
%TD*%
D21*
%TO.C,C11*%
X97850000Y-21920000D03*
X97850000Y-22880000D03*
%TD*%
D20*
%TO.C,C5*%
X99870000Y-19800000D03*
X100830000Y-19800000D03*
%TD*%
D21*
%TO.C,C14*%
X96800000Y-21920000D03*
X96800000Y-22880000D03*
%TD*%
D22*
%TO.C,U3*%
X97050000Y-29137500D03*
X98000000Y-29137500D03*
X98950000Y-29137500D03*
X98950000Y-26862500D03*
X98000000Y-26862500D03*
X97050000Y-26862500D03*
%TD*%
D16*
%TO.C,R14*%
X81900000Y-5825000D03*
X81900000Y-4175000D03*
%TD*%
D11*
%TO.C,RN5*%
X32800000Y-27700000D03*
D12*
X32000000Y-27700000D03*
X31200000Y-27700000D03*
D11*
X30400000Y-27700000D03*
X30400000Y-29500000D03*
D12*
X31200000Y-29500000D03*
X32000000Y-29500000D03*
D11*
X32800000Y-29500000D03*
%TD*%
D16*
%TO.C,R17*%
X81900000Y-23825000D03*
X81900000Y-22175000D03*
%TD*%
D20*
%TO.C,C17*%
X99870000Y-17800000D03*
X100830000Y-17800000D03*
%TD*%
D11*
%TO.C,RN6*%
X27600000Y-27700000D03*
D12*
X26800000Y-27700000D03*
X26000000Y-27700000D03*
D11*
X25200000Y-27700000D03*
X25200000Y-29500000D03*
D12*
X26000000Y-29500000D03*
X26800000Y-29500000D03*
D11*
X27600000Y-29500000D03*
%TD*%
D23*
%TO.C,C24*%
X62225000Y-41900000D03*
X63775000Y-41900000D03*
%TD*%
D24*
%TO.C,D3*%
X61212500Y-31200000D03*
X62787500Y-31200000D03*
%TD*%
%TO.C,D2*%
X103412500Y-13000000D03*
X104987500Y-13000000D03*
%TD*%
D23*
%TO.C,C29*%
X21825000Y-32200000D03*
X23375000Y-32200000D03*
%TD*%
D25*
%TO.C,C10*%
X90280000Y-20550000D03*
X89320000Y-20550000D03*
%TD*%
D15*
%TO.C,U11*%
X50525000Y-32155000D03*
X50525000Y-33425000D03*
X50525000Y-34695000D03*
X50525000Y-35965000D03*
X50525000Y-37235000D03*
X50525000Y-38505000D03*
X50525000Y-39775000D03*
X50525000Y-41045000D03*
X55475000Y-41045000D03*
X55475000Y-39775000D03*
X55475000Y-38505000D03*
X55475000Y-37235000D03*
X55475000Y-35965000D03*
X55475000Y-34695000D03*
X55475000Y-33425000D03*
X55475000Y-32155000D03*
%TD*%
D13*
%TO.C,C35*%
X70100000Y-17775000D03*
X70100000Y-16225000D03*
%TD*%
D26*
%TO.C,U6*%
X79150000Y-12270000D03*
X79150000Y-9730000D03*
X72850000Y-9730000D03*
X72850000Y-11000000D03*
X72850000Y-12270000D03*
%TD*%
D21*
%TO.C,C13*%
X98900000Y-21920000D03*
X98900000Y-22880000D03*
%TD*%
D13*
%TO.C,C34*%
X70100000Y-11775000D03*
X70100000Y-10225000D03*
%TD*%
D27*
%TO.C,U2*%
X86862500Y-32550000D03*
X86862500Y-33500000D03*
X86862500Y-34450000D03*
X89137500Y-34450000D03*
X89137500Y-32550000D03*
%TD*%
D23*
%TO.C,C28*%
X33825000Y-32200000D03*
X35375000Y-32200000D03*
%TD*%
%TO.C,C32*%
X49825000Y-4600000D03*
X51375000Y-4600000D03*
%TD*%
%TO.C,C27*%
X57825000Y-32200000D03*
X59375000Y-32200000D03*
%TD*%
%TO.C,C30*%
X18325000Y-4600000D03*
X19875000Y-4600000D03*
%TD*%
D16*
%TO.C,R16*%
X81900000Y-17825000D03*
X81900000Y-16175000D03*
%TD*%
D11*
%TO.C,RN2*%
X39600000Y-27700000D03*
D12*
X38800000Y-27700000D03*
X38000000Y-27700000D03*
D11*
X37200000Y-27700000D03*
X37200000Y-29500000D03*
D12*
X38000000Y-29500000D03*
X38800000Y-29500000D03*
D11*
X39600000Y-29500000D03*
%TD*%
D28*
%TO.C,SW1*%
X104125000Y-25000000D03*
X104125000Y-19000000D03*
X107875000Y-25000000D03*
X107875000Y-19000000D03*
%TD*%
D17*
%TO.C,R1*%
X108675000Y-28500000D03*
X110325000Y-28500000D03*
%TD*%
D23*
%TO.C,C2*%
X93225000Y-41800000D03*
X94775000Y-41800000D03*
%TD*%
%TO.C,C31*%
X35825000Y-4600000D03*
X37375000Y-4600000D03*
%TD*%
%TO.C,C25*%
X65225000Y-33000000D03*
X66775000Y-33000000D03*
%TD*%
D29*
%TO.C,U4*%
X63043800Y-39000000D03*
D30*
X62956300Y-37500000D03*
D29*
X63043800Y-36000000D03*
%TD*%
D25*
%TO.C,C15*%
X90280000Y-21600000D03*
X89320000Y-21600000D03*
%TD*%
D26*
%TO.C,U8*%
X79150000Y-24270000D03*
X79150000Y-21730000D03*
X72850000Y-21730000D03*
X72850000Y-23000000D03*
X72850000Y-24270000D03*
%TD*%
D13*
%TO.C,C36*%
X70100000Y-23775000D03*
X70100000Y-22225000D03*
%TD*%
D26*
%TO.C,U5*%
X79150000Y-6270000D03*
X79150000Y-3730000D03*
X72850000Y-3730000D03*
X72850000Y-5000000D03*
X72850000Y-6270000D03*
%TD*%
D25*
%TO.C,C9*%
X90280000Y-17000000D03*
X89320000Y-17000000D03*
%TD*%
D31*
%TO.C,L1*%
X92725000Y-23400000D03*
X91275000Y-23400000D03*
%TD*%
D19*
%TO.C,C20*%
X99600000Y-6880000D03*
X99600000Y-5920000D03*
%TD*%
D24*
%TO.C,D4*%
X54712500Y-3000000D03*
X56287500Y-3000000D03*
%TD*%
D23*
%TO.C,C3*%
X87225000Y-37000000D03*
X88775000Y-37000000D03*
%TD*%
D32*
%TO.C,F1*%
X88600000Y-41800000D03*
X91400000Y-41800000D03*
%TD*%
D25*
%TO.C,C8*%
X90280000Y-13300000D03*
X89320000Y-13300000D03*
%TD*%
D11*
%TO.C,RN3*%
X56800000Y-27700000D03*
D12*
X56000000Y-27700000D03*
X55200000Y-27700000D03*
D11*
X54400000Y-27700000D03*
X54400000Y-29500000D03*
D12*
X55200000Y-29500000D03*
X56000000Y-29500000D03*
D11*
X56800000Y-29500000D03*
%TD*%
D19*
%TO.C,C21*%
X93600000Y-8080000D03*
X93600000Y-7120000D03*
%TD*%
D15*
%TO.C,U16*%
X42525000Y-4555000D03*
X42525000Y-5825000D03*
X42525000Y-7095000D03*
X42525000Y-8365000D03*
X42525000Y-9635000D03*
X42525000Y-10905000D03*
X42525000Y-12175000D03*
X42525000Y-13445000D03*
X47475000Y-13445000D03*
X47475000Y-12175000D03*
X47475000Y-10905000D03*
X47475000Y-9635000D03*
X47475000Y-8365000D03*
X47475000Y-7095000D03*
X47475000Y-5825000D03*
X47475000Y-4555000D03*
%TD*%
%TO.C,U12*%
X26525000Y-32155000D03*
X26525000Y-33425000D03*
X26525000Y-34695000D03*
X26525000Y-35965000D03*
X26525000Y-37235000D03*
X26525000Y-38505000D03*
X26525000Y-39775000D03*
X26525000Y-41045000D03*
X31475000Y-41045000D03*
X31475000Y-39775000D03*
X31475000Y-38505000D03*
X31475000Y-37235000D03*
X31475000Y-35965000D03*
X31475000Y-34695000D03*
X31475000Y-33425000D03*
X31475000Y-32155000D03*
%TD*%
D33*
%TO.C,U1*%
X95850000Y-17850000D03*
X95850000Y-16150000D03*
X94150000Y-17850000D03*
X94150000Y-16150000D03*
D34*
X98450000Y-19800000D03*
X98450000Y-19400000D03*
X98450000Y-19000000D03*
X98450000Y-18600000D03*
X98450000Y-18200000D03*
X98450000Y-17800000D03*
X98450000Y-17400000D03*
X98450000Y-17000000D03*
X98450000Y-16600000D03*
X98450000Y-16200000D03*
X98450000Y-15800000D03*
X98450000Y-15400000D03*
X98450000Y-15000000D03*
X98450000Y-14600000D03*
X98450000Y-14200000D03*
D35*
X97800000Y-13550000D03*
X97400000Y-13550000D03*
X97000000Y-13550000D03*
X96600000Y-13550000D03*
X96200000Y-13550000D03*
X95800000Y-13550000D03*
X95400000Y-13550000D03*
X95000000Y-13550000D03*
X94600000Y-13550000D03*
X94200000Y-13550000D03*
X93800000Y-13550000D03*
X93400000Y-13550000D03*
X93000000Y-13550000D03*
X92600000Y-13550000D03*
X92200000Y-13550000D03*
D34*
X91550000Y-14200000D03*
X91550000Y-14600000D03*
X91550000Y-15000000D03*
X91550000Y-15400000D03*
X91550000Y-15800000D03*
X91550000Y-16200000D03*
X91550000Y-16600000D03*
X91550000Y-17000000D03*
X91550000Y-17400000D03*
X91550000Y-17800000D03*
X91550000Y-18200000D03*
X91550000Y-18600000D03*
X91550000Y-19000000D03*
X91550000Y-19400000D03*
X91550000Y-19800000D03*
D35*
X92200000Y-20450000D03*
X92600000Y-20450000D03*
X93000000Y-20450000D03*
X93400000Y-20450000D03*
X93800000Y-20450000D03*
X94200000Y-20450000D03*
X94600000Y-20450000D03*
X95000000Y-20450000D03*
X95400000Y-20450000D03*
X95800000Y-20450000D03*
X96200000Y-20450000D03*
X96600000Y-20450000D03*
X97000000Y-20450000D03*
X97400000Y-20450000D03*
X97800000Y-20450000D03*
%TD*%
D17*
%TO.C,R10*%
X66775000Y-36000000D03*
X68425000Y-36000000D03*
%TD*%
D24*
%TO.C,D1*%
X107712500Y-13000000D03*
X109287500Y-13000000D03*
%TD*%
D17*
%TO.C,R2*%
X107675000Y-15000000D03*
X109325000Y-15000000D03*
%TD*%
D36*
%TO.C,Q1*%
X23062500Y-14050000D03*
X23062500Y-15950000D03*
X24937500Y-15000000D03*
%TD*%
D23*
%TO.C,C26*%
X45825000Y-32200000D03*
X47375000Y-32200000D03*
%TD*%
D11*
%TO.C,RN7*%
X20800000Y-27700000D03*
D12*
X20000000Y-27700000D03*
X19200000Y-27700000D03*
D11*
X18400000Y-27700000D03*
X18400000Y-29500000D03*
D12*
X19200000Y-29500000D03*
X20000000Y-29500000D03*
D11*
X20800000Y-29500000D03*
%TD*%
D16*
%TO.C,R18*%
X70100000Y-29825000D03*
X70100000Y-28175000D03*
%TD*%
D25*
%TO.C,C18*%
X90280000Y-18200000D03*
X89320000Y-18200000D03*
%TD*%
D26*
%TO.C,U7*%
X79150000Y-18270000D03*
X79150000Y-15730000D03*
X72850000Y-15730000D03*
X72850000Y-17000000D03*
X72850000Y-18270000D03*
%TD*%
D37*
%TO.C,R9*%
X103690000Y-15000000D03*
X104710000Y-15000000D03*
%TD*%
D38*
%TO.C,U9*%
X72850000Y-27730000D03*
X72850000Y-30270000D03*
X79150000Y-30270000D03*
X79150000Y-29000000D03*
X79150000Y-27730000D03*
%TD*%
D39*
%TO.C,R8*%
X100100000Y-22090000D03*
X100100000Y-23110000D03*
%TD*%
D13*
%TO.C,C4*%
X91600000Y-34275000D03*
X91600000Y-32725000D03*
%TD*%
D20*
%TO.C,C7*%
X99870000Y-13900000D03*
X100830000Y-13900000D03*
%TD*%
D15*
%TO.C,U10*%
X38525000Y-32155000D03*
X38525000Y-33425000D03*
X38525000Y-34695000D03*
X38525000Y-35965000D03*
X38525000Y-37235000D03*
X38525000Y-38505000D03*
X38525000Y-39775000D03*
X38525000Y-41045000D03*
X43475000Y-41045000D03*
X43475000Y-39775000D03*
X43475000Y-38505000D03*
X43475000Y-37235000D03*
X43475000Y-35965000D03*
X43475000Y-34695000D03*
X43475000Y-33425000D03*
X43475000Y-32155000D03*
%TD*%
D23*
%TO.C,C23*%
X66825000Y-41600000D03*
X68375000Y-41600000D03*
%TD*%
D15*
%TO.C,U13*%
X14525000Y-32155000D03*
X14525000Y-33425000D03*
X14525000Y-34695000D03*
X14525000Y-35965000D03*
X14525000Y-37235000D03*
X14525000Y-38505000D03*
X14525000Y-39775000D03*
X14525000Y-41045000D03*
X19475000Y-41045000D03*
X19475000Y-39775000D03*
X19475000Y-38505000D03*
X19475000Y-37235000D03*
X19475000Y-35965000D03*
X19475000Y-34695000D03*
X19475000Y-33425000D03*
X19475000Y-32155000D03*
%TD*%
D25*
%TO.C,C16*%
X91880000Y-25600000D03*
X90920000Y-25600000D03*
%TD*%
D13*
%TO.C,C37*%
X81900000Y-29775000D03*
X81900000Y-28225000D03*
%TD*%
D25*
%TO.C,C12*%
X90280000Y-19500000D03*
X89320000Y-19500000D03*
%TD*%
D14*
%TO.C,R5*%
X95700000Y-24910000D03*
X95700000Y-23890000D03*
%TD*%
D23*
%TO.C,C1*%
X108725000Y-26700000D03*
X110275000Y-26700000D03*
%TD*%
D16*
%TO.C,R12*%
X24000000Y-12325000D03*
X24000000Y-10675000D03*
%TD*%
M02*
