%TF.GenerationSoftware,KiCad,Pcbnew,10.0.6-10.0.6~ubuntu24.04.1*%
%TF.CreationDate,2026-10-07T06:03:25+00:00*%
%TF.ProjectId,solartron_7075_interface,736f6c61-7274-4726-9f6e-5f373037355f,rev?*%
%TF.SameCoordinates,Original*%
%TF.FileFunction,Legend,Top*%
%TF.FilePolarity,Positive*%
%FSLAX46Y46*%
G04 Gerber Fmt 4.6, Leading zero omitted, Abs format (unit mm)*
G04 Created by KiCad (PCBNEW 10.0.6-10.0.6~ubuntu24.04.1) date 2026-10-07 06:03:25*
%MOMM*%
%LPD*%
G01*
G04 APERTURE LIST*
%ADD10C,0.120000*%
%ADD11C,0.150000*%
G04 APERTURE END LIST*
D10*
X30609523Y-43363855D02*
X30609523Y-42563855D01*
X30952379Y-43325760D02*
X31066665Y-43363855D01*
X31066665Y-43363855D02*
X31257141Y-43363855D01*
X31257141Y-43363855D02*
X31333332Y-43325760D01*
X31333332Y-43325760D02*
X31371427Y-43287664D01*
X31371427Y-43287664D02*
X31409522Y-43211474D01*
X31409522Y-43211474D02*
X31409522Y-43135283D01*
X31409522Y-43135283D02*
X31371427Y-43059093D01*
X31371427Y-43059093D02*
X31333332Y-43020998D01*
X31333332Y-43020998D02*
X31257141Y-42982902D01*
X31257141Y-42982902D02*
X31104760Y-42944807D01*
X31104760Y-42944807D02*
X31028570Y-42906712D01*
X31028570Y-42906712D02*
X30990475Y-42868617D01*
X30990475Y-42868617D02*
X30952379Y-42792426D01*
X30952379Y-42792426D02*
X30952379Y-42716236D01*
X30952379Y-42716236D02*
X30990475Y-42640045D01*
X30990475Y-42640045D02*
X31028570Y-42601950D01*
X31028570Y-42601950D02*
X31104760Y-42563855D01*
X31104760Y-42563855D02*
X31295237Y-42563855D01*
X31295237Y-42563855D02*
X31409522Y-42601950D01*
X31904761Y-42563855D02*
X32057142Y-42563855D01*
X32057142Y-42563855D02*
X32133332Y-42601950D01*
X32133332Y-42601950D02*
X32209523Y-42678140D01*
X32209523Y-42678140D02*
X32247618Y-42830521D01*
X32247618Y-42830521D02*
X32247618Y-43097188D01*
X32247618Y-43097188D02*
X32209523Y-43249569D01*
X32209523Y-43249569D02*
X32133332Y-43325760D01*
X32133332Y-43325760D02*
X32057142Y-43363855D01*
X32057142Y-43363855D02*
X31904761Y-43363855D01*
X31904761Y-43363855D02*
X31828570Y-43325760D01*
X31828570Y-43325760D02*
X31752380Y-43249569D01*
X31752380Y-43249569D02*
X31714284Y-43097188D01*
X31714284Y-43097188D02*
X31714284Y-42830521D01*
X31714284Y-42830521D02*
X31752380Y-42678140D01*
X31752380Y-42678140D02*
X31828570Y-42601950D01*
X31828570Y-42601950D02*
X31904761Y-42563855D01*
X32971427Y-43363855D02*
X32590475Y-43363855D01*
X32590475Y-43363855D02*
X32590475Y-42563855D01*
X33199998Y-43135283D02*
X33580951Y-43135283D01*
X33123808Y-43363855D02*
X33390475Y-42563855D01*
X33390475Y-42563855D02*
X33657141Y-43363855D01*
X33809522Y-42563855D02*
X34266665Y-42563855D01*
X34038093Y-43363855D02*
X34038093Y-42563855D01*
X34533332Y-42944807D02*
X34799998Y-42944807D01*
X34914284Y-43363855D02*
X34533332Y-43363855D01*
X34533332Y-43363855D02*
X34533332Y-42563855D01*
X34533332Y-42563855D02*
X34914284Y-42563855D01*
X35257142Y-43363855D02*
X35257142Y-42563855D01*
X35257142Y-42563855D02*
X35447618Y-42563855D01*
X35447618Y-42563855D02*
X35561904Y-42601950D01*
X35561904Y-42601950D02*
X35638094Y-42678140D01*
X35638094Y-42678140D02*
X35676189Y-42754331D01*
X35676189Y-42754331D02*
X35714285Y-42906712D01*
X35714285Y-42906712D02*
X35714285Y-43020998D01*
X35714285Y-43020998D02*
X35676189Y-43173379D01*
X35676189Y-43173379D02*
X35638094Y-43249569D01*
X35638094Y-43249569D02*
X35561904Y-43325760D01*
X35561904Y-43325760D02*
X35447618Y-43363855D01*
X35447618Y-43363855D02*
X35257142Y-43363855D01*
X36895237Y-43668617D02*
X36857142Y-43630521D01*
X36857142Y-43630521D02*
X36780951Y-43516236D01*
X36780951Y-43516236D02*
X36742856Y-43440045D01*
X36742856Y-43440045D02*
X36704761Y-43325760D01*
X36704761Y-43325760D02*
X36666666Y-43135283D01*
X36666666Y-43135283D02*
X36666666Y-42982902D01*
X36666666Y-42982902D02*
X36704761Y-42792426D01*
X36704761Y-42792426D02*
X36742856Y-42678140D01*
X36742856Y-42678140D02*
X36780951Y-42601950D01*
X36780951Y-42601950D02*
X36857142Y-42487664D01*
X36857142Y-42487664D02*
X36895237Y-42449569D01*
X37199999Y-43363855D02*
X37199999Y-42563855D01*
X37199999Y-42563855D02*
X37466665Y-43135283D01*
X37466665Y-43135283D02*
X37733332Y-42563855D01*
X37733332Y-42563855D02*
X37733332Y-43363855D01*
X38114285Y-42944807D02*
X38380951Y-42944807D01*
X38495237Y-43363855D02*
X38114285Y-43363855D01*
X38114285Y-43363855D02*
X38114285Y-42563855D01*
X38114285Y-42563855D02*
X38495237Y-42563855D01*
X38723809Y-42563855D02*
X39180952Y-42563855D01*
X38952380Y-43363855D02*
X38952380Y-42563855D01*
X39447619Y-42944807D02*
X39714285Y-42944807D01*
X39828571Y-43363855D02*
X39447619Y-43363855D01*
X39447619Y-43363855D02*
X39447619Y-42563855D01*
X39447619Y-42563855D02*
X39828571Y-42563855D01*
X40628572Y-43363855D02*
X40361905Y-42982902D01*
X40171429Y-43363855D02*
X40171429Y-42563855D01*
X40171429Y-42563855D02*
X40476191Y-42563855D01*
X40476191Y-42563855D02*
X40552381Y-42601950D01*
X40552381Y-42601950D02*
X40590476Y-42640045D01*
X40590476Y-42640045D02*
X40628572Y-42716236D01*
X40628572Y-42716236D02*
X40628572Y-42830521D01*
X40628572Y-42830521D02*
X40590476Y-42906712D01*
X40590476Y-42906712D02*
X40552381Y-42944807D01*
X40552381Y-42944807D02*
X40476191Y-42982902D01*
X40476191Y-42982902D02*
X40171429Y-42982902D01*
X41580953Y-42944807D02*
X41847619Y-42944807D01*
X41961905Y-43363855D02*
X41580953Y-43363855D01*
X41580953Y-43363855D02*
X41580953Y-42563855D01*
X41580953Y-42563855D02*
X41961905Y-42563855D01*
X42266667Y-43135283D02*
X42647620Y-43135283D01*
X42190477Y-43363855D02*
X42457144Y-42563855D01*
X42457144Y-42563855D02*
X42723810Y-43363855D01*
X43447620Y-43363855D02*
X43180953Y-42982902D01*
X42990477Y-43363855D02*
X42990477Y-42563855D01*
X42990477Y-42563855D02*
X43295239Y-42563855D01*
X43295239Y-42563855D02*
X43371429Y-42601950D01*
X43371429Y-42601950D02*
X43409524Y-42640045D01*
X43409524Y-42640045D02*
X43447620Y-42716236D01*
X43447620Y-42716236D02*
X43447620Y-42830521D01*
X43447620Y-42830521D02*
X43409524Y-42906712D01*
X43409524Y-42906712D02*
X43371429Y-42944807D01*
X43371429Y-42944807D02*
X43295239Y-42982902D01*
X43295239Y-42982902D02*
X42990477Y-42982902D01*
X43676191Y-42563855D02*
X44133334Y-42563855D01*
X43904762Y-43363855D02*
X43904762Y-42563855D01*
X44400001Y-43363855D02*
X44400001Y-42563855D01*
X44400001Y-42944807D02*
X44857144Y-42944807D01*
X44857144Y-43363855D02*
X44857144Y-42563855D01*
X45161905Y-43668617D02*
X45200000Y-43630521D01*
X45200000Y-43630521D02*
X45276191Y-43516236D01*
X45276191Y-43516236D02*
X45314286Y-43440045D01*
X45314286Y-43440045D02*
X45352381Y-43325760D01*
X45352381Y-43325760D02*
X45390477Y-43135283D01*
X45390477Y-43135283D02*
X45390477Y-42982902D01*
X45390477Y-42982902D02*
X45352381Y-42792426D01*
X45352381Y-42792426D02*
X45314286Y-42678140D01*
X45314286Y-42678140D02*
X45276191Y-42601950D01*
X45276191Y-42601950D02*
X45200000Y-42487664D01*
X45200000Y-42487664D02*
X45161905Y-42449569D01*
X98104762Y-42463855D02*
X98104762Y-43111474D01*
X98104762Y-43111474D02*
X98142857Y-43187664D01*
X98142857Y-43187664D02*
X98180952Y-43225760D01*
X98180952Y-43225760D02*
X98257143Y-43263855D01*
X98257143Y-43263855D02*
X98409524Y-43263855D01*
X98409524Y-43263855D02*
X98485714Y-43225760D01*
X98485714Y-43225760D02*
X98523809Y-43187664D01*
X98523809Y-43187664D02*
X98561905Y-43111474D01*
X98561905Y-43111474D02*
X98561905Y-42463855D01*
X98904761Y-43225760D02*
X99019047Y-43263855D01*
X99019047Y-43263855D02*
X99209523Y-43263855D01*
X99209523Y-43263855D02*
X99285714Y-43225760D01*
X99285714Y-43225760D02*
X99323809Y-43187664D01*
X99323809Y-43187664D02*
X99361904Y-43111474D01*
X99361904Y-43111474D02*
X99361904Y-43035283D01*
X99361904Y-43035283D02*
X99323809Y-42959093D01*
X99323809Y-42959093D02*
X99285714Y-42920998D01*
X99285714Y-42920998D02*
X99209523Y-42882902D01*
X99209523Y-42882902D02*
X99057142Y-42844807D01*
X99057142Y-42844807D02*
X98980952Y-42806712D01*
X98980952Y-42806712D02*
X98942857Y-42768617D01*
X98942857Y-42768617D02*
X98904761Y-42692426D01*
X98904761Y-42692426D02*
X98904761Y-42616236D01*
X98904761Y-42616236D02*
X98942857Y-42540045D01*
X98942857Y-42540045D02*
X98980952Y-42501950D01*
X98980952Y-42501950D02*
X99057142Y-42463855D01*
X99057142Y-42463855D02*
X99247619Y-42463855D01*
X99247619Y-42463855D02*
X99361904Y-42501950D01*
X99971428Y-42844807D02*
X100085714Y-42882902D01*
X100085714Y-42882902D02*
X100123809Y-42920998D01*
X100123809Y-42920998D02*
X100161905Y-42997188D01*
X100161905Y-42997188D02*
X100161905Y-43111474D01*
X100161905Y-43111474D02*
X100123809Y-43187664D01*
X100123809Y-43187664D02*
X100085714Y-43225760D01*
X100085714Y-43225760D02*
X100009524Y-43263855D01*
X100009524Y-43263855D02*
X99704762Y-43263855D01*
X99704762Y-43263855D02*
X99704762Y-42463855D01*
X99704762Y-42463855D02*
X99971428Y-42463855D01*
X99971428Y-42463855D02*
X100047619Y-42501950D01*
X100047619Y-42501950D02*
X100085714Y-42540045D01*
X100085714Y-42540045D02*
X100123809Y-42616236D01*
X100123809Y-42616236D02*
X100123809Y-42692426D01*
X100123809Y-42692426D02*
X100085714Y-42768617D01*
X100085714Y-42768617D02*
X100047619Y-42806712D01*
X100047619Y-42806712D02*
X99971428Y-42844807D01*
X99971428Y-42844807D02*
X99704762Y-42844807D01*
X101342857Y-43568617D02*
X101304762Y-43530521D01*
X101304762Y-43530521D02*
X101228571Y-43416236D01*
X101228571Y-43416236D02*
X101190476Y-43340045D01*
X101190476Y-43340045D02*
X101152381Y-43225760D01*
X101152381Y-43225760D02*
X101114286Y-43035283D01*
X101114286Y-43035283D02*
X101114286Y-42882902D01*
X101114286Y-42882902D02*
X101152381Y-42692426D01*
X101152381Y-42692426D02*
X101190476Y-42578140D01*
X101190476Y-42578140D02*
X101228571Y-42501950D01*
X101228571Y-42501950D02*
X101304762Y-42387664D01*
X101304762Y-42387664D02*
X101342857Y-42349569D01*
X101647619Y-43263855D02*
X101647619Y-42463855D01*
X101647619Y-42844807D02*
X102104762Y-42844807D01*
X102104762Y-43263855D02*
X102104762Y-42463855D01*
X102638095Y-42463855D02*
X102790476Y-42463855D01*
X102790476Y-42463855D02*
X102866666Y-42501950D01*
X102866666Y-42501950D02*
X102942857Y-42578140D01*
X102942857Y-42578140D02*
X102980952Y-42730521D01*
X102980952Y-42730521D02*
X102980952Y-42997188D01*
X102980952Y-42997188D02*
X102942857Y-43149569D01*
X102942857Y-43149569D02*
X102866666Y-43225760D01*
X102866666Y-43225760D02*
X102790476Y-43263855D01*
X102790476Y-43263855D02*
X102638095Y-43263855D01*
X102638095Y-43263855D02*
X102561904Y-43225760D01*
X102561904Y-43225760D02*
X102485714Y-43149569D01*
X102485714Y-43149569D02*
X102447618Y-42997188D01*
X102447618Y-42997188D02*
X102447618Y-42730521D01*
X102447618Y-42730521D02*
X102485714Y-42578140D01*
X102485714Y-42578140D02*
X102561904Y-42501950D01*
X102561904Y-42501950D02*
X102638095Y-42463855D01*
X103285713Y-43225760D02*
X103399999Y-43263855D01*
X103399999Y-43263855D02*
X103590475Y-43263855D01*
X103590475Y-43263855D02*
X103666666Y-43225760D01*
X103666666Y-43225760D02*
X103704761Y-43187664D01*
X103704761Y-43187664D02*
X103742856Y-43111474D01*
X103742856Y-43111474D02*
X103742856Y-43035283D01*
X103742856Y-43035283D02*
X103704761Y-42959093D01*
X103704761Y-42959093D02*
X103666666Y-42920998D01*
X103666666Y-42920998D02*
X103590475Y-42882902D01*
X103590475Y-42882902D02*
X103438094Y-42844807D01*
X103438094Y-42844807D02*
X103361904Y-42806712D01*
X103361904Y-42806712D02*
X103323809Y-42768617D01*
X103323809Y-42768617D02*
X103285713Y-42692426D01*
X103285713Y-42692426D02*
X103285713Y-42616236D01*
X103285713Y-42616236D02*
X103323809Y-42540045D01*
X103323809Y-42540045D02*
X103361904Y-42501950D01*
X103361904Y-42501950D02*
X103438094Y-42463855D01*
X103438094Y-42463855D02*
X103628571Y-42463855D01*
X103628571Y-42463855D02*
X103742856Y-42501950D01*
X103971428Y-42463855D02*
X104428571Y-42463855D01*
X104199999Y-43263855D02*
X104199999Y-42463855D01*
X105723809Y-42501950D02*
X105647619Y-42463855D01*
X105647619Y-42463855D02*
X105533333Y-42463855D01*
X105533333Y-42463855D02*
X105419047Y-42501950D01*
X105419047Y-42501950D02*
X105342857Y-42578140D01*
X105342857Y-42578140D02*
X105304762Y-42654331D01*
X105304762Y-42654331D02*
X105266666Y-42806712D01*
X105266666Y-42806712D02*
X105266666Y-42920998D01*
X105266666Y-42920998D02*
X105304762Y-43073379D01*
X105304762Y-43073379D02*
X105342857Y-43149569D01*
X105342857Y-43149569D02*
X105419047Y-43225760D01*
X105419047Y-43225760D02*
X105533333Y-43263855D01*
X105533333Y-43263855D02*
X105609524Y-43263855D01*
X105609524Y-43263855D02*
X105723809Y-43225760D01*
X105723809Y-43225760D02*
X105761905Y-43187664D01*
X105761905Y-43187664D02*
X105761905Y-42920998D01*
X105761905Y-42920998D02*
X105609524Y-42920998D01*
X106104762Y-43263855D02*
X106104762Y-42463855D01*
X106104762Y-42463855D02*
X106561905Y-43263855D01*
X106561905Y-43263855D02*
X106561905Y-42463855D01*
X106942857Y-43263855D02*
X106942857Y-42463855D01*
X106942857Y-42463855D02*
X107133333Y-42463855D01*
X107133333Y-42463855D02*
X107247619Y-42501950D01*
X107247619Y-42501950D02*
X107323809Y-42578140D01*
X107323809Y-42578140D02*
X107361904Y-42654331D01*
X107361904Y-42654331D02*
X107400000Y-42806712D01*
X107400000Y-42806712D02*
X107400000Y-42920998D01*
X107400000Y-42920998D02*
X107361904Y-43073379D01*
X107361904Y-43073379D02*
X107323809Y-43149569D01*
X107323809Y-43149569D02*
X107247619Y-43225760D01*
X107247619Y-43225760D02*
X107133333Y-43263855D01*
X107133333Y-43263855D02*
X106942857Y-43263855D01*
X107666666Y-43568617D02*
X107704761Y-43530521D01*
X107704761Y-43530521D02*
X107780952Y-43416236D01*
X107780952Y-43416236D02*
X107819047Y-43340045D01*
X107819047Y-43340045D02*
X107857142Y-43225760D01*
X107857142Y-43225760D02*
X107895238Y-43035283D01*
X107895238Y-43035283D02*
X107895238Y-42882902D01*
X107895238Y-42882902D02*
X107857142Y-42692426D01*
X107857142Y-42692426D02*
X107819047Y-42578140D01*
X107819047Y-42578140D02*
X107780952Y-42501950D01*
X107780952Y-42501950D02*
X107704761Y-42387664D01*
X107704761Y-42387664D02*
X107666666Y-42349569D01*
D11*
X28714285Y-1807200D02*
X28857142Y-1854819D01*
X28857142Y-1854819D02*
X29095237Y-1854819D01*
X29095237Y-1854819D02*
X29190475Y-1807200D01*
X29190475Y-1807200D02*
X29238094Y-1759580D01*
X29238094Y-1759580D02*
X29285713Y-1664342D01*
X29285713Y-1664342D02*
X29285713Y-1569104D01*
X29285713Y-1569104D02*
X29238094Y-1473866D01*
X29238094Y-1473866D02*
X29190475Y-1426247D01*
X29190475Y-1426247D02*
X29095237Y-1378628D01*
X29095237Y-1378628D02*
X28904761Y-1331009D01*
X28904761Y-1331009D02*
X28809523Y-1283390D01*
X28809523Y-1283390D02*
X28761904Y-1235771D01*
X28761904Y-1235771D02*
X28714285Y-1140533D01*
X28714285Y-1140533D02*
X28714285Y-1045295D01*
X28714285Y-1045295D02*
X28761904Y-950057D01*
X28761904Y-950057D02*
X28809523Y-902438D01*
X28809523Y-902438D02*
X28904761Y-854819D01*
X28904761Y-854819D02*
X29142856Y-854819D01*
X29142856Y-854819D02*
X29285713Y-902438D01*
X29904761Y-854819D02*
X30095237Y-854819D01*
X30095237Y-854819D02*
X30190475Y-902438D01*
X30190475Y-902438D02*
X30285713Y-997676D01*
X30285713Y-997676D02*
X30333332Y-1188152D01*
X30333332Y-1188152D02*
X30333332Y-1521485D01*
X30333332Y-1521485D02*
X30285713Y-1711961D01*
X30285713Y-1711961D02*
X30190475Y-1807200D01*
X30190475Y-1807200D02*
X30095237Y-1854819D01*
X30095237Y-1854819D02*
X29904761Y-1854819D01*
X29904761Y-1854819D02*
X29809523Y-1807200D01*
X29809523Y-1807200D02*
X29714285Y-1711961D01*
X29714285Y-1711961D02*
X29666666Y-1521485D01*
X29666666Y-1521485D02*
X29666666Y-1188152D01*
X29666666Y-1188152D02*
X29714285Y-997676D01*
X29714285Y-997676D02*
X29809523Y-902438D01*
X29809523Y-902438D02*
X29904761Y-854819D01*
X31238094Y-1854819D02*
X30761904Y-1854819D01*
X30761904Y-1854819D02*
X30761904Y-854819D01*
X31523809Y-1569104D02*
X31999999Y-1569104D01*
X31428571Y-1854819D02*
X31761904Y-854819D01*
X31761904Y-854819D02*
X32095237Y-1854819D01*
X32999999Y-1854819D02*
X32666666Y-1378628D01*
X32428571Y-1854819D02*
X32428571Y-854819D01*
X32428571Y-854819D02*
X32809523Y-854819D01*
X32809523Y-854819D02*
X32904761Y-902438D01*
X32904761Y-902438D02*
X32952380Y-950057D01*
X32952380Y-950057D02*
X32999999Y-1045295D01*
X32999999Y-1045295D02*
X32999999Y-1188152D01*
X32999999Y-1188152D02*
X32952380Y-1283390D01*
X32952380Y-1283390D02*
X32904761Y-1331009D01*
X32904761Y-1331009D02*
X32809523Y-1378628D01*
X32809523Y-1378628D02*
X32428571Y-1378628D01*
X33285714Y-854819D02*
X33857142Y-854819D01*
X33571428Y-1854819D02*
X33571428Y-854819D01*
X34761904Y-1854819D02*
X34428571Y-1378628D01*
X34190476Y-1854819D02*
X34190476Y-854819D01*
X34190476Y-854819D02*
X34571428Y-854819D01*
X34571428Y-854819D02*
X34666666Y-902438D01*
X34666666Y-902438D02*
X34714285Y-950057D01*
X34714285Y-950057D02*
X34761904Y-1045295D01*
X34761904Y-1045295D02*
X34761904Y-1188152D01*
X34761904Y-1188152D02*
X34714285Y-1283390D01*
X34714285Y-1283390D02*
X34666666Y-1331009D01*
X34666666Y-1331009D02*
X34571428Y-1378628D01*
X34571428Y-1378628D02*
X34190476Y-1378628D01*
X35380952Y-854819D02*
X35571428Y-854819D01*
X35571428Y-854819D02*
X35666666Y-902438D01*
X35666666Y-902438D02*
X35761904Y-997676D01*
X35761904Y-997676D02*
X35809523Y-1188152D01*
X35809523Y-1188152D02*
X35809523Y-1521485D01*
X35809523Y-1521485D02*
X35761904Y-1711961D01*
X35761904Y-1711961D02*
X35666666Y-1807200D01*
X35666666Y-1807200D02*
X35571428Y-1854819D01*
X35571428Y-1854819D02*
X35380952Y-1854819D01*
X35380952Y-1854819D02*
X35285714Y-1807200D01*
X35285714Y-1807200D02*
X35190476Y-1711961D01*
X35190476Y-1711961D02*
X35142857Y-1521485D01*
X35142857Y-1521485D02*
X35142857Y-1188152D01*
X35142857Y-1188152D02*
X35190476Y-997676D01*
X35190476Y-997676D02*
X35285714Y-902438D01*
X35285714Y-902438D02*
X35380952Y-854819D01*
X36238095Y-1854819D02*
X36238095Y-854819D01*
X36238095Y-854819D02*
X36809523Y-1854819D01*
X36809523Y-1854819D02*
X36809523Y-854819D01*
X37952381Y-854819D02*
X38619047Y-854819D01*
X38619047Y-854819D02*
X38190476Y-1854819D01*
X39190476Y-854819D02*
X39285714Y-854819D01*
X39285714Y-854819D02*
X39380952Y-902438D01*
X39380952Y-902438D02*
X39428571Y-950057D01*
X39428571Y-950057D02*
X39476190Y-1045295D01*
X39476190Y-1045295D02*
X39523809Y-1235771D01*
X39523809Y-1235771D02*
X39523809Y-1473866D01*
X39523809Y-1473866D02*
X39476190Y-1664342D01*
X39476190Y-1664342D02*
X39428571Y-1759580D01*
X39428571Y-1759580D02*
X39380952Y-1807200D01*
X39380952Y-1807200D02*
X39285714Y-1854819D01*
X39285714Y-1854819D02*
X39190476Y-1854819D01*
X39190476Y-1854819D02*
X39095238Y-1807200D01*
X39095238Y-1807200D02*
X39047619Y-1759580D01*
X39047619Y-1759580D02*
X39000000Y-1664342D01*
X39000000Y-1664342D02*
X38952381Y-1473866D01*
X38952381Y-1473866D02*
X38952381Y-1235771D01*
X38952381Y-1235771D02*
X39000000Y-1045295D01*
X39000000Y-1045295D02*
X39047619Y-950057D01*
X39047619Y-950057D02*
X39095238Y-902438D01*
X39095238Y-902438D02*
X39190476Y-854819D01*
X39857143Y-854819D02*
X40523809Y-854819D01*
X40523809Y-854819D02*
X40095238Y-1854819D01*
X41380952Y-854819D02*
X40904762Y-854819D01*
X40904762Y-854819D02*
X40857143Y-1331009D01*
X40857143Y-1331009D02*
X40904762Y-1283390D01*
X40904762Y-1283390D02*
X41000000Y-1235771D01*
X41000000Y-1235771D02*
X41238095Y-1235771D01*
X41238095Y-1235771D02*
X41333333Y-1283390D01*
X41333333Y-1283390D02*
X41380952Y-1331009D01*
X41380952Y-1331009D02*
X41428571Y-1426247D01*
X41428571Y-1426247D02*
X41428571Y-1664342D01*
X41428571Y-1664342D02*
X41380952Y-1759580D01*
X41380952Y-1759580D02*
X41333333Y-1807200D01*
X41333333Y-1807200D02*
X41238095Y-1854819D01*
X41238095Y-1854819D02*
X41000000Y-1854819D01*
X41000000Y-1854819D02*
X40904762Y-1807200D01*
X40904762Y-1807200D02*
X40857143Y-1759580D01*
X42619048Y-854819D02*
X42619048Y-1664342D01*
X42619048Y-1664342D02*
X42666667Y-1759580D01*
X42666667Y-1759580D02*
X42714286Y-1807200D01*
X42714286Y-1807200D02*
X42809524Y-1854819D01*
X42809524Y-1854819D02*
X43000000Y-1854819D01*
X43000000Y-1854819D02*
X43095238Y-1807200D01*
X43095238Y-1807200D02*
X43142857Y-1759580D01*
X43142857Y-1759580D02*
X43190476Y-1664342D01*
X43190476Y-1664342D02*
X43190476Y-854819D01*
X43619048Y-1807200D02*
X43761905Y-1854819D01*
X43761905Y-1854819D02*
X44000000Y-1854819D01*
X44000000Y-1854819D02*
X44095238Y-1807200D01*
X44095238Y-1807200D02*
X44142857Y-1759580D01*
X44142857Y-1759580D02*
X44190476Y-1664342D01*
X44190476Y-1664342D02*
X44190476Y-1569104D01*
X44190476Y-1569104D02*
X44142857Y-1473866D01*
X44142857Y-1473866D02*
X44095238Y-1426247D01*
X44095238Y-1426247D02*
X44000000Y-1378628D01*
X44000000Y-1378628D02*
X43809524Y-1331009D01*
X43809524Y-1331009D02*
X43714286Y-1283390D01*
X43714286Y-1283390D02*
X43666667Y-1235771D01*
X43666667Y-1235771D02*
X43619048Y-1140533D01*
X43619048Y-1140533D02*
X43619048Y-1045295D01*
X43619048Y-1045295D02*
X43666667Y-950057D01*
X43666667Y-950057D02*
X43714286Y-902438D01*
X43714286Y-902438D02*
X43809524Y-854819D01*
X43809524Y-854819D02*
X44047619Y-854819D01*
X44047619Y-854819D02*
X44190476Y-902438D01*
X44952381Y-1331009D02*
X45095238Y-1378628D01*
X45095238Y-1378628D02*
X45142857Y-1426247D01*
X45142857Y-1426247D02*
X45190476Y-1521485D01*
X45190476Y-1521485D02*
X45190476Y-1664342D01*
X45190476Y-1664342D02*
X45142857Y-1759580D01*
X45142857Y-1759580D02*
X45095238Y-1807200D01*
X45095238Y-1807200D02*
X45000000Y-1854819D01*
X45000000Y-1854819D02*
X44619048Y-1854819D01*
X44619048Y-1854819D02*
X44619048Y-854819D01*
X44619048Y-854819D02*
X44952381Y-854819D01*
X44952381Y-854819D02*
X45047619Y-902438D01*
X45047619Y-902438D02*
X45095238Y-950057D01*
X45095238Y-950057D02*
X45142857Y-1045295D01*
X45142857Y-1045295D02*
X45142857Y-1140533D01*
X45142857Y-1140533D02*
X45095238Y-1235771D01*
X45095238Y-1235771D02*
X45047619Y-1283390D01*
X45047619Y-1283390D02*
X44952381Y-1331009D01*
X44952381Y-1331009D02*
X44619048Y-1331009D01*
X46380953Y-1854819D02*
X46380953Y-854819D01*
X47190476Y-1331009D02*
X46857143Y-1331009D01*
X46857143Y-1854819D02*
X46857143Y-854819D01*
X46857143Y-854819D02*
X47333333Y-854819D01*
D10*
X30009524Y-8563855D02*
X30009524Y-9211474D01*
X30009524Y-9211474D02*
X30047619Y-9287664D01*
X30047619Y-9287664D02*
X30085714Y-9325760D01*
X30085714Y-9325760D02*
X30161905Y-9363855D01*
X30161905Y-9363855D02*
X30314286Y-9363855D01*
X30314286Y-9363855D02*
X30390476Y-9325760D01*
X30390476Y-9325760D02*
X30428571Y-9287664D01*
X30428571Y-9287664D02*
X30466667Y-9211474D01*
X30466667Y-9211474D02*
X30466667Y-8563855D01*
X31266666Y-9363855D02*
X30809523Y-9363855D01*
X31038095Y-9363855D02*
X31038095Y-8563855D01*
X31038095Y-8563855D02*
X30961904Y-8678140D01*
X30961904Y-8678140D02*
X30885714Y-8754331D01*
X30885714Y-8754331D02*
X30809523Y-8792426D01*
X31990476Y-8563855D02*
X31609524Y-8563855D01*
X31609524Y-8563855D02*
X31571428Y-8944807D01*
X31571428Y-8944807D02*
X31609524Y-8906712D01*
X31609524Y-8906712D02*
X31685714Y-8868617D01*
X31685714Y-8868617D02*
X31876190Y-8868617D01*
X31876190Y-8868617D02*
X31952381Y-8906712D01*
X31952381Y-8906712D02*
X31990476Y-8944807D01*
X31990476Y-8944807D02*
X32028571Y-9020998D01*
X32028571Y-9020998D02*
X32028571Y-9211474D01*
X32028571Y-9211474D02*
X31990476Y-9287664D01*
X31990476Y-9287664D02*
X31952381Y-9325760D01*
X31952381Y-9325760D02*
X31876190Y-9363855D01*
X31876190Y-9363855D02*
X31685714Y-9363855D01*
X31685714Y-9363855D02*
X31609524Y-9325760D01*
X31609524Y-9325760D02*
X31571428Y-9287664D01*
X12509524Y-8563855D02*
X12509524Y-9211474D01*
X12509524Y-9211474D02*
X12547619Y-9287664D01*
X12547619Y-9287664D02*
X12585714Y-9325760D01*
X12585714Y-9325760D02*
X12661905Y-9363855D01*
X12661905Y-9363855D02*
X12814286Y-9363855D01*
X12814286Y-9363855D02*
X12890476Y-9325760D01*
X12890476Y-9325760D02*
X12928571Y-9287664D01*
X12928571Y-9287664D02*
X12966667Y-9211474D01*
X12966667Y-9211474D02*
X12966667Y-8563855D01*
X13766666Y-9363855D02*
X13309523Y-9363855D01*
X13538095Y-9363855D02*
X13538095Y-8563855D01*
X13538095Y-8563855D02*
X13461904Y-8678140D01*
X13461904Y-8678140D02*
X13385714Y-8754331D01*
X13385714Y-8754331D02*
X13309523Y-8792426D01*
X14452381Y-8830521D02*
X14452381Y-9363855D01*
X14261905Y-8525760D02*
X14071428Y-9097188D01*
X14071428Y-9097188D02*
X14566667Y-9097188D01*
X86433332Y-4125760D02*
X86547618Y-4163855D01*
X86547618Y-4163855D02*
X86738094Y-4163855D01*
X86738094Y-4163855D02*
X86814285Y-4125760D01*
X86814285Y-4125760D02*
X86852380Y-4087664D01*
X86852380Y-4087664D02*
X86890475Y-4011474D01*
X86890475Y-4011474D02*
X86890475Y-3935283D01*
X86890475Y-3935283D02*
X86852380Y-3859093D01*
X86852380Y-3859093D02*
X86814285Y-3820998D01*
X86814285Y-3820998D02*
X86738094Y-3782902D01*
X86738094Y-3782902D02*
X86585713Y-3744807D01*
X86585713Y-3744807D02*
X86509523Y-3706712D01*
X86509523Y-3706712D02*
X86471428Y-3668617D01*
X86471428Y-3668617D02*
X86433332Y-3592426D01*
X86433332Y-3592426D02*
X86433332Y-3516236D01*
X86433332Y-3516236D02*
X86471428Y-3440045D01*
X86471428Y-3440045D02*
X86509523Y-3401950D01*
X86509523Y-3401950D02*
X86585713Y-3363855D01*
X86585713Y-3363855D02*
X86776190Y-3363855D01*
X86776190Y-3363855D02*
X86890475Y-3401950D01*
X87157142Y-3363855D02*
X87347618Y-4163855D01*
X87347618Y-4163855D02*
X87499999Y-3592426D01*
X87499999Y-3592426D02*
X87652380Y-4163855D01*
X87652380Y-4163855D02*
X87842857Y-3363855D01*
X88109523Y-3440045D02*
X88147619Y-3401950D01*
X88147619Y-3401950D02*
X88223809Y-3363855D01*
X88223809Y-3363855D02*
X88414285Y-3363855D01*
X88414285Y-3363855D02*
X88490476Y-3401950D01*
X88490476Y-3401950D02*
X88528571Y-3440045D01*
X88528571Y-3440045D02*
X88566666Y-3516236D01*
X88566666Y-3516236D02*
X88566666Y-3592426D01*
X88566666Y-3592426D02*
X88528571Y-3706712D01*
X88528571Y-3706712D02*
X88071428Y-4163855D01*
X88071428Y-4163855D02*
X88566666Y-4163855D01*
X75153571Y-36183855D02*
X75153571Y-35383855D01*
X75153571Y-35383855D02*
X75458333Y-35383855D01*
X75458333Y-35383855D02*
X75534523Y-35421950D01*
X75534523Y-35421950D02*
X75572618Y-35460045D01*
X75572618Y-35460045D02*
X75610714Y-35536236D01*
X75610714Y-35536236D02*
X75610714Y-35650521D01*
X75610714Y-35650521D02*
X75572618Y-35726712D01*
X75572618Y-35726712D02*
X75534523Y-35764807D01*
X75534523Y-35764807D02*
X75458333Y-35802902D01*
X75458333Y-35802902D02*
X75153571Y-35802902D01*
X75915475Y-36145760D02*
X76029761Y-36183855D01*
X76029761Y-36183855D02*
X76220237Y-36183855D01*
X76220237Y-36183855D02*
X76296428Y-36145760D01*
X76296428Y-36145760D02*
X76334523Y-36107664D01*
X76334523Y-36107664D02*
X76372618Y-36031474D01*
X76372618Y-36031474D02*
X76372618Y-35955283D01*
X76372618Y-35955283D02*
X76334523Y-35879093D01*
X76334523Y-35879093D02*
X76296428Y-35840998D01*
X76296428Y-35840998D02*
X76220237Y-35802902D01*
X76220237Y-35802902D02*
X76067856Y-35764807D01*
X76067856Y-35764807D02*
X75991666Y-35726712D01*
X75991666Y-35726712D02*
X75953571Y-35688617D01*
X75953571Y-35688617D02*
X75915475Y-35612426D01*
X75915475Y-35612426D02*
X75915475Y-35536236D01*
X75915475Y-35536236D02*
X75953571Y-35460045D01*
X75953571Y-35460045D02*
X75991666Y-35421950D01*
X75991666Y-35421950D02*
X76067856Y-35383855D01*
X76067856Y-35383855D02*
X76258333Y-35383855D01*
X76258333Y-35383855D02*
X76372618Y-35421950D01*
X77134523Y-36183855D02*
X76677380Y-36183855D01*
X76905952Y-36183855D02*
X76905952Y-35383855D01*
X76905952Y-35383855D02*
X76829761Y-35498140D01*
X76829761Y-35498140D02*
X76753571Y-35574331D01*
X76753571Y-35574331D02*
X76677380Y-35612426D01*
X100290476Y-27563855D02*
X100290476Y-28211474D01*
X100290476Y-28211474D02*
X100328571Y-28287664D01*
X100328571Y-28287664D02*
X100366666Y-28325760D01*
X100366666Y-28325760D02*
X100442857Y-28363855D01*
X100442857Y-28363855D02*
X100595238Y-28363855D01*
X100595238Y-28363855D02*
X100671428Y-28325760D01*
X100671428Y-28325760D02*
X100709523Y-28287664D01*
X100709523Y-28287664D02*
X100747619Y-28211474D01*
X100747619Y-28211474D02*
X100747619Y-27563855D01*
X101052380Y-27563855D02*
X101547618Y-27563855D01*
X101547618Y-27563855D02*
X101280952Y-27868617D01*
X101280952Y-27868617D02*
X101395237Y-27868617D01*
X101395237Y-27868617D02*
X101471428Y-27906712D01*
X101471428Y-27906712D02*
X101509523Y-27944807D01*
X101509523Y-27944807D02*
X101547618Y-28020998D01*
X101547618Y-28020998D02*
X101547618Y-28211474D01*
X101547618Y-28211474D02*
X101509523Y-28287664D01*
X101509523Y-28287664D02*
X101471428Y-28325760D01*
X101471428Y-28325760D02*
X101395237Y-28363855D01*
X101395237Y-28363855D02*
X101166666Y-28363855D01*
X101166666Y-28363855D02*
X101090475Y-28325760D01*
X101090475Y-28325760D02*
X101052380Y-28287664D01*
X103733333Y-32413855D02*
X103733333Y-32985283D01*
X103733333Y-32985283D02*
X103695238Y-33099569D01*
X103695238Y-33099569D02*
X103619047Y-33175760D01*
X103619047Y-33175760D02*
X103504762Y-33213855D01*
X103504762Y-33213855D02*
X103428571Y-33213855D01*
X104076190Y-32490045D02*
X104114286Y-32451950D01*
X104114286Y-32451950D02*
X104190476Y-32413855D01*
X104190476Y-32413855D02*
X104380952Y-32413855D01*
X104380952Y-32413855D02*
X104457143Y-32451950D01*
X104457143Y-32451950D02*
X104495238Y-32490045D01*
X104495238Y-32490045D02*
X104533333Y-32566236D01*
X104533333Y-32566236D02*
X104533333Y-32642426D01*
X104533333Y-32642426D02*
X104495238Y-32756712D01*
X104495238Y-32756712D02*
X104038095Y-33213855D01*
X104038095Y-33213855D02*
X104533333Y-33213855D01*
X52009524Y-36163855D02*
X52009524Y-36811474D01*
X52009524Y-36811474D02*
X52047619Y-36887664D01*
X52047619Y-36887664D02*
X52085714Y-36925760D01*
X52085714Y-36925760D02*
X52161905Y-36963855D01*
X52161905Y-36963855D02*
X52314286Y-36963855D01*
X52314286Y-36963855D02*
X52390476Y-36925760D01*
X52390476Y-36925760D02*
X52428571Y-36887664D01*
X52428571Y-36887664D02*
X52466667Y-36811474D01*
X52466667Y-36811474D02*
X52466667Y-36163855D01*
X53266666Y-36963855D02*
X52809523Y-36963855D01*
X53038095Y-36963855D02*
X53038095Y-36163855D01*
X53038095Y-36163855D02*
X52961904Y-36278140D01*
X52961904Y-36278140D02*
X52885714Y-36354331D01*
X52885714Y-36354331D02*
X52809523Y-36392426D01*
X54028571Y-36963855D02*
X53571428Y-36963855D01*
X53800000Y-36963855D02*
X53800000Y-36163855D01*
X53800000Y-36163855D02*
X53723809Y-36278140D01*
X53723809Y-36278140D02*
X53647619Y-36354331D01*
X53647619Y-36354331D02*
X53571428Y-36392426D01*
X75390476Y-10563855D02*
X75390476Y-11211474D01*
X75390476Y-11211474D02*
X75428571Y-11287664D01*
X75428571Y-11287664D02*
X75466666Y-11325760D01*
X75466666Y-11325760D02*
X75542857Y-11363855D01*
X75542857Y-11363855D02*
X75695238Y-11363855D01*
X75695238Y-11363855D02*
X75771428Y-11325760D01*
X75771428Y-11325760D02*
X75809523Y-11287664D01*
X75809523Y-11287664D02*
X75847619Y-11211474D01*
X75847619Y-11211474D02*
X75847619Y-10563855D01*
X76571428Y-10563855D02*
X76419047Y-10563855D01*
X76419047Y-10563855D02*
X76342856Y-10601950D01*
X76342856Y-10601950D02*
X76304761Y-10640045D01*
X76304761Y-10640045D02*
X76228571Y-10754331D01*
X76228571Y-10754331D02*
X76190475Y-10906712D01*
X76190475Y-10906712D02*
X76190475Y-11211474D01*
X76190475Y-11211474D02*
X76228571Y-11287664D01*
X76228571Y-11287664D02*
X76266666Y-11325760D01*
X76266666Y-11325760D02*
X76342856Y-11363855D01*
X76342856Y-11363855D02*
X76495237Y-11363855D01*
X76495237Y-11363855D02*
X76571428Y-11325760D01*
X76571428Y-11325760D02*
X76609523Y-11287664D01*
X76609523Y-11287664D02*
X76647618Y-11211474D01*
X76647618Y-11211474D02*
X76647618Y-11020998D01*
X76647618Y-11020998D02*
X76609523Y-10944807D01*
X76609523Y-10944807D02*
X76571428Y-10906712D01*
X76571428Y-10906712D02*
X76495237Y-10868617D01*
X76495237Y-10868617D02*
X76342856Y-10868617D01*
X76342856Y-10868617D02*
X76266666Y-10906712D01*
X76266666Y-10906712D02*
X76228571Y-10944807D01*
X76228571Y-10944807D02*
X76190475Y-11020998D01*
X87390476Y-30663855D02*
X87390476Y-31311474D01*
X87390476Y-31311474D02*
X87428571Y-31387664D01*
X87428571Y-31387664D02*
X87466666Y-31425760D01*
X87466666Y-31425760D02*
X87542857Y-31463855D01*
X87542857Y-31463855D02*
X87695238Y-31463855D01*
X87695238Y-31463855D02*
X87771428Y-31425760D01*
X87771428Y-31425760D02*
X87809523Y-31387664D01*
X87809523Y-31387664D02*
X87847619Y-31311474D01*
X87847619Y-31311474D02*
X87847619Y-30663855D01*
X88190475Y-30740045D02*
X88228571Y-30701950D01*
X88228571Y-30701950D02*
X88304761Y-30663855D01*
X88304761Y-30663855D02*
X88495237Y-30663855D01*
X88495237Y-30663855D02*
X88571428Y-30701950D01*
X88571428Y-30701950D02*
X88609523Y-30740045D01*
X88609523Y-30740045D02*
X88647618Y-30816236D01*
X88647618Y-30816236D02*
X88647618Y-30892426D01*
X88647618Y-30892426D02*
X88609523Y-31006712D01*
X88609523Y-31006712D02*
X88152380Y-31463855D01*
X88152380Y-31463855D02*
X88647618Y-31463855D01*
X104933332Y-22325760D02*
X105047618Y-22363855D01*
X105047618Y-22363855D02*
X105238094Y-22363855D01*
X105238094Y-22363855D02*
X105314285Y-22325760D01*
X105314285Y-22325760D02*
X105352380Y-22287664D01*
X105352380Y-22287664D02*
X105390475Y-22211474D01*
X105390475Y-22211474D02*
X105390475Y-22135283D01*
X105390475Y-22135283D02*
X105352380Y-22059093D01*
X105352380Y-22059093D02*
X105314285Y-22020998D01*
X105314285Y-22020998D02*
X105238094Y-21982902D01*
X105238094Y-21982902D02*
X105085713Y-21944807D01*
X105085713Y-21944807D02*
X105009523Y-21906712D01*
X105009523Y-21906712D02*
X104971428Y-21868617D01*
X104971428Y-21868617D02*
X104933332Y-21792426D01*
X104933332Y-21792426D02*
X104933332Y-21716236D01*
X104933332Y-21716236D02*
X104971428Y-21640045D01*
X104971428Y-21640045D02*
X105009523Y-21601950D01*
X105009523Y-21601950D02*
X105085713Y-21563855D01*
X105085713Y-21563855D02*
X105276190Y-21563855D01*
X105276190Y-21563855D02*
X105390475Y-21601950D01*
X105657142Y-21563855D02*
X105847618Y-22363855D01*
X105847618Y-22363855D02*
X105999999Y-21792426D01*
X105999999Y-21792426D02*
X106152380Y-22363855D01*
X106152380Y-22363855D02*
X106342857Y-21563855D01*
X107066666Y-22363855D02*
X106609523Y-22363855D01*
X106838095Y-22363855D02*
X106838095Y-21563855D01*
X106838095Y-21563855D02*
X106761904Y-21678140D01*
X106761904Y-21678140D02*
X106685714Y-21754331D01*
X106685714Y-21754331D02*
X106609523Y-21792426D01*
X56784276Y-37063855D02*
X56784276Y-37711474D01*
X56784276Y-37711474D02*
X56822371Y-37787664D01*
X56822371Y-37787664D02*
X56860466Y-37825760D01*
X56860466Y-37825760D02*
X56936657Y-37863855D01*
X56936657Y-37863855D02*
X57089038Y-37863855D01*
X57089038Y-37863855D02*
X57165228Y-37825760D01*
X57165228Y-37825760D02*
X57203323Y-37787664D01*
X57203323Y-37787664D02*
X57241419Y-37711474D01*
X57241419Y-37711474D02*
X57241419Y-37063855D01*
X57965228Y-37330521D02*
X57965228Y-37863855D01*
X57774752Y-37025760D02*
X57584275Y-37597188D01*
X57584275Y-37597188D02*
X58079514Y-37597188D01*
X75390476Y-22563855D02*
X75390476Y-23211474D01*
X75390476Y-23211474D02*
X75428571Y-23287664D01*
X75428571Y-23287664D02*
X75466666Y-23325760D01*
X75466666Y-23325760D02*
X75542857Y-23363855D01*
X75542857Y-23363855D02*
X75695238Y-23363855D01*
X75695238Y-23363855D02*
X75771428Y-23325760D01*
X75771428Y-23325760D02*
X75809523Y-23287664D01*
X75809523Y-23287664D02*
X75847619Y-23211474D01*
X75847619Y-23211474D02*
X75847619Y-22563855D01*
X76342856Y-22906712D02*
X76266666Y-22868617D01*
X76266666Y-22868617D02*
X76228571Y-22830521D01*
X76228571Y-22830521D02*
X76190475Y-22754331D01*
X76190475Y-22754331D02*
X76190475Y-22716236D01*
X76190475Y-22716236D02*
X76228571Y-22640045D01*
X76228571Y-22640045D02*
X76266666Y-22601950D01*
X76266666Y-22601950D02*
X76342856Y-22563855D01*
X76342856Y-22563855D02*
X76495237Y-22563855D01*
X76495237Y-22563855D02*
X76571428Y-22601950D01*
X76571428Y-22601950D02*
X76609523Y-22640045D01*
X76609523Y-22640045D02*
X76647618Y-22716236D01*
X76647618Y-22716236D02*
X76647618Y-22754331D01*
X76647618Y-22754331D02*
X76609523Y-22830521D01*
X76609523Y-22830521D02*
X76571428Y-22868617D01*
X76571428Y-22868617D02*
X76495237Y-22906712D01*
X76495237Y-22906712D02*
X76342856Y-22906712D01*
X76342856Y-22906712D02*
X76266666Y-22944807D01*
X76266666Y-22944807D02*
X76228571Y-22982902D01*
X76228571Y-22982902D02*
X76190475Y-23059093D01*
X76190475Y-23059093D02*
X76190475Y-23211474D01*
X76190475Y-23211474D02*
X76228571Y-23287664D01*
X76228571Y-23287664D02*
X76266666Y-23325760D01*
X76266666Y-23325760D02*
X76342856Y-23363855D01*
X76342856Y-23363855D02*
X76495237Y-23363855D01*
X76495237Y-23363855D02*
X76571428Y-23325760D01*
X76571428Y-23325760D02*
X76609523Y-23287664D01*
X76609523Y-23287664D02*
X76647618Y-23211474D01*
X76647618Y-23211474D02*
X76647618Y-23059093D01*
X76647618Y-23059093D02*
X76609523Y-22982902D01*
X76609523Y-22982902D02*
X76571428Y-22944807D01*
X76571428Y-22944807D02*
X76495237Y-22906712D01*
X75390476Y-4563855D02*
X75390476Y-5211474D01*
X75390476Y-5211474D02*
X75428571Y-5287664D01*
X75428571Y-5287664D02*
X75466666Y-5325760D01*
X75466666Y-5325760D02*
X75542857Y-5363855D01*
X75542857Y-5363855D02*
X75695238Y-5363855D01*
X75695238Y-5363855D02*
X75771428Y-5325760D01*
X75771428Y-5325760D02*
X75809523Y-5287664D01*
X75809523Y-5287664D02*
X75847619Y-5211474D01*
X75847619Y-5211474D02*
X75847619Y-4563855D01*
X76609523Y-4563855D02*
X76228571Y-4563855D01*
X76228571Y-4563855D02*
X76190475Y-4944807D01*
X76190475Y-4944807D02*
X76228571Y-4906712D01*
X76228571Y-4906712D02*
X76304761Y-4868617D01*
X76304761Y-4868617D02*
X76495237Y-4868617D01*
X76495237Y-4868617D02*
X76571428Y-4906712D01*
X76571428Y-4906712D02*
X76609523Y-4944807D01*
X76609523Y-4944807D02*
X76647618Y-5020998D01*
X76647618Y-5020998D02*
X76647618Y-5211474D01*
X76647618Y-5211474D02*
X76609523Y-5287664D01*
X76609523Y-5287664D02*
X76571428Y-5325760D01*
X76571428Y-5325760D02*
X76495237Y-5363855D01*
X76495237Y-5363855D02*
X76304761Y-5363855D01*
X76304761Y-5363855D02*
X76228571Y-5325760D01*
X76228571Y-5325760D02*
X76190475Y-5287664D01*
X44009524Y-8563855D02*
X44009524Y-9211474D01*
X44009524Y-9211474D02*
X44047619Y-9287664D01*
X44047619Y-9287664D02*
X44085714Y-9325760D01*
X44085714Y-9325760D02*
X44161905Y-9363855D01*
X44161905Y-9363855D02*
X44314286Y-9363855D01*
X44314286Y-9363855D02*
X44390476Y-9325760D01*
X44390476Y-9325760D02*
X44428571Y-9287664D01*
X44428571Y-9287664D02*
X44466667Y-9211474D01*
X44466667Y-9211474D02*
X44466667Y-8563855D01*
X45266666Y-9363855D02*
X44809523Y-9363855D01*
X45038095Y-9363855D02*
X45038095Y-8563855D01*
X45038095Y-8563855D02*
X44961904Y-8678140D01*
X44961904Y-8678140D02*
X44885714Y-8754331D01*
X44885714Y-8754331D02*
X44809523Y-8792426D01*
X45952381Y-8563855D02*
X45800000Y-8563855D01*
X45800000Y-8563855D02*
X45723809Y-8601950D01*
X45723809Y-8601950D02*
X45685714Y-8640045D01*
X45685714Y-8640045D02*
X45609524Y-8754331D01*
X45609524Y-8754331D02*
X45571428Y-8906712D01*
X45571428Y-8906712D02*
X45571428Y-9211474D01*
X45571428Y-9211474D02*
X45609524Y-9287664D01*
X45609524Y-9287664D02*
X45647619Y-9325760D01*
X45647619Y-9325760D02*
X45723809Y-9363855D01*
X45723809Y-9363855D02*
X45876190Y-9363855D01*
X45876190Y-9363855D02*
X45952381Y-9325760D01*
X45952381Y-9325760D02*
X45990476Y-9287664D01*
X45990476Y-9287664D02*
X46028571Y-9211474D01*
X46028571Y-9211474D02*
X46028571Y-9020998D01*
X46028571Y-9020998D02*
X45990476Y-8944807D01*
X45990476Y-8944807D02*
X45952381Y-8906712D01*
X45952381Y-8906712D02*
X45876190Y-8868617D01*
X45876190Y-8868617D02*
X45723809Y-8868617D01*
X45723809Y-8868617D02*
X45647619Y-8906712D01*
X45647619Y-8906712D02*
X45609524Y-8944807D01*
X45609524Y-8944807D02*
X45571428Y-9020998D01*
X28009524Y-36163855D02*
X28009524Y-36811474D01*
X28009524Y-36811474D02*
X28047619Y-36887664D01*
X28047619Y-36887664D02*
X28085714Y-36925760D01*
X28085714Y-36925760D02*
X28161905Y-36963855D01*
X28161905Y-36963855D02*
X28314286Y-36963855D01*
X28314286Y-36963855D02*
X28390476Y-36925760D01*
X28390476Y-36925760D02*
X28428571Y-36887664D01*
X28428571Y-36887664D02*
X28466667Y-36811474D01*
X28466667Y-36811474D02*
X28466667Y-36163855D01*
X29266666Y-36963855D02*
X28809523Y-36963855D01*
X29038095Y-36963855D02*
X29038095Y-36163855D01*
X29038095Y-36163855D02*
X28961904Y-36278140D01*
X28961904Y-36278140D02*
X28885714Y-36354331D01*
X28885714Y-36354331D02*
X28809523Y-36392426D01*
X29571428Y-36240045D02*
X29609524Y-36201950D01*
X29609524Y-36201950D02*
X29685714Y-36163855D01*
X29685714Y-36163855D02*
X29876190Y-36163855D01*
X29876190Y-36163855D02*
X29952381Y-36201950D01*
X29952381Y-36201950D02*
X29990476Y-36240045D01*
X29990476Y-36240045D02*
X30028571Y-36316236D01*
X30028571Y-36316236D02*
X30028571Y-36392426D01*
X30028571Y-36392426D02*
X29990476Y-36506712D01*
X29990476Y-36506712D02*
X29533333Y-36963855D01*
X29533333Y-36963855D02*
X30028571Y-36963855D01*
X88790476Y-11363855D02*
X88790476Y-12011474D01*
X88790476Y-12011474D02*
X88828571Y-12087664D01*
X88828571Y-12087664D02*
X88866666Y-12125760D01*
X88866666Y-12125760D02*
X88942857Y-12163855D01*
X88942857Y-12163855D02*
X89095238Y-12163855D01*
X89095238Y-12163855D02*
X89171428Y-12125760D01*
X89171428Y-12125760D02*
X89209523Y-12087664D01*
X89209523Y-12087664D02*
X89247619Y-12011474D01*
X89247619Y-12011474D02*
X89247619Y-11363855D01*
X90047618Y-12163855D02*
X89590475Y-12163855D01*
X89819047Y-12163855D02*
X89819047Y-11363855D01*
X89819047Y-11363855D02*
X89742856Y-11478140D01*
X89742856Y-11478140D02*
X89666666Y-11554331D01*
X89666666Y-11554331D02*
X89590475Y-11592426D01*
X101333333Y-2563855D02*
X101333333Y-3135283D01*
X101333333Y-3135283D02*
X101295238Y-3249569D01*
X101295238Y-3249569D02*
X101219047Y-3325760D01*
X101219047Y-3325760D02*
X101104762Y-3363855D01*
X101104762Y-3363855D02*
X101028571Y-3363855D01*
X101638095Y-2563855D02*
X102133333Y-2563855D01*
X102133333Y-2563855D02*
X101866667Y-2868617D01*
X101866667Y-2868617D02*
X101980952Y-2868617D01*
X101980952Y-2868617D02*
X102057143Y-2906712D01*
X102057143Y-2906712D02*
X102095238Y-2944807D01*
X102095238Y-2944807D02*
X102133333Y-3020998D01*
X102133333Y-3020998D02*
X102133333Y-3211474D01*
X102133333Y-3211474D02*
X102095238Y-3287664D01*
X102095238Y-3287664D02*
X102057143Y-3325760D01*
X102057143Y-3325760D02*
X101980952Y-3363855D01*
X101980952Y-3363855D02*
X101752381Y-3363855D01*
X101752381Y-3363855D02*
X101676190Y-3325760D01*
X101676190Y-3325760D02*
X101638095Y-3287664D01*
X21523809Y-15440045D02*
X21447619Y-15401950D01*
X21447619Y-15401950D02*
X21371428Y-15325760D01*
X21371428Y-15325760D02*
X21257142Y-15211474D01*
X21257142Y-15211474D02*
X21180952Y-15173379D01*
X21180952Y-15173379D02*
X21104761Y-15173379D01*
X21142857Y-15363855D02*
X21066666Y-15325760D01*
X21066666Y-15325760D02*
X20990476Y-15249569D01*
X20990476Y-15249569D02*
X20952380Y-15097188D01*
X20952380Y-15097188D02*
X20952380Y-14830521D01*
X20952380Y-14830521D02*
X20990476Y-14678140D01*
X20990476Y-14678140D02*
X21066666Y-14601950D01*
X21066666Y-14601950D02*
X21142857Y-14563855D01*
X21142857Y-14563855D02*
X21295238Y-14563855D01*
X21295238Y-14563855D02*
X21371428Y-14601950D01*
X21371428Y-14601950D02*
X21447619Y-14678140D01*
X21447619Y-14678140D02*
X21485714Y-14830521D01*
X21485714Y-14830521D02*
X21485714Y-15097188D01*
X21485714Y-15097188D02*
X21447619Y-15249569D01*
X21447619Y-15249569D02*
X21371428Y-15325760D01*
X21371428Y-15325760D02*
X21295238Y-15363855D01*
X21295238Y-15363855D02*
X21142857Y-15363855D01*
X22247618Y-15363855D02*
X21790475Y-15363855D01*
X22019047Y-15363855D02*
X22019047Y-14563855D01*
X22019047Y-14563855D02*
X21942856Y-14678140D01*
X21942856Y-14678140D02*
X21866666Y-14754331D01*
X21866666Y-14754331D02*
X21790475Y-14792426D01*
X75390476Y-16563855D02*
X75390476Y-17211474D01*
X75390476Y-17211474D02*
X75428571Y-17287664D01*
X75428571Y-17287664D02*
X75466666Y-17325760D01*
X75466666Y-17325760D02*
X75542857Y-17363855D01*
X75542857Y-17363855D02*
X75695238Y-17363855D01*
X75695238Y-17363855D02*
X75771428Y-17325760D01*
X75771428Y-17325760D02*
X75809523Y-17287664D01*
X75809523Y-17287664D02*
X75847619Y-17211474D01*
X75847619Y-17211474D02*
X75847619Y-16563855D01*
X76152380Y-16563855D02*
X76685714Y-16563855D01*
X76685714Y-16563855D02*
X76342856Y-17363855D01*
X75390476Y-28563855D02*
X75390476Y-29211474D01*
X75390476Y-29211474D02*
X75428571Y-29287664D01*
X75428571Y-29287664D02*
X75466666Y-29325760D01*
X75466666Y-29325760D02*
X75542857Y-29363855D01*
X75542857Y-29363855D02*
X75695238Y-29363855D01*
X75695238Y-29363855D02*
X75771428Y-29325760D01*
X75771428Y-29325760D02*
X75809523Y-29287664D01*
X75809523Y-29287664D02*
X75847619Y-29211474D01*
X75847619Y-29211474D02*
X75847619Y-28563855D01*
X76266666Y-29363855D02*
X76419047Y-29363855D01*
X76419047Y-29363855D02*
X76495237Y-29325760D01*
X76495237Y-29325760D02*
X76533333Y-29287664D01*
X76533333Y-29287664D02*
X76609523Y-29173379D01*
X76609523Y-29173379D02*
X76647618Y-29020998D01*
X76647618Y-29020998D02*
X76647618Y-28716236D01*
X76647618Y-28716236D02*
X76609523Y-28640045D01*
X76609523Y-28640045D02*
X76571428Y-28601950D01*
X76571428Y-28601950D02*
X76495237Y-28563855D01*
X76495237Y-28563855D02*
X76342856Y-28563855D01*
X76342856Y-28563855D02*
X76266666Y-28601950D01*
X76266666Y-28601950D02*
X76228571Y-28640045D01*
X76228571Y-28640045D02*
X76190475Y-28716236D01*
X76190475Y-28716236D02*
X76190475Y-28906712D01*
X76190475Y-28906712D02*
X76228571Y-28982902D01*
X76228571Y-28982902D02*
X76266666Y-29020998D01*
X76266666Y-29020998D02*
X76342856Y-29059093D01*
X76342856Y-29059093D02*
X76495237Y-29059093D01*
X76495237Y-29059093D02*
X76571428Y-29020998D01*
X76571428Y-29020998D02*
X76609523Y-28982902D01*
X76609523Y-28982902D02*
X76647618Y-28906712D01*
X40009524Y-36163855D02*
X40009524Y-36811474D01*
X40009524Y-36811474D02*
X40047619Y-36887664D01*
X40047619Y-36887664D02*
X40085714Y-36925760D01*
X40085714Y-36925760D02*
X40161905Y-36963855D01*
X40161905Y-36963855D02*
X40314286Y-36963855D01*
X40314286Y-36963855D02*
X40390476Y-36925760D01*
X40390476Y-36925760D02*
X40428571Y-36887664D01*
X40428571Y-36887664D02*
X40466667Y-36811474D01*
X40466667Y-36811474D02*
X40466667Y-36163855D01*
X41266666Y-36963855D02*
X40809523Y-36963855D01*
X41038095Y-36963855D02*
X41038095Y-36163855D01*
X41038095Y-36163855D02*
X40961904Y-36278140D01*
X40961904Y-36278140D02*
X40885714Y-36354331D01*
X40885714Y-36354331D02*
X40809523Y-36392426D01*
X41761905Y-36163855D02*
X41838095Y-36163855D01*
X41838095Y-36163855D02*
X41914286Y-36201950D01*
X41914286Y-36201950D02*
X41952381Y-36240045D01*
X41952381Y-36240045D02*
X41990476Y-36316236D01*
X41990476Y-36316236D02*
X42028571Y-36468617D01*
X42028571Y-36468617D02*
X42028571Y-36659093D01*
X42028571Y-36659093D02*
X41990476Y-36811474D01*
X41990476Y-36811474D02*
X41952381Y-36887664D01*
X41952381Y-36887664D02*
X41914286Y-36925760D01*
X41914286Y-36925760D02*
X41838095Y-36963855D01*
X41838095Y-36963855D02*
X41761905Y-36963855D01*
X41761905Y-36963855D02*
X41685714Y-36925760D01*
X41685714Y-36925760D02*
X41647619Y-36887664D01*
X41647619Y-36887664D02*
X41609524Y-36811474D01*
X41609524Y-36811474D02*
X41571428Y-36659093D01*
X41571428Y-36659093D02*
X41571428Y-36468617D01*
X41571428Y-36468617D02*
X41609524Y-36316236D01*
X41609524Y-36316236D02*
X41647619Y-36240045D01*
X41647619Y-36240045D02*
X41685714Y-36201950D01*
X41685714Y-36201950D02*
X41761905Y-36163855D01*
X16009524Y-36163855D02*
X16009524Y-36811474D01*
X16009524Y-36811474D02*
X16047619Y-36887664D01*
X16047619Y-36887664D02*
X16085714Y-36925760D01*
X16085714Y-36925760D02*
X16161905Y-36963855D01*
X16161905Y-36963855D02*
X16314286Y-36963855D01*
X16314286Y-36963855D02*
X16390476Y-36925760D01*
X16390476Y-36925760D02*
X16428571Y-36887664D01*
X16428571Y-36887664D02*
X16466667Y-36811474D01*
X16466667Y-36811474D02*
X16466667Y-36163855D01*
X17266666Y-36963855D02*
X16809523Y-36963855D01*
X17038095Y-36963855D02*
X17038095Y-36163855D01*
X17038095Y-36163855D02*
X16961904Y-36278140D01*
X16961904Y-36278140D02*
X16885714Y-36354331D01*
X16885714Y-36354331D02*
X16809523Y-36392426D01*
X17533333Y-36163855D02*
X18028571Y-36163855D01*
X18028571Y-36163855D02*
X17761905Y-36468617D01*
X17761905Y-36468617D02*
X17876190Y-36468617D01*
X17876190Y-36468617D02*
X17952381Y-36506712D01*
X17952381Y-36506712D02*
X17990476Y-36544807D01*
X17990476Y-36544807D02*
X18028571Y-36620998D01*
X18028571Y-36620998D02*
X18028571Y-36811474D01*
X18028571Y-36811474D02*
X17990476Y-36887664D01*
X17990476Y-36887664D02*
X17952381Y-36925760D01*
X17952381Y-36925760D02*
X17876190Y-36963855D01*
X17876190Y-36963855D02*
X17647619Y-36963855D01*
X17647619Y-36963855D02*
X17571428Y-36925760D01*
X17571428Y-36925760D02*
X17533333Y-36887664D01*
%TO.C,Y1*%
X98660000Y-5490000D02*
X94540000Y-5490000D01*
X98660000Y-8910000D02*
X98660000Y-5490000D01*
%TO.C,RN8*%
X12720000Y-29100000D02*
X12720000Y-28100000D01*
X16080000Y-29100000D02*
X16080000Y-28100000D01*
%TO.C,C33*%
X69590000Y-5140580D02*
X69590000Y-4859420D01*
X70610000Y-5140580D02*
X70610000Y-4859420D01*
%TO.C,R6*%
X94270000Y-24553641D02*
X94270000Y-24246359D01*
X95030000Y-24553641D02*
X95030000Y-24246359D01*
%TO.C,R7*%
X91520000Y-9553641D02*
X91520000Y-9246359D01*
X92280000Y-9553641D02*
X92280000Y-9246359D01*
%TO.C,C22*%
X83090000Y-38640580D02*
X83090000Y-38359420D01*
X84110000Y-38640580D02*
X84110000Y-38359420D01*
%TO.C,U15*%
X28940000Y-3940000D02*
X33060000Y-3940000D01*
X28940000Y-3995000D02*
X28940000Y-3940000D01*
X28940000Y-14060000D02*
X28940000Y-14005000D01*
X33060000Y-3940000D02*
X33060000Y-3995000D01*
X33060000Y-14005000D02*
X33060000Y-14060000D01*
X33060000Y-14060000D02*
X28940000Y-14060000D01*
X28400000Y-3990000D02*
X28160000Y-3660000D01*
X28640000Y-3660000D01*
X28400000Y-3990000D01*
G36*
X28400000Y-3990000D02*
G01*
X28160000Y-3660000D01*
X28640000Y-3660000D01*
X28400000Y-3990000D01*
G37*
%TO.C,U14*%
X11440000Y-3940000D02*
X15560000Y-3940000D01*
X11440000Y-3995000D02*
X11440000Y-3940000D01*
X11440000Y-14060000D02*
X11440000Y-14005000D01*
X15560000Y-3940000D02*
X15560000Y-3995000D01*
X15560000Y-14005000D02*
X15560000Y-14060000D01*
X15560000Y-14060000D02*
X11440000Y-14060000D01*
X10900000Y-3990000D02*
X10660000Y-3660000D01*
X11140000Y-3660000D01*
X10900000Y-3990000D01*
G36*
X10900000Y-3990000D02*
G01*
X10660000Y-3660000D01*
X11140000Y-3660000D01*
X10900000Y-3990000D01*
G37*
%TO.C,R3*%
X89900000Y-23253641D02*
X89900000Y-22946359D01*
X90660000Y-23253641D02*
X90660000Y-22946359D01*
%TO.C,R4*%
X95070000Y-10053641D02*
X95070000Y-9746359D01*
X95830000Y-10053641D02*
X95830000Y-9746359D01*
%TO.C,RN9*%
X13820000Y-16100000D02*
X13820000Y-17100000D01*
X17180000Y-16100000D02*
X17180000Y-17100000D01*
%TO.C,R15*%
X81377500Y-11237258D02*
X81377500Y-10762742D01*
X82422500Y-11237258D02*
X82422500Y-10762742D01*
%TO.C,R13*%
X55262742Y-5477500D02*
X55737258Y-5477500D01*
X55262742Y-6522500D02*
X55737258Y-6522500D01*
%TO.C,SW2*%
X84750000Y-2800000D02*
X84750000Y-4800000D01*
X85750000Y-1500000D02*
X86200000Y-1050000D01*
X85750000Y-6100000D02*
X86200000Y-6550000D01*
X86200000Y-1050000D02*
X88800000Y-1050000D01*
X86200000Y-6550000D02*
X88800000Y-6550000D01*
X89250000Y-1500000D02*
X88800000Y-1050000D01*
X89250000Y-6100000D02*
X88800000Y-6550000D01*
X90250000Y-2800000D02*
X90250000Y-4800000D01*
%TO.C,C19*%
X93990000Y-10907836D02*
X93990000Y-10692164D01*
X94710000Y-10907836D02*
X94710000Y-10692164D01*
%TO.C,RN1*%
X41920000Y-29100000D02*
X41920000Y-28100000D01*
X45280000Y-29100000D02*
X45280000Y-28100000D01*
%TO.C,C6*%
X100242164Y-15440000D02*
X100457836Y-15440000D01*
X100242164Y-16160000D02*
X100457836Y-16160000D01*
%TO.C,RN4*%
X48720000Y-29100000D02*
X48720000Y-28100000D01*
X52080000Y-29100000D02*
X52080000Y-28100000D01*
%TO.C,PS1*%
X70240000Y-43590000D02*
X70240000Y-37250000D01*
X82010000Y-37250000D02*
X70240000Y-37250000D01*
X82010000Y-43590000D02*
X70240000Y-43590000D01*
X82010000Y-43590000D02*
X82010000Y-37250000D01*
X82260000Y-37000000D02*
X81060000Y-37000000D01*
X82260000Y-38200000D02*
X82260000Y-37000000D01*
%TO.C,R11*%
X61762742Y-32477500D02*
X62237258Y-32477500D01*
X61762742Y-33522500D02*
X62237258Y-33522500D01*
%TO.C,C11*%
X97490000Y-22292164D02*
X97490000Y-22507836D01*
X98210000Y-22292164D02*
X98210000Y-22507836D01*
%TO.C,C5*%
X100242164Y-19440000D02*
X100457836Y-19440000D01*
X100242164Y-20160000D02*
X100457836Y-20160000D01*
%TO.C,C14*%
X96440000Y-22292164D02*
X96440000Y-22507836D01*
X97160000Y-22292164D02*
X97160000Y-22507836D01*
%TO.C,U3*%
X96440000Y-27090000D02*
X96490000Y-27090000D01*
X96440000Y-28910000D02*
X96440000Y-27090000D01*
X96490000Y-28910000D02*
X96440000Y-28910000D01*
X99510000Y-27090000D02*
X99560000Y-27090000D01*
X99560000Y-27090000D02*
X99560000Y-28910000D01*
X99560000Y-28910000D02*
X99510000Y-28910000D01*
X96490000Y-29450000D02*
X96160000Y-29690000D01*
X96160000Y-29210000D01*
X96490000Y-29450000D01*
G36*
X96490000Y-29450000D02*
G01*
X96160000Y-29690000D01*
X96160000Y-29210000D01*
X96490000Y-29450000D01*
G37*
%TO.C,R14*%
X81377500Y-5237258D02*
X81377500Y-4762742D01*
X82422500Y-5237258D02*
X82422500Y-4762742D01*
%TO.C,RN5*%
X29920000Y-29100000D02*
X29920000Y-28100000D01*
X33280000Y-29100000D02*
X33280000Y-28100000D01*
%TO.C,R17*%
X81377500Y-23237258D02*
X81377500Y-22762742D01*
X82422500Y-23237258D02*
X82422500Y-22762742D01*
%TO.C,C17*%
X100242164Y-17440000D02*
X100457836Y-17440000D01*
X100242164Y-18160000D02*
X100457836Y-18160000D01*
%TO.C,J2*%
X96950000Y-30800000D02*
X111050000Y-30800000D01*
X96950000Y-35600000D02*
X96950000Y-30800000D01*
X96950000Y-43900000D02*
X96950000Y-39100000D01*
X104750000Y-30100000D02*
X105250000Y-30600000D01*
X105250000Y-30600000D02*
X105750000Y-30100000D01*
X105750000Y-30100000D02*
X104750000Y-30100000D01*
X111050000Y-30800000D02*
X111050000Y-35600000D01*
X111050000Y-39100000D02*
X111050000Y-43900000D01*
X111050000Y-43900000D02*
X96950000Y-43900000D01*
%TO.C,RN6*%
X24720000Y-29100000D02*
X24720000Y-28100000D01*
X28080000Y-29100000D02*
X28080000Y-28100000D01*
%TO.C,C24*%
X62859420Y-41390000D02*
X63140580Y-41390000D01*
X62859420Y-42410000D02*
X63140580Y-42410000D01*
%TO.C,D3*%
X60515000Y-30465000D02*
X60515000Y-31935000D01*
X60515000Y-31935000D02*
X62800000Y-31935000D01*
X62800000Y-30465000D02*
X60515000Y-30465000D01*
%TO.C,D2*%
X102715000Y-12265000D02*
X102715000Y-13735000D01*
X102715000Y-13735000D02*
X105000000Y-13735000D01*
X105000000Y-12265000D02*
X102715000Y-12265000D01*
%TO.C,C29*%
X22459420Y-31690000D02*
X22740580Y-31690000D01*
X22459420Y-32710000D02*
X22740580Y-32710000D01*
%TO.C,C10*%
X89907836Y-20190000D02*
X89692164Y-20190000D01*
X89907836Y-20910000D02*
X89692164Y-20910000D01*
%TO.C,U11*%
X50940000Y-31540000D02*
X55060000Y-31540000D01*
X50940000Y-31595000D02*
X50940000Y-31540000D01*
X50940000Y-41660000D02*
X50940000Y-41605000D01*
X55060000Y-31540000D02*
X55060000Y-31595000D01*
X55060000Y-41605000D02*
X55060000Y-41660000D01*
X55060000Y-41660000D02*
X50940000Y-41660000D01*
X50400000Y-31590000D02*
X50160000Y-31260000D01*
X50640000Y-31260000D01*
X50400000Y-31590000D01*
G36*
X50400000Y-31590000D02*
G01*
X50160000Y-31260000D01*
X50640000Y-31260000D01*
X50400000Y-31590000D01*
G37*
%TO.C,C35*%
X69590000Y-17140580D02*
X69590000Y-16859420D01*
X70610000Y-17140580D02*
X70610000Y-16859420D01*
%TO.C,U6*%
X73690000Y-9070000D02*
X78310000Y-9070000D01*
X78310000Y-10390000D02*
X78310000Y-11610000D01*
X78310000Y-12930000D02*
X73690000Y-12930000D01*
X79150000Y-11610000D02*
X78810000Y-11140000D01*
X79490000Y-11140000D01*
X79150000Y-11610000D01*
G36*
X79150000Y-11610000D02*
G01*
X78810000Y-11140000D01*
X79490000Y-11140000D01*
X79150000Y-11610000D01*
G37*
%TO.C,C13*%
X98540000Y-22292164D02*
X98540000Y-22507836D01*
X99260000Y-22292164D02*
X99260000Y-22507836D01*
%TO.C,C34*%
X69590000Y-11140580D02*
X69590000Y-10859420D01*
X70610000Y-11140580D02*
X70610000Y-10859420D01*
%TO.C,U2*%
X87090000Y-31940000D02*
X88910000Y-31940000D01*
X87090000Y-31990000D02*
X87090000Y-31940000D01*
X87090000Y-35060000D02*
X87090000Y-35010000D01*
X88910000Y-31940000D02*
X88910000Y-31990000D01*
X88910000Y-33110000D02*
X88910000Y-33890000D01*
X88910000Y-35010000D02*
X88910000Y-35060000D01*
X88910000Y-35060000D02*
X87090000Y-35060000D01*
X86550000Y-31990000D02*
X86310000Y-31660000D01*
X86790000Y-31660000D01*
X86550000Y-31990000D01*
G36*
X86550000Y-31990000D02*
G01*
X86310000Y-31660000D01*
X86790000Y-31660000D01*
X86550000Y-31990000D01*
G37*
%TO.C,C28*%
X34459420Y-31690000D02*
X34740580Y-31690000D01*
X34459420Y-32710000D02*
X34740580Y-32710000D01*
%TO.C,C32*%
X50459420Y-4090000D02*
X50740580Y-4090000D01*
X50459420Y-5110000D02*
X50740580Y-5110000D01*
%TO.C,C27*%
X58459420Y-31690000D02*
X58740580Y-31690000D01*
X58459420Y-32710000D02*
X58740580Y-32710000D01*
%TO.C,C30*%
X18959420Y-4090000D02*
X19240580Y-4090000D01*
X18959420Y-5110000D02*
X19240580Y-5110000D01*
%TO.C,R16*%
X81377500Y-17237258D02*
X81377500Y-16762742D01*
X82422500Y-17237258D02*
X82422500Y-16762742D01*
%TO.C,RN2*%
X36720000Y-29100000D02*
X36720000Y-28100000D01*
X40080000Y-29100000D02*
X40080000Y-28100000D01*
%TO.C,SW1*%
X103250000Y-23300000D02*
X103250000Y-20700000D01*
X103700000Y-20250000D02*
X103250000Y-20700000D01*
X103700000Y-23750000D02*
X103250000Y-23300000D01*
X105000000Y-19250000D02*
X107000000Y-19250000D01*
X105000000Y-24750000D02*
X107000000Y-24750000D01*
X108300000Y-20250000D02*
X108750000Y-20700000D01*
X108300000Y-23750000D02*
X108750000Y-23300000D01*
X108750000Y-23300000D02*
X108750000Y-20700000D01*
%TO.C,R1*%
X109262742Y-27977500D02*
X109737258Y-27977500D01*
X109262742Y-29022500D02*
X109737258Y-29022500D01*
%TO.C,C2*%
X93859420Y-41290000D02*
X94140580Y-41290000D01*
X93859420Y-42310000D02*
X94140580Y-42310000D01*
%TO.C,C31*%
X36459420Y-4090000D02*
X36740580Y-4090000D01*
X36459420Y-5110000D02*
X36740580Y-5110000D01*
%TO.C,C25*%
X65859420Y-32490000D02*
X66140580Y-32490000D01*
X65859420Y-33510000D02*
X66140580Y-33510000D01*
%TO.C,U4*%
X59733800Y-35140000D02*
X62453800Y-35140000D01*
X59733800Y-36120000D02*
X59733800Y-35140000D01*
X59733800Y-38880000D02*
X59733800Y-39860000D01*
X62313800Y-39860000D02*
X59733800Y-39860000D01*
X62863800Y-39710000D02*
X63103800Y-40040000D01*
X62623800Y-40040000D01*
X62863800Y-39710000D01*
G36*
X63103800Y-40040000D02*
G01*
X62623800Y-40040000D01*
X62863800Y-39710000D01*
X63103800Y-40040000D01*
G37*
%TO.C,C15*%
X89907836Y-21240000D02*
X89692164Y-21240000D01*
X89907836Y-21960000D02*
X89692164Y-21960000D01*
%TO.C,U8*%
X73690000Y-21070000D02*
X78310000Y-21070000D01*
X78310000Y-22390000D02*
X78310000Y-23610000D01*
X78310000Y-24930000D02*
X73690000Y-24930000D01*
X79150000Y-23610000D02*
X78810000Y-23140000D01*
X79490000Y-23140000D01*
X79150000Y-23610000D01*
G36*
X79150000Y-23610000D02*
G01*
X78810000Y-23140000D01*
X79490000Y-23140000D01*
X79150000Y-23610000D01*
G37*
%TO.C,C36*%
X69590000Y-23140580D02*
X69590000Y-22859420D01*
X70610000Y-23140580D02*
X70610000Y-22859420D01*
%TO.C,U5*%
X73690000Y-3070000D02*
X78310000Y-3070000D01*
X78310000Y-4390000D02*
X78310000Y-5610000D01*
X78310000Y-6930000D02*
X73690000Y-6930000D01*
X79150000Y-5610000D02*
X78810000Y-5140000D01*
X79490000Y-5140000D01*
X79150000Y-5610000D01*
G36*
X79150000Y-5610000D02*
G01*
X78810000Y-5140000D01*
X79490000Y-5140000D01*
X79150000Y-5610000D01*
G37*
%TO.C,C9*%
X89907836Y-16640000D02*
X89692164Y-16640000D01*
X89907836Y-17360000D02*
X89692164Y-17360000D01*
%TO.C,L1*%
X90890000Y-22340000D02*
X93110000Y-22340000D01*
X93110000Y-24460000D02*
X90890000Y-24460000D01*
%TO.C,C20*%
X99240000Y-6507836D02*
X99240000Y-6292164D01*
X99960000Y-6507836D02*
X99960000Y-6292164D01*
%TO.C,D4*%
X54015000Y-2265000D02*
X54015000Y-3735000D01*
X54015000Y-3735000D02*
X56300000Y-3735000D01*
X56300000Y-2265000D02*
X54015000Y-2265000D01*
%TO.C,C3*%
X87859420Y-36490000D02*
X88140580Y-36490000D01*
X87859420Y-37510000D02*
X88140580Y-37510000D01*
%TO.C,F1*%
X89397936Y-40890000D02*
X90602064Y-40890000D01*
X89397936Y-42710000D02*
X90602064Y-42710000D01*
%TO.C,C8*%
X89907836Y-12940000D02*
X89692164Y-12940000D01*
X89907836Y-13660000D02*
X89692164Y-13660000D01*
%TO.C,RN3*%
X53920000Y-29100000D02*
X53920000Y-28100000D01*
X57280000Y-29100000D02*
X57280000Y-28100000D01*
%TO.C,C21*%
X93240000Y-7707836D02*
X93240000Y-7492164D01*
X93960000Y-7707836D02*
X93960000Y-7492164D01*
%TO.C,U16*%
X42940000Y-3940000D02*
X47060000Y-3940000D01*
X42940000Y-3995000D02*
X42940000Y-3940000D01*
X42940000Y-14060000D02*
X42940000Y-14005000D01*
X47060000Y-3940000D02*
X47060000Y-3995000D01*
X47060000Y-14005000D02*
X47060000Y-14060000D01*
X47060000Y-14060000D02*
X42940000Y-14060000D01*
X42400000Y-3990000D02*
X42160000Y-3660000D01*
X42640000Y-3660000D01*
X42400000Y-3990000D01*
G36*
X42400000Y-3990000D02*
G01*
X42160000Y-3660000D01*
X42640000Y-3660000D01*
X42400000Y-3990000D01*
G37*
%TO.C,U12*%
X26940000Y-31540000D02*
X31060000Y-31540000D01*
X26940000Y-31595000D02*
X26940000Y-31540000D01*
X26940000Y-41660000D02*
X26940000Y-41605000D01*
X31060000Y-31540000D02*
X31060000Y-31595000D01*
X31060000Y-41605000D02*
X31060000Y-41660000D01*
X31060000Y-41660000D02*
X26940000Y-41660000D01*
X26400000Y-31590000D02*
X26160000Y-31260000D01*
X26640000Y-31260000D01*
X26400000Y-31590000D01*
G36*
X26400000Y-31590000D02*
G01*
X26160000Y-31260000D01*
X26640000Y-31260000D01*
X26400000Y-31590000D01*
G37*
%TO.C,U1*%
X91390000Y-13390000D02*
X91840000Y-13390000D01*
X91390000Y-13840000D02*
X91390000Y-13390000D01*
X91390000Y-20610000D02*
X91390000Y-20160000D01*
X91840000Y-20610000D02*
X91390000Y-20610000D01*
X98160000Y-13390000D02*
X98610000Y-13390000D01*
X98610000Y-13390000D02*
X98610000Y-13840000D01*
X98610000Y-20160000D02*
X98610000Y-20610000D01*
X98610000Y-20610000D02*
X98160000Y-20610000D01*
X99110000Y-19800000D02*
X99440000Y-19560000D01*
X99440000Y-20040000D01*
X99110000Y-19800000D01*
G36*
X99440000Y-20040000D02*
G01*
X99110000Y-19800000D01*
X99440000Y-19560000D01*
X99440000Y-20040000D01*
G37*
%TO.C,R10*%
X67362742Y-35477500D02*
X67837258Y-35477500D01*
X67362742Y-36522500D02*
X67837258Y-36522500D01*
%TO.C,D1*%
X107015000Y-12265000D02*
X107015000Y-13735000D01*
X107015000Y-13735000D02*
X109300000Y-13735000D01*
X109300000Y-12265000D02*
X107015000Y-12265000D01*
%TO.C,R2*%
X108262742Y-14477500D02*
X108737258Y-14477500D01*
X108262742Y-15522500D02*
X108737258Y-15522500D01*
%TO.C,J3*%
X92080000Y-3980000D02*
X92080000Y-2600000D01*
X93460000Y-3980000D02*
X92080000Y-3980000D01*
X94730000Y-1220000D02*
X99920000Y-1220000D01*
X94730000Y-3980000D02*
X94730000Y-1220000D01*
X94730000Y-3980000D02*
X99920000Y-3980000D01*
X99920000Y-3980000D02*
X99920000Y-1220000D01*
%TO.C,Q1*%
X23240000Y-13440000D02*
X24760000Y-13440000D01*
X23240000Y-13490000D02*
X23240000Y-13440000D01*
X23240000Y-15390000D02*
X23240000Y-14610000D01*
X23240000Y-16560000D02*
X23240000Y-16510000D01*
X24760000Y-13440000D02*
X24760000Y-14440000D01*
X24760000Y-15560000D02*
X24760000Y-16560000D01*
X24760000Y-16560000D02*
X23240000Y-16560000D01*
X22700000Y-14620000D02*
X22940000Y-14950000D01*
X22460000Y-14950000D01*
X22700000Y-14620000D01*
G36*
X22940000Y-14950000D02*
G01*
X22460000Y-14950000D01*
X22700000Y-14620000D01*
X22940000Y-14950000D01*
G37*
%TO.C,C26*%
X46459420Y-31690000D02*
X46740580Y-31690000D01*
X46459420Y-32710000D02*
X46740580Y-32710000D01*
%TO.C,RN7*%
X17920000Y-29100000D02*
X17920000Y-28100000D01*
X21280000Y-29100000D02*
X21280000Y-28100000D01*
%TO.C,R18*%
X69577500Y-29237258D02*
X69577500Y-28762742D01*
X70622500Y-29237258D02*
X70622500Y-28762742D01*
%TO.C,C18*%
X89907836Y-17840000D02*
X89692164Y-17840000D01*
X89907836Y-18560000D02*
X89692164Y-18560000D01*
%TO.C,U7*%
X73690000Y-15070000D02*
X78310000Y-15070000D01*
X78310000Y-16390000D02*
X78310000Y-17610000D01*
X78310000Y-18930000D02*
X73690000Y-18930000D01*
X79150000Y-17610000D02*
X78810000Y-17140000D01*
X79490000Y-17140000D01*
X79150000Y-17610000D01*
G36*
X79150000Y-17610000D02*
G01*
X78810000Y-17140000D01*
X79490000Y-17140000D01*
X79150000Y-17610000D01*
G37*
%TO.C,R9*%
X104046359Y-14620000D02*
X104353641Y-14620000D01*
X104046359Y-15380000D02*
X104353641Y-15380000D01*
%TO.C,U9*%
X73690000Y-27070000D02*
X78310000Y-27070000D01*
X73690000Y-29610000D02*
X73690000Y-28390000D01*
X78310000Y-30930000D02*
X73690000Y-30930000D01*
X72850000Y-28390000D02*
X73190000Y-28860000D01*
X72510000Y-28860000D01*
X72850000Y-28390000D01*
G36*
X73190000Y-28860000D02*
G01*
X72510000Y-28860000D01*
X72850000Y-28390000D01*
X73190000Y-28860000D01*
G37*
%TO.C,R8*%
X99720000Y-22446359D02*
X99720000Y-22753641D01*
X100480000Y-22446359D02*
X100480000Y-22753641D01*
%TO.C,C4*%
X91090000Y-33640580D02*
X91090000Y-33359420D01*
X92110000Y-33640580D02*
X92110000Y-33359420D01*
%TO.C,C7*%
X100242164Y-13540000D02*
X100457836Y-13540000D01*
X100242164Y-14260000D02*
X100457836Y-14260000D01*
%TO.C,U10*%
X38940000Y-31540000D02*
X43060000Y-31540000D01*
X38940000Y-31595000D02*
X38940000Y-31540000D01*
X38940000Y-41660000D02*
X38940000Y-41605000D01*
X43060000Y-31540000D02*
X43060000Y-31595000D01*
X43060000Y-41605000D02*
X43060000Y-41660000D01*
X43060000Y-41660000D02*
X38940000Y-41660000D01*
X38400000Y-31590000D02*
X38160000Y-31260000D01*
X38640000Y-31260000D01*
X38400000Y-31590000D01*
G36*
X38400000Y-31590000D02*
G01*
X38160000Y-31260000D01*
X38640000Y-31260000D01*
X38400000Y-31590000D01*
G37*
%TO.C,C23*%
X67459420Y-41090000D02*
X67740580Y-41090000D01*
X67459420Y-42110000D02*
X67740580Y-42110000D01*
%TO.C,U13*%
X14940000Y-31540000D02*
X19060000Y-31540000D01*
X14940000Y-31595000D02*
X14940000Y-31540000D01*
X14940000Y-41660000D02*
X14940000Y-41605000D01*
X19060000Y-31540000D02*
X19060000Y-31595000D01*
X19060000Y-41605000D02*
X19060000Y-41660000D01*
X19060000Y-41660000D02*
X14940000Y-41660000D01*
X14400000Y-31590000D02*
X14160000Y-31260000D01*
X14640000Y-31260000D01*
X14400000Y-31590000D01*
G36*
X14400000Y-31590000D02*
G01*
X14160000Y-31260000D01*
X14640000Y-31260000D01*
X14400000Y-31590000D01*
G37*
%TO.C,C16*%
X91507836Y-25240000D02*
X91292164Y-25240000D01*
X91507836Y-25960000D02*
X91292164Y-25960000D01*
%TO.C,C37*%
X81390000Y-29140580D02*
X81390000Y-28859420D01*
X82410000Y-29140580D02*
X82410000Y-28859420D01*
%TO.C,C12*%
X89907836Y-19140000D02*
X89692164Y-19140000D01*
X89907836Y-19860000D02*
X89692164Y-19860000D01*
%TO.C,R5*%
X95320000Y-24553641D02*
X95320000Y-24246359D01*
X96080000Y-24553641D02*
X96080000Y-24246359D01*
%TO.C,C1*%
X109359420Y-26190000D02*
X109640580Y-26190000D01*
X109359420Y-27210000D02*
X109640580Y-27210000D01*
%TO.C,R12*%
X23477500Y-11737258D02*
X23477500Y-11262742D01*
X24522500Y-11737258D02*
X24522500Y-11262742D01*
%TD*%
M02*
