<svg xmlns="http://www.w3.org/2000/svg" width="720" height="537" font-family="sans-serif" font-size="13">
<rect x="0" y="0.0" width="720.0" height="268.5" fill="#fafafa" stroke="#ccc"/>
<text x="8" y="20.0" font-weight="bold">Before pin swap: 1543 mm of ratsnest, 839 crossings</text>
<circle cx="245.4" cy="49.3" r="4.0" fill="#b8a050"/>
<circle cx="222.6" cy="49.3" r="4.0" fill="#b8a050"/>
<circle cx="234.0" cy="49.6" r="4.0" fill="#b8a050"/>
<circle cx="461.4" cy="49.5" r="4.0" fill="#b8a050"/>
<circle cx="438.6" cy="49.3" r="4.0" fill="#b8a050"/>
<circle cx="634.9" cy="217.2" r="7.2" fill="#b8a050"/>
<circle cx="85.0" cy="217.2" r="7.2" fill="#b8a050"/>
<circle cx="558.7" cy="191.6" r="7.2" fill="#b8a050"/>
<circle cx="533.9" cy="191.6" r="7.2" fill="#b8a050"/>
<circle cx="509.0" cy="191.6" r="7.2" fill="#b8a050"/>
<circle cx="484.2" cy="191.6" r="7.2" fill="#b8a050"/>
<circle cx="459.4" cy="191.6" r="7.2" fill="#b8a050"/>
<circle cx="434.5" cy="191.6" r="7.2" fill="#b8a050"/>
<circle cx="409.7" cy="191.6" r="7.2" fill="#b8a050"/>
<circle cx="384.8" cy="191.6" r="7.2" fill="#b8a050"/>
<circle cx="360.0" cy="191.6" r="7.2" fill="#b8a050"/>
<circle cx="335.2" cy="191.6" r="7.2" fill="#b8a050"/>
<circle cx="310.3" cy="191.6" r="7.2" fill="#b8a050"/>
<circle cx="285.5" cy="191.6" r="7.2" fill="#b8a050"/>
<circle cx="260.6" cy="191.6" r="7.2" fill="#b8a050"/>
<circle cx="235.8" cy="191.6" r="7.2" fill="#b8a050"/>
<circle cx="211.0" cy="191.6" r="7.2" fill="#b8a050"/>
<circle cx="186.1" cy="191.6" r="7.2" fill="#b8a050"/>
<circle cx="161.3" cy="191.6" r="7.2" fill="#b8a050"/>
<circle cx="546.3" cy="217.2" r="7.2" fill="#b8a050"/>
<circle cx="521.5" cy="217.2" r="7.2" fill="#b8a050"/>
<circle cx="496.6" cy="217.2" r="7.2" fill="#b8a050"/>
<circle cx="471.8" cy="217.2" r="7.2" fill="#b8a050"/>
<circle cx="446.9" cy="217.2" r="7.2" fill="#b8a050"/>
<circle cx="422.1" cy="217.2" r="7.2" fill="#b8a050"/>
<circle cx="397.3" cy="217.2" r="7.2" fill="#b8a050"/>
<circle cx="372.4" cy="217.2" r="7.2" fill="#b8a050"/>
<circle cx="347.6" cy="217.2" r="7.2" fill="#b8a050"/>
<circle cx="322.7" cy="217.2" r="7.2" fill="#b8a050"/>
<circle cx="297.9" cy="217.2" r="7.2" fill="#b8a050"/>
<circle cx="273.1" cy="217.2" r="7.2" fill="#b8a050"/>
<circle cx="248.2" cy="217.2" r="7.2" fill="#b8a050"/>
<circle cx="223.4" cy="217.2" r="7.2" fill="#b8a050"/>
<circle cx="198.5" cy="217.2" r="7.2" fill="#b8a050"/>
<circle cx="173.7" cy="217.2" r="7.2" fill="#b8a050"/>
<circle cx="558.7" cy="242.8" r="7.2" fill="#b8a050"/>
<circle cx="533.9" cy="242.8" r="7.2" fill="#b8a050"/>
<circle cx="509.0" cy="242.8" r="7.2" fill="#b8a050"/>
<circle cx="484.2" cy="242.8" r="7.2" fill="#b8a050"/>
<circle cx="459.4" cy="242.8" r="7.2" fill="#b8a050"/>
<circle cx="434.5" cy="242.8" r="7.2" fill="#b8a050"/>
<circle cx="409.7" cy="242.8" r="7.2" fill="#b8a050"/>
<circle cx="384.8" cy="242.8" r="7.2" fill="#b8a050"/>
<circle cx="360.0" cy="242.8" r="7.2" fill="#b8a050"/>
<circle cx="335.2" cy="242.8" r="7.2" fill="#b8a050"/>
<circle cx="310.3" cy="242.8" r="7.2" fill="#b8a050"/>
<circle cx="285.5" cy="242.8" r="7.2" fill="#b8a050"/>
<circle cx="260.6" cy="242.8" r="7.2" fill="#b8a050"/>
<circle cx="235.8" cy="242.8" r="7.2" fill="#b8a050"/>
<circle cx="211.0" cy="242.8" r="7.2" fill="#b8a050"/>
<circle cx="186.1" cy="242.8" r="7.2" fill="#b8a050"/>
<circle cx="161.3" cy="242.8" r="7.2" fill="#b8a050"/>
<circle cx="616.9" cy="164.5" r="4.0" fill="#b8a050"/>
<circle cx="616.9" cy="153.1" r="4.0" fill="#b8a050"/>
<circle cx="616.9" cy="141.7" r="4.0" fill="#b8a050"/>
<circle cx="616.9" cy="130.2" r="4.0" fill="#b8a050"/>
<circle cx="616.9" cy="118.8" r="4.0" fill="#b8a050"/>
<circle cx="616.9" cy="107.4" r="4.0" fill="#b8a050"/>
<circle cx="616.9" cy="96.0" r="4.0" fill="#b8a050"/>
<circle cx="616.9" cy="84.5" r="4.0" fill="#b8a050"/>
<circle cx="567.5" cy="164.5" r="4.0" fill="#b8a050"/>
<circle cx="567.5" cy="153.1" r="4.0" fill="#b8a050"/>
<circle cx="567.5" cy="141.7" r="4.0" fill="#b8a050"/>
<circle cx="567.5" cy="130.2" r="4.0" fill="#b8a050"/>
<circle cx="567.5" cy="118.8" r="4.0" fill="#b8a050"/>
<circle cx="567.5" cy="107.4" r="4.0" fill="#b8a050"/>
<circle cx="567.5" cy="96.0" r="4.0" fill="#b8a050"/>
<circle cx="567.5" cy="84.5" r="4.0" fill="#b8a050"/>
<circle cx="229.9" cy="164.5" r="4.0" fill="#b8a050"/>
<circle cx="229.9" cy="153.1" r="4.0" fill="#b8a050"/>
<circle cx="229.9" cy="141.7" r="4.0" fill="#b8a050"/>
<circle cx="229.9" cy="130.2" r="4.0" fill="#b8a050"/>
<circle cx="229.9" cy="118.8" r="4.0" fill="#b8a050"/>
<circle cx="229.9" cy="107.4" r="4.0" fill="#b8a050"/>
<circle cx="229.9" cy="96.0" r="4.0" fill="#b8a050"/>
<circle cx="229.9" cy="84.5" r="4.0" fill="#b8a050"/>
<circle cx="180.5" cy="164.5" r="4.0" fill="#b8a050"/>
<circle cx="180.5" cy="153.1" r="4.0" fill="#b8a050"/>
<circle cx="180.5" cy="141.7" r="4.0" fill="#b8a050"/>
<circle cx="180.5" cy="130.2" r="4.0" fill="#b8a050"/>
<circle cx="180.5" cy="118.8" r="4.0" fill="#b8a050"/>
<circle cx="180.5" cy="107.4" r="4.0" fill="#b8a050"/>
<circle cx="180.5" cy="96.0" r="4.0" fill="#b8a050"/>
<circle cx="180.5" cy="84.5" r="4.0" fill="#b8a050"/>
<circle cx="462.1" cy="164.5" r="4.0" fill="#b8a050"/>
<circle cx="462.1" cy="153.1" r="4.0" fill="#b8a050"/>
<circle cx="462.1" cy="141.7" r="4.0" fill="#b8a050"/>
<circle cx="462.1" cy="130.2" r="4.0" fill="#b8a050"/>
<circle cx="462.1" cy="118.8" r="4.0" fill="#b8a050"/>
<circle cx="462.1" cy="107.4" r="4.0" fill="#b8a050"/>
<circle cx="462.1" cy="96.0" r="4.0" fill="#b8a050"/>
<circle cx="462.1" cy="84.5" r="4.0" fill="#b8a050"/>
<circle cx="412.7" cy="164.5" r="4.0" fill="#b8a050"/>
<circle cx="412.7" cy="153.1" r="4.0" fill="#b8a050"/>
<circle cx="412.7" cy="141.7" r="4.0" fill="#b8a050"/>
<circle cx="412.7" cy="130.2" r="4.0" fill="#b8a050"/>
<circle cx="412.7" cy="118.8" r="4.0" fill="#b8a050"/>
<circle cx="412.7" cy="107.4" r="4.0" fill="#b8a050"/>
<circle cx="412.7" cy="96.0" r="4.0" fill="#b8a050"/>
<circle cx="412.7" cy="84.5" r="4.0" fill="#b8a050"/>
<circle cx="307.3" cy="164.5" r="4.0" fill="#b8a050"/>
<circle cx="307.3" cy="153.1" r="4.0" fill="#b8a050"/>
<circle cx="307.3" cy="141.7" r="4.0" fill="#b8a050"/>
<circle cx="307.3" cy="130.2" r="4.0" fill="#b8a050"/>
<circle cx="307.3" cy="118.8" r="4.0" fill="#b8a050"/>
<circle cx="307.3" cy="107.4" r="4.0" fill="#b8a050"/>
<circle cx="307.3" cy="96.0" r="4.0" fill="#b8a050"/>
<circle cx="307.3" cy="84.5" r="4.0" fill="#b8a050"/>
<circle cx="257.9" cy="164.5" r="4.0" fill="#b8a050"/>
<circle cx="257.9" cy="153.1" r="4.0" fill="#b8a050"/>
<circle cx="257.9" cy="141.7" r="4.0" fill="#b8a050"/>
<circle cx="257.9" cy="130.2" r="4.0" fill="#b8a050"/>
<circle cx="257.9" cy="118.8" r="4.0" fill="#b8a050"/>
<circle cx="257.9" cy="107.4" r="4.0" fill="#b8a050"/>
<circle cx="257.9" cy="96.0" r="4.0" fill="#b8a050"/>
<circle cx="257.9" cy="84.5" r="4.0" fill="#b8a050"/>
<circle cx="539.5" cy="164.5" r="4.0" fill="#b8a050"/>
<circle cx="539.5" cy="153.1" r="4.0" fill="#b8a050"/>
<circle cx="539.5" cy="141.7" r="4.0" fill="#b8a050"/>
<circle cx="539.5" cy="130.2" r="4.0" fill="#b8a050"/>
<circle cx="539.5" cy="118.8" r="4.0" fill="#b8a050"/>
<circle cx="539.5" cy="107.4" r="4.0" fill="#b8a050"/>
<circle cx="539.5" cy="96.0" r="4.0" fill="#b8a050"/>
<circle cx="539.5" cy="84.5" r="4.0" fill="#b8a050"/>
<circle cx="490.1" cy="164.5" r="4.0" fill="#b8a050"/>
<circle cx="490.1" cy="153.1" r="4.0" fill="#b8a050"/>
<circle cx="490.1" cy="141.7" r="4.0" fill="#b8a050"/>
<circle cx="490.1" cy="130.2" r="4.0" fill="#b8a050"/>
<circle cx="490.1" cy="118.8" r="4.0" fill="#b8a050"/>
<circle cx="490.1" cy="107.4" r="4.0" fill="#b8a050"/>
<circle cx="490.1" cy="96.0" r="4.0" fill="#b8a050"/>
<circle cx="490.1" cy="84.5" r="4.0" fill="#b8a050"/>
<circle cx="649.8" cy="88.1" r="4.0" fill="#b8a050"/>
<circle cx="649.8" cy="70.9" r="4.0" fill="#b8a050"/>
<circle cx="673.2" cy="70.9" r="4.0" fill="#b8a050"/>
<circle cx="673.2" cy="79.5" r="4.0" fill="#b8a050"/>
<circle cx="673.2" cy="88.1" r="4.0" fill="#b8a050"/>
<circle cx="384.7" cy="164.5" r="4.0" fill="#b8a050"/>
<circle cx="384.7" cy="153.1" r="4.0" fill="#b8a050"/>
<circle cx="384.7" cy="141.7" r="4.0" fill="#b8a050"/>
<circle cx="384.7" cy="130.2" r="4.0" fill="#b8a050"/>
<circle cx="384.7" cy="118.8" r="4.0" fill="#b8a050"/>
<circle cx="384.7" cy="107.4" r="4.0" fill="#b8a050"/>
<circle cx="384.7" cy="96.0" r="4.0" fill="#b8a050"/>
<circle cx="384.7" cy="84.5" r="4.0" fill="#b8a050"/>
<circle cx="335.3" cy="164.5" r="4.0" fill="#b8a050"/>
<circle cx="335.3" cy="153.1" r="4.0" fill="#b8a050"/>
<circle cx="335.3" cy="141.7" r="4.0" fill="#b8a050"/>
<circle cx="335.3" cy="130.2" r="4.0" fill="#b8a050"/>
<circle cx="335.3" cy="118.8" r="4.0" fill="#b8a050"/>
<circle cx="335.3" cy="107.4" r="4.0" fill="#b8a050"/>
<circle cx="335.3" cy="96.0" r="4.0" fill="#b8a050"/>
<circle cx="335.3" cy="84.5" r="4.0" fill="#b8a050"/>
<circle cx="152.5" cy="164.5" r="4.0" fill="#b8a050"/>
<circle cx="152.5" cy="153.1" r="4.0" fill="#b8a050"/>
<circle cx="152.5" cy="141.7" r="4.0" fill="#b8a050"/>
<circle cx="152.5" cy="130.2" r="4.0" fill="#b8a050"/>
<circle cx="152.5" cy="118.8" r="4.0" fill="#b8a050"/>
<circle cx="152.5" cy="107.4" r="4.0" fill="#b8a050"/>
<circle cx="152.5" cy="96.0" r="4.0" fill="#b8a050"/>
<circle cx="152.5" cy="84.5" r="4.0" fill="#b8a050"/>
<circle cx="103.1" cy="164.5" r="4.0" fill="#b8a050"/>
<circle cx="103.1" cy="153.1" r="4.0" fill="#b8a050"/>
<circle cx="103.1" cy="141.7" r="4.0" fill="#b8a050"/>
<circle cx="103.1" cy="130.2" r="4.0" fill="#b8a050"/>
<circle cx="103.1" cy="118.8" r="4.0" fill="#b8a050"/>
<circle cx="103.1" cy="107.4" r="4.0" fill="#b8a050"/>
<circle cx="103.1" cy="96.0" r="4.0" fill="#b8a050"/>
<circle cx="103.1" cy="84.5" r="4.0" fill="#b8a050"/>
<circle cx="675.0" cy="146.6" r="4.0" fill="#b8a050"/>
<circle cx="675.0" cy="129.4" r="4.0" fill="#b8a050"/>
<circle cx="657.0" cy="138.0" r="4.0" fill="#b8a050"/>
<circle cx="665.3" cy="102.0" r="4.0" fill="#b8a050"/>
<circle cx="657.7" cy="102.0" r="4.0" fill="#b8a050"/>
<circle cx="203.4" cy="46.0" r="4.0" fill="#b8a050"/>
<circle cx="203.4" cy="53.6" r="4.0" fill="#b8a050"/>
<circle cx="596.0" cy="66.9" r="4.0" fill="#b8a050"/>
<circle cx="588.4" cy="66.9" r="4.0" fill="#b8a050"/>
<circle cx="209.0" cy="66.9" r="4.0" fill="#b8a050"/>
<circle cx="201.4" cy="66.9" r="4.0" fill="#b8a050"/>
<circle cx="441.2" cy="66.9" r="4.0" fill="#b8a050"/>
<circle cx="433.6" cy="66.9" r="4.0" fill="#b8a050"/>
<circle cx="286.4" cy="66.9" r="4.0" fill="#b8a050"/>
<circle cx="278.8" cy="66.9" r="4.0" fill="#b8a050"/>
<circle cx="518.6" cy="66.9" r="4.0" fill="#b8a050"/>
<circle cx="511.0" cy="66.9" r="4.0" fill="#b8a050"/>
<circle cx="363.8" cy="66.9" r="4.0" fill="#b8a050"/>
<circle cx="356.2" cy="66.9" r="4.0" fill="#b8a050"/>
<circle cx="131.6" cy="66.9" r="4.0" fill="#b8a050"/>
<circle cx="124.0" cy="66.9" r="4.0" fill="#b8a050"/>
<circle cx="688.5" cy="134.1" r="4.0" fill="#b8a050"/>
<circle cx="688.5" cy="141.9" r="4.0" fill="#b8a050"/>
<circle cx="419.4" cy="45.9" r="4.0" fill="#b8a050"/>
<circle cx="419.4" cy="53.7" r="4.0" fill="#b8a050"/>
<line x1="335.2" y1="242.8" x2="567.5" y2="107.4" stroke="#2f6fdf" stroke-width="1.2" stroke-opacity="0.85"/>
<line x1="310.3" y1="242.8" x2="567.5" y2="118.8" stroke="#2f6fdf" stroke-width="1.2" stroke-opacity="0.85"/>
<line x1="285.5" y1="242.8" x2="567.5" y2="130.2" stroke="#2f6fdf" stroke-width="1.2" stroke-opacity="0.85"/>
<line x1="260.6" y1="242.8" x2="567.5" y2="141.7" stroke="#2f6fdf" stroke-width="1.2" stroke-opacity="0.85"/>
<line x1="235.8" y1="242.8" x2="616.9" y2="141.7" stroke="#2f6fdf" stroke-width="1.2" stroke-opacity="0.85"/>
<line x1="211.0" y1="242.8" x2="616.9" y2="130.2" stroke="#2f6fdf" stroke-width="1.2" stroke-opacity="0.85"/>
<line x1="186.1" y1="242.8" x2="616.9" y2="118.8" stroke="#2f6fdf" stroke-width="1.2" stroke-opacity="0.85"/>
<line x1="161.3" y1="242.8" x2="616.9" y2="107.4" stroke="#2f6fdf" stroke-width="1.2" stroke-opacity="0.85"/>
<line x1="533.9" y1="242.8" x2="180.5" y2="107.4" stroke="#2f6fdf" stroke-width="1.2" stroke-opacity="0.85"/>
<line x1="509.0" y1="242.8" x2="180.5" y2="118.8" stroke="#2f6fdf" stroke-width="1.2" stroke-opacity="0.85"/>
<line x1="484.2" y1="242.8" x2="180.5" y2="130.2" stroke="#2f6fdf" stroke-width="1.2" stroke-opacity="0.85"/>
<line x1="459.4" y1="242.8" x2="180.5" y2="141.7" stroke="#2f6fdf" stroke-width="1.2" stroke-opacity="0.85"/>
<line x1="434.5" y1="242.8" x2="229.9" y2="141.7" stroke="#2f6fdf" stroke-width="1.2" stroke-opacity="0.85"/>
<line x1="409.7" y1="242.8" x2="229.9" y2="130.2" stroke="#2f6fdf" stroke-width="1.2" stroke-opacity="0.85"/>
<line x1="384.8" y1="242.8" x2="229.9" y2="118.8" stroke="#2f6fdf" stroke-width="1.2" stroke-opacity="0.85"/>
<line x1="360.0" y1="242.8" x2="229.9" y2="107.4" stroke="#2f6fdf" stroke-width="1.2" stroke-opacity="0.85"/>
<line x1="322.7" y1="217.2" x2="412.7" y2="107.4" stroke="#2f6fdf" stroke-width="1.2" stroke-opacity="0.85"/>
<line x1="297.9" y1="217.2" x2="412.7" y2="118.8" stroke="#2f6fdf" stroke-width="1.2" stroke-opacity="0.85"/>
<line x1="273.1" y1="217.2" x2="412.7" y2="130.2" stroke="#2f6fdf" stroke-width="1.2" stroke-opacity="0.85"/>
<line x1="248.2" y1="217.2" x2="412.7" y2="141.7" stroke="#2f6fdf" stroke-width="1.2" stroke-opacity="0.85"/>
<line x1="223.4" y1="217.2" x2="462.1" y2="141.7" stroke="#2f6fdf" stroke-width="1.2" stroke-opacity="0.85"/>
<line x1="198.5" y1="217.2" x2="462.1" y2="130.2" stroke="#2f6fdf" stroke-width="1.2" stroke-opacity="0.85"/>
<line x1="173.7" y1="217.2" x2="462.1" y2="118.8" stroke="#2f6fdf" stroke-width="1.2" stroke-opacity="0.85"/>
<line x1="558.7" y1="242.8" x2="462.1" y2="107.4" stroke="#2f6fdf" stroke-width="1.2" stroke-opacity="0.85"/>
<line x1="521.5" y1="217.2" x2="257.9" y2="107.4" stroke="#2f6fdf" stroke-width="1.2" stroke-opacity="0.85"/>
<line x1="496.6" y1="217.2" x2="257.9" y2="118.8" stroke="#2f6fdf" stroke-width="1.2" stroke-opacity="0.85"/>
<line x1="471.8" y1="217.2" x2="257.9" y2="130.2" stroke="#2f6fdf" stroke-width="1.2" stroke-opacity="0.85"/>
<line x1="446.9" y1="217.2" x2="257.9" y2="141.7" stroke="#2f6fdf" stroke-width="1.2" stroke-opacity="0.85"/>
<line x1="422.1" y1="217.2" x2="307.3" y2="141.7" stroke="#2f6fdf" stroke-width="1.2" stroke-opacity="0.85"/>
<line x1="397.3" y1="217.2" x2="307.3" y2="130.2" stroke="#2f6fdf" stroke-width="1.2" stroke-opacity="0.85"/>
<line x1="372.4" y1="217.2" x2="307.3" y2="118.8" stroke="#2f6fdf" stroke-width="1.2" stroke-opacity="0.85"/>
<line x1="347.6" y1="217.2" x2="307.3" y2="107.4" stroke="#2f6fdf" stroke-width="1.2" stroke-opacity="0.85"/>
<line x1="490.1" y1="107.4" x2="490.1" y2="153.1" stroke="#999" stroke-width="1.2" stroke-opacity="0.85"/>
<line x1="490.1" y1="118.8" x2="490.1" y2="164.5" stroke="#999" stroke-width="1.2" stroke-opacity="0.85"/>
<line x1="490.1" y1="130.2" x2="490.1" y2="153.1" stroke="#999" stroke-width="1.2" stroke-opacity="0.85"/>
<line x1="490.1" y1="141.7" x2="490.1" y2="164.5" stroke="#999" stroke-width="1.2" stroke-opacity="0.85"/>
<line x1="211.0" y1="191.6" x2="539.5" y2="141.7" stroke="#2f6fdf" stroke-width="1.2" stroke-opacity="0.85"/>
<line x1="186.1" y1="191.6" x2="539.5" y2="130.2" stroke="#2f6fdf" stroke-width="1.2" stroke-opacity="0.85"/>
<line x1="161.3" y1="191.6" x2="539.5" y2="118.8" stroke="#2f6fdf" stroke-width="1.2" stroke-opacity="0.85"/>
<line x1="539.5" y1="118.8" x2="673.2" y2="79.5" stroke="#2f6fdf" stroke-width="1.2" stroke-opacity="0.85"/>
<line x1="546.3" y1="217.2" x2="539.5" y2="107.4" stroke="#2f6fdf" stroke-width="1.2" stroke-opacity="0.85"/>
<line x1="260.6" y1="191.6" x2="335.3" y2="153.1" stroke="#e07020" stroke-width="1.2" stroke-opacity="0.85"/>
<line x1="384.7" y1="164.5" x2="675.0" y2="146.6" stroke="#e07020" stroke-width="1.2" stroke-opacity="0.85"/>
<line x1="675.0" y1="146.6" x2="688.5" y2="141.9" stroke="#e07020" stroke-width="1.2" stroke-opacity="0.85"/>
<line x1="310.3" y1="191.6" x2="384.7" y2="153.1" stroke="#e07020" stroke-width="1.2" stroke-opacity="0.85"/>
<line x1="335.2" y1="191.6" x2="384.7" y2="141.7" stroke="#e07020" stroke-width="1.2" stroke-opacity="0.85"/>
<line x1="360.0" y1="191.6" x2="384.7" y2="130.2" stroke="#e07020" stroke-width="1.2" stroke-opacity="0.85"/>
<line x1="384.8" y1="191.6" x2="384.7" y2="118.8" stroke="#e07020" stroke-width="1.2" stroke-opacity="0.85"/>
<line x1="409.7" y1="191.6" x2="384.7" y2="107.4" stroke="#e07020" stroke-width="1.2" stroke-opacity="0.85"/>
<line x1="434.5" y1="191.6" x2="384.7" y2="96.0" stroke="#e07020" stroke-width="1.2" stroke-opacity="0.85"/>
<line x1="459.4" y1="191.6" x2="103.1" y2="153.1" stroke="#e07020" stroke-width="1.2" stroke-opacity="0.85"/>
<line x1="484.2" y1="191.6" x2="152.5" y2="164.5" stroke="#e07020" stroke-width="1.2" stroke-opacity="0.85"/>
<line x1="509.0" y1="191.6" x2="152.5" y2="153.1" stroke="#e07020" stroke-width="1.2" stroke-opacity="0.85"/>
<line x1="533.9" y1="191.6" x2="152.5" y2="141.7" stroke="#e07020" stroke-width="1.2" stroke-opacity="0.85"/>
<line x1="558.7" y1="191.6" x2="152.5" y2="130.2" stroke="#e07020" stroke-width="1.2" stroke-opacity="0.85"/>
<line x1="567.5" y1="84.5" x2="461.4" y2="49.5" stroke="#2a9d50" stroke-width="1.2" stroke-opacity="0.85"/>
<line x1="567.5" y1="96.0" x2="180.5" y2="84.5" stroke="#2a9d50" stroke-width="1.2" stroke-opacity="0.85"/>
<line x1="180.5" y1="96.0" x2="412.7" y2="84.5" stroke="#2a9d50" stroke-width="1.2" stroke-opacity="0.85"/>
<line x1="412.7" y1="96.0" x2="257.9" y2="84.5" stroke="#2a9d50" stroke-width="1.2" stroke-opacity="0.85"/>
<line x1="257.9" y1="96.0" x2="490.1" y2="84.5" stroke="#2a9d50" stroke-width="1.2" stroke-opacity="0.85"/>
<line x1="335.3" y1="141.7" x2="234.0" y2="49.6" stroke="#2a9d50" stroke-width="1.2" stroke-opacity="0.85"/>
<line x1="335.3" y1="84.5" x2="103.1" y2="141.7" stroke="#2a9d50" stroke-width="1.2" stroke-opacity="0.85"/>
<rect x="0" y="268.5" width="720.0" height="268.5" fill="#fafafa" stroke="#ccc"/>
<text x="8" y="288.5" font-weight="bold">After pin swap: 860 mm of ratsnest, 154 crossings</text>
<circle cx="245.4" cy="317.9" r="4.0" fill="#b8a050"/>
<circle cx="222.6" cy="317.9" r="4.0" fill="#b8a050"/>
<circle cx="234.0" cy="318.1" r="4.0" fill="#b8a050"/>
<circle cx="461.4" cy="318.0" r="4.0" fill="#b8a050"/>
<circle cx="438.6" cy="317.9" r="4.0" fill="#b8a050"/>
<circle cx="634.9" cy="485.7" r="7.2" fill="#b8a050"/>
<circle cx="85.0" cy="485.7" r="7.2" fill="#b8a050"/>
<circle cx="558.7" cy="460.1" r="7.2" fill="#b8a050"/>
<circle cx="533.9" cy="460.1" r="7.2" fill="#b8a050"/>
<circle cx="509.0" cy="460.1" r="7.2" fill="#b8a050"/>
<circle cx="484.2" cy="460.1" r="7.2" fill="#b8a050"/>
<circle cx="459.4" cy="460.1" r="7.2" fill="#b8a050"/>
<circle cx="434.5" cy="460.1" r="7.2" fill="#b8a050"/>
<circle cx="409.7" cy="460.1" r="7.2" fill="#b8a050"/>
<circle cx="384.8" cy="460.1" r="7.2" fill="#b8a050"/>
<circle cx="360.0" cy="460.1" r="7.2" fill="#b8a050"/>
<circle cx="335.2" cy="460.1" r="7.2" fill="#b8a050"/>
<circle cx="310.3" cy="460.1" r="7.2" fill="#b8a050"/>
<circle cx="285.5" cy="460.1" r="7.2" fill="#b8a050"/>
<circle cx="260.6" cy="460.1" r="7.2" fill="#b8a050"/>
<circle cx="235.8" cy="460.1" r="7.2" fill="#b8a050"/>
<circle cx="211.0" cy="460.1" r="7.2" fill="#b8a050"/>
<circle cx="186.1" cy="460.1" r="7.2" fill="#b8a050"/>
<circle cx="161.3" cy="460.1" r="7.2" fill="#b8a050"/>
<circle cx="546.3" cy="485.7" r="7.2" fill="#b8a050"/>
<circle cx="521.5" cy="485.7" r="7.2" fill="#b8a050"/>
<circle cx="496.6" cy="485.7" r="7.2" fill="#b8a050"/>
<circle cx="471.8" cy="485.7" r="7.2" fill="#b8a050"/>
<circle cx="446.9" cy="485.7" r="7.2" fill="#b8a050"/>
<circle cx="422.1" cy="485.7" r="7.2" fill="#b8a050"/>
<circle cx="397.3" cy="485.7" r="7.2" fill="#b8a050"/>
<circle cx="372.4" cy="485.7" r="7.2" fill="#b8a050"/>
<circle cx="347.6" cy="485.7" r="7.2" fill="#b8a050"/>
<circle cx="322.7" cy="485.7" r="7.2" fill="#b8a050"/>
<circle cx="297.9" cy="485.7" r="7.2" fill="#b8a050"/>
<circle cx="273.1" cy="485.7" r="7.2" fill="#b8a050"/>
<circle cx="248.2" cy="485.7" r="7.2" fill="#b8a050"/>
<circle cx="223.4" cy="485.7" r="7.2" fill="#b8a050"/>
<circle cx="198.5" cy="485.7" r="7.2" fill="#b8a050"/>
<circle cx="173.7" cy="485.7" r="7.2" fill="#b8a050"/>
<circle cx="558.7" cy="511.3" r="7.2" fill="#b8a050"/>
<circle cx="533.9" cy="511.3" r="7.2" fill="#b8a050"/>
<circle cx="509.0" cy="511.3" r="7.2" fill="#b8a050"/>
<circle cx="484.2" cy="511.3" r="7.2" fill="#b8a050"/>
<circle cx="459.4" cy="511.3" r="7.2" fill="#b8a050"/>
<circle cx="434.5" cy="511.3" r="7.2" fill="#b8a050"/>
<circle cx="409.7" cy="511.3" r="7.2" fill="#b8a050"/>
<circle cx="384.8" cy="511.3" r="7.2" fill="#b8a050"/>
<circle cx="360.0" cy="511.3" r="7.2" fill="#b8a050"/>
<circle cx="335.2" cy="511.3" r="7.2" fill="#b8a050"/>
<circle cx="310.3" cy="511.3" r="7.2" fill="#b8a050"/>
<circle cx="285.5" cy="511.3" r="7.2" fill="#b8a050"/>
<circle cx="260.6" cy="511.3" r="7.2" fill="#b8a050"/>
<circle cx="235.8" cy="511.3" r="7.2" fill="#b8a050"/>
<circle cx="211.0" cy="511.3" r="7.2" fill="#b8a050"/>
<circle cx="186.1" cy="511.3" r="7.2" fill="#b8a050"/>
<circle cx="161.3" cy="511.3" r="7.2" fill="#b8a050"/>
<circle cx="616.9" cy="433.0" r="4.0" fill="#b8a050"/>
<circle cx="616.9" cy="421.6" r="4.0" fill="#b8a050"/>
<circle cx="616.9" cy="410.2" r="4.0" fill="#b8a050"/>
<circle cx="616.9" cy="398.7" r="4.0" fill="#b8a050"/>
<circle cx="616.9" cy="387.3" r="4.0" fill="#b8a050"/>
<circle cx="616.9" cy="375.9" r="4.0" fill="#b8a050"/>
<circle cx="616.9" cy="364.5" r="4.0" fill="#b8a050"/>
<circle cx="616.9" cy="353.0" r="4.0" fill="#b8a050"/>
<circle cx="567.5" cy="433.0" r="4.0" fill="#b8a050"/>
<circle cx="567.5" cy="421.6" r="4.0" fill="#b8a050"/>
<circle cx="567.5" cy="410.2" r="4.0" fill="#b8a050"/>
<circle cx="567.5" cy="398.7" r="4.0" fill="#b8a050"/>
<circle cx="567.5" cy="387.3" r="4.0" fill="#b8a050"/>
<circle cx="567.5" cy="375.9" r="4.0" fill="#b8a050"/>
<circle cx="567.5" cy="364.5" r="4.0" fill="#b8a050"/>
<circle cx="567.5" cy="353.0" r="4.0" fill="#b8a050"/>
<circle cx="229.9" cy="433.0" r="4.0" fill="#b8a050"/>
<circle cx="229.9" cy="421.6" r="4.0" fill="#b8a050"/>
<circle cx="229.9" cy="410.2" r="4.0" fill="#b8a050"/>
<circle cx="229.9" cy="398.7" r="4.0" fill="#b8a050"/>
<circle cx="229.9" cy="387.3" r="4.0" fill="#b8a050"/>
<circle cx="229.9" cy="375.9" r="4.0" fill="#b8a050"/>
<circle cx="229.9" cy="364.5" r="4.0" fill="#b8a050"/>
<circle cx="229.9" cy="353.0" r="4.0" fill="#b8a050"/>
<circle cx="180.5" cy="433.0" r="4.0" fill="#b8a050"/>
<circle cx="180.5" cy="421.6" r="4.0" fill="#b8a050"/>
<circle cx="180.5" cy="410.2" r="4.0" fill="#b8a050"/>
<circle cx="180.5" cy="398.7" r="4.0" fill="#b8a050"/>
<circle cx="180.5" cy="387.3" r="4.0" fill="#b8a050"/>
<circle cx="180.5" cy="375.9" r="4.0" fill="#b8a050"/>
<circle cx="180.5" cy="364.5" r="4.0" fill="#b8a050"/>
<circle cx="180.5" cy="353.0" r="4.0" fill="#b8a050"/>
<circle cx="462.1" cy="433.0" r="4.0" fill="#b8a050"/>
<circle cx="462.1" cy="421.6" r="4.0" fill="#b8a050"/>
<circle cx="462.1" cy="410.2" r="4.0" fill="#b8a050"/>
<circle cx="462.1" cy="398.7" r="4.0" fill="#b8a050"/>
<circle cx="462.1" cy="387.3" r="4.0" fill="#b8a050"/>
<circle cx="462.1" cy="375.9" r="4.0" fill="#b8a050"/>
<circle cx="462.1" cy="364.5" r="4.0" fill="#b8a050"/>
<circle cx="462.1" cy="353.0" r="4.0" fill="#b8a050"/>
<circle cx="412.7" cy="433.0" r="4.0" fill="#b8a050"/>
<circle cx="412.7" cy="421.6" r="4.0" fill="#b8a050"/>
<circle cx="412.7" cy="410.2" r="4.0" fill="#b8a050"/>
<circle cx="412.7" cy="398.7" r="4.0" fill="#b8a050"/>
<circle cx="412.7" cy="387.3" r="4.0" fill="#b8a050"/>
<circle cx="412.7" cy="375.9" r="4.0" fill="#b8a050"/>
<circle cx="412.7" cy="364.5" r="4.0" fill="#b8a050"/>
<circle cx="412.7" cy="353.0" r="4.0" fill="#b8a050"/>
<circle cx="307.3" cy="433.0" r="4.0" fill="#b8a050"/>
<circle cx="307.3" cy="421.6" r="4.0" fill="#b8a050"/>
<circle cx="307.3" cy="410.2" r="4.0" fill="#b8a050"/>
<circle cx="307.3" cy="398.7" r="4.0" fill="#b8a050"/>
<circle cx="307.3" cy="387.3" r="4.0" fill="#b8a050"/>
<circle cx="307.3" cy="375.9" r="4.0" fill="#b8a050"/>
<circle cx="307.3" cy="364.5" r="4.0" fill="#b8a050"/>
<circle cx="307.3" cy="353.0" r="4.0" fill="#b8a050"/>
<circle cx="257.9" cy="433.0" r="4.0" fill="#b8a050"/>
<circle cx="257.9" cy="421.6" r="4.0" fill="#b8a050"/>
<circle cx="257.9" cy="410.2" r="4.0" fill="#b8a050"/>
<circle cx="257.9" cy="398.7" r="4.0" fill="#b8a050"/>
<circle cx="257.9" cy="387.3" r="4.0" fill="#b8a050"/>
<circle cx="257.9" cy="375.9" r="4.0" fill="#b8a050"/>
<circle cx="257.9" cy="364.5" r="4.0" fill="#b8a050"/>
<circle cx="257.9" cy="353.0" r="4.0" fill="#b8a050"/>
<circle cx="539.5" cy="433.0" r="4.0" fill="#b8a050"/>
<circle cx="539.5" cy="421.6" r="4.0" fill="#b8a050"/>
<circle cx="539.5" cy="410.2" r="4.0" fill="#b8a050"/>
<circle cx="539.5" cy="398.7" r="4.0" fill="#b8a050"/>
<circle cx="539.5" cy="387.3" r="4.0" fill="#b8a050"/>
<circle cx="539.5" cy="375.9" r="4.0" fill="#b8a050"/>
<circle cx="539.5" cy="364.5" r="4.0" fill="#b8a050"/>
<circle cx="539.5" cy="353.0" r="4.0" fill="#b8a050"/>
<circle cx="490.1" cy="433.0" r="4.0" fill="#b8a050"/>
<circle cx="490.1" cy="421.6" r="4.0" fill="#b8a050"/>
<circle cx="490.1" cy="410.2" r="4.0" fill="#b8a050"/>
<circle cx="490.1" cy="398.7" r="4.0" fill="#b8a050"/>
<circle cx="490.1" cy="387.3" r="4.0" fill="#b8a050"/>
<circle cx="490.1" cy="375.9" r="4.0" fill="#b8a050"/>
<circle cx="490.1" cy="364.5" r="4.0" fill="#b8a050"/>
<circle cx="490.1" cy="353.0" r="4.0" fill="#b8a050"/>
<circle cx="649.8" cy="356.6" r="4.0" fill="#b8a050"/>
<circle cx="649.8" cy="339.4" r="4.0" fill="#b8a050"/>
<circle cx="673.2" cy="339.4" r="4.0" fill="#b8a050"/>
<circle cx="673.2" cy="348.0" r="4.0" fill="#b8a050"/>
<circle cx="673.2" cy="356.6" r="4.0" fill="#b8a050"/>
<circle cx="384.7" cy="433.0" r="4.0" fill="#b8a050"/>
<circle cx="384.7" cy="421.6" r="4.0" fill="#b8a050"/>
<circle cx="384.7" cy="410.2" r="4.0" fill="#b8a050"/>
<circle cx="384.7" cy="398.7" r="4.0" fill="#b8a050"/>
<circle cx="384.7" cy="387.3" r="4.0" fill="#b8a050"/>
<circle cx="384.7" cy="375.9" r="4.0" fill="#b8a050"/>
<circle cx="384.7" cy="364.5" r="4.0" fill="#b8a050"/>
<circle cx="384.7" cy="353.0" r="4.0" fill="#b8a050"/>
<circle cx="335.3" cy="433.0" r="4.0" fill="#b8a050"/>
<circle cx="335.3" cy="421.6" r="4.0" fill="#b8a050"/>
<circle cx="335.3" cy="410.2" r="4.0" fill="#b8a050"/>
<circle cx="335.3" cy="398.7" r="4.0" fill="#b8a050"/>
<circle cx="335.3" cy="387.3" r="4.0" fill="#b8a050"/>
<circle cx="335.3" cy="375.9" r="4.0" fill="#b8a050"/>
<circle cx="335.3" cy="364.5" r="4.0" fill="#b8a050"/>
<circle cx="335.3" cy="353.0" r="4.0" fill="#b8a050"/>
<circle cx="152.5" cy="433.0" r="4.0" fill="#b8a050"/>
<circle cx="152.5" cy="421.6" r="4.0" fill="#b8a050"/>
<circle cx="152.5" cy="410.2" r="4.0" fill="#b8a050"/>
<circle cx="152.5" cy="398.7" r="4.0" fill="#b8a050"/>
<circle cx="152.5" cy="387.3" r="4.0" fill="#b8a050"/>
<circle cx="152.5" cy="375.9" r="4.0" fill="#b8a050"/>
<circle cx="152.5" cy="364.5" r="4.0" fill="#b8a050"/>
<circle cx="152.5" cy="353.0" r="4.0" fill="#b8a050"/>
<circle cx="103.1" cy="433.0" r="4.0" fill="#b8a050"/>
<circle cx="103.1" cy="421.6" r="4.0" fill="#b8a050"/>
<circle cx="103.1" cy="410.2" r="4.0" fill="#b8a050"/>
<circle cx="103.1" cy="398.7" r="4.0" fill="#b8a050"/>
<circle cx="103.1" cy="387.3" r="4.0" fill="#b8a050"/>
<circle cx="103.1" cy="375.9" r="4.0" fill="#b8a050"/>
<circle cx="103.1" cy="364.5" r="4.0" fill="#b8a050"/>
<circle cx="103.1" cy="353.0" r="4.0" fill="#b8a050"/>
<circle cx="675.0" cy="415.1" r="4.0" fill="#b8a050"/>
<circle cx="675.0" cy="397.9" r="4.0" fill="#b8a050"/>
<circle cx="657.0" cy="406.5" r="4.0" fill="#b8a050"/>
<circle cx="665.3" cy="370.5" r="4.0" fill="#b8a050"/>
<circle cx="657.7" cy="370.5" r="4.0" fill="#b8a050"/>
<circle cx="203.4" cy="314.5" r="4.0" fill="#b8a050"/>
<circle cx="203.4" cy="322.1" r="4.0" fill="#b8a050"/>
<circle cx="596.0" cy="335.4" r="4.0" fill="#b8a050"/>
<circle cx="588.4" cy="335.4" r="4.0" fill="#b8a050"/>
<circle cx="209.0" cy="335.4" r="4.0" fill="#b8a050"/>
<circle cx="201.4" cy="335.4" r="4.0" fill="#b8a050"/>
<circle cx="441.2" cy="335.4" r="4.0" fill="#b8a050"/>
<circle cx="433.6" cy="335.4" r="4.0" fill="#b8a050"/>
<circle cx="286.4" cy="335.4" r="4.0" fill="#b8a050"/>
<circle cx="278.8" cy="335.4" r="4.0" fill="#b8a050"/>
<circle cx="518.6" cy="335.4" r="4.0" fill="#b8a050"/>
<circle cx="511.0" cy="335.4" r="4.0" fill="#b8a050"/>
<circle cx="363.8" cy="335.4" r="4.0" fill="#b8a050"/>
<circle cx="356.2" cy="335.4" r="4.0" fill="#b8a050"/>
<circle cx="131.6" cy="335.4" r="4.0" fill="#b8a050"/>
<circle cx="124.0" cy="335.4" r="4.0" fill="#b8a050"/>
<circle cx="688.5" cy="402.6" r="4.0" fill="#b8a050"/>
<circle cx="688.5" cy="410.4" r="4.0" fill="#b8a050"/>
<circle cx="419.4" cy="314.4" r="4.0" fill="#b8a050"/>
<circle cx="419.4" cy="322.2" r="4.0" fill="#b8a050"/>
<line x1="567.5" y1="375.9" x2="567.5" y2="433.0" stroke="#999" stroke-width="1.2" stroke-opacity="0.85"/>
<line x1="567.5" y1="387.3" x2="567.5" y2="433.0" stroke="#999" stroke-width="1.2" stroke-opacity="0.85"/>
<line x1="521.5" y1="485.7" x2="567.5" y2="398.7" stroke="#2f6fdf" stroke-width="1.2" stroke-opacity="0.85"/>
<line x1="509.0" y1="511.3" x2="567.5" y2="410.2" stroke="#2f6fdf" stroke-width="1.2" stroke-opacity="0.85"/>
<line x1="558.7" y1="511.3" x2="616.9" y2="410.2" stroke="#2f6fdf" stroke-width="1.2" stroke-opacity="0.85"/>
<line x1="533.9" y1="511.3" x2="616.9" y2="398.7" stroke="#2f6fdf" stroke-width="1.2" stroke-opacity="0.85"/>
<line x1="546.3" y1="485.7" x2="616.9" y2="387.3" stroke="#2f6fdf" stroke-width="1.2" stroke-opacity="0.85"/>
<line x1="616.9" y1="375.9" x2="616.9" y2="353.0" stroke="#999" stroke-width="1.2" stroke-opacity="0.85"/>
<line x1="161.3" y1="460.1" x2="180.5" y2="375.9" stroke="#2f6fdf" stroke-width="1.2" stroke-opacity="0.85"/>
<line x1="180.5" y1="375.9" x2="673.2" y2="348.0" stroke="#2f6fdf" stroke-width="1.2" stroke-opacity="0.85"/>
<line x1="161.3" y1="511.3" x2="180.5" y2="387.3" stroke="#2f6fdf" stroke-width="1.2" stroke-opacity="0.85"/>
<line x1="186.1" y1="460.1" x2="180.5" y2="398.7" stroke="#2f6fdf" stroke-width="1.2" stroke-opacity="0.85"/>
<line x1="173.7" y1="485.7" x2="180.5" y2="410.2" stroke="#2f6fdf" stroke-width="1.2" stroke-opacity="0.85"/>
<line x1="211.0" y1="511.3" x2="229.9" y2="410.2" stroke="#2f6fdf" stroke-width="1.2" stroke-opacity="0.85"/>
<line x1="211.0" y1="460.1" x2="229.9" y2="398.7" stroke="#2f6fdf" stroke-width="1.2" stroke-opacity="0.85"/>
<line x1="198.5" y1="485.7" x2="229.9" y2="387.3" stroke="#2f6fdf" stroke-width="1.2" stroke-opacity="0.85"/>
<line x1="186.1" y1="511.3" x2="229.9" y2="375.9" stroke="#2f6fdf" stroke-width="1.2" stroke-opacity="0.85"/>
<line x1="322.7" y1="485.7" x2="412.7" y2="375.9" stroke="#2f6fdf" stroke-width="1.2" stroke-opacity="0.85"/>
<line x1="347.6" y1="485.7" x2="412.7" y2="387.3" stroke="#2f6fdf" stroke-width="1.2" stroke-opacity="0.85"/>
<line x1="335.2" y1="511.3" x2="412.7" y2="398.7" stroke="#2f6fdf" stroke-width="1.2" stroke-opacity="0.85"/>
<line x1="372.4" y1="485.7" x2="412.7" y2="410.2" stroke="#2f6fdf" stroke-width="1.2" stroke-opacity="0.85"/>
<line x1="422.1" y1="485.7" x2="462.1" y2="410.2" stroke="#2f6fdf" stroke-width="1.2" stroke-opacity="0.85"/>
<line x1="384.8" y1="511.3" x2="462.1" y2="398.7" stroke="#2f6fdf" stroke-width="1.2" stroke-opacity="0.85"/>
<line x1="397.3" y1="485.7" x2="462.1" y2="387.3" stroke="#2f6fdf" stroke-width="1.2" stroke-opacity="0.85"/>
<line x1="360.0" y1="511.3" x2="462.1" y2="375.9" stroke="#2f6fdf" stroke-width="1.2" stroke-opacity="0.85"/>
<line x1="223.4" y1="485.7" x2="257.9" y2="375.9" stroke="#2f6fdf" stroke-width="1.2" stroke-opacity="0.85"/>
<line x1="235.8" y1="511.3" x2="257.9" y2="387.3" stroke="#2f6fdf" stroke-width="1.2" stroke-opacity="0.85"/>
<line x1="248.2" y1="485.7" x2="257.9" y2="398.7" stroke="#2f6fdf" stroke-width="1.2" stroke-opacity="0.85"/>
<line x1="260.6" y1="511.3" x2="257.9" y2="410.2" stroke="#2f6fdf" stroke-width="1.2" stroke-opacity="0.85"/>
<line x1="310.3" y1="511.3" x2="307.3" y2="410.2" stroke="#2f6fdf" stroke-width="1.2" stroke-opacity="0.85"/>
<line x1="297.9" y1="485.7" x2="307.3" y2="398.7" stroke="#2f6fdf" stroke-width="1.2" stroke-opacity="0.85"/>
<line x1="285.5" y1="511.3" x2="307.3" y2="387.3" stroke="#2f6fdf" stroke-width="1.2" stroke-opacity="0.85"/>
<line x1="273.1" y1="485.7" x2="307.3" y2="375.9" stroke="#2f6fdf" stroke-width="1.2" stroke-opacity="0.85"/>
<line x1="409.7" y1="511.3" x2="490.1" y2="375.9" stroke="#2f6fdf" stroke-width="1.2" stroke-opacity="0.85"/>
<line x1="490.1" y1="387.3" x2="490.1" y2="421.6" stroke="#999" stroke-width="1.2" stroke-opacity="0.85"/>
<line x1="446.9" y1="485.7" x2="490.1" y2="398.7" stroke="#2f6fdf" stroke-width="1.2" stroke-opacity="0.85"/>
<line x1="434.5" y1="511.3" x2="490.1" y2="410.2" stroke="#2f6fdf" stroke-width="1.2" stroke-opacity="0.85"/>
<line x1="484.2" y1="511.3" x2="539.5" y2="410.2" stroke="#2f6fdf" stroke-width="1.2" stroke-opacity="0.85"/>
<line x1="496.6" y1="485.7" x2="539.5" y2="398.7" stroke="#2f6fdf" stroke-width="1.2" stroke-opacity="0.85"/>
<line x1="459.4" y1="511.3" x2="539.5" y2="387.3" stroke="#2f6fdf" stroke-width="1.2" stroke-opacity="0.85"/>
<line x1="471.8" y1="485.7" x2="539.5" y2="375.9" stroke="#2f6fdf" stroke-width="1.2" stroke-opacity="0.85"/>
<line x1="384.8" y1="460.1" x2="335.3" y2="421.6" stroke="#e07020" stroke-width="1.2" stroke-opacity="0.85"/>
<line x1="409.7" y1="460.1" x2="384.7" y2="433.0" stroke="#e07020" stroke-width="1.2" stroke-opacity="0.85"/>
<line x1="434.5" y1="460.1" x2="384.7" y2="421.6" stroke="#e07020" stroke-width="1.2" stroke-opacity="0.85"/>
<line x1="459.4" y1="460.1" x2="384.7" y2="410.2" stroke="#e07020" stroke-width="1.2" stroke-opacity="0.85"/>
<line x1="484.2" y1="460.1" x2="384.7" y2="398.7" stroke="#e07020" stroke-width="1.2" stroke-opacity="0.85"/>
<line x1="509.0" y1="460.1" x2="384.7" y2="387.3" stroke="#e07020" stroke-width="1.2" stroke-opacity="0.85"/>
<line x1="533.9" y1="460.1" x2="384.7" y2="375.9" stroke="#e07020" stroke-width="1.2" stroke-opacity="0.85"/>
<line x1="558.7" y1="460.1" x2="384.7" y2="364.5" stroke="#e07020" stroke-width="1.2" stroke-opacity="0.85"/>
<line x1="260.6" y1="460.1" x2="152.5" y2="433.0" stroke="#e07020" stroke-width="1.2" stroke-opacity="0.85"/>
<line x1="310.3" y1="460.1" x2="152.5" y2="398.7" stroke="#e07020" stroke-width="1.2" stroke-opacity="0.85"/>
<line x1="335.2" y1="460.1" x2="152.5" y2="387.3" stroke="#e07020" stroke-width="1.2" stroke-opacity="0.85"/>
<line x1="360.0" y1="460.1" x2="152.5" y2="375.9" stroke="#e07020" stroke-width="1.2" stroke-opacity="0.85"/>
<line x1="152.5" y1="364.5" x2="675.0" y2="415.1" stroke="#e07020" stroke-width="1.2" stroke-opacity="0.85"/>
<line x1="675.0" y1="415.1" x2="688.5" y2="410.4" stroke="#e07020" stroke-width="1.2" stroke-opacity="0.85"/>
<line x1="567.5" y1="353.0" x2="461.4" y2="318.0" stroke="#2a9d50" stroke-width="1.2" stroke-opacity="0.85"/>
<line x1="567.5" y1="364.5" x2="490.1" y2="353.0" stroke="#2a9d50" stroke-width="1.2" stroke-opacity="0.85"/>
<line x1="490.1" y1="364.5" x2="412.7" y2="353.0" stroke="#2a9d50" stroke-width="1.2" stroke-opacity="0.85"/>
<line x1="412.7" y1="364.5" x2="257.9" y2="353.0" stroke="#2a9d50" stroke-width="1.2" stroke-opacity="0.85"/>
<line x1="257.9" y1="364.5" x2="180.5" y2="353.0" stroke="#2a9d50" stroke-width="1.2" stroke-opacity="0.85"/>
<line x1="103.1" y1="410.2" x2="234.0" y2="318.1" stroke="#2a9d50" stroke-width="1.2" stroke-opacity="0.85"/>
<line x1="103.1" y1="353.0" x2="335.3" y2="410.2" stroke="#2a9d50" stroke-width="1.2" stroke-opacity="0.85"/>
</svg>