%TF.GenerationSoftware,KiCad,Pcbnew,10.0.6-10.0.6~ubuntu24.04.1*%
%TF.CreationDate,2026-10-09T01:50:29+00:00*%
%TF.ProjectId,solartron_7075_usb,736f6c61-7274-4726-9f6e-5f373037355f,A*%
%TF.SameCoordinates,Original*%
%TF.FileFunction,Copper,L2,Inr*%
%TF.FilePolarity,Positive*%
%FSLAX46Y46*%
G04 Gerber Fmt 4.6, Leading zero omitted, Abs format (unit mm)*
G04 Created by KiCad (PCBNEW 10.0.6-10.0.6~ubuntu24.04.1) date 2026-10-09 01:50:29*
%MOMM*%
%LPD*%
G01*
G04 APERTURE LIST*
%TA.AperFunction,ComponentPad*%
%ADD10R,1.800000X1.800000*%
%TD*%
%TA.AperFunction,ComponentPad*%
%ADD11C,1.800000*%
%TD*%
%TA.AperFunction,ComponentPad*%
%ADD12C,3.000000*%
%TD*%
%TA.AperFunction,ComponentPad*%
%ADD13R,1.520000X1.520000*%
%TD*%
%TA.AperFunction,ComponentPad*%
%ADD14C,1.520000*%
%TD*%
%TA.AperFunction,ComponentPad*%
%ADD15R,1.300000X1.300000*%
%TD*%
%TA.AperFunction,ComponentPad*%
%ADD16C,1.300000*%
%TD*%
%TA.AperFunction,ComponentPad*%
%ADD17C,4.120000*%
%TD*%
%TA.AperFunction,ViaPad*%
%ADD18C,0.600000*%
%TD*%
G04 APERTURE END LIST*
D10*
%TO.N,VBUS*%
%TO.C,U19*%
X105250000Y-72400000D03*
D11*
%TO.N,DATA_N*%
X102750000Y-72400000D03*
%TO.N,DATA_P*%
X102750000Y-75600000D03*
%TO.N,GND*%
X105250000Y-75600000D03*
D12*
X97980000Y-74900000D03*
X110020000Y-74900000D03*
%TD*%
D13*
%TO.N,+5V*%
%TO.C,U2*%
X96600000Y-89920000D03*
D14*
%TO.N,GND*%
X96600000Y-92460000D03*
%TO.N,GND_ISO*%
X96600000Y-97540000D03*
%TO.N,+5V_ISO*%
X96600000Y-102620000D03*
%TD*%
D15*
%TO.N,SKB01_D6_1*%
%TO.C,CN1*%
X107920000Y-119640000D03*
D16*
%TO.N,SKB02_D5_8*%
X110680000Y-119640000D03*
%TO.N,SKB03_D5_4*%
X113440000Y-119640000D03*
%TO.N,SKB04_D5_2*%
X116200000Y-119640000D03*
%TO.N,SKB05_D5_1*%
X118960000Y-119640000D03*
%TO.N,SKB06_D4_8*%
X121720000Y-119640000D03*
%TO.N,SKB07_D4_4*%
X124480000Y-119640000D03*
%TO.N,SKB08_D4_2*%
X127240000Y-119640000D03*
%TO.N,SKB09_D4_1*%
X130000000Y-119640000D03*
%TO.N,SKB10_D3_8*%
X132760000Y-119640000D03*
%TO.N,SKB11_D3_4*%
X135520000Y-119640000D03*
%TO.N,SKB12_D3_2*%
X138280000Y-119640000D03*
%TO.N,SKB13_D3_1*%
X141040000Y-119640000D03*
%TO.N,SKB14_D2_8*%
X143800000Y-119640000D03*
%TO.N,SKB15_D2_4*%
X146560000Y-119640000D03*
%TO.N,SKB16_D2_2*%
X149320000Y-119640000D03*
%TO.N,SKB17_D2_1*%
X152080000Y-119640000D03*
%TO.N,SKB18_D1_8*%
X109300000Y-116800000D03*
%TO.N,SKB19_D1_4*%
X112060000Y-116800000D03*
%TO.N,SKB20_D1_2*%
X114820000Y-116800000D03*
%TO.N,SKB21_D1_1*%
X117580000Y-116800000D03*
%TO.N,SKB22_D0_8*%
X120340000Y-116800000D03*
%TO.N,SKB23_D0_4*%
X123100000Y-116800000D03*
%TO.N,SKB24_D0_2*%
X125860000Y-116800000D03*
%TO.N,SKB25_D0_1*%
X128620000Y-116800000D03*
%TO.N,SKB26_POL_POS*%
X131380000Y-116800000D03*
%TO.N,SKB27_POL_NEG*%
X134140000Y-116800000D03*
%TO.N,SKB28_FUNC_OUT_A*%
X136900000Y-116800000D03*
%TO.N,SKB29_FUNC_OUT_B*%
X139660000Y-116800000D03*
%TO.N,SKB30_RANGE_OUT_4*%
X142420000Y-116800000D03*
%TO.N,SKB31_RANGE_OUT_2*%
X145180000Y-116800000D03*
%TO.N,SKB32_RANGE_OUT_1*%
X147940000Y-116800000D03*
%TO.N,SKB33_PRINT_PULSE*%
X150700000Y-116800000D03*
%TO.N,SKB34_PRINT_LEVEL*%
X107920000Y-113960000D03*
%TO.N,SKB35_DATA_CAN_CHANGE*%
X110680000Y-113960000D03*
%TO.N,SKB36_OVERLOAD*%
X113440000Y-113960000D03*
%TO.N,GND_ISO*%
X116200000Y-113960000D03*
%TO.N,SKB38_LOCKOUT*%
X118960000Y-113960000D03*
%TO.N,SKB39_SAMPLE_CONTACT*%
X121720000Y-113960000D03*
%TO.N,SKB40_SAMPLE_PULSE*%
X124480000Y-113960000D03*
%TO.N,SKB41_RATIO*%
X127240000Y-113960000D03*
%TO.N,SKB42_FUNC_CMD_A*%
X130000000Y-113960000D03*
%TO.N,SKB43_FUNC_CMD_B*%
X132760000Y-113960000D03*
%TO.N,SKB44_INT_TIME_4*%
X135520000Y-113960000D03*
%TO.N,SKB45_INT_TIME_2*%
X138280000Y-113960000D03*
%TO.N,SKB46_INT_TIME_1*%
X141040000Y-113960000D03*
%TO.N,SKB47_AUTORANGE*%
X143800000Y-113960000D03*
%TO.N,SKB48_RANGE_CMD_1*%
X146560000Y-113960000D03*
%TO.N,SKB49_RANGE_CMD_2*%
X149320000Y-113960000D03*
%TO.N,SKB50_RANGE_CMD_4*%
X152080000Y-113960000D03*
D17*
%TO.N,GND_ISO*%
X99450000Y-116800000D03*
X160550000Y-116800000D03*
%TD*%
D18*
%TO.N,+5V_ISO*%
X144600000Y-99320000D03*
X128880000Y-100100000D03*
X120600000Y-99320000D03*
X157292763Y-102566623D03*
X100830000Y-98050000D03*
X134070000Y-98150000D03*
X126070000Y-98150000D03*
X150070000Y-98150000D03*
X136600000Y-99320000D03*
X128507237Y-103846623D03*
X103850000Y-98630000D03*
X140092763Y-102566623D03*
X105692763Y-106386623D03*
X111680000Y-100100000D03*
X120280000Y-100100000D03*
X105692763Y-102566623D03*
X93400000Y-111420000D03*
X146080000Y-100100000D03*
X128600000Y-99320000D03*
X142070000Y-98150000D03*
X95700000Y-110500000D03*
X111850000Y-98630000D03*
X154680000Y-100100000D03*
X103080000Y-100100000D03*
X137480000Y-100100000D03*
X122892763Y-102566623D03*
X162750000Y-112430000D03*
X145707237Y-103846623D03*
X114292763Y-102566623D03*
X122892763Y-105106623D03*
X97950000Y-103500000D03*
X145707237Y-110433377D03*
X128507237Y-110433377D03*
%TO.N,GND_ISO*%
X123950000Y-123030000D03*
X122520000Y-100100000D03*
X119907237Y-110423377D03*
X128600000Y-97080000D03*
X93400000Y-109180000D03*
X129930000Y-98150000D03*
X120600000Y-97080000D03*
X98300000Y-108600000D03*
X98300000Y-112000000D03*
X144600000Y-97080000D03*
X148320000Y-100100000D03*
X106940000Y-104070000D03*
X122892763Y-103836623D03*
X137930000Y-98150000D03*
X114292763Y-103836623D03*
X136600000Y-97080000D03*
X165150000Y-112800000D03*
X148692763Y-102576623D03*
X131120000Y-100100000D03*
X140092763Y-103836623D03*
X121850000Y-123600000D03*
X102707237Y-110423377D03*
X157292763Y-109153377D03*
X111307237Y-110423377D03*
X121930000Y-98150000D03*
X139720000Y-100100000D03*
X145930000Y-98150000D03*
X157292763Y-103836623D03*
X105692763Y-105106623D03*
X137107237Y-110423377D03*
X131492763Y-102576623D03*
X97950000Y-101500000D03*
X154307237Y-110423377D03*
X105692763Y-107646623D03*
X105320000Y-100100000D03*
X113920000Y-100100000D03*
X156920000Y-100100000D03*
%TO.N,+3V3*%
X137789950Y-82559949D03*
X144250000Y-77570000D03*
X113930000Y-91850000D03*
X133600000Y-75330000D03*
X119850000Y-92230000D03*
X112600000Y-92920000D03*
X136080000Y-83650000D03*
X136320000Y-70000000D03*
X104600000Y-92920000D03*
X131320000Y-79200000D03*
X127600000Y-79120000D03*
X130380000Y-84400000D03*
X127600000Y-81620000D03*
X135850000Y-92230000D03*
X138357817Y-74422182D03*
X136680000Y-78000000D03*
X132800000Y-80670000D03*
X135600000Y-75330000D03*
X115722763Y-68833377D03*
X129800000Y-73120000D03*
X138965819Y-75025975D03*
X143850000Y-92230000D03*
X129430050Y-74210050D03*
X127600000Y-76620000D03*
X128400000Y-73120000D03*
X134350000Y-72300000D03*
X140400000Y-76620000D03*
X162250000Y-77430000D03*
X105930000Y-91850000D03*
X125800000Y-73550000D03*
X127850000Y-92230000D03*
X140400000Y-81620000D03*
X148944702Y-76960281D03*
%TO.N,GND*%
X135000000Y-78000000D03*
X164650000Y-74850000D03*
X152270000Y-77485000D03*
X140000000Y-70880000D03*
X134000000Y-77000000D03*
X160100000Y-69270000D03*
X125800000Y-70450000D03*
X162150000Y-74800000D03*
X128400000Y-70880000D03*
X118070000Y-91850000D03*
X137620000Y-84400000D03*
X126850000Y-80080000D03*
X126850000Y-77580000D03*
X127600000Y-74380000D03*
X127500000Y-82880000D03*
X123400000Y-82100000D03*
X135000000Y-79000000D03*
X97950000Y-88000000D03*
X126100000Y-76880000D03*
X140400000Y-79380000D03*
X104600000Y-90680000D03*
X153100000Y-69270000D03*
X155900000Y-69270000D03*
X112600000Y-90680000D03*
X117570000Y-71510000D03*
X148900000Y-69270000D03*
X134000000Y-78000000D03*
X133000000Y-79000000D03*
X136400000Y-75630000D03*
X133000000Y-78000000D03*
X135000000Y-70880000D03*
X135120000Y-84400000D03*
X113500000Y-77650000D03*
X133000000Y-77000000D03*
X110000000Y-81850000D03*
X110070000Y-91850000D03*
X140400000Y-74380000D03*
X125600000Y-85900000D03*
X121500000Y-82880000D03*
X129800000Y-70880000D03*
X117921543Y-68316211D03*
X134000000Y-79000000D03*
X135000000Y-77000000D03*
X141120000Y-70000000D03*
X132620000Y-84400000D03*
X141900000Y-76880000D03*
%TO.N,SCK*%
X145931600Y-92051700D03*
X137985800Y-85993900D03*
%TO.N,SCK_ISO*%
X108720300Y-102685000D03*
X146442400Y-105401500D03*
X103349000Y-102799600D03*
X128877800Y-105946800D03*
%TO.N,+1V1*%
X139060000Y-77333000D03*
X133714100Y-83420000D03*
X129337600Y-75326900D03*
%TO.N,CLK*%
X150776200Y-74235300D03*
X134451200Y-80593200D03*
%TO.N,DIO*%
X134829400Y-83543700D03*
X142500100Y-79005400D03*
%TO.N,N_RESET*%
X143626100Y-80702400D03*
X135554400Y-82939700D03*
%TO.N,LATCH*%
X136422600Y-80541900D03*
X121880400Y-91181100D03*
%TO.N,DRDY*%
X131895600Y-79956500D03*
X109726000Y-86399500D03*
%TO.N,QSPI_SS*%
X132274100Y-75585000D03*
X145671100Y-74232700D03*
%TO.N,LATCH_ISO*%
X143250000Y-105200000D03*
X137350000Y-102200000D03*
X103840000Y-101644700D03*
X112588800Y-101696400D03*
%TO.N,SI_CHAIN_1*%
X105419700Y-109625600D03*
X116298400Y-111951900D03*
%TO.N,SI_CHAIN_2*%
X115409700Y-111901000D03*
X124364100Y-112288300D03*
%TO.N,MOSI_ISO*%
X132896400Y-100162200D03*
X125149300Y-101079600D03*
%TO.N,SKB50_RANGE_CMD_4*%
X151148700Y-112784700D03*
%TO.N,OE_N_ISO*%
X102172400Y-101209600D03*
X129743700Y-106172700D03*
%TO.N,SO_CHAIN_1*%
X143304100Y-106525200D03*
X128566500Y-102856500D03*
%TO.N,SKB45_INT_TIME_2*%
X142635300Y-109035000D03*
%TO.N,SI_CHAIN_3*%
X125349000Y-109128100D03*
X140170200Y-109035000D03*
%TO.N,SI_CHAIN_4*%
X157177300Y-112199800D03*
X142921000Y-111010700D03*
%TO.N,VBUS*%
X111812100Y-77500000D03*
%TO.N,SKB02_D5_8*%
X99101700Y-107984300D03*
%TO.N,SKB31_RANGE_OUT_2*%
X154287900Y-106500000D03*
%TO.N,SKB44_INT_TIME_4*%
X131005000Y-111879100D03*
%TO.N,SKB40_SAMPLE_PULSE*%
X127686400Y-112412300D03*
%TO.N,SKB38_LOCKOUT*%
X126611600Y-112771000D03*
%TO.N,SKB25_D0_1*%
X125323000Y-110243400D03*
%TO.N,SKB09_D4_1*%
X123772700Y-111770500D03*
%TD*%
%TA.AperFunction,Conductor*%
%TO.N,GND*%
G36*
X167812271Y-65512110D02*
G01*
X167912603Y-65566895D01*
X167924483Y-65574529D01*
X168107263Y-65711356D01*
X168117939Y-65720606D01*
X168279393Y-65882060D01*
X168288643Y-65892736D01*
X168425468Y-66075513D01*
X168433104Y-66087395D01*
X168487890Y-66187728D01*
X168500000Y-66235173D01*
X168500000Y-93001000D01*
X168481093Y-93059191D01*
X168431593Y-93095155D01*
X168401000Y-93100000D01*
X113299500Y-93100000D01*
X113241309Y-93081093D01*
X113205345Y-93031593D01*
X113200500Y-93001000D01*
X113200500Y-92840944D01*
X113200500Y-92840943D01*
X113159577Y-92688216D01*
X113080520Y-92551284D01*
X112968716Y-92439480D01*
X112831784Y-92360423D01*
X112679057Y-92319500D01*
X112520943Y-92319500D01*
X112368216Y-92360423D01*
X112231284Y-92439480D01*
X112119480Y-92551284D01*
X112040423Y-92688216D01*
X112013264Y-92789577D01*
X111999500Y-92840944D01*
X111999500Y-93001000D01*
X111980593Y-93059191D01*
X111931093Y-93095155D01*
X111900500Y-93100000D01*
X105299500Y-93100000D01*
X105241309Y-93081093D01*
X105205345Y-93031593D01*
X105200500Y-93001000D01*
X105200500Y-92840944D01*
X105200500Y-92840943D01*
X105159577Y-92688216D01*
X105080520Y-92551284D01*
X104968716Y-92439480D01*
X104831784Y-92360423D01*
X104679057Y-92319500D01*
X104520943Y-92319500D01*
X104368216Y-92360423D01*
X104231284Y-92439480D01*
X104119480Y-92551284D01*
X104040423Y-92688216D01*
X104013264Y-92789577D01*
X103999500Y-92840944D01*
X103999500Y-93001000D01*
X103980593Y-93059191D01*
X103931093Y-93095155D01*
X103900500Y-93100000D01*
X97630403Y-93100000D01*
X97572212Y-93081093D01*
X97536248Y-93031593D01*
X97536248Y-92970407D01*
X97538939Y-92963114D01*
X97619265Y-92769189D01*
X97659999Y-92564403D01*
X97660000Y-92564399D01*
X97660000Y-92355600D01*
X97659999Y-92355596D01*
X97619265Y-92150810D01*
X97539360Y-91957903D01*
X97449185Y-91822946D01*
X97043669Y-92228461D01*
X97000098Y-92152994D01*
X96907006Y-92059902D01*
X96831535Y-92016329D01*
X97076922Y-91770943D01*
X105329500Y-91770943D01*
X105329500Y-91929057D01*
X105370423Y-92081784D01*
X105449480Y-92218716D01*
X105561284Y-92330520D01*
X105698216Y-92409577D01*
X105850943Y-92450500D01*
X105850945Y-92450500D01*
X106009055Y-92450500D01*
X106009057Y-92450500D01*
X106161784Y-92409577D01*
X106298716Y-92330520D01*
X106410520Y-92218716D01*
X106489577Y-92081784D01*
X106530500Y-91929057D01*
X106530500Y-91770943D01*
X113329500Y-91770943D01*
X113329500Y-91929057D01*
X113370423Y-92081784D01*
X113449480Y-92218716D01*
X113561284Y-92330520D01*
X113698216Y-92409577D01*
X113850943Y-92450500D01*
X113850945Y-92450500D01*
X114009055Y-92450500D01*
X114009057Y-92450500D01*
X114161784Y-92409577D01*
X114298716Y-92330520D01*
X114410520Y-92218716D01*
X114449648Y-92150943D01*
X119249500Y-92150943D01*
X119249500Y-92309057D01*
X119290423Y-92461784D01*
X119369480Y-92598716D01*
X119481284Y-92710520D01*
X119618216Y-92789577D01*
X119770943Y-92830500D01*
X119770945Y-92830500D01*
X119929055Y-92830500D01*
X119929057Y-92830500D01*
X120081784Y-92789577D01*
X120218716Y-92710520D01*
X120330520Y-92598716D01*
X120409577Y-92461784D01*
X120450500Y-92309057D01*
X120450500Y-92150943D01*
X127249500Y-92150943D01*
X127249500Y-92309057D01*
X127290423Y-92461784D01*
X127369480Y-92598716D01*
X127481284Y-92710520D01*
X127618216Y-92789577D01*
X127770943Y-92830500D01*
X127770945Y-92830500D01*
X127929055Y-92830500D01*
X127929057Y-92830500D01*
X128081784Y-92789577D01*
X128218716Y-92710520D01*
X128330520Y-92598716D01*
X128409577Y-92461784D01*
X128450500Y-92309057D01*
X128450500Y-92150943D01*
X135249500Y-92150943D01*
X135249500Y-92309057D01*
X135290423Y-92461784D01*
X135369480Y-92598716D01*
X135481284Y-92710520D01*
X135618216Y-92789577D01*
X135770943Y-92830500D01*
X135770945Y-92830500D01*
X135929055Y-92830500D01*
X135929057Y-92830500D01*
X136081784Y-92789577D01*
X136218716Y-92710520D01*
X136330520Y-92598716D01*
X136409577Y-92461784D01*
X136450500Y-92309057D01*
X136450500Y-92150943D01*
X143249500Y-92150943D01*
X143249500Y-92309057D01*
X143290423Y-92461784D01*
X143369480Y-92598716D01*
X143481284Y-92710520D01*
X143618216Y-92789577D01*
X143770943Y-92830500D01*
X143770945Y-92830500D01*
X143929055Y-92830500D01*
X143929057Y-92830500D01*
X144081784Y-92789577D01*
X144218716Y-92710520D01*
X144330520Y-92598716D01*
X144409577Y-92461784D01*
X144450500Y-92309057D01*
X144450500Y-92150943D01*
X144409577Y-91998216D01*
X144394813Y-91972643D01*
X145331100Y-91972643D01*
X145331100Y-92130757D01*
X145372023Y-92283484D01*
X145451080Y-92420416D01*
X145562884Y-92532220D01*
X145699816Y-92611277D01*
X145852543Y-92652200D01*
X145852545Y-92652200D01*
X146010655Y-92652200D01*
X146010657Y-92652200D01*
X146163384Y-92611277D01*
X146300316Y-92532220D01*
X146412120Y-92420416D01*
X146491177Y-92283484D01*
X146532100Y-92130757D01*
X146532100Y-91972643D01*
X146491177Y-91819916D01*
X146412120Y-91682984D01*
X146300316Y-91571180D01*
X146163384Y-91492123D01*
X146010657Y-91451200D01*
X145852543Y-91451200D01*
X145699816Y-91492123D01*
X145562884Y-91571180D01*
X145451080Y-91682984D01*
X145372023Y-91819916D01*
X145331100Y-91972643D01*
X144394813Y-91972643D01*
X144330520Y-91861284D01*
X144218716Y-91749480D01*
X144081784Y-91670423D01*
X143929057Y-91629500D01*
X143770943Y-91629500D01*
X143618216Y-91670423D01*
X143481284Y-91749480D01*
X143369480Y-91861284D01*
X143290423Y-91998216D01*
X143249500Y-92150943D01*
X136450500Y-92150943D01*
X136409577Y-91998216D01*
X136330520Y-91861284D01*
X136218716Y-91749480D01*
X136081784Y-91670423D01*
X135929057Y-91629500D01*
X135770943Y-91629500D01*
X135618216Y-91670423D01*
X135481284Y-91749480D01*
X135369480Y-91861284D01*
X135290423Y-91998216D01*
X135249500Y-92150943D01*
X128450500Y-92150943D01*
X128409577Y-91998216D01*
X128330520Y-91861284D01*
X128218716Y-91749480D01*
X128081784Y-91670423D01*
X127929057Y-91629500D01*
X127770943Y-91629500D01*
X127618216Y-91670423D01*
X127481284Y-91749480D01*
X127369480Y-91861284D01*
X127290423Y-91998216D01*
X127249500Y-92150943D01*
X120450500Y-92150943D01*
X120409577Y-91998216D01*
X120330520Y-91861284D01*
X120218716Y-91749480D01*
X120081784Y-91670423D01*
X119929057Y-91629500D01*
X119770943Y-91629500D01*
X119618216Y-91670423D01*
X119481284Y-91749480D01*
X119369480Y-91861284D01*
X119290423Y-91998216D01*
X119249500Y-92150943D01*
X114449648Y-92150943D01*
X114489577Y-92081784D01*
X114530500Y-91929057D01*
X114530500Y-91770943D01*
X114489577Y-91618216D01*
X114410520Y-91481284D01*
X114298716Y-91369480D01*
X114161784Y-91290423D01*
X114009057Y-91249500D01*
X113850943Y-91249500D01*
X113698216Y-91290423D01*
X113561284Y-91369480D01*
X113449480Y-91481284D01*
X113370423Y-91618216D01*
X113329500Y-91770943D01*
X106530500Y-91770943D01*
X106489577Y-91618216D01*
X106410520Y-91481284D01*
X106298716Y-91369480D01*
X106161784Y-91290423D01*
X106009057Y-91249500D01*
X105850943Y-91249500D01*
X105698216Y-91290423D01*
X105561284Y-91369480D01*
X105449480Y-91481284D01*
X105370423Y-91618216D01*
X105329500Y-91770943D01*
X97076922Y-91770943D01*
X97237052Y-91610813D01*
X97102105Y-91520643D01*
X97102096Y-91520639D01*
X96909189Y-91440734D01*
X96704403Y-91400000D01*
X96495596Y-91400000D01*
X96290810Y-91440734D01*
X96097902Y-91520639D01*
X95962946Y-91610813D01*
X96368462Y-92016329D01*
X96292994Y-92059902D01*
X96199902Y-92152994D01*
X96156330Y-92228462D01*
X95750813Y-91822946D01*
X95660639Y-91957902D01*
X95580734Y-92150810D01*
X95540000Y-92355596D01*
X95540000Y-92564403D01*
X95580734Y-92769189D01*
X95661061Y-92963114D01*
X95665862Y-93024111D01*
X95633892Y-93076280D01*
X95577364Y-93099695D01*
X95569597Y-93100000D01*
X91599000Y-93100000D01*
X91540809Y-93081093D01*
X91504845Y-93031593D01*
X91500000Y-93001000D01*
X91500000Y-91102043D01*
X121279900Y-91102043D01*
X121279900Y-91260157D01*
X121320823Y-91412884D01*
X121399880Y-91549816D01*
X121511684Y-91661620D01*
X121648616Y-91740677D01*
X121801343Y-91781600D01*
X121801345Y-91781600D01*
X121959455Y-91781600D01*
X121959457Y-91781600D01*
X122112184Y-91740677D01*
X122249116Y-91661620D01*
X122360920Y-91549816D01*
X122439977Y-91412884D01*
X122480900Y-91260157D01*
X122480900Y-91102043D01*
X122439977Y-90949316D01*
X122360920Y-90812384D01*
X122249116Y-90700580D01*
X122112184Y-90621523D01*
X121959457Y-90580600D01*
X121801343Y-90580600D01*
X121648616Y-90621523D01*
X121511684Y-90700580D01*
X121399880Y-90812384D01*
X121320823Y-90949316D01*
X121279900Y-91102043D01*
X91500000Y-91102043D01*
X91500000Y-89115130D01*
X95539500Y-89115130D01*
X95539500Y-90724860D01*
X95539501Y-90724863D01*
X95542414Y-90749990D01*
X95567756Y-90807385D01*
X95587794Y-90852765D01*
X95667235Y-90932206D01*
X95770009Y-90977585D01*
X95795135Y-90980500D01*
X97404864Y-90980499D01*
X97429991Y-90977585D01*
X97532765Y-90932206D01*
X97612206Y-90852765D01*
X97657585Y-90749991D01*
X97660500Y-90724865D01*
X97660499Y-89115136D01*
X97657585Y-89090009D01*
X97612206Y-88987235D01*
X97532765Y-88907794D01*
X97429991Y-88862415D01*
X97429990Y-88862414D01*
X97429988Y-88862414D01*
X97404868Y-88859500D01*
X95795139Y-88859500D01*
X95795136Y-88859501D01*
X95770009Y-88862414D01*
X95667235Y-88907794D01*
X95587794Y-88987235D01*
X95542414Y-89090011D01*
X95539500Y-89115130D01*
X91500000Y-89115130D01*
X91500000Y-86320443D01*
X109125500Y-86320443D01*
X109125500Y-86478557D01*
X109166423Y-86631284D01*
X109245480Y-86768216D01*
X109357284Y-86880020D01*
X109494216Y-86959077D01*
X109646943Y-87000000D01*
X109646945Y-87000000D01*
X109805055Y-87000000D01*
X109805057Y-87000000D01*
X109957784Y-86959077D01*
X110094716Y-86880020D01*
X110206520Y-86768216D01*
X110285577Y-86631284D01*
X110326500Y-86478557D01*
X110326500Y-86320443D01*
X110285577Y-86167716D01*
X110206520Y-86030784D01*
X110094716Y-85918980D01*
X110087550Y-85914843D01*
X137385300Y-85914843D01*
X137385300Y-86072957D01*
X137426223Y-86225684D01*
X137505280Y-86362616D01*
X137617084Y-86474420D01*
X137754016Y-86553477D01*
X137906743Y-86594400D01*
X137906745Y-86594400D01*
X138064855Y-86594400D01*
X138064857Y-86594400D01*
X138217584Y-86553477D01*
X138354516Y-86474420D01*
X138466320Y-86362616D01*
X138545377Y-86225684D01*
X138586300Y-86072957D01*
X138586300Y-85914843D01*
X138545377Y-85762116D01*
X138466320Y-85625184D01*
X138354516Y-85513380D01*
X138217584Y-85434323D01*
X138064857Y-85393400D01*
X137906743Y-85393400D01*
X137754016Y-85434323D01*
X137617084Y-85513380D01*
X137505280Y-85625184D01*
X137426223Y-85762116D01*
X137385300Y-85914843D01*
X110087550Y-85914843D01*
X109957784Y-85839923D01*
X109805057Y-85799000D01*
X109646943Y-85799000D01*
X109494216Y-85839923D01*
X109357284Y-85918980D01*
X109245480Y-86030784D01*
X109166423Y-86167716D01*
X109125500Y-86320443D01*
X91500000Y-86320443D01*
X91500000Y-84320943D01*
X129779500Y-84320943D01*
X129779500Y-84479057D01*
X129820423Y-84631784D01*
X129899480Y-84768716D01*
X130011284Y-84880520D01*
X130148216Y-84959577D01*
X130300943Y-85000500D01*
X130300945Y-85000500D01*
X130459055Y-85000500D01*
X130459057Y-85000500D01*
X130611784Y-84959577D01*
X130748716Y-84880520D01*
X130860520Y-84768716D01*
X130939577Y-84631784D01*
X130980500Y-84479057D01*
X130980500Y-84320943D01*
X130939577Y-84168216D01*
X130860520Y-84031284D01*
X130748716Y-83919480D01*
X130611784Y-83840423D01*
X130459057Y-83799500D01*
X130300943Y-83799500D01*
X130148216Y-83840423D01*
X130011284Y-83919480D01*
X129899480Y-84031284D01*
X129820423Y-84168216D01*
X129779500Y-84320943D01*
X91500000Y-84320943D01*
X91500000Y-83340943D01*
X133113600Y-83340943D01*
X133113600Y-83499057D01*
X133154523Y-83651784D01*
X133233580Y-83788716D01*
X133345384Y-83900520D01*
X133482316Y-83979577D01*
X133635043Y-84020500D01*
X133635045Y-84020500D01*
X133793155Y-84020500D01*
X133793157Y-84020500D01*
X133945884Y-83979577D01*
X134082816Y-83900520D01*
X134155911Y-83827424D01*
X134210425Y-83799648D01*
X134270857Y-83809219D01*
X134311648Y-83847928D01*
X134348880Y-83912416D01*
X134460684Y-84024220D01*
X134597616Y-84103277D01*
X134750343Y-84144200D01*
X134750345Y-84144200D01*
X134908455Y-84144200D01*
X134908457Y-84144200D01*
X135061184Y-84103277D01*
X135198116Y-84024220D01*
X135309920Y-83912416D01*
X135339799Y-83860662D01*
X135385267Y-83819722D01*
X135446117Y-83813326D01*
X135499106Y-83843918D01*
X135516691Y-83876306D01*
X135517940Y-83875789D01*
X135520421Y-83881781D01*
X135531240Y-83900520D01*
X135599480Y-84018716D01*
X135711284Y-84130520D01*
X135848216Y-84209577D01*
X136000943Y-84250500D01*
X136000945Y-84250500D01*
X136159055Y-84250500D01*
X136159057Y-84250500D01*
X136311784Y-84209577D01*
X136448716Y-84130520D01*
X136560520Y-84018716D01*
X136639577Y-83881784D01*
X136680500Y-83729057D01*
X136680500Y-83570943D01*
X136639577Y-83418216D01*
X136560520Y-83281284D01*
X136448716Y-83169480D01*
X136311784Y-83090423D01*
X136311783Y-83090422D01*
X136311780Y-83090421D01*
X136228276Y-83068046D01*
X136176962Y-83034722D01*
X136155036Y-82977600D01*
X136154900Y-82972420D01*
X136154900Y-82860644D01*
X136154841Y-82860423D01*
X136113977Y-82707916D01*
X136034920Y-82570984D01*
X135944828Y-82480892D01*
X137189450Y-82480892D01*
X137189450Y-82639006D01*
X137230373Y-82791733D01*
X137309430Y-82928665D01*
X137421234Y-83040469D01*
X137558166Y-83119526D01*
X137710893Y-83160449D01*
X137710895Y-83160449D01*
X137869005Y-83160449D01*
X137869007Y-83160449D01*
X138021734Y-83119526D01*
X138158666Y-83040469D01*
X138270470Y-82928665D01*
X138349527Y-82791733D01*
X138390450Y-82639006D01*
X138390450Y-82480892D01*
X138349527Y-82328165D01*
X138270470Y-82191233D01*
X138158666Y-82079429D01*
X138021734Y-82000372D01*
X137869007Y-81959449D01*
X137710893Y-81959449D01*
X137558166Y-82000372D01*
X137421234Y-82079429D01*
X137309430Y-82191233D01*
X137230373Y-82328165D01*
X137189450Y-82480892D01*
X135944828Y-82480892D01*
X135923116Y-82459180D01*
X135786184Y-82380123D01*
X135633457Y-82339200D01*
X135475343Y-82339200D01*
X135322616Y-82380123D01*
X135185684Y-82459180D01*
X135073880Y-82570984D01*
X134994823Y-82707916D01*
X134964925Y-82819500D01*
X134952221Y-82866911D01*
X134949979Y-82866310D01*
X134928032Y-82912338D01*
X134874265Y-82941540D01*
X134856211Y-82943200D01*
X134750343Y-82943200D01*
X134597616Y-82984123D01*
X134460681Y-83063182D01*
X134387589Y-83136274D01*
X134333072Y-83164051D01*
X134272640Y-83154479D01*
X134231851Y-83115771D01*
X134194620Y-83051284D01*
X134082816Y-82939480D01*
X133945884Y-82860423D01*
X133793157Y-82819500D01*
X133635043Y-82819500D01*
X133482316Y-82860423D01*
X133345384Y-82939480D01*
X133233580Y-83051284D01*
X133154523Y-83188216D01*
X133113600Y-83340943D01*
X91500000Y-83340943D01*
X91500000Y-81540943D01*
X126999500Y-81540943D01*
X126999500Y-81699057D01*
X127040423Y-81851784D01*
X127119480Y-81988716D01*
X127231284Y-82100520D01*
X127368216Y-82179577D01*
X127520943Y-82220500D01*
X127520945Y-82220500D01*
X127679055Y-82220500D01*
X127679057Y-82220500D01*
X127831784Y-82179577D01*
X127968716Y-82100520D01*
X128080520Y-81988716D01*
X128159577Y-81851784D01*
X128200500Y-81699057D01*
X128200500Y-81540943D01*
X139799500Y-81540943D01*
X139799500Y-81699057D01*
X139840423Y-81851784D01*
X139919480Y-81988716D01*
X140031284Y-82100520D01*
X140168216Y-82179577D01*
X140320943Y-82220500D01*
X140320945Y-82220500D01*
X140479055Y-82220500D01*
X140479057Y-82220500D01*
X140631784Y-82179577D01*
X140768716Y-82100520D01*
X140880520Y-81988716D01*
X140959577Y-81851784D01*
X141000500Y-81699057D01*
X141000500Y-81540943D01*
X140959577Y-81388216D01*
X140880520Y-81251284D01*
X140768716Y-81139480D01*
X140631784Y-81060423D01*
X140479057Y-81019500D01*
X140320943Y-81019500D01*
X140168216Y-81060423D01*
X140031284Y-81139480D01*
X139919480Y-81251284D01*
X139840423Y-81388216D01*
X139799500Y-81540943D01*
X128200500Y-81540943D01*
X128159577Y-81388216D01*
X128080520Y-81251284D01*
X127968716Y-81139480D01*
X127831784Y-81060423D01*
X127679057Y-81019500D01*
X127520943Y-81019500D01*
X127368216Y-81060423D01*
X127231284Y-81139480D01*
X127119480Y-81251284D01*
X127040423Y-81388216D01*
X126999500Y-81540943D01*
X91500000Y-81540943D01*
X91500000Y-79040943D01*
X126999500Y-79040943D01*
X126999500Y-79199057D01*
X127040423Y-79351784D01*
X127119480Y-79488716D01*
X127231284Y-79600520D01*
X127368216Y-79679577D01*
X127520943Y-79720500D01*
X127520945Y-79720500D01*
X127679055Y-79720500D01*
X127679057Y-79720500D01*
X127831784Y-79679577D01*
X127968716Y-79600520D01*
X128080520Y-79488716D01*
X128159577Y-79351784D01*
X128200500Y-79199057D01*
X128200500Y-79120943D01*
X130719500Y-79120943D01*
X130719500Y-79279057D01*
X130760423Y-79431784D01*
X130839480Y-79568716D01*
X130951284Y-79680520D01*
X131088216Y-79759577D01*
X131221725Y-79795350D01*
X131273037Y-79828673D01*
X131294964Y-79885794D01*
X131295100Y-79890976D01*
X131295100Y-80035557D01*
X131336023Y-80188284D01*
X131415080Y-80325216D01*
X131526884Y-80437020D01*
X131663816Y-80516077D01*
X131816543Y-80557000D01*
X131816545Y-80557000D01*
X131974654Y-80557000D01*
X131974657Y-80557000D01*
X132074880Y-80530145D01*
X132135978Y-80533347D01*
X132183528Y-80571852D01*
X132199500Y-80625772D01*
X132199500Y-80749057D01*
X132240423Y-80901784D01*
X132319480Y-81038716D01*
X132431284Y-81150520D01*
X132568216Y-81229577D01*
X132720943Y-81270500D01*
X132720945Y-81270500D01*
X132879055Y-81270500D01*
X132879057Y-81270500D01*
X133031784Y-81229577D01*
X133168716Y-81150520D01*
X133280520Y-81038716D01*
X133359577Y-80901784D01*
X133400500Y-80749057D01*
X133400500Y-80590943D01*
X133379922Y-80514143D01*
X133850700Y-80514143D01*
X133850700Y-80672257D01*
X133891623Y-80824984D01*
X133970680Y-80961916D01*
X134082484Y-81073720D01*
X134219416Y-81152777D01*
X134372143Y-81193700D01*
X134372145Y-81193700D01*
X134530255Y-81193700D01*
X134530257Y-81193700D01*
X134682984Y-81152777D01*
X134819916Y-81073720D01*
X134931720Y-80961916D01*
X135010777Y-80824984D01*
X135051700Y-80672257D01*
X135051700Y-80514143D01*
X135037954Y-80462843D01*
X135822100Y-80462843D01*
X135822100Y-80620957D01*
X135863023Y-80773684D01*
X135942080Y-80910616D01*
X136053884Y-81022420D01*
X136190816Y-81101477D01*
X136343543Y-81142400D01*
X136343545Y-81142400D01*
X136501655Y-81142400D01*
X136501657Y-81142400D01*
X136654384Y-81101477D01*
X136791316Y-81022420D01*
X136903120Y-80910616D01*
X136982177Y-80773684D01*
X137022461Y-80623343D01*
X143025600Y-80623343D01*
X143025600Y-80781457D01*
X143066523Y-80934184D01*
X143145580Y-81071116D01*
X143257384Y-81182920D01*
X143394316Y-81261977D01*
X143547043Y-81302900D01*
X143547045Y-81302900D01*
X143705155Y-81302900D01*
X143705157Y-81302900D01*
X143857884Y-81261977D01*
X143994816Y-81182920D01*
X144106620Y-81071116D01*
X144185677Y-80934184D01*
X144226600Y-80781457D01*
X144226600Y-80623343D01*
X144185677Y-80470616D01*
X144106620Y-80333684D01*
X143994816Y-80221880D01*
X143857884Y-80142823D01*
X143705157Y-80101900D01*
X143547043Y-80101900D01*
X143394316Y-80142823D01*
X143257384Y-80221880D01*
X143145580Y-80333684D01*
X143066523Y-80470616D01*
X143025600Y-80623343D01*
X137022461Y-80623343D01*
X137023100Y-80620957D01*
X137023100Y-80462843D01*
X136982177Y-80310116D01*
X136903120Y-80173184D01*
X136791316Y-80061380D01*
X136654384Y-79982323D01*
X136501657Y-79941400D01*
X136343543Y-79941400D01*
X136190816Y-79982323D01*
X136053884Y-80061380D01*
X135942080Y-80173184D01*
X135863023Y-80310116D01*
X135822100Y-80462843D01*
X135037954Y-80462843D01*
X135010777Y-80361416D01*
X134931720Y-80224484D01*
X134819916Y-80112680D01*
X134682984Y-80033623D01*
X134530257Y-79992700D01*
X134372143Y-79992700D01*
X134219416Y-80033623D01*
X134082484Y-80112680D01*
X133970680Y-80224484D01*
X133891623Y-80361416D01*
X133850700Y-80514143D01*
X133379922Y-80514143D01*
X133359577Y-80438216D01*
X133280520Y-80301284D01*
X133168716Y-80189480D01*
X133031784Y-80110423D01*
X132879057Y-80069500D01*
X132720943Y-80069500D01*
X132620722Y-80096353D01*
X132559621Y-80093151D01*
X132512071Y-80054646D01*
X132496100Y-80000727D01*
X132496100Y-79877444D01*
X132475483Y-79800500D01*
X132455177Y-79724716D01*
X132376120Y-79587784D01*
X132264316Y-79475980D01*
X132127384Y-79396923D01*
X131993876Y-79361149D01*
X131942562Y-79327826D01*
X131920636Y-79270704D01*
X131920500Y-79265523D01*
X131920500Y-79120944D01*
X131920500Y-79120943D01*
X131879577Y-78968216D01*
X131855402Y-78926343D01*
X141899600Y-78926343D01*
X141899600Y-79084457D01*
X141940523Y-79237184D01*
X142019580Y-79374116D01*
X142131384Y-79485920D01*
X142268316Y-79564977D01*
X142421043Y-79605900D01*
X142421045Y-79605900D01*
X142579155Y-79605900D01*
X142579157Y-79605900D01*
X142731884Y-79564977D01*
X142868816Y-79485920D01*
X142980620Y-79374116D01*
X143059677Y-79237184D01*
X143100600Y-79084457D01*
X143100600Y-78926343D01*
X143059677Y-78773616D01*
X142980620Y-78636684D01*
X142868816Y-78524880D01*
X142731884Y-78445823D01*
X142579157Y-78404900D01*
X142421043Y-78404900D01*
X142268316Y-78445823D01*
X142131384Y-78524880D01*
X142019580Y-78636684D01*
X141940523Y-78773616D01*
X141899600Y-78926343D01*
X131855402Y-78926343D01*
X131800520Y-78831284D01*
X131688716Y-78719480D01*
X131551784Y-78640423D01*
X131399057Y-78599500D01*
X131240943Y-78599500D01*
X131088216Y-78640423D01*
X130951284Y-78719480D01*
X130839480Y-78831284D01*
X130760423Y-78968216D01*
X130719500Y-79120943D01*
X128200500Y-79120943D01*
X128200500Y-79040943D01*
X128159577Y-78888216D01*
X128080520Y-78751284D01*
X127968716Y-78639480D01*
X127831784Y-78560423D01*
X127679057Y-78519500D01*
X127520943Y-78519500D01*
X127368216Y-78560423D01*
X127231284Y-78639480D01*
X127119480Y-78751284D01*
X127040423Y-78888216D01*
X126999500Y-79040943D01*
X91500000Y-79040943D01*
X91500000Y-77420943D01*
X111211600Y-77420943D01*
X111211600Y-77579057D01*
X111252523Y-77731784D01*
X111331580Y-77868716D01*
X111443384Y-77980520D01*
X111580316Y-78059577D01*
X111733043Y-78100500D01*
X111733045Y-78100500D01*
X111891155Y-78100500D01*
X111891157Y-78100500D01*
X112043884Y-78059577D01*
X112180816Y-77980520D01*
X112240393Y-77920943D01*
X136079500Y-77920943D01*
X136079500Y-78079057D01*
X136120423Y-78231784D01*
X136199480Y-78368716D01*
X136311284Y-78480520D01*
X136448216Y-78559577D01*
X136600943Y-78600500D01*
X136600945Y-78600500D01*
X136759055Y-78600500D01*
X136759057Y-78600500D01*
X136911784Y-78559577D01*
X137048716Y-78480520D01*
X137160520Y-78368716D01*
X137239577Y-78231784D01*
X137280500Y-78079057D01*
X137280500Y-77920943D01*
X137239577Y-77768216D01*
X137160520Y-77631284D01*
X137048716Y-77519480D01*
X136911784Y-77440423D01*
X136759057Y-77399500D01*
X136600943Y-77399500D01*
X136448216Y-77440423D01*
X136311284Y-77519480D01*
X136199480Y-77631284D01*
X136120423Y-77768216D01*
X136079500Y-77920943D01*
X112240393Y-77920943D01*
X112292620Y-77868716D01*
X112371677Y-77731784D01*
X112412600Y-77579057D01*
X112412600Y-77420943D01*
X112371677Y-77268216D01*
X112363437Y-77253943D01*
X138459500Y-77253943D01*
X138459500Y-77412057D01*
X138500423Y-77564784D01*
X138579480Y-77701716D01*
X138691284Y-77813520D01*
X138828216Y-77892577D01*
X138980943Y-77933500D01*
X138980945Y-77933500D01*
X139139055Y-77933500D01*
X139139057Y-77933500D01*
X139291784Y-77892577D01*
X139428716Y-77813520D01*
X139540520Y-77701716D01*
X139619577Y-77564784D01*
X139639363Y-77490943D01*
X143649500Y-77490943D01*
X143649500Y-77649057D01*
X143690423Y-77801784D01*
X143769480Y-77938716D01*
X143881284Y-78050520D01*
X144018216Y-78129577D01*
X144170943Y-78170500D01*
X144170945Y-78170500D01*
X144329055Y-78170500D01*
X144329057Y-78170500D01*
X144481784Y-78129577D01*
X144618716Y-78050520D01*
X144730520Y-77938716D01*
X144809577Y-77801784D01*
X144850500Y-77649057D01*
X144850500Y-77490943D01*
X144809577Y-77338216D01*
X144730520Y-77201284D01*
X144618716Y-77089480D01*
X144481784Y-77010423D01*
X144329057Y-76969500D01*
X144170943Y-76969500D01*
X144018216Y-77010423D01*
X143881284Y-77089480D01*
X143769480Y-77201284D01*
X143690423Y-77338216D01*
X143649500Y-77490943D01*
X139639363Y-77490943D01*
X139660500Y-77412057D01*
X139660500Y-77253943D01*
X139619577Y-77101216D01*
X139540520Y-76964284D01*
X139428716Y-76852480D01*
X139291784Y-76773423D01*
X139139057Y-76732500D01*
X138980943Y-76732500D01*
X138828216Y-76773423D01*
X138691284Y-76852480D01*
X138579480Y-76964284D01*
X138500423Y-77101216D01*
X138459500Y-77253943D01*
X112363437Y-77253943D01*
X112292620Y-77131284D01*
X112180816Y-77019480D01*
X112043884Y-76940423D01*
X111891157Y-76899500D01*
X111733043Y-76899500D01*
X111580316Y-76940423D01*
X111443384Y-77019480D01*
X111331580Y-77131284D01*
X111252523Y-77268216D01*
X111211600Y-77420943D01*
X91500000Y-77420943D01*
X91500000Y-74782021D01*
X96180000Y-74782021D01*
X96180000Y-75017978D01*
X96210798Y-75251908D01*
X96210798Y-75251913D01*
X96271867Y-75479824D01*
X96271871Y-75479837D01*
X96362163Y-75697824D01*
X96362165Y-75697829D01*
X96480139Y-75902165D01*
X96604122Y-76063742D01*
X97067414Y-75600449D01*
X97102821Y-75649182D01*
X97230818Y-75777179D01*
X97279547Y-75812583D01*
X96816255Y-76275876D01*
X96977834Y-76399860D01*
X97182170Y-76517834D01*
X97182175Y-76517836D01*
X97400162Y-76608128D01*
X97400175Y-76608132D01*
X97628088Y-76669201D01*
X97862021Y-76699999D01*
X97862023Y-76700000D01*
X98097977Y-76700000D01*
X98097978Y-76699999D01*
X98331908Y-76669201D01*
X98331913Y-76669201D01*
X98559824Y-76608132D01*
X98559837Y-76608128D01*
X98777824Y-76517836D01*
X98777829Y-76517834D01*
X98982170Y-76399857D01*
X98982178Y-76399852D01*
X99143743Y-76275876D01*
X98680451Y-75812584D01*
X98729182Y-75777179D01*
X98857179Y-75649182D01*
X98892584Y-75600451D01*
X99355876Y-76063743D01*
X99479852Y-75902178D01*
X99479857Y-75902170D01*
X99597834Y-75697829D01*
X99597836Y-75697824D01*
X99677492Y-75505515D01*
X101549500Y-75505515D01*
X101549500Y-75694484D01*
X101579058Y-75881113D01*
X101637453Y-76060832D01*
X101680122Y-76144576D01*
X101723240Y-76229199D01*
X101834310Y-76382073D01*
X101967927Y-76515690D01*
X102120801Y-76626760D01*
X102289168Y-76712547D01*
X102468882Y-76770940D01*
X102468883Y-76770940D01*
X102468886Y-76770941D01*
X102655516Y-76800500D01*
X102655519Y-76800500D01*
X102844484Y-76800500D01*
X103031113Y-76770941D01*
X103031114Y-76770940D01*
X103031118Y-76770940D01*
X103210832Y-76712547D01*
X103379199Y-76626760D01*
X103532073Y-76515690D01*
X103665690Y-76382073D01*
X103776760Y-76229199D01*
X103862547Y-76060832D01*
X103906108Y-75926763D01*
X103942071Y-75877266D01*
X104000261Y-75858358D01*
X104058452Y-75877265D01*
X104094416Y-75926765D01*
X104137911Y-76060629D01*
X104223667Y-76228935D01*
X104301626Y-76336239D01*
X104806329Y-75831535D01*
X104849902Y-75907006D01*
X104942994Y-76000098D01*
X105018461Y-76043669D01*
X104513759Y-76548372D01*
X104621059Y-76626330D01*
X104621063Y-76626332D01*
X104789364Y-76712085D01*
X104969003Y-76770453D01*
X105155555Y-76800000D01*
X105344445Y-76800000D01*
X105530996Y-76770453D01*
X105710635Y-76712085D01*
X105878934Y-76626333D01*
X105986238Y-76548371D01*
X105481537Y-76043670D01*
X105557006Y-76000098D01*
X105650098Y-75907006D01*
X105693670Y-75831537D01*
X106198371Y-76336238D01*
X106276333Y-76228935D01*
X106294823Y-76192646D01*
X106362085Y-76060635D01*
X106420453Y-75880996D01*
X106450000Y-75694445D01*
X106450000Y-75505554D01*
X106420453Y-75319003D01*
X106362085Y-75139364D01*
X106276332Y-74971063D01*
X106276330Y-74971059D01*
X106198372Y-74863759D01*
X105693669Y-75368461D01*
X105650098Y-75292994D01*
X105557006Y-75199902D01*
X105481535Y-75156329D01*
X105855844Y-74782021D01*
X108220000Y-74782021D01*
X108220000Y-75017978D01*
X108250798Y-75251908D01*
X108250798Y-75251913D01*
X108311867Y-75479824D01*
X108311871Y-75479837D01*
X108402163Y-75697824D01*
X108402165Y-75697829D01*
X108520139Y-75902165D01*
X108644122Y-76063742D01*
X109107414Y-75600449D01*
X109142821Y-75649182D01*
X109270818Y-75777179D01*
X109319547Y-75812583D01*
X108856255Y-76275876D01*
X109017834Y-76399860D01*
X109222170Y-76517834D01*
X109222175Y-76517836D01*
X109440162Y-76608128D01*
X109440175Y-76608132D01*
X109668088Y-76669201D01*
X109902021Y-76699999D01*
X109902023Y-76700000D01*
X110137977Y-76700000D01*
X110137978Y-76699999D01*
X110371908Y-76669201D01*
X110371913Y-76669201D01*
X110599824Y-76608132D01*
X110599837Y-76608128D01*
X110762038Y-76540943D01*
X126999500Y-76540943D01*
X126999500Y-76699057D01*
X127040423Y-76851784D01*
X127119480Y-76988716D01*
X127231284Y-77100520D01*
X127368216Y-77179577D01*
X127520943Y-77220500D01*
X127520945Y-77220500D01*
X127679055Y-77220500D01*
X127679057Y-77220500D01*
X127831784Y-77179577D01*
X127968716Y-77100520D01*
X128080520Y-76988716D01*
X128159577Y-76851784D01*
X128200500Y-76699057D01*
X128200500Y-76540943D01*
X139799500Y-76540943D01*
X139799500Y-76699057D01*
X139840423Y-76851784D01*
X139919480Y-76988716D01*
X140031284Y-77100520D01*
X140168216Y-77179577D01*
X140320943Y-77220500D01*
X140320945Y-77220500D01*
X140479055Y-77220500D01*
X140479057Y-77220500D01*
X140631784Y-77179577D01*
X140768716Y-77100520D01*
X140880520Y-76988716D01*
X140959577Y-76851784D01*
X141000500Y-76699057D01*
X141000500Y-76540943D01*
X140959577Y-76388216D01*
X140880520Y-76251284D01*
X140768716Y-76139480D01*
X140631784Y-76060423D01*
X140479057Y-76019500D01*
X140320943Y-76019500D01*
X140168216Y-76060423D01*
X140031284Y-76139480D01*
X139919480Y-76251284D01*
X139840423Y-76388216D01*
X139799500Y-76540943D01*
X128200500Y-76540943D01*
X128159577Y-76388216D01*
X128080520Y-76251284D01*
X127968716Y-76139480D01*
X127831784Y-76060423D01*
X127679057Y-76019500D01*
X127520943Y-76019500D01*
X127368216Y-76060423D01*
X127231284Y-76139480D01*
X127119480Y-76251284D01*
X127040423Y-76388216D01*
X126999500Y-76540943D01*
X110762038Y-76540943D01*
X110817824Y-76517836D01*
X110817829Y-76517834D01*
X110937542Y-76448718D01*
X111022170Y-76399857D01*
X111022178Y-76399852D01*
X111183743Y-76275876D01*
X110720451Y-75812584D01*
X110769182Y-75777179D01*
X110897179Y-75649182D01*
X110932584Y-75600451D01*
X111395876Y-76063743D01*
X111519852Y-75902178D01*
X111519857Y-75902170D01*
X111637834Y-75697829D01*
X111637836Y-75697824D01*
X111728128Y-75479837D01*
X111728132Y-75479824D01*
X111789201Y-75251913D01*
X111789201Y-75251910D01*
X111789737Y-75247843D01*
X128737100Y-75247843D01*
X128737100Y-75405957D01*
X128778023Y-75558684D01*
X128857080Y-75695616D01*
X128968884Y-75807420D01*
X129105816Y-75886477D01*
X129258543Y-75927400D01*
X129258545Y-75927400D01*
X129416655Y-75927400D01*
X129416657Y-75927400D01*
X129569384Y-75886477D01*
X129706316Y-75807420D01*
X129818120Y-75695616D01*
X129897177Y-75558684D01*
X129911309Y-75505943D01*
X131673600Y-75505943D01*
X131673600Y-75664057D01*
X131714523Y-75816784D01*
X131793580Y-75953716D01*
X131905384Y-76065520D01*
X132042316Y-76144577D01*
X132195043Y-76185500D01*
X132195045Y-76185500D01*
X132353155Y-76185500D01*
X132353157Y-76185500D01*
X132505884Y-76144577D01*
X132642816Y-76065520D01*
X132754620Y-75953716D01*
X132833677Y-75816784D01*
X132874600Y-75664057D01*
X132874600Y-75644043D01*
X132893507Y-75585852D01*
X132943007Y-75549888D01*
X133004193Y-75549888D01*
X133053693Y-75585852D01*
X133059330Y-75594532D01*
X133119480Y-75698716D01*
X133231284Y-75810520D01*
X133368216Y-75889577D01*
X133520943Y-75930500D01*
X133520945Y-75930500D01*
X133679055Y-75930500D01*
X133679057Y-75930500D01*
X133831784Y-75889577D01*
X133968716Y-75810520D01*
X134080520Y-75698716D01*
X134159577Y-75561784D01*
X134200500Y-75409057D01*
X134200500Y-75250943D01*
X134999500Y-75250943D01*
X134999500Y-75409057D01*
X135040423Y-75561784D01*
X135119480Y-75698716D01*
X135231284Y-75810520D01*
X135368216Y-75889577D01*
X135520943Y-75930500D01*
X135520945Y-75930500D01*
X135679055Y-75930500D01*
X135679057Y-75930500D01*
X135693828Y-75926542D01*
X147714200Y-75926542D01*
X147714200Y-76073457D01*
X147742860Y-76217541D01*
X147742860Y-76217543D01*
X147799078Y-76353266D01*
X147799078Y-76353267D01*
X147818325Y-76382071D01*
X147880699Y-76475420D01*
X147984580Y-76579301D01*
X148106731Y-76660920D01*
X148106732Y-76660920D01*
X148106733Y-76660921D01*
X148111108Y-76662733D01*
X148242458Y-76717140D01*
X148277123Y-76724035D01*
X148330507Y-76753931D01*
X148356124Y-76809496D01*
X148353437Y-76846754D01*
X148344202Y-76881221D01*
X148344202Y-76881224D01*
X148344202Y-77039338D01*
X148385125Y-77192065D01*
X148464182Y-77328997D01*
X148575986Y-77440801D01*
X148712918Y-77519858D01*
X148865645Y-77560781D01*
X148865647Y-77560781D01*
X149023757Y-77560781D01*
X149023759Y-77560781D01*
X149176486Y-77519858D01*
X149313418Y-77440801D01*
X149425222Y-77328997D01*
X149504279Y-77192065D01*
X149545202Y-77039338D01*
X149545202Y-76942542D01*
X152794200Y-76942542D01*
X152794200Y-77089457D01*
X152822860Y-77233541D01*
X152822860Y-77233543D01*
X152879078Y-77369266D01*
X152879078Y-77369267D01*
X152913608Y-77420944D01*
X152960699Y-77491420D01*
X153064580Y-77595301D01*
X153186731Y-77676920D01*
X153322458Y-77733140D01*
X153466545Y-77761800D01*
X153466547Y-77761800D01*
X153613453Y-77761800D01*
X153613455Y-77761800D01*
X153757542Y-77733140D01*
X153893269Y-77676920D01*
X154015420Y-77595301D01*
X154119301Y-77491420D01*
X154200920Y-77369269D01*
X154208511Y-77350943D01*
X161649500Y-77350943D01*
X161649500Y-77509057D01*
X161690423Y-77661784D01*
X161769480Y-77798716D01*
X161881284Y-77910520D01*
X162018216Y-77989577D01*
X162170943Y-78030500D01*
X162170945Y-78030500D01*
X162329055Y-78030500D01*
X162329057Y-78030500D01*
X162481784Y-77989577D01*
X162618716Y-77910520D01*
X162730520Y-77798716D01*
X162809577Y-77661784D01*
X162850500Y-77509057D01*
X162850500Y-77350943D01*
X162809577Y-77198216D01*
X162730520Y-77061284D01*
X162618716Y-76949480D01*
X162481784Y-76870423D01*
X162329057Y-76829500D01*
X162170943Y-76829500D01*
X162018216Y-76870423D01*
X161881284Y-76949480D01*
X161769480Y-77061284D01*
X161690423Y-77198216D01*
X161649500Y-77350943D01*
X154208511Y-77350943D01*
X154257140Y-77233542D01*
X154285800Y-77089455D01*
X154285800Y-76942545D01*
X154257140Y-76798458D01*
X154223457Y-76717139D01*
X154200921Y-76662733D01*
X154200921Y-76662732D01*
X154180585Y-76632298D01*
X154119301Y-76540580D01*
X154015420Y-76436699D01*
X153893269Y-76355080D01*
X153893268Y-76355079D01*
X153893266Y-76355078D01*
X153757542Y-76298860D01*
X153613457Y-76270200D01*
X153613455Y-76270200D01*
X153466545Y-76270200D01*
X153466542Y-76270200D01*
X153322458Y-76298860D01*
X153322456Y-76298860D01*
X153186733Y-76355078D01*
X153186732Y-76355078D01*
X153064580Y-76436699D01*
X153064576Y-76436702D01*
X152960702Y-76540576D01*
X152960699Y-76540580D01*
X152879078Y-76662732D01*
X152879078Y-76662733D01*
X152822860Y-76798456D01*
X152822860Y-76798458D01*
X152794200Y-76942542D01*
X149545202Y-76942542D01*
X149545202Y-76881224D01*
X149504279Y-76728497D01*
X149425222Y-76591565D01*
X149313418Y-76479761D01*
X149190975Y-76409069D01*
X149150035Y-76363600D01*
X149143639Y-76302750D01*
X149149009Y-76285454D01*
X149177140Y-76217542D01*
X149205800Y-76073455D01*
X149205800Y-75926545D01*
X149177140Y-75782458D01*
X149142453Y-75698716D01*
X149120921Y-75646733D01*
X149120921Y-75646732D01*
X149100585Y-75616298D01*
X149039301Y-75524580D01*
X148935420Y-75420699D01*
X148813269Y-75339080D01*
X148813268Y-75339079D01*
X148813266Y-75339078D01*
X148677542Y-75282860D01*
X148533457Y-75254200D01*
X148533455Y-75254200D01*
X148386545Y-75254200D01*
X148386542Y-75254200D01*
X148242458Y-75282860D01*
X148242456Y-75282860D01*
X148106733Y-75339078D01*
X148106732Y-75339078D01*
X147984580Y-75420699D01*
X147984576Y-75420702D01*
X147880702Y-75524576D01*
X147880699Y-75524580D01*
X147799078Y-75646732D01*
X147799078Y-75646733D01*
X147742860Y-75782456D01*
X147742860Y-75782458D01*
X147714200Y-75926542D01*
X135693828Y-75926542D01*
X135831784Y-75889577D01*
X135968716Y-75810520D01*
X136080520Y-75698716D01*
X136159577Y-75561784D01*
X136200500Y-75409057D01*
X136200500Y-75250943D01*
X136159577Y-75098216D01*
X136080520Y-74961284D01*
X135968716Y-74849480D01*
X135831784Y-74770423D01*
X135679057Y-74729500D01*
X135520943Y-74729500D01*
X135368216Y-74770423D01*
X135231284Y-74849480D01*
X135119480Y-74961284D01*
X135040423Y-75098216D01*
X134999500Y-75250943D01*
X134200500Y-75250943D01*
X134159577Y-75098216D01*
X134080520Y-74961284D01*
X133968716Y-74849480D01*
X133831784Y-74770423D01*
X133679057Y-74729500D01*
X133520943Y-74729500D01*
X133368216Y-74770423D01*
X133231284Y-74849480D01*
X133119480Y-74961284D01*
X133040423Y-75098216D01*
X133000331Y-75247844D01*
X132999500Y-75250944D01*
X132999500Y-75270956D01*
X132980593Y-75329147D01*
X132931093Y-75365111D01*
X132869907Y-75365111D01*
X132820407Y-75329147D01*
X132814764Y-75320456D01*
X132754621Y-75216286D01*
X132754620Y-75216284D01*
X132642816Y-75104480D01*
X132505884Y-75025423D01*
X132353157Y-74984500D01*
X132195043Y-74984500D01*
X132042316Y-75025423D01*
X131905384Y-75104480D01*
X131793580Y-75216284D01*
X131714523Y-75353216D01*
X131673600Y-75505943D01*
X129911309Y-75505943D01*
X129938100Y-75405957D01*
X129938100Y-75247843D01*
X129897177Y-75095116D01*
X129818120Y-74958184D01*
X129732603Y-74872667D01*
X129704828Y-74818153D01*
X129714399Y-74757721D01*
X129753107Y-74716930D01*
X129798766Y-74690570D01*
X129910570Y-74578766D01*
X129989627Y-74441834D01*
X130016076Y-74343125D01*
X137757317Y-74343125D01*
X137757317Y-74501239D01*
X137798240Y-74653966D01*
X137877297Y-74790898D01*
X137989101Y-74902702D01*
X138126033Y-74981759D01*
X138278760Y-75022682D01*
X138278767Y-75022682D01*
X138280490Y-75022909D01*
X138281619Y-75023447D01*
X138285028Y-75024361D01*
X138284858Y-75024992D01*
X138335717Y-75049246D01*
X138362738Y-75099005D01*
X138363640Y-75098764D01*
X138364645Y-75102517D01*
X138364916Y-75103015D01*
X138365114Y-75104266D01*
X138365319Y-75105030D01*
X138365319Y-75105032D01*
X138406242Y-75257759D01*
X138485299Y-75394691D01*
X138597103Y-75506495D01*
X138734035Y-75585552D01*
X138886762Y-75626475D01*
X138886764Y-75626475D01*
X139044874Y-75626475D01*
X139044876Y-75626475D01*
X139197603Y-75585552D01*
X139334535Y-75506495D01*
X139446339Y-75394691D01*
X139525396Y-75257759D01*
X139566319Y-75105032D01*
X139566319Y-74946918D01*
X139556572Y-74910542D01*
X152794200Y-74910542D01*
X152794200Y-75057457D01*
X152822860Y-75201541D01*
X152822860Y-75201543D01*
X152879078Y-75337266D01*
X152879078Y-75337267D01*
X152912888Y-75387866D01*
X152960699Y-75459420D01*
X153064580Y-75563301D01*
X153186731Y-75644920D01*
X153186732Y-75644920D01*
X153186733Y-75644921D01*
X153191108Y-75646733D01*
X153322458Y-75701140D01*
X153466545Y-75729800D01*
X153466547Y-75729800D01*
X153613453Y-75729800D01*
X153613455Y-75729800D01*
X153757542Y-75701140D01*
X153893269Y-75644920D01*
X154015420Y-75563301D01*
X154119301Y-75459420D01*
X154200920Y-75337269D01*
X154257140Y-75201542D01*
X154285800Y-75057455D01*
X154285800Y-74910545D01*
X154257140Y-74766458D01*
X154210544Y-74653965D01*
X154200921Y-74630733D01*
X154200921Y-74630732D01*
X154162789Y-74573664D01*
X154119301Y-74508580D01*
X154015420Y-74404699D01*
X153893269Y-74323080D01*
X153893268Y-74323079D01*
X153893266Y-74323078D01*
X153757542Y-74266860D01*
X153613457Y-74238200D01*
X153613455Y-74238200D01*
X153466545Y-74238200D01*
X153466542Y-74238200D01*
X153322458Y-74266860D01*
X153322456Y-74266860D01*
X153186733Y-74323078D01*
X153186732Y-74323078D01*
X153064580Y-74404699D01*
X153064576Y-74404702D01*
X152960702Y-74508576D01*
X152960699Y-74508580D01*
X152879078Y-74630732D01*
X152879078Y-74630733D01*
X152822860Y-74766456D01*
X152822860Y-74766458D01*
X152794200Y-74910542D01*
X139556572Y-74910542D01*
X139525396Y-74794191D01*
X139446339Y-74657259D01*
X139334535Y-74545455D01*
X139197603Y-74466398D01*
X139044876Y-74425475D01*
X139044874Y-74425475D01*
X139043135Y-74425246D01*
X139042001Y-74424705D01*
X139038608Y-74423796D01*
X139038776Y-74423166D01*
X139019127Y-74413793D01*
X138994239Y-74404418D01*
X138992312Y-74401002D01*
X138987911Y-74398903D01*
X138960595Y-74353313D01*
X138958317Y-74345019D01*
X138958317Y-74343125D01*
X138917394Y-74190398D01*
X138896174Y-74153643D01*
X145070600Y-74153643D01*
X145070600Y-74311757D01*
X145111523Y-74464484D01*
X145190580Y-74601416D01*
X145302384Y-74713220D01*
X145439316Y-74792277D01*
X145592043Y-74833200D01*
X145592045Y-74833200D01*
X145750155Y-74833200D01*
X145750157Y-74833200D01*
X145902884Y-74792277D01*
X146039816Y-74713220D01*
X146151620Y-74601416D01*
X146230677Y-74464484D01*
X146271600Y-74311757D01*
X146271600Y-74156243D01*
X150175700Y-74156243D01*
X150175700Y-74314357D01*
X150216623Y-74467084D01*
X150295680Y-74604016D01*
X150407484Y-74715820D01*
X150544416Y-74794877D01*
X150697143Y-74835800D01*
X150697145Y-74835800D01*
X150855255Y-74835800D01*
X150855257Y-74835800D01*
X151007984Y-74794877D01*
X151144916Y-74715820D01*
X151256720Y-74604016D01*
X151335777Y-74467084D01*
X151376700Y-74314357D01*
X151376700Y-74156243D01*
X151335777Y-74003516D01*
X151256720Y-73866584D01*
X151144916Y-73754780D01*
X151007984Y-73675723D01*
X150855257Y-73634800D01*
X150697143Y-73634800D01*
X150544416Y-73675723D01*
X150407484Y-73754780D01*
X150295680Y-73866584D01*
X150216623Y-74003516D01*
X150175700Y-74156243D01*
X146271600Y-74156243D01*
X146271600Y-74153643D01*
X146230677Y-74000916D01*
X146151620Y-73863984D01*
X146039816Y-73752180D01*
X145902884Y-73673123D01*
X145750157Y-73632200D01*
X145592043Y-73632200D01*
X145439316Y-73673123D01*
X145302384Y-73752180D01*
X145190580Y-73863984D01*
X145111523Y-74000916D01*
X145070600Y-74153643D01*
X138896174Y-74153643D01*
X138838337Y-74053466D01*
X138726533Y-73941662D01*
X138589601Y-73862605D01*
X138436874Y-73821682D01*
X138278760Y-73821682D01*
X138126033Y-73862605D01*
X137989101Y-73941662D01*
X137877297Y-74053466D01*
X137798240Y-74190398D01*
X137757317Y-74343125D01*
X130016076Y-74343125D01*
X130030550Y-74289107D01*
X130030550Y-74130993D01*
X129989627Y-73978266D01*
X129910570Y-73841334D01*
X129910568Y-73841332D01*
X129910440Y-73841110D01*
X129897718Y-73781262D01*
X129922605Y-73725366D01*
X129970550Y-73695984D01*
X130031784Y-73679577D01*
X130168716Y-73600520D01*
X130280520Y-73488716D01*
X130359577Y-73351784D01*
X130400500Y-73199057D01*
X130400500Y-73040943D01*
X130359577Y-72888216D01*
X130280520Y-72751284D01*
X130168716Y-72639480D01*
X130031784Y-72560423D01*
X129879057Y-72519500D01*
X129720943Y-72519500D01*
X129568216Y-72560423D01*
X129431284Y-72639480D01*
X129319480Y-72751284D01*
X129240423Y-72888216D01*
X129199500Y-73040943D01*
X129199500Y-73199057D01*
X129240423Y-73351784D01*
X129319480Y-73488716D01*
X129319482Y-73488718D01*
X129319610Y-73488939D01*
X129332331Y-73548787D01*
X129307444Y-73604683D01*
X129259497Y-73634065D01*
X129198269Y-73650471D01*
X129198268Y-73650471D01*
X129068546Y-73725366D01*
X129061334Y-73729530D01*
X128949530Y-73841334D01*
X128870473Y-73978266D01*
X128829550Y-74130993D01*
X128829550Y-74289107D01*
X128870473Y-74441834D01*
X128949530Y-74578766D01*
X129035045Y-74664281D01*
X129062821Y-74718796D01*
X129053250Y-74779228D01*
X129014542Y-74820019D01*
X128987209Y-74835800D01*
X128968884Y-74846380D01*
X128857080Y-74958184D01*
X128778023Y-75095116D01*
X128737100Y-75247843D01*
X111789737Y-75247843D01*
X111792293Y-75228431D01*
X111792293Y-75228430D01*
X111819999Y-75017978D01*
X111820000Y-75017977D01*
X111820000Y-74782023D01*
X111819999Y-74782021D01*
X111789201Y-74548091D01*
X111789201Y-74548086D01*
X111728132Y-74320175D01*
X111728128Y-74320162D01*
X111637836Y-74102175D01*
X111637834Y-74102170D01*
X111519860Y-73897834D01*
X111395875Y-73736255D01*
X110932583Y-74199547D01*
X110897179Y-74150818D01*
X110769182Y-74022821D01*
X110720450Y-73987414D01*
X111183743Y-73524122D01*
X111114439Y-73470943D01*
X125199500Y-73470943D01*
X125199500Y-73629057D01*
X125240423Y-73781784D01*
X125319480Y-73918716D01*
X125431284Y-74030520D01*
X125568216Y-74109577D01*
X125720943Y-74150500D01*
X125720945Y-74150500D01*
X125879055Y-74150500D01*
X125879057Y-74150500D01*
X126031784Y-74109577D01*
X126168716Y-74030520D01*
X126280520Y-73918716D01*
X126359577Y-73781784D01*
X126400500Y-73629057D01*
X126400500Y-73470943D01*
X126359577Y-73318216D01*
X126280520Y-73181284D01*
X126168716Y-73069480D01*
X126119288Y-73040943D01*
X127799500Y-73040943D01*
X127799500Y-73199057D01*
X127840423Y-73351784D01*
X127919480Y-73488716D01*
X128031284Y-73600520D01*
X128168216Y-73679577D01*
X128320943Y-73720500D01*
X128320945Y-73720500D01*
X128479055Y-73720500D01*
X128479057Y-73720500D01*
X128631784Y-73679577D01*
X128768716Y-73600520D01*
X128880520Y-73488716D01*
X128959577Y-73351784D01*
X129000500Y-73199057D01*
X129000500Y-73040943D01*
X128959577Y-72888216D01*
X128880520Y-72751284D01*
X128768716Y-72639480D01*
X128631784Y-72560423D01*
X128479057Y-72519500D01*
X128320943Y-72519500D01*
X128168216Y-72560423D01*
X128031284Y-72639480D01*
X127919480Y-72751284D01*
X127840423Y-72888216D01*
X127799500Y-73040943D01*
X126119288Y-73040943D01*
X126031784Y-72990423D01*
X125879057Y-72949500D01*
X125720943Y-72949500D01*
X125568216Y-72990423D01*
X125431284Y-73069480D01*
X125319480Y-73181284D01*
X125240423Y-73318216D01*
X125199500Y-73470943D01*
X111114439Y-73470943D01*
X111022165Y-73400139D01*
X110817829Y-73282165D01*
X110817824Y-73282163D01*
X110599837Y-73191871D01*
X110599824Y-73191867D01*
X110371911Y-73130798D01*
X110137978Y-73100000D01*
X109902021Y-73100000D01*
X109668091Y-73130798D01*
X109668086Y-73130798D01*
X109440175Y-73191867D01*
X109440162Y-73191871D01*
X109222175Y-73282163D01*
X109222170Y-73282165D01*
X109017830Y-73400142D01*
X108856255Y-73524122D01*
X109319548Y-73987415D01*
X109270818Y-74022821D01*
X109142821Y-74150818D01*
X109107415Y-74199548D01*
X108644122Y-73736255D01*
X108520142Y-73897830D01*
X108402165Y-74102170D01*
X108402163Y-74102175D01*
X108311871Y-74320162D01*
X108311867Y-74320175D01*
X108250798Y-74548086D01*
X108250798Y-74548091D01*
X108220000Y-74782021D01*
X105855844Y-74782021D01*
X105986239Y-74651626D01*
X105878935Y-74573667D01*
X105710635Y-74487914D01*
X105530996Y-74429546D01*
X105344445Y-74400000D01*
X105155555Y-74400000D01*
X104969003Y-74429546D01*
X104789364Y-74487914D01*
X104621069Y-74573664D01*
X104513760Y-74651627D01*
X105018462Y-75156329D01*
X104942994Y-75199902D01*
X104849902Y-75292994D01*
X104806329Y-75368462D01*
X104301627Y-74863760D01*
X104223664Y-74971069D01*
X104137911Y-75139370D01*
X104094416Y-75273234D01*
X104058452Y-75322734D01*
X104000261Y-75341641D01*
X103942071Y-75322733D01*
X103906108Y-75273234D01*
X103862547Y-75139168D01*
X103776760Y-74970801D01*
X103665690Y-74817927D01*
X103532073Y-74684310D01*
X103379199Y-74573240D01*
X103379198Y-74573239D01*
X103379196Y-74573238D01*
X103210832Y-74487453D01*
X103031113Y-74429058D01*
X102844484Y-74399500D01*
X102844481Y-74399500D01*
X102655519Y-74399500D01*
X102655516Y-74399500D01*
X102468886Y-74429058D01*
X102289167Y-74487453D01*
X102120803Y-74573238D01*
X101967928Y-74684309D01*
X101834309Y-74817928D01*
X101723238Y-74970803D01*
X101637453Y-75139167D01*
X101579058Y-75318886D01*
X101549500Y-75505515D01*
X99677492Y-75505515D01*
X99688128Y-75479837D01*
X99688133Y-75479821D01*
X99689156Y-75476007D01*
X99689156Y-75476006D01*
X99749201Y-75251913D01*
X99749201Y-75251908D01*
X99779999Y-75017978D01*
X99780000Y-75017977D01*
X99780000Y-74782023D01*
X99779999Y-74782021D01*
X99749201Y-74548091D01*
X99749201Y-74548086D01*
X99688132Y-74320175D01*
X99688128Y-74320162D01*
X99597836Y-74102175D01*
X99597834Y-74102170D01*
X99479860Y-73897834D01*
X99355875Y-73736255D01*
X98892583Y-74199547D01*
X98857179Y-74150818D01*
X98729182Y-74022821D01*
X98680450Y-73987415D01*
X99143743Y-73524123D01*
X98982165Y-73400139D01*
X98777829Y-73282165D01*
X98777824Y-73282163D01*
X98559837Y-73191871D01*
X98559824Y-73191867D01*
X98331911Y-73130798D01*
X98097978Y-73100000D01*
X97862021Y-73100000D01*
X97628091Y-73130798D01*
X97628086Y-73130798D01*
X97400175Y-73191867D01*
X97400162Y-73191871D01*
X97182175Y-73282163D01*
X97182170Y-73282165D01*
X96977830Y-73400142D01*
X96816255Y-73524122D01*
X97279548Y-73987415D01*
X97230818Y-74022821D01*
X97102821Y-74150818D01*
X97067415Y-74199548D01*
X96604122Y-73736255D01*
X96480142Y-73897830D01*
X96362165Y-74102170D01*
X96362163Y-74102175D01*
X96271871Y-74320162D01*
X96271867Y-74320175D01*
X96210798Y-74548086D01*
X96210798Y-74548091D01*
X96180000Y-74782021D01*
X91500000Y-74782021D01*
X91500000Y-72305515D01*
X101549500Y-72305515D01*
X101549500Y-72494484D01*
X101579058Y-72681113D01*
X101637453Y-72860832D01*
X101723237Y-73029195D01*
X101723240Y-73029199D01*
X101834310Y-73182073D01*
X101967927Y-73315690D01*
X102120801Y-73426760D01*
X102289168Y-73512547D01*
X102468882Y-73570940D01*
X102468883Y-73570940D01*
X102468886Y-73570941D01*
X102655516Y-73600500D01*
X102655519Y-73600500D01*
X102844484Y-73600500D01*
X103031113Y-73570941D01*
X103031114Y-73570940D01*
X103031118Y-73570940D01*
X103210832Y-73512547D01*
X103379199Y-73426760D01*
X103532073Y-73315690D01*
X103665690Y-73182073D01*
X103776760Y-73029199D01*
X103862291Y-72861333D01*
X103905554Y-72818070D01*
X103965986Y-72808498D01*
X104020503Y-72836275D01*
X104048281Y-72890791D01*
X104049500Y-72906279D01*
X104049500Y-73344860D01*
X104049501Y-73344863D01*
X104052414Y-73369990D01*
X104065728Y-73400142D01*
X104097794Y-73472765D01*
X104177235Y-73552206D01*
X104280009Y-73597585D01*
X104305135Y-73600500D01*
X106194864Y-73600499D01*
X106219991Y-73597585D01*
X106322765Y-73552206D01*
X106402206Y-73472765D01*
X106447585Y-73369991D01*
X106450500Y-73344865D01*
X106450499Y-72220943D01*
X133749500Y-72220943D01*
X133749500Y-72379057D01*
X133790423Y-72531784D01*
X133869480Y-72668716D01*
X133981284Y-72780520D01*
X134118216Y-72859577D01*
X134270943Y-72900500D01*
X134270945Y-72900500D01*
X134429055Y-72900500D01*
X134429057Y-72900500D01*
X134581784Y-72859577D01*
X134718716Y-72780520D01*
X134830520Y-72668716D01*
X134909577Y-72531784D01*
X134950500Y-72379057D01*
X134950500Y-72220943D01*
X134909577Y-72068216D01*
X134830520Y-71931284D01*
X134718716Y-71819480D01*
X134581784Y-71740423D01*
X134429057Y-71699500D01*
X134270943Y-71699500D01*
X134118216Y-71740423D01*
X133981284Y-71819480D01*
X133869480Y-71931284D01*
X133790423Y-72068216D01*
X133749500Y-72220943D01*
X106450499Y-72220943D01*
X106450499Y-71455136D01*
X106447585Y-71430009D01*
X106402206Y-71327235D01*
X106322765Y-71247794D01*
X106219991Y-71202415D01*
X106219990Y-71202414D01*
X106219988Y-71202414D01*
X106194868Y-71199500D01*
X104305139Y-71199500D01*
X104305136Y-71199501D01*
X104280009Y-71202414D01*
X104177235Y-71247794D01*
X104097794Y-71327235D01*
X104052414Y-71430011D01*
X104049500Y-71455130D01*
X104049500Y-71893719D01*
X104030593Y-71951910D01*
X103981093Y-71987874D01*
X103919907Y-71987874D01*
X103870407Y-71951910D01*
X103862290Y-71938664D01*
X103839389Y-71893719D01*
X103776760Y-71770801D01*
X103665690Y-71617927D01*
X103532073Y-71484310D01*
X103379199Y-71373240D01*
X103379198Y-71373239D01*
X103379196Y-71373238D01*
X103210832Y-71287453D01*
X103031113Y-71229058D01*
X102844484Y-71199500D01*
X102844481Y-71199500D01*
X102655519Y-71199500D01*
X102655516Y-71199500D01*
X102468886Y-71229058D01*
X102289167Y-71287453D01*
X102120803Y-71373238D01*
X101967928Y-71484309D01*
X101834309Y-71617928D01*
X101723238Y-71770803D01*
X101637453Y-71939167D01*
X101579058Y-72118886D01*
X101549500Y-72305515D01*
X91500000Y-72305515D01*
X91500000Y-69920943D01*
X135719500Y-69920943D01*
X135719500Y-70079057D01*
X135760423Y-70231784D01*
X135839480Y-70368716D01*
X135951284Y-70480520D01*
X136088216Y-70559577D01*
X136240943Y-70600500D01*
X136240945Y-70600500D01*
X136399055Y-70600500D01*
X136399057Y-70600500D01*
X136551784Y-70559577D01*
X136688716Y-70480520D01*
X136800520Y-70368716D01*
X136879577Y-70231784D01*
X136920500Y-70079057D01*
X136920500Y-69920943D01*
X136879577Y-69768216D01*
X136800520Y-69631284D01*
X136688716Y-69519480D01*
X136551784Y-69440423D01*
X136399057Y-69399500D01*
X136240943Y-69399500D01*
X136088216Y-69440423D01*
X135951284Y-69519480D01*
X135839480Y-69631284D01*
X135760423Y-69768216D01*
X135719500Y-69920943D01*
X91500000Y-69920943D01*
X91500000Y-68754320D01*
X115122263Y-68754320D01*
X115122263Y-68912434D01*
X115163186Y-69065161D01*
X115242243Y-69202093D01*
X115354047Y-69313897D01*
X115490979Y-69392954D01*
X115643706Y-69433877D01*
X115643708Y-69433877D01*
X115801818Y-69433877D01*
X115801820Y-69433877D01*
X115954547Y-69392954D01*
X116091479Y-69313897D01*
X116203283Y-69202093D01*
X116282340Y-69065161D01*
X116323263Y-68912434D01*
X116323263Y-68754320D01*
X116282340Y-68601593D01*
X116203283Y-68464661D01*
X116091479Y-68352857D01*
X115954547Y-68273800D01*
X115801820Y-68232877D01*
X115643706Y-68232877D01*
X115490979Y-68273800D01*
X115354047Y-68352857D01*
X115242243Y-68464661D01*
X115163186Y-68601593D01*
X115122263Y-68754320D01*
X91500000Y-68754320D01*
X91500000Y-66235173D01*
X91512110Y-66187728D01*
X91566895Y-66087396D01*
X91574524Y-66075522D01*
X91711363Y-65892727D01*
X91720599Y-65882067D01*
X91882067Y-65720599D01*
X91892727Y-65711363D01*
X92075522Y-65574524D01*
X92087381Y-65566903D01*
X92187730Y-65512108D01*
X92235174Y-65500000D01*
X167764826Y-65500000D01*
X167812271Y-65512110D01*
G37*
%TD.AperFunction*%
%TD*%
%TA.AperFunction,Conductor*%
%TO.N,GND_ISO*%
G36*
X95627788Y-96918907D02*
G01*
X95663752Y-96968407D01*
X95663752Y-97029593D01*
X95661061Y-97036886D01*
X95580734Y-97230810D01*
X95540000Y-97435596D01*
X95540000Y-97644403D01*
X95580734Y-97849189D01*
X95660639Y-98042096D01*
X95660643Y-98042105D01*
X95750813Y-98177052D01*
X96156329Y-97771536D01*
X96199902Y-97847006D01*
X96292994Y-97940098D01*
X96368461Y-97983669D01*
X95962946Y-98389185D01*
X96097903Y-98479360D01*
X96290810Y-98559265D01*
X96495596Y-98599999D01*
X96495600Y-98600000D01*
X96704400Y-98600000D01*
X96704403Y-98599999D01*
X96909189Y-98559265D01*
X97102097Y-98479360D01*
X97237052Y-98389185D01*
X96831537Y-97983670D01*
X96907006Y-97940098D01*
X97000098Y-97847006D01*
X97043669Y-97771537D01*
X97449185Y-98177052D01*
X97539360Y-98042097D01*
X97568833Y-97970943D01*
X100229500Y-97970943D01*
X100229500Y-98129057D01*
X100270423Y-98281784D01*
X100349480Y-98418716D01*
X100461284Y-98530520D01*
X100598216Y-98609577D01*
X100750943Y-98650500D01*
X100750945Y-98650500D01*
X100909055Y-98650500D01*
X100909057Y-98650500D01*
X101061784Y-98609577D01*
X101163342Y-98550943D01*
X103249500Y-98550943D01*
X103249500Y-98709057D01*
X103290423Y-98861784D01*
X103369480Y-98998716D01*
X103481284Y-99110520D01*
X103618216Y-99189577D01*
X103770943Y-99230500D01*
X103770945Y-99230500D01*
X103929055Y-99230500D01*
X103929057Y-99230500D01*
X104081784Y-99189577D01*
X104218716Y-99110520D01*
X104330520Y-98998716D01*
X104409577Y-98861784D01*
X104450500Y-98709057D01*
X104450500Y-98550943D01*
X111249500Y-98550943D01*
X111249500Y-98709057D01*
X111290423Y-98861784D01*
X111369480Y-98998716D01*
X111481284Y-99110520D01*
X111618216Y-99189577D01*
X111770943Y-99230500D01*
X111770945Y-99230500D01*
X111929055Y-99230500D01*
X111929057Y-99230500D01*
X112081784Y-99189577D01*
X112218716Y-99110520D01*
X112330520Y-98998716D01*
X112409577Y-98861784D01*
X112450500Y-98709057D01*
X112450500Y-98550943D01*
X112409577Y-98398216D01*
X112330520Y-98261284D01*
X112218716Y-98149480D01*
X112082685Y-98070943D01*
X125469500Y-98070943D01*
X125469500Y-98229057D01*
X125510423Y-98381784D01*
X125589480Y-98518716D01*
X125701284Y-98630520D01*
X125838216Y-98709577D01*
X125990943Y-98750500D01*
X125990945Y-98750500D01*
X126149055Y-98750500D01*
X126149057Y-98750500D01*
X126301784Y-98709577D01*
X126438716Y-98630520D01*
X126550520Y-98518716D01*
X126629577Y-98381784D01*
X126670500Y-98229057D01*
X126670500Y-98070943D01*
X133469500Y-98070943D01*
X133469500Y-98229057D01*
X133510423Y-98381784D01*
X133589480Y-98518716D01*
X133701284Y-98630520D01*
X133838216Y-98709577D01*
X133990943Y-98750500D01*
X133990945Y-98750500D01*
X134149055Y-98750500D01*
X134149057Y-98750500D01*
X134301784Y-98709577D01*
X134438716Y-98630520D01*
X134550520Y-98518716D01*
X134629577Y-98381784D01*
X134670500Y-98229057D01*
X134670500Y-98070943D01*
X141469500Y-98070943D01*
X141469500Y-98229057D01*
X141510423Y-98381784D01*
X141589480Y-98518716D01*
X141701284Y-98630520D01*
X141838216Y-98709577D01*
X141990943Y-98750500D01*
X141990945Y-98750500D01*
X142149055Y-98750500D01*
X142149057Y-98750500D01*
X142301784Y-98709577D01*
X142438716Y-98630520D01*
X142550520Y-98518716D01*
X142629577Y-98381784D01*
X142670500Y-98229057D01*
X142670500Y-98070943D01*
X149469500Y-98070943D01*
X149469500Y-98229057D01*
X149510423Y-98381784D01*
X149589480Y-98518716D01*
X149701284Y-98630520D01*
X149838216Y-98709577D01*
X149990943Y-98750500D01*
X149990945Y-98750500D01*
X150149055Y-98750500D01*
X150149057Y-98750500D01*
X150301784Y-98709577D01*
X150438716Y-98630520D01*
X150550520Y-98518716D01*
X150629577Y-98381784D01*
X150670500Y-98229057D01*
X150670500Y-98070943D01*
X150629577Y-97918216D01*
X150550520Y-97781284D01*
X150438716Y-97669480D01*
X150301784Y-97590423D01*
X150149057Y-97549500D01*
X149990943Y-97549500D01*
X149838216Y-97590423D01*
X149701284Y-97669480D01*
X149589480Y-97781284D01*
X149510423Y-97918216D01*
X149469500Y-98070943D01*
X142670500Y-98070943D01*
X142629577Y-97918216D01*
X142550520Y-97781284D01*
X142438716Y-97669480D01*
X142301784Y-97590423D01*
X142149057Y-97549500D01*
X141990943Y-97549500D01*
X141838216Y-97590423D01*
X141701284Y-97669480D01*
X141589480Y-97781284D01*
X141510423Y-97918216D01*
X141469500Y-98070943D01*
X134670500Y-98070943D01*
X134629577Y-97918216D01*
X134550520Y-97781284D01*
X134438716Y-97669480D01*
X134301784Y-97590423D01*
X134149057Y-97549500D01*
X133990943Y-97549500D01*
X133838216Y-97590423D01*
X133701284Y-97669480D01*
X133589480Y-97781284D01*
X133510423Y-97918216D01*
X133469500Y-98070943D01*
X126670500Y-98070943D01*
X126629577Y-97918216D01*
X126550520Y-97781284D01*
X126438716Y-97669480D01*
X126301784Y-97590423D01*
X126149057Y-97549500D01*
X125990943Y-97549500D01*
X125838216Y-97590423D01*
X125701284Y-97669480D01*
X125589480Y-97781284D01*
X125510423Y-97918216D01*
X125469500Y-98070943D01*
X112082685Y-98070943D01*
X112081784Y-98070423D01*
X111929057Y-98029500D01*
X111770943Y-98029500D01*
X111618216Y-98070423D01*
X111481284Y-98149480D01*
X111369480Y-98261284D01*
X111290423Y-98398216D01*
X111249500Y-98550943D01*
X104450500Y-98550943D01*
X104409577Y-98398216D01*
X104330520Y-98261284D01*
X104218716Y-98149480D01*
X104081784Y-98070423D01*
X103929057Y-98029500D01*
X103770943Y-98029500D01*
X103618216Y-98070423D01*
X103481284Y-98149480D01*
X103369480Y-98261284D01*
X103290423Y-98398216D01*
X103249500Y-98550943D01*
X101163342Y-98550943D01*
X101198716Y-98530520D01*
X101310520Y-98418716D01*
X101389577Y-98281784D01*
X101430500Y-98129057D01*
X101430500Y-97970943D01*
X101389577Y-97818216D01*
X101310520Y-97681284D01*
X101198716Y-97569480D01*
X101061784Y-97490423D01*
X100909057Y-97449500D01*
X100750943Y-97449500D01*
X100598216Y-97490423D01*
X100461284Y-97569480D01*
X100349480Y-97681284D01*
X100270423Y-97818216D01*
X100229500Y-97970943D01*
X97568833Y-97970943D01*
X97587214Y-97926568D01*
X97619265Y-97849189D01*
X97659999Y-97644403D01*
X97660000Y-97644399D01*
X97660000Y-97435600D01*
X97659999Y-97435596D01*
X97619265Y-97230810D01*
X97538939Y-97036886D01*
X97534138Y-96975889D01*
X97566108Y-96923720D01*
X97622636Y-96900305D01*
X97630403Y-96900000D01*
X168401000Y-96900000D01*
X168459191Y-96918907D01*
X168495155Y-96968407D01*
X168500000Y-96999000D01*
X168500000Y-123764825D01*
X168487890Y-123812271D01*
X168433104Y-123912604D01*
X168425468Y-123924486D01*
X168288643Y-124107263D01*
X168279393Y-124117939D01*
X168117939Y-124279393D01*
X168107263Y-124288643D01*
X167924486Y-124425468D01*
X167912604Y-124433104D01*
X167812272Y-124487890D01*
X167764826Y-124500000D01*
X92235174Y-124500000D01*
X92187728Y-124487890D01*
X92087395Y-124433104D01*
X92075513Y-124425468D01*
X91892736Y-124288643D01*
X91882060Y-124279393D01*
X91720606Y-124117939D01*
X91711356Y-124107263D01*
X91574531Y-123924486D01*
X91566895Y-123912604D01*
X91519527Y-123825855D01*
X91512109Y-123812270D01*
X91500000Y-123764825D01*
X91500000Y-116645315D01*
X97090000Y-116645315D01*
X97090000Y-116954684D01*
X97130379Y-117261393D01*
X97130379Y-117261398D01*
X97210448Y-117560217D01*
X97210450Y-117560225D01*
X97328836Y-117846036D01*
X97483523Y-118113962D01*
X97671845Y-118359388D01*
X97675162Y-118362705D01*
X98251067Y-117786799D01*
X98267796Y-117809825D01*
X98440302Y-117982331D01*
X98463180Y-117998952D01*
X97887295Y-118574838D01*
X97890611Y-118578154D01*
X98136037Y-118766476D01*
X98403963Y-118921163D01*
X98689774Y-119039549D01*
X98689782Y-119039551D01*
X98988603Y-119119620D01*
X99295315Y-119159999D01*
X99295318Y-119160000D01*
X99604682Y-119160000D01*
X99604684Y-119159999D01*
X99911393Y-119119620D01*
X99911398Y-119119620D01*
X100210217Y-119039551D01*
X100210225Y-119039549D01*
X100438174Y-118945130D01*
X106969500Y-118945130D01*
X106969500Y-120334860D01*
X106969501Y-120334863D01*
X106972414Y-120359990D01*
X106980500Y-120378302D01*
X107017794Y-120462765D01*
X107097235Y-120542206D01*
X107200009Y-120587585D01*
X107225135Y-120590500D01*
X108614864Y-120590499D01*
X108639991Y-120587585D01*
X108742765Y-120542206D01*
X108822206Y-120462765D01*
X108867585Y-120359991D01*
X108870500Y-120334865D01*
X108870499Y-119546381D01*
X109729500Y-119546381D01*
X109729500Y-119733618D01*
X109766026Y-119917249D01*
X109837677Y-120090229D01*
X109837681Y-120090238D01*
X109912065Y-120201559D01*
X109941698Y-120245908D01*
X110074092Y-120378302D01*
X110140463Y-120422649D01*
X110229761Y-120482318D01*
X110229767Y-120482320D01*
X110229769Y-120482322D01*
X110402749Y-120553973D01*
X110586384Y-120590500D01*
X110586385Y-120590500D01*
X110773615Y-120590500D01*
X110773616Y-120590500D01*
X110957251Y-120553973D01*
X111130231Y-120482322D01*
X111130234Y-120482319D01*
X111130238Y-120482318D01*
X111175187Y-120452282D01*
X111285908Y-120378302D01*
X111418302Y-120245908D01*
X111492282Y-120135187D01*
X111522318Y-120090238D01*
X111522319Y-120090234D01*
X111522322Y-120090231D01*
X111593973Y-119917251D01*
X111630500Y-119733616D01*
X111630500Y-119546384D01*
X111630499Y-119546381D01*
X112489500Y-119546381D01*
X112489500Y-119733618D01*
X112526026Y-119917249D01*
X112597677Y-120090229D01*
X112597681Y-120090238D01*
X112672065Y-120201559D01*
X112701698Y-120245908D01*
X112834092Y-120378302D01*
X112900463Y-120422649D01*
X112989761Y-120482318D01*
X112989767Y-120482320D01*
X112989769Y-120482322D01*
X113162749Y-120553973D01*
X113346384Y-120590500D01*
X113346385Y-120590500D01*
X113533615Y-120590500D01*
X113533616Y-120590500D01*
X113717251Y-120553973D01*
X113890231Y-120482322D01*
X113890234Y-120482319D01*
X113890238Y-120482318D01*
X113935187Y-120452282D01*
X114045908Y-120378302D01*
X114178302Y-120245908D01*
X114252282Y-120135187D01*
X114282318Y-120090238D01*
X114282319Y-120090234D01*
X114282322Y-120090231D01*
X114353973Y-119917251D01*
X114390500Y-119733616D01*
X114390500Y-119546384D01*
X114390499Y-119546381D01*
X115249500Y-119546381D01*
X115249500Y-119733618D01*
X115286026Y-119917249D01*
X115357677Y-120090229D01*
X115357681Y-120090238D01*
X115432065Y-120201559D01*
X115461698Y-120245908D01*
X115594092Y-120378302D01*
X115660463Y-120422649D01*
X115749761Y-120482318D01*
X115749767Y-120482320D01*
X115749769Y-120482322D01*
X115922749Y-120553973D01*
X116106384Y-120590500D01*
X116106385Y-120590500D01*
X116293615Y-120590500D01*
X116293616Y-120590500D01*
X116477251Y-120553973D01*
X116650231Y-120482322D01*
X116650234Y-120482319D01*
X116650238Y-120482318D01*
X116695187Y-120452282D01*
X116805908Y-120378302D01*
X116938302Y-120245908D01*
X117012282Y-120135187D01*
X117042318Y-120090238D01*
X117042319Y-120090234D01*
X117042322Y-120090231D01*
X117113973Y-119917251D01*
X117150500Y-119733616D01*
X117150500Y-119546384D01*
X117150499Y-119546381D01*
X118009500Y-119546381D01*
X118009500Y-119733618D01*
X118046026Y-119917249D01*
X118117677Y-120090229D01*
X118117681Y-120090238D01*
X118192065Y-120201559D01*
X118221698Y-120245908D01*
X118354092Y-120378302D01*
X118420463Y-120422649D01*
X118509761Y-120482318D01*
X118509767Y-120482320D01*
X118509769Y-120482322D01*
X118682749Y-120553973D01*
X118866384Y-120590500D01*
X118866385Y-120590500D01*
X119053615Y-120590500D01*
X119053616Y-120590500D01*
X119237251Y-120553973D01*
X119410231Y-120482322D01*
X119410234Y-120482319D01*
X119410238Y-120482318D01*
X119455187Y-120452282D01*
X119565908Y-120378302D01*
X119698302Y-120245908D01*
X119772282Y-120135187D01*
X119802318Y-120090238D01*
X119802319Y-120090234D01*
X119802322Y-120090231D01*
X119873973Y-119917251D01*
X119910500Y-119733616D01*
X119910500Y-119546384D01*
X119910499Y-119546381D01*
X120769500Y-119546381D01*
X120769500Y-119733618D01*
X120806026Y-119917249D01*
X120877677Y-120090229D01*
X120877681Y-120090238D01*
X120952065Y-120201559D01*
X120981698Y-120245908D01*
X121114092Y-120378302D01*
X121180463Y-120422649D01*
X121269761Y-120482318D01*
X121269767Y-120482320D01*
X121269769Y-120482322D01*
X121442749Y-120553973D01*
X121626384Y-120590500D01*
X121626385Y-120590500D01*
X121813615Y-120590500D01*
X121813616Y-120590500D01*
X121997251Y-120553973D01*
X122170231Y-120482322D01*
X122170234Y-120482319D01*
X122170238Y-120482318D01*
X122215187Y-120452282D01*
X122325908Y-120378302D01*
X122458302Y-120245908D01*
X122532282Y-120135187D01*
X122562318Y-120090238D01*
X122562319Y-120090234D01*
X122562322Y-120090231D01*
X122633973Y-119917251D01*
X122670500Y-119733616D01*
X122670500Y-119546384D01*
X122670499Y-119546381D01*
X123529500Y-119546381D01*
X123529500Y-119733618D01*
X123566026Y-119917249D01*
X123637677Y-120090229D01*
X123637681Y-120090238D01*
X123712065Y-120201559D01*
X123741698Y-120245908D01*
X123874092Y-120378302D01*
X123940463Y-120422649D01*
X124029761Y-120482318D01*
X124029767Y-120482320D01*
X124029769Y-120482322D01*
X124202749Y-120553973D01*
X124386384Y-120590500D01*
X124386385Y-120590500D01*
X124573615Y-120590500D01*
X124573616Y-120590500D01*
X124757251Y-120553973D01*
X124930231Y-120482322D01*
X124930234Y-120482319D01*
X124930238Y-120482318D01*
X124975187Y-120452282D01*
X125085908Y-120378302D01*
X125218302Y-120245908D01*
X125292282Y-120135187D01*
X125322318Y-120090238D01*
X125322319Y-120090234D01*
X125322322Y-120090231D01*
X125393973Y-119917251D01*
X125430500Y-119733616D01*
X125430500Y-119546384D01*
X125430499Y-119546381D01*
X126289500Y-119546381D01*
X126289500Y-119733618D01*
X126326026Y-119917249D01*
X126397677Y-120090229D01*
X126397681Y-120090238D01*
X126472065Y-120201559D01*
X126501698Y-120245908D01*
X126634092Y-120378302D01*
X126700463Y-120422649D01*
X126789761Y-120482318D01*
X126789767Y-120482320D01*
X126789769Y-120482322D01*
X126962749Y-120553973D01*
X127146384Y-120590500D01*
X127146385Y-120590500D01*
X127333615Y-120590500D01*
X127333616Y-120590500D01*
X127517251Y-120553973D01*
X127690231Y-120482322D01*
X127690234Y-120482319D01*
X127690238Y-120482318D01*
X127735187Y-120452282D01*
X127845908Y-120378302D01*
X127978302Y-120245908D01*
X128052282Y-120135187D01*
X128082318Y-120090238D01*
X128082319Y-120090234D01*
X128082322Y-120090231D01*
X128153973Y-119917251D01*
X128190500Y-119733616D01*
X128190500Y-119546384D01*
X128190499Y-119546381D01*
X129049500Y-119546381D01*
X129049500Y-119733618D01*
X129086026Y-119917249D01*
X129157677Y-120090229D01*
X129157681Y-120090238D01*
X129232065Y-120201559D01*
X129261698Y-120245908D01*
X129394092Y-120378302D01*
X129460463Y-120422649D01*
X129549761Y-120482318D01*
X129549767Y-120482320D01*
X129549769Y-120482322D01*
X129722749Y-120553973D01*
X129906384Y-120590500D01*
X129906385Y-120590500D01*
X130093615Y-120590500D01*
X130093616Y-120590500D01*
X130277251Y-120553973D01*
X130450231Y-120482322D01*
X130450234Y-120482319D01*
X130450238Y-120482318D01*
X130495187Y-120452282D01*
X130605908Y-120378302D01*
X130738302Y-120245908D01*
X130812282Y-120135187D01*
X130842318Y-120090238D01*
X130842319Y-120090234D01*
X130842322Y-120090231D01*
X130913973Y-119917251D01*
X130950500Y-119733616D01*
X130950500Y-119546384D01*
X130950499Y-119546381D01*
X131809500Y-119546381D01*
X131809500Y-119733618D01*
X131846026Y-119917249D01*
X131917677Y-120090229D01*
X131917681Y-120090238D01*
X131992065Y-120201559D01*
X132021698Y-120245908D01*
X132154092Y-120378302D01*
X132220463Y-120422649D01*
X132309761Y-120482318D01*
X132309767Y-120482320D01*
X132309769Y-120482322D01*
X132482749Y-120553973D01*
X132666384Y-120590500D01*
X132666385Y-120590500D01*
X132853615Y-120590500D01*
X132853616Y-120590500D01*
X133037251Y-120553973D01*
X133210231Y-120482322D01*
X133210234Y-120482319D01*
X133210238Y-120482318D01*
X133255187Y-120452282D01*
X133365908Y-120378302D01*
X133498302Y-120245908D01*
X133572282Y-120135187D01*
X133602318Y-120090238D01*
X133602319Y-120090234D01*
X133602322Y-120090231D01*
X133673973Y-119917251D01*
X133710500Y-119733616D01*
X133710500Y-119546384D01*
X133710499Y-119546381D01*
X134569500Y-119546381D01*
X134569500Y-119733618D01*
X134606026Y-119917249D01*
X134677677Y-120090229D01*
X134677681Y-120090238D01*
X134752065Y-120201559D01*
X134781698Y-120245908D01*
X134914092Y-120378302D01*
X134980463Y-120422649D01*
X135069761Y-120482318D01*
X135069767Y-120482320D01*
X135069769Y-120482322D01*
X135242749Y-120553973D01*
X135426384Y-120590500D01*
X135426385Y-120590500D01*
X135613615Y-120590500D01*
X135613616Y-120590500D01*
X135797251Y-120553973D01*
X135970231Y-120482322D01*
X135970234Y-120482319D01*
X135970238Y-120482318D01*
X136015187Y-120452282D01*
X136125908Y-120378302D01*
X136258302Y-120245908D01*
X136332282Y-120135187D01*
X136362318Y-120090238D01*
X136362319Y-120090234D01*
X136362322Y-120090231D01*
X136433973Y-119917251D01*
X136470500Y-119733616D01*
X136470500Y-119546384D01*
X136470499Y-119546381D01*
X137329500Y-119546381D01*
X137329500Y-119733618D01*
X137366026Y-119917249D01*
X137437677Y-120090229D01*
X137437681Y-120090238D01*
X137512065Y-120201559D01*
X137541698Y-120245908D01*
X137674092Y-120378302D01*
X137740463Y-120422649D01*
X137829761Y-120482318D01*
X137829767Y-120482320D01*
X137829769Y-120482322D01*
X138002749Y-120553973D01*
X138186384Y-120590500D01*
X138186385Y-120590500D01*
X138373615Y-120590500D01*
X138373616Y-120590500D01*
X138557251Y-120553973D01*
X138730231Y-120482322D01*
X138730234Y-120482319D01*
X138730238Y-120482318D01*
X138775187Y-120452282D01*
X138885908Y-120378302D01*
X139018302Y-120245908D01*
X139092282Y-120135187D01*
X139122318Y-120090238D01*
X139122319Y-120090234D01*
X139122322Y-120090231D01*
X139193973Y-119917251D01*
X139230500Y-119733616D01*
X139230500Y-119546384D01*
X139230499Y-119546381D01*
X140089500Y-119546381D01*
X140089500Y-119733618D01*
X140126026Y-119917249D01*
X140197677Y-120090229D01*
X140197681Y-120090238D01*
X140272065Y-120201559D01*
X140301698Y-120245908D01*
X140434092Y-120378302D01*
X140500463Y-120422649D01*
X140589761Y-120482318D01*
X140589767Y-120482320D01*
X140589769Y-120482322D01*
X140762749Y-120553973D01*
X140946384Y-120590500D01*
X140946385Y-120590500D01*
X141133615Y-120590500D01*
X141133616Y-120590500D01*
X141317251Y-120553973D01*
X141490231Y-120482322D01*
X141490234Y-120482319D01*
X141490238Y-120482318D01*
X141535187Y-120452282D01*
X141645908Y-120378302D01*
X141778302Y-120245908D01*
X141852282Y-120135187D01*
X141882318Y-120090238D01*
X141882319Y-120090234D01*
X141882322Y-120090231D01*
X141953973Y-119917251D01*
X141990500Y-119733616D01*
X141990500Y-119546384D01*
X141990499Y-119546381D01*
X142849500Y-119546381D01*
X142849500Y-119733618D01*
X142886026Y-119917249D01*
X142957677Y-120090229D01*
X142957681Y-120090238D01*
X143032065Y-120201559D01*
X143061698Y-120245908D01*
X143194092Y-120378302D01*
X143260463Y-120422649D01*
X143349761Y-120482318D01*
X143349767Y-120482320D01*
X143349769Y-120482322D01*
X143522749Y-120553973D01*
X143706384Y-120590500D01*
X143706385Y-120590500D01*
X143893615Y-120590500D01*
X143893616Y-120590500D01*
X144077251Y-120553973D01*
X144250231Y-120482322D01*
X144250234Y-120482319D01*
X144250238Y-120482318D01*
X144295187Y-120452282D01*
X144405908Y-120378302D01*
X144538302Y-120245908D01*
X144612282Y-120135187D01*
X144642318Y-120090238D01*
X144642319Y-120090234D01*
X144642322Y-120090231D01*
X144713973Y-119917251D01*
X144750500Y-119733616D01*
X144750500Y-119546384D01*
X144750499Y-119546381D01*
X145609500Y-119546381D01*
X145609500Y-119733618D01*
X145646026Y-119917249D01*
X145717677Y-120090229D01*
X145717681Y-120090238D01*
X145792065Y-120201559D01*
X145821698Y-120245908D01*
X145954092Y-120378302D01*
X146020463Y-120422649D01*
X146109761Y-120482318D01*
X146109767Y-120482320D01*
X146109769Y-120482322D01*
X146282749Y-120553973D01*
X146466384Y-120590500D01*
X146466385Y-120590500D01*
X146653615Y-120590500D01*
X146653616Y-120590500D01*
X146837251Y-120553973D01*
X147010231Y-120482322D01*
X147010234Y-120482319D01*
X147010238Y-120482318D01*
X147055187Y-120452282D01*
X147165908Y-120378302D01*
X147298302Y-120245908D01*
X147372282Y-120135187D01*
X147402318Y-120090238D01*
X147402319Y-120090234D01*
X147402322Y-120090231D01*
X147473973Y-119917251D01*
X147510500Y-119733616D01*
X147510500Y-119546384D01*
X147510499Y-119546381D01*
X148369500Y-119546381D01*
X148369500Y-119733618D01*
X148406026Y-119917249D01*
X148477677Y-120090229D01*
X148477681Y-120090238D01*
X148552065Y-120201559D01*
X148581698Y-120245908D01*
X148714092Y-120378302D01*
X148780463Y-120422649D01*
X148869761Y-120482318D01*
X148869767Y-120482320D01*
X148869769Y-120482322D01*
X149042749Y-120553973D01*
X149226384Y-120590500D01*
X149226385Y-120590500D01*
X149413615Y-120590500D01*
X149413616Y-120590500D01*
X149597251Y-120553973D01*
X149770231Y-120482322D01*
X149770234Y-120482319D01*
X149770238Y-120482318D01*
X149815187Y-120452282D01*
X149925908Y-120378302D01*
X150058302Y-120245908D01*
X150132282Y-120135187D01*
X150162318Y-120090238D01*
X150162319Y-120090234D01*
X150162322Y-120090231D01*
X150233973Y-119917251D01*
X150270500Y-119733616D01*
X150270500Y-119546384D01*
X150270499Y-119546381D01*
X151129500Y-119546381D01*
X151129500Y-119733618D01*
X151166026Y-119917249D01*
X151237677Y-120090229D01*
X151237681Y-120090238D01*
X151312065Y-120201559D01*
X151341698Y-120245908D01*
X151474092Y-120378302D01*
X151540463Y-120422649D01*
X151629761Y-120482318D01*
X151629767Y-120482320D01*
X151629769Y-120482322D01*
X151802749Y-120553973D01*
X151986384Y-120590500D01*
X151986385Y-120590500D01*
X152173615Y-120590500D01*
X152173616Y-120590500D01*
X152357251Y-120553973D01*
X152530231Y-120482322D01*
X152530234Y-120482319D01*
X152530238Y-120482318D01*
X152575187Y-120452282D01*
X152685908Y-120378302D01*
X152818302Y-120245908D01*
X152892282Y-120135187D01*
X152922318Y-120090238D01*
X152922319Y-120090234D01*
X152922322Y-120090231D01*
X152993973Y-119917251D01*
X153030500Y-119733616D01*
X153030500Y-119546384D01*
X152993973Y-119362749D01*
X152922322Y-119189769D01*
X152922320Y-119189767D01*
X152922318Y-119189761D01*
X152862649Y-119100463D01*
X152818302Y-119034092D01*
X152685908Y-118901698D01*
X152618323Y-118856539D01*
X152530238Y-118797681D01*
X152530229Y-118797677D01*
X152357249Y-118726026D01*
X152173618Y-118689500D01*
X152173616Y-118689500D01*
X151986384Y-118689500D01*
X151986381Y-118689500D01*
X151802750Y-118726026D01*
X151629770Y-118797677D01*
X151629761Y-118797681D01*
X151474092Y-118901698D01*
X151474088Y-118901701D01*
X151341701Y-119034088D01*
X151341698Y-119034092D01*
X151237681Y-119189761D01*
X151237677Y-119189770D01*
X151166026Y-119362750D01*
X151129500Y-119546381D01*
X150270499Y-119546381D01*
X150233973Y-119362749D01*
X150162322Y-119189769D01*
X150162320Y-119189767D01*
X150162318Y-119189761D01*
X150102649Y-119100463D01*
X150058302Y-119034092D01*
X149925908Y-118901698D01*
X149858323Y-118856539D01*
X149770238Y-118797681D01*
X149770229Y-118797677D01*
X149597249Y-118726026D01*
X149413618Y-118689500D01*
X149413616Y-118689500D01*
X149226384Y-118689500D01*
X149226381Y-118689500D01*
X149042750Y-118726026D01*
X148869770Y-118797677D01*
X148869761Y-118797681D01*
X148714092Y-118901698D01*
X148714088Y-118901701D01*
X148581701Y-119034088D01*
X148581698Y-119034092D01*
X148477681Y-119189761D01*
X148477677Y-119189770D01*
X148406026Y-119362750D01*
X148369500Y-119546381D01*
X147510499Y-119546381D01*
X147473973Y-119362749D01*
X147402322Y-119189769D01*
X147402320Y-119189767D01*
X147402318Y-119189761D01*
X147342649Y-119100463D01*
X147298302Y-119034092D01*
X147165908Y-118901698D01*
X147098323Y-118856539D01*
X147010238Y-118797681D01*
X147010229Y-118797677D01*
X146837249Y-118726026D01*
X146653618Y-118689500D01*
X146653616Y-118689500D01*
X146466384Y-118689500D01*
X146466381Y-118689500D01*
X146282750Y-118726026D01*
X146109770Y-118797677D01*
X146109761Y-118797681D01*
X145954092Y-118901698D01*
X145954088Y-118901701D01*
X145821701Y-119034088D01*
X145821698Y-119034092D01*
X145717681Y-119189761D01*
X145717677Y-119189770D01*
X145646026Y-119362750D01*
X145609500Y-119546381D01*
X144750499Y-119546381D01*
X144713973Y-119362749D01*
X144642322Y-119189769D01*
X144642320Y-119189767D01*
X144642318Y-119189761D01*
X144582649Y-119100463D01*
X144538302Y-119034092D01*
X144405908Y-118901698D01*
X144338323Y-118856539D01*
X144250238Y-118797681D01*
X144250229Y-118797677D01*
X144077249Y-118726026D01*
X143893618Y-118689500D01*
X143893616Y-118689500D01*
X143706384Y-118689500D01*
X143706381Y-118689500D01*
X143522750Y-118726026D01*
X143349770Y-118797677D01*
X143349761Y-118797681D01*
X143194092Y-118901698D01*
X143194088Y-118901701D01*
X143061701Y-119034088D01*
X143061698Y-119034092D01*
X142957681Y-119189761D01*
X142957677Y-119189770D01*
X142886026Y-119362750D01*
X142849500Y-119546381D01*
X141990499Y-119546381D01*
X141953973Y-119362749D01*
X141882322Y-119189769D01*
X141882320Y-119189767D01*
X141882318Y-119189761D01*
X141822649Y-119100463D01*
X141778302Y-119034092D01*
X141645908Y-118901698D01*
X141578323Y-118856539D01*
X141490238Y-118797681D01*
X141490229Y-118797677D01*
X141317249Y-118726026D01*
X141133618Y-118689500D01*
X141133616Y-118689500D01*
X140946384Y-118689500D01*
X140946381Y-118689500D01*
X140762750Y-118726026D01*
X140589770Y-118797677D01*
X140589761Y-118797681D01*
X140434092Y-118901698D01*
X140434088Y-118901701D01*
X140301701Y-119034088D01*
X140301698Y-119034092D01*
X140197681Y-119189761D01*
X140197677Y-119189770D01*
X140126026Y-119362750D01*
X140089500Y-119546381D01*
X139230499Y-119546381D01*
X139193973Y-119362749D01*
X139122322Y-119189769D01*
X139122320Y-119189767D01*
X139122318Y-119189761D01*
X139062649Y-119100463D01*
X139018302Y-119034092D01*
X138885908Y-118901698D01*
X138818323Y-118856539D01*
X138730238Y-118797681D01*
X138730229Y-118797677D01*
X138557249Y-118726026D01*
X138373618Y-118689500D01*
X138373616Y-118689500D01*
X138186384Y-118689500D01*
X138186381Y-118689500D01*
X138002750Y-118726026D01*
X137829770Y-118797677D01*
X137829761Y-118797681D01*
X137674092Y-118901698D01*
X137674088Y-118901701D01*
X137541701Y-119034088D01*
X137541698Y-119034092D01*
X137437681Y-119189761D01*
X137437677Y-119189770D01*
X137366026Y-119362750D01*
X137329500Y-119546381D01*
X136470499Y-119546381D01*
X136433973Y-119362749D01*
X136362322Y-119189769D01*
X136362320Y-119189767D01*
X136362318Y-119189761D01*
X136302649Y-119100463D01*
X136258302Y-119034092D01*
X136125908Y-118901698D01*
X136058323Y-118856539D01*
X135970238Y-118797681D01*
X135970229Y-118797677D01*
X135797249Y-118726026D01*
X135613618Y-118689500D01*
X135613616Y-118689500D01*
X135426384Y-118689500D01*
X135426381Y-118689500D01*
X135242750Y-118726026D01*
X135069770Y-118797677D01*
X135069761Y-118797681D01*
X134914092Y-118901698D01*
X134914088Y-118901701D01*
X134781701Y-119034088D01*
X134781698Y-119034092D01*
X134677681Y-119189761D01*
X134677677Y-119189770D01*
X134606026Y-119362750D01*
X134569500Y-119546381D01*
X133710499Y-119546381D01*
X133673973Y-119362749D01*
X133602322Y-119189769D01*
X133602320Y-119189767D01*
X133602318Y-119189761D01*
X133542649Y-119100463D01*
X133498302Y-119034092D01*
X133365908Y-118901698D01*
X133298323Y-118856539D01*
X133210238Y-118797681D01*
X133210229Y-118797677D01*
X133037249Y-118726026D01*
X132853618Y-118689500D01*
X132853616Y-118689500D01*
X132666384Y-118689500D01*
X132666381Y-118689500D01*
X132482750Y-118726026D01*
X132309770Y-118797677D01*
X132309761Y-118797681D01*
X132154092Y-118901698D01*
X132154088Y-118901701D01*
X132021701Y-119034088D01*
X132021698Y-119034092D01*
X131917681Y-119189761D01*
X131917677Y-119189770D01*
X131846026Y-119362750D01*
X131809500Y-119546381D01*
X130950499Y-119546381D01*
X130913973Y-119362749D01*
X130842322Y-119189769D01*
X130842320Y-119189767D01*
X130842318Y-119189761D01*
X130782649Y-119100463D01*
X130738302Y-119034092D01*
X130605908Y-118901698D01*
X130538323Y-118856539D01*
X130450238Y-118797681D01*
X130450229Y-118797677D01*
X130277249Y-118726026D01*
X130093618Y-118689500D01*
X130093616Y-118689500D01*
X129906384Y-118689500D01*
X129906381Y-118689500D01*
X129722750Y-118726026D01*
X129549770Y-118797677D01*
X129549761Y-118797681D01*
X129394092Y-118901698D01*
X129394088Y-118901701D01*
X129261701Y-119034088D01*
X129261698Y-119034092D01*
X129157681Y-119189761D01*
X129157677Y-119189770D01*
X129086026Y-119362750D01*
X129049500Y-119546381D01*
X128190499Y-119546381D01*
X128153973Y-119362749D01*
X128082322Y-119189769D01*
X128082320Y-119189767D01*
X128082318Y-119189761D01*
X128022649Y-119100463D01*
X127978302Y-119034092D01*
X127845908Y-118901698D01*
X127778323Y-118856539D01*
X127690238Y-118797681D01*
X127690229Y-118797677D01*
X127517249Y-118726026D01*
X127333618Y-118689500D01*
X127333616Y-118689500D01*
X127146384Y-118689500D01*
X127146381Y-118689500D01*
X126962750Y-118726026D01*
X126789770Y-118797677D01*
X126789761Y-118797681D01*
X126634092Y-118901698D01*
X126634088Y-118901701D01*
X126501701Y-119034088D01*
X126501698Y-119034092D01*
X126397681Y-119189761D01*
X126397677Y-119189770D01*
X126326026Y-119362750D01*
X126289500Y-119546381D01*
X125430499Y-119546381D01*
X125393973Y-119362749D01*
X125322322Y-119189769D01*
X125322320Y-119189767D01*
X125322318Y-119189761D01*
X125262649Y-119100463D01*
X125218302Y-119034092D01*
X125085908Y-118901698D01*
X125018323Y-118856539D01*
X124930238Y-118797681D01*
X124930229Y-118797677D01*
X124757249Y-118726026D01*
X124573618Y-118689500D01*
X124573616Y-118689500D01*
X124386384Y-118689500D01*
X124386381Y-118689500D01*
X124202750Y-118726026D01*
X124029770Y-118797677D01*
X124029761Y-118797681D01*
X123874092Y-118901698D01*
X123874088Y-118901701D01*
X123741701Y-119034088D01*
X123741698Y-119034092D01*
X123637681Y-119189761D01*
X123637677Y-119189770D01*
X123566026Y-119362750D01*
X123529500Y-119546381D01*
X122670499Y-119546381D01*
X122633973Y-119362749D01*
X122562322Y-119189769D01*
X122562320Y-119189767D01*
X122562318Y-119189761D01*
X122502649Y-119100463D01*
X122458302Y-119034092D01*
X122325908Y-118901698D01*
X122258323Y-118856539D01*
X122170238Y-118797681D01*
X122170229Y-118797677D01*
X121997249Y-118726026D01*
X121813618Y-118689500D01*
X121813616Y-118689500D01*
X121626384Y-118689500D01*
X121626381Y-118689500D01*
X121442750Y-118726026D01*
X121269770Y-118797677D01*
X121269761Y-118797681D01*
X121114092Y-118901698D01*
X121114088Y-118901701D01*
X120981701Y-119034088D01*
X120981698Y-119034092D01*
X120877681Y-119189761D01*
X120877677Y-119189770D01*
X120806026Y-119362750D01*
X120769500Y-119546381D01*
X119910499Y-119546381D01*
X119873973Y-119362749D01*
X119802322Y-119189769D01*
X119802320Y-119189767D01*
X119802318Y-119189761D01*
X119742649Y-119100463D01*
X119698302Y-119034092D01*
X119565908Y-118901698D01*
X119498323Y-118856539D01*
X119410238Y-118797681D01*
X119410229Y-118797677D01*
X119237249Y-118726026D01*
X119053618Y-118689500D01*
X119053616Y-118689500D01*
X118866384Y-118689500D01*
X118866381Y-118689500D01*
X118682750Y-118726026D01*
X118509770Y-118797677D01*
X118509761Y-118797681D01*
X118354092Y-118901698D01*
X118354088Y-118901701D01*
X118221701Y-119034088D01*
X118221698Y-119034092D01*
X118117681Y-119189761D01*
X118117677Y-119189770D01*
X118046026Y-119362750D01*
X118009500Y-119546381D01*
X117150499Y-119546381D01*
X117113973Y-119362749D01*
X117042322Y-119189769D01*
X117042320Y-119189767D01*
X117042318Y-119189761D01*
X116982649Y-119100463D01*
X116938302Y-119034092D01*
X116805908Y-118901698D01*
X116738323Y-118856539D01*
X116650238Y-118797681D01*
X116650229Y-118797677D01*
X116477249Y-118726026D01*
X116293618Y-118689500D01*
X116293616Y-118689500D01*
X116106384Y-118689500D01*
X116106381Y-118689500D01*
X115922750Y-118726026D01*
X115749770Y-118797677D01*
X115749761Y-118797681D01*
X115594092Y-118901698D01*
X115594088Y-118901701D01*
X115461701Y-119034088D01*
X115461698Y-119034092D01*
X115357681Y-119189761D01*
X115357677Y-119189770D01*
X115286026Y-119362750D01*
X115249500Y-119546381D01*
X114390499Y-119546381D01*
X114353973Y-119362749D01*
X114282322Y-119189769D01*
X114282320Y-119189767D01*
X114282318Y-119189761D01*
X114222649Y-119100463D01*
X114178302Y-119034092D01*
X114045908Y-118901698D01*
X113978323Y-118856539D01*
X113890238Y-118797681D01*
X113890229Y-118797677D01*
X113717249Y-118726026D01*
X113533618Y-118689500D01*
X113533616Y-118689500D01*
X113346384Y-118689500D01*
X113346381Y-118689500D01*
X113162750Y-118726026D01*
X112989770Y-118797677D01*
X112989761Y-118797681D01*
X112834092Y-118901698D01*
X112834088Y-118901701D01*
X112701701Y-119034088D01*
X112701698Y-119034092D01*
X112597681Y-119189761D01*
X112597677Y-119189770D01*
X112526026Y-119362750D01*
X112489500Y-119546381D01*
X111630499Y-119546381D01*
X111593973Y-119362749D01*
X111522322Y-119189769D01*
X111522320Y-119189767D01*
X111522318Y-119189761D01*
X111462649Y-119100463D01*
X111418302Y-119034092D01*
X111285908Y-118901698D01*
X111218323Y-118856539D01*
X111130238Y-118797681D01*
X111130229Y-118797677D01*
X110957249Y-118726026D01*
X110773618Y-118689500D01*
X110773616Y-118689500D01*
X110586384Y-118689500D01*
X110586381Y-118689500D01*
X110402750Y-118726026D01*
X110229770Y-118797677D01*
X110229761Y-118797681D01*
X110074092Y-118901698D01*
X110074088Y-118901701D01*
X109941701Y-119034088D01*
X109941698Y-119034092D01*
X109837681Y-119189761D01*
X109837677Y-119189770D01*
X109766026Y-119362750D01*
X109729500Y-119546381D01*
X108870499Y-119546381D01*
X108870499Y-118945136D01*
X108867585Y-118920009D01*
X108822206Y-118817235D01*
X108742765Y-118737794D01*
X108639991Y-118692415D01*
X108639990Y-118692414D01*
X108639988Y-118692414D01*
X108614868Y-118689500D01*
X107225139Y-118689500D01*
X107225136Y-118689501D01*
X107200009Y-118692414D01*
X107097235Y-118737794D01*
X107017794Y-118817235D01*
X106972414Y-118920011D01*
X106969500Y-118945130D01*
X100438174Y-118945130D01*
X100496036Y-118921163D01*
X100607969Y-118856539D01*
X100763962Y-118766476D01*
X101009388Y-118578154D01*
X101012705Y-118574838D01*
X100436819Y-117998952D01*
X100459698Y-117982331D01*
X100632204Y-117809825D01*
X100648932Y-117786799D01*
X101224838Y-118362705D01*
X101228154Y-118359388D01*
X101416476Y-118113962D01*
X101571163Y-117846036D01*
X101689549Y-117560225D01*
X101689551Y-117560217D01*
X101769620Y-117261398D01*
X101769620Y-117261393D01*
X101809999Y-116954684D01*
X101810000Y-116954682D01*
X101810000Y-116706381D01*
X108349500Y-116706381D01*
X108349500Y-116893618D01*
X108386026Y-117077249D01*
X108457677Y-117250229D01*
X108457681Y-117250238D01*
X108532065Y-117361559D01*
X108561698Y-117405908D01*
X108694092Y-117538302D01*
X108760463Y-117582649D01*
X108849761Y-117642318D01*
X108849767Y-117642320D01*
X108849769Y-117642322D01*
X109022749Y-117713973D01*
X109206384Y-117750500D01*
X109206385Y-117750500D01*
X109393615Y-117750500D01*
X109393616Y-117750500D01*
X109577251Y-117713973D01*
X109750231Y-117642322D01*
X109750234Y-117642319D01*
X109750238Y-117642318D01*
X109795187Y-117612282D01*
X109905908Y-117538302D01*
X110038302Y-117405908D01*
X110112282Y-117295187D01*
X110142318Y-117250238D01*
X110142319Y-117250234D01*
X110142322Y-117250231D01*
X110213973Y-117077251D01*
X110250500Y-116893616D01*
X110250500Y-116706384D01*
X110250499Y-116706381D01*
X111109500Y-116706381D01*
X111109500Y-116893618D01*
X111146026Y-117077249D01*
X111217677Y-117250229D01*
X111217681Y-117250238D01*
X111292065Y-117361559D01*
X111321698Y-117405908D01*
X111454092Y-117538302D01*
X111520463Y-117582649D01*
X111609761Y-117642318D01*
X111609767Y-117642320D01*
X111609769Y-117642322D01*
X111782749Y-117713973D01*
X111966384Y-117750500D01*
X111966385Y-117750500D01*
X112153615Y-117750500D01*
X112153616Y-117750500D01*
X112337251Y-117713973D01*
X112510231Y-117642322D01*
X112510234Y-117642319D01*
X112510238Y-117642318D01*
X112555187Y-117612282D01*
X112665908Y-117538302D01*
X112798302Y-117405908D01*
X112872282Y-117295187D01*
X112902318Y-117250238D01*
X112902319Y-117250234D01*
X112902322Y-117250231D01*
X112973973Y-117077251D01*
X113010500Y-116893616D01*
X113010500Y-116706384D01*
X113010499Y-116706381D01*
X113869500Y-116706381D01*
X113869500Y-116893618D01*
X113906026Y-117077249D01*
X113977677Y-117250229D01*
X113977681Y-117250238D01*
X114052065Y-117361559D01*
X114081698Y-117405908D01*
X114214092Y-117538302D01*
X114280463Y-117582649D01*
X114369761Y-117642318D01*
X114369767Y-117642320D01*
X114369769Y-117642322D01*
X114542749Y-117713973D01*
X114726384Y-117750500D01*
X114726385Y-117750500D01*
X114913615Y-117750500D01*
X114913616Y-117750500D01*
X115097251Y-117713973D01*
X115270231Y-117642322D01*
X115270234Y-117642319D01*
X115270238Y-117642318D01*
X115315187Y-117612282D01*
X115425908Y-117538302D01*
X115558302Y-117405908D01*
X115632282Y-117295187D01*
X115662318Y-117250238D01*
X115662319Y-117250234D01*
X115662322Y-117250231D01*
X115733973Y-117077251D01*
X115770500Y-116893616D01*
X115770500Y-116706384D01*
X115770499Y-116706381D01*
X116629500Y-116706381D01*
X116629500Y-116893618D01*
X116666026Y-117077249D01*
X116737677Y-117250229D01*
X116737681Y-117250238D01*
X116812065Y-117361559D01*
X116841698Y-117405908D01*
X116974092Y-117538302D01*
X117040463Y-117582649D01*
X117129761Y-117642318D01*
X117129767Y-117642320D01*
X117129769Y-117642322D01*
X117302749Y-117713973D01*
X117486384Y-117750500D01*
X117486385Y-117750500D01*
X117673615Y-117750500D01*
X117673616Y-117750500D01*
X117857251Y-117713973D01*
X118030231Y-117642322D01*
X118030234Y-117642319D01*
X118030238Y-117642318D01*
X118075187Y-117612282D01*
X118185908Y-117538302D01*
X118318302Y-117405908D01*
X118392282Y-117295187D01*
X118422318Y-117250238D01*
X118422319Y-117250234D01*
X118422322Y-117250231D01*
X118493973Y-117077251D01*
X118530500Y-116893616D01*
X118530500Y-116706384D01*
X118530499Y-116706381D01*
X119389500Y-116706381D01*
X119389500Y-116893618D01*
X119426026Y-117077249D01*
X119497677Y-117250229D01*
X119497681Y-117250238D01*
X119572065Y-117361559D01*
X119601698Y-117405908D01*
X119734092Y-117538302D01*
X119800463Y-117582649D01*
X119889761Y-117642318D01*
X119889767Y-117642320D01*
X119889769Y-117642322D01*
X120062749Y-117713973D01*
X120246384Y-117750500D01*
X120246385Y-117750500D01*
X120433615Y-117750500D01*
X120433616Y-117750500D01*
X120617251Y-117713973D01*
X120790231Y-117642322D01*
X120790234Y-117642319D01*
X120790238Y-117642318D01*
X120835187Y-117612282D01*
X120945908Y-117538302D01*
X121078302Y-117405908D01*
X121152282Y-117295187D01*
X121182318Y-117250238D01*
X121182319Y-117250234D01*
X121182322Y-117250231D01*
X121253973Y-117077251D01*
X121290500Y-116893616D01*
X121290500Y-116706384D01*
X121290499Y-116706381D01*
X122149500Y-116706381D01*
X122149500Y-116893618D01*
X122186026Y-117077249D01*
X122257677Y-117250229D01*
X122257681Y-117250238D01*
X122332065Y-117361559D01*
X122361698Y-117405908D01*
X122494092Y-117538302D01*
X122560463Y-117582649D01*
X122649761Y-117642318D01*
X122649767Y-117642320D01*
X122649769Y-117642322D01*
X122822749Y-117713973D01*
X123006384Y-117750500D01*
X123006385Y-117750500D01*
X123193615Y-117750500D01*
X123193616Y-117750500D01*
X123377251Y-117713973D01*
X123550231Y-117642322D01*
X123550234Y-117642319D01*
X123550238Y-117642318D01*
X123595187Y-117612282D01*
X123705908Y-117538302D01*
X123838302Y-117405908D01*
X123912282Y-117295187D01*
X123942318Y-117250238D01*
X123942319Y-117250234D01*
X123942322Y-117250231D01*
X124013973Y-117077251D01*
X124050500Y-116893616D01*
X124050500Y-116706384D01*
X124050499Y-116706381D01*
X124909500Y-116706381D01*
X124909500Y-116893618D01*
X124946026Y-117077249D01*
X125017677Y-117250229D01*
X125017681Y-117250238D01*
X125092065Y-117361559D01*
X125121698Y-117405908D01*
X125254092Y-117538302D01*
X125320463Y-117582649D01*
X125409761Y-117642318D01*
X125409767Y-117642320D01*
X125409769Y-117642322D01*
X125582749Y-117713973D01*
X125766384Y-117750500D01*
X125766385Y-117750500D01*
X125953615Y-117750500D01*
X125953616Y-117750500D01*
X126137251Y-117713973D01*
X126310231Y-117642322D01*
X126310234Y-117642319D01*
X126310238Y-117642318D01*
X126355187Y-117612282D01*
X126465908Y-117538302D01*
X126598302Y-117405908D01*
X126672282Y-117295187D01*
X126702318Y-117250238D01*
X126702319Y-117250234D01*
X126702322Y-117250231D01*
X126773973Y-117077251D01*
X126810500Y-116893616D01*
X126810500Y-116706384D01*
X126810499Y-116706381D01*
X127669500Y-116706381D01*
X127669500Y-116893618D01*
X127706026Y-117077249D01*
X127777677Y-117250229D01*
X127777681Y-117250238D01*
X127852065Y-117361559D01*
X127881698Y-117405908D01*
X128014092Y-117538302D01*
X128080463Y-117582649D01*
X128169761Y-117642318D01*
X128169767Y-117642320D01*
X128169769Y-117642322D01*
X128342749Y-117713973D01*
X128526384Y-117750500D01*
X128526385Y-117750500D01*
X128713615Y-117750500D01*
X128713616Y-117750500D01*
X128897251Y-117713973D01*
X129070231Y-117642322D01*
X129070234Y-117642319D01*
X129070238Y-117642318D01*
X129115187Y-117612282D01*
X129225908Y-117538302D01*
X129358302Y-117405908D01*
X129432282Y-117295187D01*
X129462318Y-117250238D01*
X129462319Y-117250234D01*
X129462322Y-117250231D01*
X129533973Y-117077251D01*
X129570500Y-116893616D01*
X129570500Y-116706384D01*
X129570499Y-116706381D01*
X130429500Y-116706381D01*
X130429500Y-116893618D01*
X130466026Y-117077249D01*
X130537677Y-117250229D01*
X130537681Y-117250238D01*
X130612065Y-117361559D01*
X130641698Y-117405908D01*
X130774092Y-117538302D01*
X130840463Y-117582649D01*
X130929761Y-117642318D01*
X130929767Y-117642320D01*
X130929769Y-117642322D01*
X131102749Y-117713973D01*
X131286384Y-117750500D01*
X131286385Y-117750500D01*
X131473615Y-117750500D01*
X131473616Y-117750500D01*
X131657251Y-117713973D01*
X131830231Y-117642322D01*
X131830234Y-117642319D01*
X131830238Y-117642318D01*
X131875187Y-117612282D01*
X131985908Y-117538302D01*
X132118302Y-117405908D01*
X132192282Y-117295187D01*
X132222318Y-117250238D01*
X132222319Y-117250234D01*
X132222322Y-117250231D01*
X132293973Y-117077251D01*
X132330500Y-116893616D01*
X132330500Y-116706384D01*
X132330499Y-116706381D01*
X133189500Y-116706381D01*
X133189500Y-116893618D01*
X133226026Y-117077249D01*
X133297677Y-117250229D01*
X133297681Y-117250238D01*
X133372065Y-117361559D01*
X133401698Y-117405908D01*
X133534092Y-117538302D01*
X133600463Y-117582649D01*
X133689761Y-117642318D01*
X133689767Y-117642320D01*
X133689769Y-117642322D01*
X133862749Y-117713973D01*
X134046384Y-117750500D01*
X134046385Y-117750500D01*
X134233615Y-117750500D01*
X134233616Y-117750500D01*
X134417251Y-117713973D01*
X134590231Y-117642322D01*
X134590234Y-117642319D01*
X134590238Y-117642318D01*
X134635187Y-117612282D01*
X134745908Y-117538302D01*
X134878302Y-117405908D01*
X134952282Y-117295187D01*
X134982318Y-117250238D01*
X134982319Y-117250234D01*
X134982322Y-117250231D01*
X135053973Y-117077251D01*
X135090500Y-116893616D01*
X135090500Y-116706384D01*
X135090499Y-116706381D01*
X135949500Y-116706381D01*
X135949500Y-116893618D01*
X135986026Y-117077249D01*
X136057677Y-117250229D01*
X136057681Y-117250238D01*
X136132065Y-117361559D01*
X136161698Y-117405908D01*
X136294092Y-117538302D01*
X136360463Y-117582649D01*
X136449761Y-117642318D01*
X136449767Y-117642320D01*
X136449769Y-117642322D01*
X136622749Y-117713973D01*
X136806384Y-117750500D01*
X136806385Y-117750500D01*
X136993615Y-117750500D01*
X136993616Y-117750500D01*
X137177251Y-117713973D01*
X137350231Y-117642322D01*
X137350234Y-117642319D01*
X137350238Y-117642318D01*
X137395187Y-117612282D01*
X137505908Y-117538302D01*
X137638302Y-117405908D01*
X137712282Y-117295187D01*
X137742318Y-117250238D01*
X137742319Y-117250234D01*
X137742322Y-117250231D01*
X137813973Y-117077251D01*
X137850500Y-116893616D01*
X137850500Y-116706384D01*
X137850499Y-116706381D01*
X138709500Y-116706381D01*
X138709500Y-116893618D01*
X138746026Y-117077249D01*
X138817677Y-117250229D01*
X138817681Y-117250238D01*
X138892065Y-117361559D01*
X138921698Y-117405908D01*
X139054092Y-117538302D01*
X139120463Y-117582649D01*
X139209761Y-117642318D01*
X139209767Y-117642320D01*
X139209769Y-117642322D01*
X139382749Y-117713973D01*
X139566384Y-117750500D01*
X139566385Y-117750500D01*
X139753615Y-117750500D01*
X139753616Y-117750500D01*
X139937251Y-117713973D01*
X140110231Y-117642322D01*
X140110234Y-117642319D01*
X140110238Y-117642318D01*
X140155187Y-117612282D01*
X140265908Y-117538302D01*
X140398302Y-117405908D01*
X140472282Y-117295187D01*
X140502318Y-117250238D01*
X140502319Y-117250234D01*
X140502322Y-117250231D01*
X140573973Y-117077251D01*
X140610500Y-116893616D01*
X140610500Y-116706384D01*
X140610499Y-116706381D01*
X141469500Y-116706381D01*
X141469500Y-116893618D01*
X141506026Y-117077249D01*
X141577677Y-117250229D01*
X141577681Y-117250238D01*
X141652065Y-117361559D01*
X141681698Y-117405908D01*
X141814092Y-117538302D01*
X141880463Y-117582649D01*
X141969761Y-117642318D01*
X141969767Y-117642320D01*
X141969769Y-117642322D01*
X142142749Y-117713973D01*
X142326384Y-117750500D01*
X142326385Y-117750500D01*
X142513615Y-117750500D01*
X142513616Y-117750500D01*
X142697251Y-117713973D01*
X142870231Y-117642322D01*
X142870234Y-117642319D01*
X142870238Y-117642318D01*
X142915187Y-117612282D01*
X143025908Y-117538302D01*
X143158302Y-117405908D01*
X143232282Y-117295187D01*
X143262318Y-117250238D01*
X143262319Y-117250234D01*
X143262322Y-117250231D01*
X143333973Y-117077251D01*
X143370500Y-116893616D01*
X143370500Y-116706384D01*
X143370499Y-116706381D01*
X144229500Y-116706381D01*
X144229500Y-116893618D01*
X144266026Y-117077249D01*
X144337677Y-117250229D01*
X144337681Y-117250238D01*
X144412065Y-117361559D01*
X144441698Y-117405908D01*
X144574092Y-117538302D01*
X144640463Y-117582649D01*
X144729761Y-117642318D01*
X144729767Y-117642320D01*
X144729769Y-117642322D01*
X144902749Y-117713973D01*
X145086384Y-117750500D01*
X145086385Y-117750500D01*
X145273615Y-117750500D01*
X145273616Y-117750500D01*
X145457251Y-117713973D01*
X145630231Y-117642322D01*
X145630234Y-117642319D01*
X145630238Y-117642318D01*
X145675187Y-117612282D01*
X145785908Y-117538302D01*
X145918302Y-117405908D01*
X145992282Y-117295187D01*
X146022318Y-117250238D01*
X146022319Y-117250234D01*
X146022322Y-117250231D01*
X146093973Y-117077251D01*
X146130500Y-116893616D01*
X146130500Y-116706384D01*
X146130499Y-116706381D01*
X146989500Y-116706381D01*
X146989500Y-116893618D01*
X147026026Y-117077249D01*
X147097677Y-117250229D01*
X147097681Y-117250238D01*
X147172065Y-117361559D01*
X147201698Y-117405908D01*
X147334092Y-117538302D01*
X147400463Y-117582649D01*
X147489761Y-117642318D01*
X147489767Y-117642320D01*
X147489769Y-117642322D01*
X147662749Y-117713973D01*
X147846384Y-117750500D01*
X147846385Y-117750500D01*
X148033615Y-117750500D01*
X148033616Y-117750500D01*
X148217251Y-117713973D01*
X148390231Y-117642322D01*
X148390234Y-117642319D01*
X148390238Y-117642318D01*
X148435187Y-117612282D01*
X148545908Y-117538302D01*
X148678302Y-117405908D01*
X148752282Y-117295187D01*
X148782318Y-117250238D01*
X148782319Y-117250234D01*
X148782322Y-117250231D01*
X148853973Y-117077251D01*
X148890500Y-116893616D01*
X148890500Y-116706384D01*
X148890499Y-116706381D01*
X149749500Y-116706381D01*
X149749500Y-116893618D01*
X149786026Y-117077249D01*
X149857677Y-117250229D01*
X149857681Y-117250238D01*
X149932065Y-117361559D01*
X149961698Y-117405908D01*
X150094092Y-117538302D01*
X150160463Y-117582649D01*
X150249761Y-117642318D01*
X150249767Y-117642320D01*
X150249769Y-117642322D01*
X150422749Y-117713973D01*
X150606384Y-117750500D01*
X150606385Y-117750500D01*
X150793615Y-117750500D01*
X150793616Y-117750500D01*
X150977251Y-117713973D01*
X151150231Y-117642322D01*
X151150234Y-117642319D01*
X151150238Y-117642318D01*
X151195187Y-117612282D01*
X151305908Y-117538302D01*
X151438302Y-117405908D01*
X151512282Y-117295187D01*
X151542318Y-117250238D01*
X151542319Y-117250234D01*
X151542322Y-117250231D01*
X151613973Y-117077251D01*
X151650500Y-116893616D01*
X151650500Y-116706384D01*
X151638353Y-116645315D01*
X158190000Y-116645315D01*
X158190000Y-116954684D01*
X158230379Y-117261393D01*
X158230379Y-117261398D01*
X158310448Y-117560217D01*
X158310450Y-117560225D01*
X158428836Y-117846036D01*
X158583523Y-118113962D01*
X158771845Y-118359388D01*
X158775162Y-118362705D01*
X159351067Y-117786799D01*
X159367796Y-117809825D01*
X159540302Y-117982331D01*
X159563180Y-117998952D01*
X158987295Y-118574838D01*
X158990611Y-118578154D01*
X159236037Y-118766476D01*
X159503963Y-118921163D01*
X159789774Y-119039549D01*
X159789782Y-119039551D01*
X160088603Y-119119620D01*
X160395315Y-119159999D01*
X160395318Y-119160000D01*
X160704682Y-119160000D01*
X160704684Y-119159999D01*
X161011393Y-119119620D01*
X161011398Y-119119620D01*
X161310217Y-119039551D01*
X161310225Y-119039549D01*
X161596036Y-118921163D01*
X161863962Y-118766476D01*
X162109388Y-118578154D01*
X162112705Y-118574838D01*
X161536819Y-117998952D01*
X161559698Y-117982331D01*
X161732204Y-117809825D01*
X161748932Y-117786799D01*
X162324838Y-118362705D01*
X162328154Y-118359388D01*
X162516476Y-118113962D01*
X162671163Y-117846036D01*
X162789549Y-117560225D01*
X162789551Y-117560217D01*
X162869620Y-117261398D01*
X162869620Y-117261393D01*
X162909999Y-116954684D01*
X162910000Y-116954682D01*
X162910000Y-116645318D01*
X162909999Y-116645315D01*
X162869620Y-116338606D01*
X162869620Y-116338601D01*
X162789551Y-116039782D01*
X162789549Y-116039774D01*
X162671163Y-115753963D01*
X162516476Y-115486037D01*
X162328154Y-115240611D01*
X162324838Y-115237295D01*
X161748932Y-115813200D01*
X161732204Y-115790175D01*
X161559698Y-115617669D01*
X161536819Y-115601047D01*
X162112705Y-115025162D01*
X162109388Y-115021845D01*
X161863962Y-114833523D01*
X161596036Y-114678836D01*
X161310225Y-114560450D01*
X161310217Y-114560448D01*
X161011396Y-114480379D01*
X160704684Y-114440000D01*
X160395315Y-114440000D01*
X160088606Y-114480379D01*
X160088601Y-114480379D01*
X159789782Y-114560448D01*
X159789774Y-114560450D01*
X159503963Y-114678836D01*
X159236037Y-114833523D01*
X158990611Y-115021845D01*
X158987295Y-115025162D01*
X159563180Y-115601047D01*
X159540302Y-115617669D01*
X159367796Y-115790175D01*
X159351067Y-115813200D01*
X158775162Y-115237295D01*
X158771845Y-115240611D01*
X158583523Y-115486037D01*
X158428836Y-115753963D01*
X158310450Y-116039774D01*
X158310448Y-116039782D01*
X158230379Y-116338601D01*
X158230379Y-116338606D01*
X158190000Y-116645315D01*
X151638353Y-116645315D01*
X151613973Y-116522749D01*
X151542322Y-116349769D01*
X151542320Y-116349767D01*
X151542318Y-116349761D01*
X151482649Y-116260463D01*
X151438302Y-116194092D01*
X151305908Y-116061698D01*
X151261559Y-116032065D01*
X151150238Y-115957681D01*
X151150229Y-115957677D01*
X150977249Y-115886026D01*
X150793618Y-115849500D01*
X150793616Y-115849500D01*
X150606384Y-115849500D01*
X150606381Y-115849500D01*
X150422750Y-115886026D01*
X150249770Y-115957677D01*
X150249761Y-115957681D01*
X150094092Y-116061698D01*
X150094088Y-116061701D01*
X149961701Y-116194088D01*
X149961698Y-116194092D01*
X149857681Y-116349761D01*
X149857677Y-116349770D01*
X149786026Y-116522750D01*
X149749500Y-116706381D01*
X148890499Y-116706381D01*
X148853973Y-116522749D01*
X148782322Y-116349769D01*
X148782320Y-116349767D01*
X148782318Y-116349761D01*
X148722649Y-116260463D01*
X148678302Y-116194092D01*
X148545908Y-116061698D01*
X148501559Y-116032065D01*
X148390238Y-115957681D01*
X148390229Y-115957677D01*
X148217249Y-115886026D01*
X148033618Y-115849500D01*
X148033616Y-115849500D01*
X147846384Y-115849500D01*
X147846381Y-115849500D01*
X147662750Y-115886026D01*
X147489770Y-115957677D01*
X147489761Y-115957681D01*
X147334092Y-116061698D01*
X147334088Y-116061701D01*
X147201701Y-116194088D01*
X147201698Y-116194092D01*
X147097681Y-116349761D01*
X147097677Y-116349770D01*
X147026026Y-116522750D01*
X146989500Y-116706381D01*
X146130499Y-116706381D01*
X146093973Y-116522749D01*
X146022322Y-116349769D01*
X146022320Y-116349767D01*
X146022318Y-116349761D01*
X145962649Y-116260463D01*
X145918302Y-116194092D01*
X145785908Y-116061698D01*
X145741559Y-116032065D01*
X145630238Y-115957681D01*
X145630229Y-115957677D01*
X145457249Y-115886026D01*
X145273618Y-115849500D01*
X145273616Y-115849500D01*
X145086384Y-115849500D01*
X145086381Y-115849500D01*
X144902750Y-115886026D01*
X144729770Y-115957677D01*
X144729761Y-115957681D01*
X144574092Y-116061698D01*
X144574088Y-116061701D01*
X144441701Y-116194088D01*
X144441698Y-116194092D01*
X144337681Y-116349761D01*
X144337677Y-116349770D01*
X144266026Y-116522750D01*
X144229500Y-116706381D01*
X143370499Y-116706381D01*
X143333973Y-116522749D01*
X143262322Y-116349769D01*
X143262320Y-116349767D01*
X143262318Y-116349761D01*
X143202649Y-116260463D01*
X143158302Y-116194092D01*
X143025908Y-116061698D01*
X142981559Y-116032065D01*
X142870238Y-115957681D01*
X142870229Y-115957677D01*
X142697249Y-115886026D01*
X142513618Y-115849500D01*
X142513616Y-115849500D01*
X142326384Y-115849500D01*
X142326381Y-115849500D01*
X142142750Y-115886026D01*
X141969770Y-115957677D01*
X141969761Y-115957681D01*
X141814092Y-116061698D01*
X141814088Y-116061701D01*
X141681701Y-116194088D01*
X141681698Y-116194092D01*
X141577681Y-116349761D01*
X141577677Y-116349770D01*
X141506026Y-116522750D01*
X141469500Y-116706381D01*
X140610499Y-116706381D01*
X140573973Y-116522749D01*
X140502322Y-116349769D01*
X140502320Y-116349767D01*
X140502318Y-116349761D01*
X140442649Y-116260463D01*
X140398302Y-116194092D01*
X140265908Y-116061698D01*
X140221559Y-116032065D01*
X140110238Y-115957681D01*
X140110229Y-115957677D01*
X139937249Y-115886026D01*
X139753618Y-115849500D01*
X139753616Y-115849500D01*
X139566384Y-115849500D01*
X139566381Y-115849500D01*
X139382750Y-115886026D01*
X139209770Y-115957677D01*
X139209761Y-115957681D01*
X139054092Y-116061698D01*
X139054088Y-116061701D01*
X138921701Y-116194088D01*
X138921698Y-116194092D01*
X138817681Y-116349761D01*
X138817677Y-116349770D01*
X138746026Y-116522750D01*
X138709500Y-116706381D01*
X137850499Y-116706381D01*
X137813973Y-116522749D01*
X137742322Y-116349769D01*
X137742320Y-116349767D01*
X137742318Y-116349761D01*
X137682649Y-116260463D01*
X137638302Y-116194092D01*
X137505908Y-116061698D01*
X137461559Y-116032065D01*
X137350238Y-115957681D01*
X137350229Y-115957677D01*
X137177249Y-115886026D01*
X136993618Y-115849500D01*
X136993616Y-115849500D01*
X136806384Y-115849500D01*
X136806381Y-115849500D01*
X136622750Y-115886026D01*
X136449770Y-115957677D01*
X136449761Y-115957681D01*
X136294092Y-116061698D01*
X136294088Y-116061701D01*
X136161701Y-116194088D01*
X136161698Y-116194092D01*
X136057681Y-116349761D01*
X136057677Y-116349770D01*
X135986026Y-116522750D01*
X135949500Y-116706381D01*
X135090499Y-116706381D01*
X135053973Y-116522749D01*
X134982322Y-116349769D01*
X134982320Y-116349767D01*
X134982318Y-116349761D01*
X134922649Y-116260463D01*
X134878302Y-116194092D01*
X134745908Y-116061698D01*
X134701559Y-116032065D01*
X134590238Y-115957681D01*
X134590229Y-115957677D01*
X134417249Y-115886026D01*
X134233618Y-115849500D01*
X134233616Y-115849500D01*
X134046384Y-115849500D01*
X134046381Y-115849500D01*
X133862750Y-115886026D01*
X133689770Y-115957677D01*
X133689761Y-115957681D01*
X133534092Y-116061698D01*
X133534088Y-116061701D01*
X133401701Y-116194088D01*
X133401698Y-116194092D01*
X133297681Y-116349761D01*
X133297677Y-116349770D01*
X133226026Y-116522750D01*
X133189500Y-116706381D01*
X132330499Y-116706381D01*
X132293973Y-116522749D01*
X132222322Y-116349769D01*
X132222320Y-116349767D01*
X132222318Y-116349761D01*
X132162649Y-116260463D01*
X132118302Y-116194092D01*
X131985908Y-116061698D01*
X131941559Y-116032065D01*
X131830238Y-115957681D01*
X131830229Y-115957677D01*
X131657249Y-115886026D01*
X131473618Y-115849500D01*
X131473616Y-115849500D01*
X131286384Y-115849500D01*
X131286381Y-115849500D01*
X131102750Y-115886026D01*
X130929770Y-115957677D01*
X130929761Y-115957681D01*
X130774092Y-116061698D01*
X130774088Y-116061701D01*
X130641701Y-116194088D01*
X130641698Y-116194092D01*
X130537681Y-116349761D01*
X130537677Y-116349770D01*
X130466026Y-116522750D01*
X130429500Y-116706381D01*
X129570499Y-116706381D01*
X129533973Y-116522749D01*
X129462322Y-116349769D01*
X129462320Y-116349767D01*
X129462318Y-116349761D01*
X129402649Y-116260463D01*
X129358302Y-116194092D01*
X129225908Y-116061698D01*
X129181559Y-116032065D01*
X129070238Y-115957681D01*
X129070229Y-115957677D01*
X128897249Y-115886026D01*
X128713618Y-115849500D01*
X128713616Y-115849500D01*
X128526384Y-115849500D01*
X128526381Y-115849500D01*
X128342750Y-115886026D01*
X128169770Y-115957677D01*
X128169761Y-115957681D01*
X128014092Y-116061698D01*
X128014088Y-116061701D01*
X127881701Y-116194088D01*
X127881698Y-116194092D01*
X127777681Y-116349761D01*
X127777677Y-116349770D01*
X127706026Y-116522750D01*
X127669500Y-116706381D01*
X126810499Y-116706381D01*
X126773973Y-116522749D01*
X126702322Y-116349769D01*
X126702320Y-116349767D01*
X126702318Y-116349761D01*
X126642649Y-116260463D01*
X126598302Y-116194092D01*
X126465908Y-116061698D01*
X126421559Y-116032065D01*
X126310238Y-115957681D01*
X126310229Y-115957677D01*
X126137249Y-115886026D01*
X125953618Y-115849500D01*
X125953616Y-115849500D01*
X125766384Y-115849500D01*
X125766381Y-115849500D01*
X125582750Y-115886026D01*
X125409770Y-115957677D01*
X125409761Y-115957681D01*
X125254092Y-116061698D01*
X125254088Y-116061701D01*
X125121701Y-116194088D01*
X125121698Y-116194092D01*
X125017681Y-116349761D01*
X125017677Y-116349770D01*
X124946026Y-116522750D01*
X124909500Y-116706381D01*
X124050499Y-116706381D01*
X124013973Y-116522749D01*
X123942322Y-116349769D01*
X123942320Y-116349767D01*
X123942318Y-116349761D01*
X123882649Y-116260463D01*
X123838302Y-116194092D01*
X123705908Y-116061698D01*
X123661559Y-116032065D01*
X123550238Y-115957681D01*
X123550229Y-115957677D01*
X123377249Y-115886026D01*
X123193618Y-115849500D01*
X123193616Y-115849500D01*
X123006384Y-115849500D01*
X123006381Y-115849500D01*
X122822750Y-115886026D01*
X122649770Y-115957677D01*
X122649761Y-115957681D01*
X122494092Y-116061698D01*
X122494088Y-116061701D01*
X122361701Y-116194088D01*
X122361698Y-116194092D01*
X122257681Y-116349761D01*
X122257677Y-116349770D01*
X122186026Y-116522750D01*
X122149500Y-116706381D01*
X121290499Y-116706381D01*
X121253973Y-116522749D01*
X121182322Y-116349769D01*
X121182320Y-116349767D01*
X121182318Y-116349761D01*
X121122649Y-116260463D01*
X121078302Y-116194092D01*
X120945908Y-116061698D01*
X120901559Y-116032065D01*
X120790238Y-115957681D01*
X120790229Y-115957677D01*
X120617249Y-115886026D01*
X120433618Y-115849500D01*
X120433616Y-115849500D01*
X120246384Y-115849500D01*
X120246381Y-115849500D01*
X120062750Y-115886026D01*
X119889770Y-115957677D01*
X119889761Y-115957681D01*
X119734092Y-116061698D01*
X119734088Y-116061701D01*
X119601701Y-116194088D01*
X119601698Y-116194092D01*
X119497681Y-116349761D01*
X119497677Y-116349770D01*
X119426026Y-116522750D01*
X119389500Y-116706381D01*
X118530499Y-116706381D01*
X118493973Y-116522749D01*
X118422322Y-116349769D01*
X118422320Y-116349767D01*
X118422318Y-116349761D01*
X118362649Y-116260463D01*
X118318302Y-116194092D01*
X118185908Y-116061698D01*
X118141559Y-116032065D01*
X118030238Y-115957681D01*
X118030229Y-115957677D01*
X117857249Y-115886026D01*
X117673618Y-115849500D01*
X117673616Y-115849500D01*
X117486384Y-115849500D01*
X117486381Y-115849500D01*
X117302750Y-115886026D01*
X117129770Y-115957677D01*
X117129761Y-115957681D01*
X116974092Y-116061698D01*
X116974088Y-116061701D01*
X116841701Y-116194088D01*
X116841698Y-116194092D01*
X116737681Y-116349761D01*
X116737677Y-116349770D01*
X116666026Y-116522750D01*
X116629500Y-116706381D01*
X115770499Y-116706381D01*
X115733973Y-116522749D01*
X115662322Y-116349769D01*
X115662320Y-116349767D01*
X115662318Y-116349761D01*
X115602649Y-116260463D01*
X115558302Y-116194092D01*
X115425908Y-116061698D01*
X115381559Y-116032065D01*
X115270238Y-115957681D01*
X115270229Y-115957677D01*
X115097249Y-115886026D01*
X114913618Y-115849500D01*
X114913616Y-115849500D01*
X114726384Y-115849500D01*
X114726381Y-115849500D01*
X114542750Y-115886026D01*
X114369770Y-115957677D01*
X114369761Y-115957681D01*
X114214092Y-116061698D01*
X114214088Y-116061701D01*
X114081701Y-116194088D01*
X114081698Y-116194092D01*
X113977681Y-116349761D01*
X113977677Y-116349770D01*
X113906026Y-116522750D01*
X113869500Y-116706381D01*
X113010499Y-116706381D01*
X112973973Y-116522749D01*
X112902322Y-116349769D01*
X112902320Y-116349767D01*
X112902318Y-116349761D01*
X112842649Y-116260463D01*
X112798302Y-116194092D01*
X112665908Y-116061698D01*
X112621559Y-116032065D01*
X112510238Y-115957681D01*
X112510229Y-115957677D01*
X112337249Y-115886026D01*
X112153618Y-115849500D01*
X112153616Y-115849500D01*
X111966384Y-115849500D01*
X111966381Y-115849500D01*
X111782750Y-115886026D01*
X111609770Y-115957677D01*
X111609761Y-115957681D01*
X111454092Y-116061698D01*
X111454088Y-116061701D01*
X111321701Y-116194088D01*
X111321698Y-116194092D01*
X111217681Y-116349761D01*
X111217677Y-116349770D01*
X111146026Y-116522750D01*
X111109500Y-116706381D01*
X110250499Y-116706381D01*
X110213973Y-116522749D01*
X110142322Y-116349769D01*
X110142320Y-116349767D01*
X110142318Y-116349761D01*
X110082649Y-116260463D01*
X110038302Y-116194092D01*
X109905908Y-116061698D01*
X109861559Y-116032065D01*
X109750238Y-115957681D01*
X109750229Y-115957677D01*
X109577249Y-115886026D01*
X109393618Y-115849500D01*
X109393616Y-115849500D01*
X109206384Y-115849500D01*
X109206381Y-115849500D01*
X109022750Y-115886026D01*
X108849770Y-115957677D01*
X108849761Y-115957681D01*
X108694092Y-116061698D01*
X108694088Y-116061701D01*
X108561701Y-116194088D01*
X108561698Y-116194092D01*
X108457681Y-116349761D01*
X108457677Y-116349770D01*
X108386026Y-116522750D01*
X108349500Y-116706381D01*
X101810000Y-116706381D01*
X101810000Y-116645318D01*
X101809999Y-116645315D01*
X101769620Y-116338606D01*
X101769620Y-116338601D01*
X101689551Y-116039782D01*
X101689549Y-116039774D01*
X101571163Y-115753963D01*
X101416476Y-115486037D01*
X101228154Y-115240611D01*
X101224838Y-115237295D01*
X100648932Y-115813200D01*
X100632204Y-115790175D01*
X100459698Y-115617669D01*
X100436819Y-115601047D01*
X101012705Y-115025162D01*
X101009388Y-115021845D01*
X100763962Y-114833523D01*
X100496036Y-114678836D01*
X100210225Y-114560450D01*
X100210217Y-114560448D01*
X99911396Y-114480379D01*
X99604684Y-114440000D01*
X99295315Y-114440000D01*
X98988606Y-114480379D01*
X98988601Y-114480379D01*
X98689782Y-114560448D01*
X98689774Y-114560450D01*
X98403963Y-114678836D01*
X98136037Y-114833523D01*
X97890611Y-115021845D01*
X97887295Y-115025162D01*
X98463180Y-115601047D01*
X98440302Y-115617669D01*
X98267796Y-115790175D01*
X98251067Y-115813200D01*
X97675162Y-115237295D01*
X97671845Y-115240611D01*
X97483523Y-115486037D01*
X97328836Y-115753963D01*
X97210450Y-116039774D01*
X97210448Y-116039782D01*
X97130379Y-116338601D01*
X97130379Y-116338606D01*
X97090000Y-116645315D01*
X91500000Y-116645315D01*
X91500000Y-113866381D01*
X106969500Y-113866381D01*
X106969500Y-114053618D01*
X107006026Y-114237249D01*
X107077677Y-114410229D01*
X107077681Y-114410238D01*
X107124549Y-114480379D01*
X107181698Y-114565908D01*
X107314092Y-114698302D01*
X107361352Y-114729880D01*
X107469761Y-114802318D01*
X107469767Y-114802320D01*
X107469769Y-114802322D01*
X107642749Y-114873973D01*
X107826384Y-114910500D01*
X107826385Y-114910500D01*
X108013615Y-114910500D01*
X108013616Y-114910500D01*
X108197251Y-114873973D01*
X108370231Y-114802322D01*
X108370234Y-114802319D01*
X108370238Y-114802318D01*
X108415187Y-114772282D01*
X108525908Y-114698302D01*
X108658302Y-114565908D01*
X108742431Y-114440000D01*
X108762318Y-114410238D01*
X108762319Y-114410234D01*
X108762322Y-114410231D01*
X108833973Y-114237251D01*
X108870500Y-114053616D01*
X108870500Y-113866384D01*
X108870499Y-113866381D01*
X109729500Y-113866381D01*
X109729500Y-114053618D01*
X109766026Y-114237249D01*
X109837677Y-114410229D01*
X109837681Y-114410238D01*
X109884549Y-114480379D01*
X109941698Y-114565908D01*
X110074092Y-114698302D01*
X110121352Y-114729880D01*
X110229761Y-114802318D01*
X110229767Y-114802320D01*
X110229769Y-114802322D01*
X110402749Y-114873973D01*
X110586384Y-114910500D01*
X110586385Y-114910500D01*
X110773615Y-114910500D01*
X110773616Y-114910500D01*
X110957251Y-114873973D01*
X111130231Y-114802322D01*
X111130234Y-114802319D01*
X111130238Y-114802318D01*
X111175187Y-114772282D01*
X111285908Y-114698302D01*
X111418302Y-114565908D01*
X111502431Y-114440000D01*
X111522318Y-114410238D01*
X111522319Y-114410234D01*
X111522322Y-114410231D01*
X111593973Y-114237251D01*
X111630500Y-114053616D01*
X111630500Y-113866384D01*
X111630499Y-113866381D01*
X112489500Y-113866381D01*
X112489500Y-114053618D01*
X112526026Y-114237249D01*
X112597677Y-114410229D01*
X112597681Y-114410238D01*
X112644549Y-114480379D01*
X112701698Y-114565908D01*
X112834092Y-114698302D01*
X112881352Y-114729880D01*
X112989761Y-114802318D01*
X112989767Y-114802320D01*
X112989769Y-114802322D01*
X113162749Y-114873973D01*
X113346384Y-114910500D01*
X113346385Y-114910500D01*
X113533615Y-114910500D01*
X113533616Y-114910500D01*
X113717251Y-114873973D01*
X113890231Y-114802322D01*
X113890234Y-114802319D01*
X113890238Y-114802318D01*
X113935187Y-114772282D01*
X114045908Y-114698302D01*
X114178302Y-114565908D01*
X114262431Y-114440000D01*
X114282318Y-114410238D01*
X114282319Y-114410234D01*
X114282322Y-114410231D01*
X114353973Y-114237251D01*
X114390500Y-114053616D01*
X114390500Y-113866430D01*
X115250000Y-113866430D01*
X115250000Y-114053569D01*
X115286508Y-114237104D01*
X115286508Y-114237106D01*
X115358119Y-114409991D01*
X115430118Y-114517747D01*
X115832285Y-114115579D01*
X115883945Y-114205057D01*
X115957483Y-114278595D01*
X116043737Y-114328393D01*
X115642251Y-114729880D01*
X115750008Y-114801880D01*
X115922894Y-114873491D01*
X116106430Y-114909999D01*
X116106434Y-114910000D01*
X116293566Y-114910000D01*
X116293569Y-114909999D01*
X116477104Y-114873491D01*
X116477106Y-114873491D01*
X116649989Y-114801881D01*
X116650001Y-114801875D01*
X116757747Y-114729880D01*
X116356261Y-114328394D01*
X116442517Y-114278595D01*
X116516055Y-114205057D01*
X116567713Y-114115580D01*
X116969880Y-114517747D01*
X117041875Y-114410001D01*
X117041881Y-114409989D01*
X117113491Y-114237106D01*
X117113491Y-114237104D01*
X117149999Y-114053569D01*
X117150000Y-114053565D01*
X117150000Y-113866432D01*
X117149999Y-113866431D01*
X117149989Y-113866381D01*
X118009500Y-113866381D01*
X118009500Y-114053618D01*
X118046026Y-114237249D01*
X118117677Y-114410229D01*
X118117681Y-114410238D01*
X118164549Y-114480379D01*
X118221698Y-114565908D01*
X118354092Y-114698302D01*
X118401352Y-114729880D01*
X118509761Y-114802318D01*
X118509767Y-114802320D01*
X118509769Y-114802322D01*
X118682749Y-114873973D01*
X118866384Y-114910500D01*
X118866385Y-114910500D01*
X119053615Y-114910500D01*
X119053616Y-114910500D01*
X119237251Y-114873973D01*
X119410231Y-114802322D01*
X119410234Y-114802319D01*
X119410238Y-114802318D01*
X119455187Y-114772282D01*
X119565908Y-114698302D01*
X119698302Y-114565908D01*
X119782431Y-114440000D01*
X119802318Y-114410238D01*
X119802319Y-114410234D01*
X119802322Y-114410231D01*
X119873973Y-114237251D01*
X119910500Y-114053616D01*
X119910500Y-113866384D01*
X119910499Y-113866381D01*
X120769500Y-113866381D01*
X120769500Y-114053618D01*
X120806026Y-114237249D01*
X120877677Y-114410229D01*
X120877681Y-114410238D01*
X120924549Y-114480379D01*
X120981698Y-114565908D01*
X121114092Y-114698302D01*
X121161352Y-114729880D01*
X121269761Y-114802318D01*
X121269767Y-114802320D01*
X121269769Y-114802322D01*
X121442749Y-114873973D01*
X121626384Y-114910500D01*
X121626385Y-114910500D01*
X121813615Y-114910500D01*
X121813616Y-114910500D01*
X121997251Y-114873973D01*
X122170231Y-114802322D01*
X122170234Y-114802319D01*
X122170238Y-114802318D01*
X122215187Y-114772282D01*
X122325908Y-114698302D01*
X122458302Y-114565908D01*
X122542431Y-114440000D01*
X122562318Y-114410238D01*
X122562319Y-114410234D01*
X122562322Y-114410231D01*
X122633973Y-114237251D01*
X122670500Y-114053616D01*
X122670500Y-113866384D01*
X122633973Y-113682749D01*
X122562322Y-113509769D01*
X122562320Y-113509767D01*
X122562318Y-113509761D01*
X122490481Y-113402251D01*
X122458302Y-113354092D01*
X122325908Y-113221698D01*
X122278645Y-113190118D01*
X122170238Y-113117681D01*
X122170229Y-113117677D01*
X121997249Y-113046026D01*
X121813618Y-113009500D01*
X121813616Y-113009500D01*
X121626384Y-113009500D01*
X121626381Y-113009500D01*
X121442750Y-113046026D01*
X121269770Y-113117677D01*
X121269761Y-113117681D01*
X121114092Y-113221698D01*
X121114088Y-113221701D01*
X120981701Y-113354088D01*
X120981698Y-113354092D01*
X120877681Y-113509761D01*
X120877677Y-113509770D01*
X120806026Y-113682750D01*
X120769500Y-113866381D01*
X119910499Y-113866381D01*
X119873973Y-113682749D01*
X119802322Y-113509769D01*
X119802320Y-113509767D01*
X119802318Y-113509761D01*
X119730481Y-113402251D01*
X119698302Y-113354092D01*
X119565908Y-113221698D01*
X119518645Y-113190118D01*
X119410238Y-113117681D01*
X119410229Y-113117677D01*
X119237249Y-113046026D01*
X119053618Y-113009500D01*
X119053616Y-113009500D01*
X118866384Y-113009500D01*
X118866381Y-113009500D01*
X118682750Y-113046026D01*
X118509770Y-113117677D01*
X118509761Y-113117681D01*
X118354092Y-113221698D01*
X118354088Y-113221701D01*
X118221701Y-113354088D01*
X118221698Y-113354092D01*
X118117681Y-113509761D01*
X118117677Y-113509770D01*
X118046026Y-113682750D01*
X118009500Y-113866381D01*
X117149989Y-113866381D01*
X117113491Y-113682895D01*
X117113491Y-113682893D01*
X117041880Y-113510008D01*
X116969880Y-113402251D01*
X116567712Y-113804418D01*
X116516055Y-113714943D01*
X116442517Y-113641405D01*
X116356260Y-113591604D01*
X116757747Y-113190118D01*
X116649991Y-113118119D01*
X116477105Y-113046508D01*
X116293569Y-113010000D01*
X116106430Y-113010000D01*
X115922895Y-113046508D01*
X115922893Y-113046508D01*
X115750008Y-113118119D01*
X115642251Y-113190118D01*
X116043738Y-113591605D01*
X115957483Y-113641405D01*
X115883945Y-113714943D01*
X115832286Y-113804419D01*
X115430118Y-113402251D01*
X115358119Y-113510008D01*
X115286508Y-113682893D01*
X115286508Y-113682895D01*
X115250000Y-113866430D01*
X114390500Y-113866430D01*
X114390500Y-113866384D01*
X114353973Y-113682749D01*
X114282322Y-113509769D01*
X114282320Y-113509767D01*
X114282318Y-113509761D01*
X114210481Y-113402251D01*
X114178302Y-113354092D01*
X114045908Y-113221698D01*
X113998645Y-113190118D01*
X113890238Y-113117681D01*
X113890229Y-113117677D01*
X113717249Y-113046026D01*
X113533618Y-113009500D01*
X113533616Y-113009500D01*
X113346384Y-113009500D01*
X113346381Y-113009500D01*
X113162750Y-113046026D01*
X112989770Y-113117677D01*
X112989761Y-113117681D01*
X112834092Y-113221698D01*
X112834088Y-113221701D01*
X112701701Y-113354088D01*
X112701698Y-113354092D01*
X112597681Y-113509761D01*
X112597677Y-113509770D01*
X112526026Y-113682750D01*
X112489500Y-113866381D01*
X111630499Y-113866381D01*
X111593973Y-113682749D01*
X111522322Y-113509769D01*
X111522320Y-113509767D01*
X111522318Y-113509761D01*
X111450481Y-113402251D01*
X111418302Y-113354092D01*
X111285908Y-113221698D01*
X111238645Y-113190118D01*
X111130238Y-113117681D01*
X111130229Y-113117677D01*
X110957249Y-113046026D01*
X110773618Y-113009500D01*
X110773616Y-113009500D01*
X110586384Y-113009500D01*
X110586381Y-113009500D01*
X110402750Y-113046026D01*
X110229770Y-113117677D01*
X110229761Y-113117681D01*
X110074092Y-113221698D01*
X110074088Y-113221701D01*
X109941701Y-113354088D01*
X109941698Y-113354092D01*
X109837681Y-113509761D01*
X109837677Y-113509770D01*
X109766026Y-113682750D01*
X109729500Y-113866381D01*
X108870499Y-113866381D01*
X108833973Y-113682749D01*
X108762322Y-113509769D01*
X108762320Y-113509767D01*
X108762318Y-113509761D01*
X108690481Y-113402251D01*
X108658302Y-113354092D01*
X108525908Y-113221698D01*
X108478645Y-113190118D01*
X108370238Y-113117681D01*
X108370229Y-113117677D01*
X108197249Y-113046026D01*
X108013618Y-113009500D01*
X108013616Y-113009500D01*
X107826384Y-113009500D01*
X107826381Y-113009500D01*
X107642750Y-113046026D01*
X107469770Y-113117677D01*
X107469761Y-113117681D01*
X107314092Y-113221698D01*
X107314088Y-113221701D01*
X107181701Y-113354088D01*
X107181698Y-113354092D01*
X107077681Y-113509761D01*
X107077677Y-113509770D01*
X107006026Y-113682750D01*
X106969500Y-113866381D01*
X91500000Y-113866381D01*
X91500000Y-111340943D01*
X92799500Y-111340943D01*
X92799500Y-111499057D01*
X92840423Y-111651784D01*
X92919480Y-111788716D01*
X93031284Y-111900520D01*
X93168216Y-111979577D01*
X93320943Y-112020500D01*
X93320945Y-112020500D01*
X93479055Y-112020500D01*
X93479057Y-112020500D01*
X93631784Y-111979577D01*
X93768716Y-111900520D01*
X93847293Y-111821943D01*
X114809200Y-111821943D01*
X114809200Y-111980057D01*
X114850123Y-112132784D01*
X114929180Y-112269716D01*
X115040984Y-112381520D01*
X115177916Y-112460577D01*
X115330643Y-112501500D01*
X115330645Y-112501500D01*
X115488755Y-112501500D01*
X115488757Y-112501500D01*
X115641484Y-112460577D01*
X115776260Y-112382764D01*
X115836106Y-112370043D01*
X115892002Y-112394929D01*
X115895742Y-112398478D01*
X115929684Y-112432420D01*
X116066616Y-112511477D01*
X116219343Y-112552400D01*
X116219345Y-112552400D01*
X116377455Y-112552400D01*
X116377457Y-112552400D01*
X116530184Y-112511477D01*
X116667116Y-112432420D01*
X116778920Y-112320616D01*
X116857977Y-112183684D01*
X116898900Y-112030957D01*
X116898900Y-111872843D01*
X116857977Y-111720116D01*
X116841423Y-111691443D01*
X123172200Y-111691443D01*
X123172200Y-111849557D01*
X123213123Y-112002284D01*
X123292180Y-112139216D01*
X123403984Y-112251020D01*
X123540916Y-112330077D01*
X123693643Y-112371000D01*
X123693645Y-112371000D01*
X123700077Y-112371847D01*
X123699713Y-112374607D01*
X123746802Y-112389907D01*
X123782766Y-112439407D01*
X123784231Y-112444353D01*
X123804523Y-112520084D01*
X123883580Y-112657016D01*
X123995384Y-112768820D01*
X124132316Y-112847877D01*
X124183851Y-112861685D01*
X124235164Y-112895009D01*
X124257091Y-112952131D01*
X124241255Y-113011231D01*
X124196113Y-113048775D01*
X124146305Y-113069407D01*
X124029770Y-113117677D01*
X124029761Y-113117681D01*
X123874092Y-113221698D01*
X123874088Y-113221701D01*
X123741701Y-113354088D01*
X123741698Y-113354092D01*
X123637681Y-113509761D01*
X123637677Y-113509770D01*
X123566026Y-113682750D01*
X123529500Y-113866381D01*
X123529500Y-114053618D01*
X123566026Y-114237249D01*
X123637677Y-114410229D01*
X123637681Y-114410238D01*
X123684549Y-114480379D01*
X123741698Y-114565908D01*
X123874092Y-114698302D01*
X123921352Y-114729880D01*
X124029761Y-114802318D01*
X124029767Y-114802320D01*
X124029769Y-114802322D01*
X124202749Y-114873973D01*
X124386384Y-114910500D01*
X124386385Y-114910500D01*
X124573615Y-114910500D01*
X124573616Y-114910500D01*
X124757251Y-114873973D01*
X124930231Y-114802322D01*
X124930234Y-114802319D01*
X124930238Y-114802318D01*
X124975187Y-114772282D01*
X125085908Y-114698302D01*
X125218302Y-114565908D01*
X125302431Y-114440000D01*
X125322318Y-114410238D01*
X125322319Y-114410234D01*
X125322322Y-114410231D01*
X125393973Y-114237251D01*
X125430500Y-114053616D01*
X125430500Y-113866384D01*
X125393973Y-113682749D01*
X125322322Y-113509769D01*
X125322320Y-113509767D01*
X125322318Y-113509761D01*
X125250481Y-113402251D01*
X125218302Y-113354092D01*
X125085908Y-113221698D01*
X125038645Y-113190118D01*
X124930238Y-113117681D01*
X124930229Y-113117677D01*
X124757249Y-113046026D01*
X124639954Y-113022695D01*
X124586570Y-112992798D01*
X124560954Y-112937233D01*
X124572891Y-112877223D01*
X124609765Y-112839862D01*
X124732816Y-112768820D01*
X124809693Y-112691943D01*
X126011100Y-112691943D01*
X126011100Y-112850057D01*
X126052023Y-113002784D01*
X126131080Y-113139716D01*
X126242884Y-113251520D01*
X126379816Y-113330577D01*
X126379818Y-113330577D01*
X126385436Y-113333821D01*
X126384205Y-113335951D01*
X126422647Y-113368767D01*
X126436945Y-113428258D01*
X126420565Y-113475515D01*
X126397677Y-113509770D01*
X126326026Y-113682750D01*
X126289500Y-113866381D01*
X126289500Y-114053618D01*
X126326026Y-114237249D01*
X126397677Y-114410229D01*
X126397681Y-114410238D01*
X126444549Y-114480379D01*
X126501698Y-114565908D01*
X126634092Y-114698302D01*
X126681352Y-114729880D01*
X126789761Y-114802318D01*
X126789767Y-114802320D01*
X126789769Y-114802322D01*
X126962749Y-114873973D01*
X127146384Y-114910500D01*
X127146385Y-114910500D01*
X127333615Y-114910500D01*
X127333616Y-114910500D01*
X127517251Y-114873973D01*
X127690231Y-114802322D01*
X127690234Y-114802319D01*
X127690238Y-114802318D01*
X127735187Y-114772282D01*
X127845908Y-114698302D01*
X127978302Y-114565908D01*
X128062431Y-114440000D01*
X128082318Y-114410238D01*
X128082319Y-114410234D01*
X128082322Y-114410231D01*
X128153973Y-114237251D01*
X128190500Y-114053616D01*
X128190500Y-113866384D01*
X128190499Y-113866381D01*
X129049500Y-113866381D01*
X129049500Y-114053618D01*
X129086026Y-114237249D01*
X129157677Y-114410229D01*
X129157681Y-114410238D01*
X129204549Y-114480379D01*
X129261698Y-114565908D01*
X129394092Y-114698302D01*
X129441352Y-114729880D01*
X129549761Y-114802318D01*
X129549767Y-114802320D01*
X129549769Y-114802322D01*
X129722749Y-114873973D01*
X129906384Y-114910500D01*
X129906385Y-114910500D01*
X130093615Y-114910500D01*
X130093616Y-114910500D01*
X130277251Y-114873973D01*
X130450231Y-114802322D01*
X130450234Y-114802319D01*
X130450238Y-114802318D01*
X130495187Y-114772282D01*
X130605908Y-114698302D01*
X130738302Y-114565908D01*
X130822431Y-114440000D01*
X130842318Y-114410238D01*
X130842319Y-114410234D01*
X130842322Y-114410231D01*
X130913973Y-114237251D01*
X130950500Y-114053616D01*
X130950500Y-113866384D01*
X130950499Y-113866381D01*
X131809500Y-113866381D01*
X131809500Y-114053618D01*
X131846026Y-114237249D01*
X131917677Y-114410229D01*
X131917681Y-114410238D01*
X131964549Y-114480379D01*
X132021698Y-114565908D01*
X132154092Y-114698302D01*
X132201352Y-114729880D01*
X132309761Y-114802318D01*
X132309767Y-114802320D01*
X132309769Y-114802322D01*
X132482749Y-114873973D01*
X132666384Y-114910500D01*
X132666385Y-114910500D01*
X132853615Y-114910500D01*
X132853616Y-114910500D01*
X133037251Y-114873973D01*
X133210231Y-114802322D01*
X133210234Y-114802319D01*
X133210238Y-114802318D01*
X133255187Y-114772282D01*
X133365908Y-114698302D01*
X133498302Y-114565908D01*
X133582431Y-114440000D01*
X133602318Y-114410238D01*
X133602319Y-114410234D01*
X133602322Y-114410231D01*
X133673973Y-114237251D01*
X133710500Y-114053616D01*
X133710500Y-113866384D01*
X133710499Y-113866381D01*
X134569500Y-113866381D01*
X134569500Y-114053618D01*
X134606026Y-114237249D01*
X134677677Y-114410229D01*
X134677681Y-114410238D01*
X134724549Y-114480379D01*
X134781698Y-114565908D01*
X134914092Y-114698302D01*
X134961352Y-114729880D01*
X135069761Y-114802318D01*
X135069767Y-114802320D01*
X135069769Y-114802322D01*
X135242749Y-114873973D01*
X135426384Y-114910500D01*
X135426385Y-114910500D01*
X135613615Y-114910500D01*
X135613616Y-114910500D01*
X135797251Y-114873973D01*
X135970231Y-114802322D01*
X135970234Y-114802319D01*
X135970238Y-114802318D01*
X136015187Y-114772282D01*
X136125908Y-114698302D01*
X136258302Y-114565908D01*
X136342431Y-114440000D01*
X136362318Y-114410238D01*
X136362319Y-114410234D01*
X136362322Y-114410231D01*
X136433973Y-114237251D01*
X136470500Y-114053616D01*
X136470500Y-113866384D01*
X136470499Y-113866381D01*
X137329500Y-113866381D01*
X137329500Y-114053618D01*
X137366026Y-114237249D01*
X137437677Y-114410229D01*
X137437681Y-114410238D01*
X137484549Y-114480379D01*
X137541698Y-114565908D01*
X137674092Y-114698302D01*
X137721352Y-114729880D01*
X137829761Y-114802318D01*
X137829767Y-114802320D01*
X137829769Y-114802322D01*
X138002749Y-114873973D01*
X138186384Y-114910500D01*
X138186385Y-114910500D01*
X138373615Y-114910500D01*
X138373616Y-114910500D01*
X138557251Y-114873973D01*
X138730231Y-114802322D01*
X138730234Y-114802319D01*
X138730238Y-114802318D01*
X138775187Y-114772282D01*
X138885908Y-114698302D01*
X139018302Y-114565908D01*
X139102431Y-114440000D01*
X139122318Y-114410238D01*
X139122319Y-114410234D01*
X139122322Y-114410231D01*
X139193973Y-114237251D01*
X139230500Y-114053616D01*
X139230500Y-113866384D01*
X139230499Y-113866381D01*
X140089500Y-113866381D01*
X140089500Y-114053618D01*
X140126026Y-114237249D01*
X140197677Y-114410229D01*
X140197681Y-114410238D01*
X140244549Y-114480379D01*
X140301698Y-114565908D01*
X140434092Y-114698302D01*
X140481352Y-114729880D01*
X140589761Y-114802318D01*
X140589767Y-114802320D01*
X140589769Y-114802322D01*
X140762749Y-114873973D01*
X140946384Y-114910500D01*
X140946385Y-114910500D01*
X141133615Y-114910500D01*
X141133616Y-114910500D01*
X141317251Y-114873973D01*
X141490231Y-114802322D01*
X141490234Y-114802319D01*
X141490238Y-114802318D01*
X141535187Y-114772282D01*
X141645908Y-114698302D01*
X141778302Y-114565908D01*
X141862431Y-114440000D01*
X141882318Y-114410238D01*
X141882319Y-114410234D01*
X141882322Y-114410231D01*
X141953973Y-114237251D01*
X141990500Y-114053616D01*
X141990500Y-113866384D01*
X141990499Y-113866381D01*
X142849500Y-113866381D01*
X142849500Y-114053618D01*
X142886026Y-114237249D01*
X142957677Y-114410229D01*
X142957681Y-114410238D01*
X143004549Y-114480379D01*
X143061698Y-114565908D01*
X143194092Y-114698302D01*
X143241352Y-114729880D01*
X143349761Y-114802318D01*
X143349767Y-114802320D01*
X143349769Y-114802322D01*
X143522749Y-114873973D01*
X143706384Y-114910500D01*
X143706385Y-114910500D01*
X143893615Y-114910500D01*
X143893616Y-114910500D01*
X144077251Y-114873973D01*
X144250231Y-114802322D01*
X144250234Y-114802319D01*
X144250238Y-114802318D01*
X144295187Y-114772282D01*
X144405908Y-114698302D01*
X144538302Y-114565908D01*
X144622431Y-114440000D01*
X144642318Y-114410238D01*
X144642319Y-114410234D01*
X144642322Y-114410231D01*
X144713973Y-114237251D01*
X144750500Y-114053616D01*
X144750500Y-113866384D01*
X144750499Y-113866381D01*
X145609500Y-113866381D01*
X145609500Y-114053618D01*
X145646026Y-114237249D01*
X145717677Y-114410229D01*
X145717681Y-114410238D01*
X145764549Y-114480379D01*
X145821698Y-114565908D01*
X145954092Y-114698302D01*
X146001352Y-114729880D01*
X146109761Y-114802318D01*
X146109767Y-114802320D01*
X146109769Y-114802322D01*
X146282749Y-114873973D01*
X146466384Y-114910500D01*
X146466385Y-114910500D01*
X146653615Y-114910500D01*
X146653616Y-114910500D01*
X146837251Y-114873973D01*
X147010231Y-114802322D01*
X147010234Y-114802319D01*
X147010238Y-114802318D01*
X147055187Y-114772282D01*
X147165908Y-114698302D01*
X147298302Y-114565908D01*
X147382431Y-114440000D01*
X147402318Y-114410238D01*
X147402319Y-114410234D01*
X147402322Y-114410231D01*
X147473973Y-114237251D01*
X147510500Y-114053616D01*
X147510500Y-113866384D01*
X147510499Y-113866381D01*
X148369500Y-113866381D01*
X148369500Y-114053618D01*
X148406026Y-114237249D01*
X148477677Y-114410229D01*
X148477681Y-114410238D01*
X148524549Y-114480379D01*
X148581698Y-114565908D01*
X148714092Y-114698302D01*
X148761352Y-114729880D01*
X148869761Y-114802318D01*
X148869767Y-114802320D01*
X148869769Y-114802322D01*
X149042749Y-114873973D01*
X149226384Y-114910500D01*
X149226385Y-114910500D01*
X149413615Y-114910500D01*
X149413616Y-114910500D01*
X149597251Y-114873973D01*
X149770231Y-114802322D01*
X149770234Y-114802319D01*
X149770238Y-114802318D01*
X149815187Y-114772282D01*
X149925908Y-114698302D01*
X150058302Y-114565908D01*
X150142431Y-114440000D01*
X150162318Y-114410238D01*
X150162319Y-114410234D01*
X150162322Y-114410231D01*
X150233973Y-114237251D01*
X150270500Y-114053616D01*
X150270500Y-113866384D01*
X150233973Y-113682749D01*
X150162322Y-113509769D01*
X150162320Y-113509767D01*
X150162318Y-113509761D01*
X150090481Y-113402251D01*
X150058302Y-113354092D01*
X149925908Y-113221698D01*
X149878645Y-113190118D01*
X149770238Y-113117681D01*
X149770229Y-113117677D01*
X149597249Y-113046026D01*
X149413618Y-113009500D01*
X149413616Y-113009500D01*
X149226384Y-113009500D01*
X149226381Y-113009500D01*
X149042750Y-113046026D01*
X148869770Y-113117677D01*
X148869761Y-113117681D01*
X148714092Y-113221698D01*
X148714088Y-113221701D01*
X148581701Y-113354088D01*
X148581698Y-113354092D01*
X148477681Y-113509761D01*
X148477677Y-113509770D01*
X148406026Y-113682750D01*
X148369500Y-113866381D01*
X147510499Y-113866381D01*
X147473973Y-113682749D01*
X147402322Y-113509769D01*
X147402320Y-113509767D01*
X147402318Y-113509761D01*
X147330481Y-113402251D01*
X147298302Y-113354092D01*
X147165908Y-113221698D01*
X147118645Y-113190118D01*
X147010238Y-113117681D01*
X147010229Y-113117677D01*
X146837249Y-113046026D01*
X146653618Y-113009500D01*
X146653616Y-113009500D01*
X146466384Y-113009500D01*
X146466381Y-113009500D01*
X146282750Y-113046026D01*
X146109770Y-113117677D01*
X146109761Y-113117681D01*
X145954092Y-113221698D01*
X145954088Y-113221701D01*
X145821701Y-113354088D01*
X145821698Y-113354092D01*
X145717681Y-113509761D01*
X145717677Y-113509770D01*
X145646026Y-113682750D01*
X145609500Y-113866381D01*
X144750499Y-113866381D01*
X144713973Y-113682749D01*
X144642322Y-113509769D01*
X144642320Y-113509767D01*
X144642318Y-113509761D01*
X144570481Y-113402251D01*
X144538302Y-113354092D01*
X144405908Y-113221698D01*
X144358645Y-113190118D01*
X144250238Y-113117681D01*
X144250229Y-113117677D01*
X144077249Y-113046026D01*
X143893618Y-113009500D01*
X143893616Y-113009500D01*
X143706384Y-113009500D01*
X143706381Y-113009500D01*
X143522750Y-113046026D01*
X143349770Y-113117677D01*
X143349761Y-113117681D01*
X143194092Y-113221698D01*
X143194088Y-113221701D01*
X143061701Y-113354088D01*
X143061698Y-113354092D01*
X142957681Y-113509761D01*
X142957677Y-113509770D01*
X142886026Y-113682750D01*
X142849500Y-113866381D01*
X141990499Y-113866381D01*
X141953973Y-113682749D01*
X141882322Y-113509769D01*
X141882320Y-113509767D01*
X141882318Y-113509761D01*
X141810481Y-113402251D01*
X141778302Y-113354092D01*
X141645908Y-113221698D01*
X141598645Y-113190118D01*
X141490238Y-113117681D01*
X141490229Y-113117677D01*
X141317249Y-113046026D01*
X141133618Y-113009500D01*
X141133616Y-113009500D01*
X140946384Y-113009500D01*
X140946381Y-113009500D01*
X140762750Y-113046026D01*
X140589770Y-113117677D01*
X140589761Y-113117681D01*
X140434092Y-113221698D01*
X140434088Y-113221701D01*
X140301701Y-113354088D01*
X140301698Y-113354092D01*
X140197681Y-113509761D01*
X140197677Y-113509770D01*
X140126026Y-113682750D01*
X140089500Y-113866381D01*
X139230499Y-113866381D01*
X139193973Y-113682749D01*
X139122322Y-113509769D01*
X139122320Y-113509767D01*
X139122318Y-113509761D01*
X139050481Y-113402251D01*
X139018302Y-113354092D01*
X138885908Y-113221698D01*
X138838645Y-113190118D01*
X138730238Y-113117681D01*
X138730229Y-113117677D01*
X138557249Y-113046026D01*
X138373618Y-113009500D01*
X138373616Y-113009500D01*
X138186384Y-113009500D01*
X138186381Y-113009500D01*
X138002750Y-113046026D01*
X137829770Y-113117677D01*
X137829761Y-113117681D01*
X137674092Y-113221698D01*
X137674088Y-113221701D01*
X137541701Y-113354088D01*
X137541698Y-113354092D01*
X137437681Y-113509761D01*
X137437677Y-113509770D01*
X137366026Y-113682750D01*
X137329500Y-113866381D01*
X136470499Y-113866381D01*
X136433973Y-113682749D01*
X136362322Y-113509769D01*
X136362320Y-113509767D01*
X136362318Y-113509761D01*
X136290481Y-113402251D01*
X136258302Y-113354092D01*
X136125908Y-113221698D01*
X136078645Y-113190118D01*
X135970238Y-113117681D01*
X135970229Y-113117677D01*
X135797249Y-113046026D01*
X135613618Y-113009500D01*
X135613616Y-113009500D01*
X135426384Y-113009500D01*
X135426381Y-113009500D01*
X135242750Y-113046026D01*
X135069770Y-113117677D01*
X135069761Y-113117681D01*
X134914092Y-113221698D01*
X134914088Y-113221701D01*
X134781701Y-113354088D01*
X134781698Y-113354092D01*
X134677681Y-113509761D01*
X134677677Y-113509770D01*
X134606026Y-113682750D01*
X134569500Y-113866381D01*
X133710499Y-113866381D01*
X133673973Y-113682749D01*
X133602322Y-113509769D01*
X133602320Y-113509767D01*
X133602318Y-113509761D01*
X133530481Y-113402251D01*
X133498302Y-113354092D01*
X133365908Y-113221698D01*
X133318645Y-113190118D01*
X133210238Y-113117681D01*
X133210229Y-113117677D01*
X133037249Y-113046026D01*
X132853618Y-113009500D01*
X132853616Y-113009500D01*
X132666384Y-113009500D01*
X132666381Y-113009500D01*
X132482750Y-113046026D01*
X132309770Y-113117677D01*
X132309761Y-113117681D01*
X132154092Y-113221698D01*
X132154088Y-113221701D01*
X132021701Y-113354088D01*
X132021698Y-113354092D01*
X131917681Y-113509761D01*
X131917677Y-113509770D01*
X131846026Y-113682750D01*
X131809500Y-113866381D01*
X130950499Y-113866381D01*
X130913973Y-113682749D01*
X130842322Y-113509769D01*
X130842320Y-113509767D01*
X130842318Y-113509761D01*
X130770481Y-113402251D01*
X130738302Y-113354092D01*
X130605908Y-113221698D01*
X130558645Y-113190118D01*
X130450238Y-113117681D01*
X130450229Y-113117677D01*
X130277249Y-113046026D01*
X130093618Y-113009500D01*
X130093616Y-113009500D01*
X129906384Y-113009500D01*
X129906381Y-113009500D01*
X129722750Y-113046026D01*
X129549770Y-113117677D01*
X129549761Y-113117681D01*
X129394092Y-113221698D01*
X129394088Y-113221701D01*
X129261701Y-113354088D01*
X129261698Y-113354092D01*
X129157681Y-113509761D01*
X129157677Y-113509770D01*
X129086026Y-113682750D01*
X129049500Y-113866381D01*
X128190499Y-113866381D01*
X128153973Y-113682749D01*
X128082322Y-113509769D01*
X128082320Y-113509767D01*
X128082318Y-113509761D01*
X128010481Y-113402251D01*
X127978302Y-113354092D01*
X127845908Y-113221698D01*
X127845907Y-113221697D01*
X127781402Y-113178596D01*
X127743523Y-113130546D01*
X127741121Y-113069407D01*
X127775115Y-113018534D01*
X127810776Y-113000656D01*
X127918184Y-112971877D01*
X128055116Y-112892820D01*
X128166920Y-112781016D01*
X128210436Y-112705643D01*
X150548200Y-112705643D01*
X150548200Y-112863757D01*
X150589123Y-113016484D01*
X150668180Y-113153416D01*
X150779984Y-113265220D01*
X150916916Y-113344277D01*
X151069643Y-113385200D01*
X151069645Y-113385200D01*
X151141112Y-113385200D01*
X151199303Y-113404107D01*
X151235267Y-113453607D01*
X151235267Y-113514793D01*
X151232576Y-113522086D01*
X151166026Y-113682750D01*
X151129500Y-113866381D01*
X151129500Y-114053618D01*
X151166026Y-114237249D01*
X151237677Y-114410229D01*
X151237681Y-114410238D01*
X151284549Y-114480379D01*
X151341698Y-114565908D01*
X151474092Y-114698302D01*
X151521352Y-114729880D01*
X151629761Y-114802318D01*
X151629767Y-114802320D01*
X151629769Y-114802322D01*
X151802749Y-114873973D01*
X151986384Y-114910500D01*
X151986385Y-114910500D01*
X152173615Y-114910500D01*
X152173616Y-114910500D01*
X152357251Y-114873973D01*
X152530231Y-114802322D01*
X152530234Y-114802319D01*
X152530238Y-114802318D01*
X152575187Y-114772282D01*
X152685908Y-114698302D01*
X152818302Y-114565908D01*
X152902431Y-114440000D01*
X152922318Y-114410238D01*
X152922319Y-114410234D01*
X152922322Y-114410231D01*
X152993973Y-114237251D01*
X153030500Y-114053616D01*
X153030500Y-113866384D01*
X152993973Y-113682749D01*
X152922322Y-113509769D01*
X152922320Y-113509767D01*
X152922318Y-113509761D01*
X152850481Y-113402251D01*
X152818302Y-113354092D01*
X152685908Y-113221698D01*
X152638645Y-113190118D01*
X152530238Y-113117681D01*
X152530229Y-113117677D01*
X152357249Y-113046026D01*
X152173618Y-113009500D01*
X152173616Y-113009500D01*
X151986384Y-113009500D01*
X151986378Y-113009500D01*
X151850741Y-113036480D01*
X151789980Y-113029288D01*
X151745051Y-112987755D01*
X151733114Y-112927745D01*
X151735802Y-112913758D01*
X151740826Y-112895009D01*
X151749200Y-112863757D01*
X151749200Y-112705643D01*
X151708277Y-112552916D01*
X151629220Y-112415984D01*
X151517416Y-112304180D01*
X151380484Y-112225123D01*
X151227757Y-112184200D01*
X151069643Y-112184200D01*
X150916916Y-112225123D01*
X150779984Y-112304180D01*
X150668180Y-112415984D01*
X150589123Y-112552916D01*
X150548200Y-112705643D01*
X128210436Y-112705643D01*
X128245977Y-112644084D01*
X128286900Y-112491357D01*
X128286900Y-112333243D01*
X128245977Y-112180516D01*
X128166920Y-112043584D01*
X128055116Y-111931780D01*
X127918184Y-111852723D01*
X127765457Y-111811800D01*
X127607343Y-111811800D01*
X127466439Y-111849555D01*
X127454616Y-111852723D01*
X127317684Y-111931780D01*
X127205880Y-112043584D01*
X127126821Y-112180518D01*
X127126821Y-112180519D01*
X127115069Y-112224379D01*
X127081745Y-112275693D01*
X127024623Y-112297619D01*
X126969945Y-112284492D01*
X126843384Y-112211423D01*
X126690657Y-112170500D01*
X126532543Y-112170500D01*
X126379816Y-112211423D01*
X126242884Y-112290480D01*
X126131080Y-112402284D01*
X126052023Y-112539216D01*
X126011100Y-112691943D01*
X124809693Y-112691943D01*
X124844620Y-112657016D01*
X124923677Y-112520084D01*
X124964600Y-112367357D01*
X124964600Y-112209243D01*
X124923677Y-112056516D01*
X124844620Y-111919584D01*
X124732816Y-111807780D01*
X124719415Y-111800043D01*
X130404500Y-111800043D01*
X130404500Y-111958157D01*
X130445423Y-112110884D01*
X130524480Y-112247816D01*
X130636284Y-112359620D01*
X130773216Y-112438677D01*
X130925943Y-112479600D01*
X130925945Y-112479600D01*
X131084055Y-112479600D01*
X131084057Y-112479600D01*
X131236784Y-112438677D01*
X131373716Y-112359620D01*
X131485520Y-112247816D01*
X131558885Y-112120743D01*
X156576800Y-112120743D01*
X156576800Y-112278857D01*
X156617723Y-112431584D01*
X156696780Y-112568516D01*
X156808584Y-112680320D01*
X156945516Y-112759377D01*
X157098243Y-112800300D01*
X157098245Y-112800300D01*
X157256355Y-112800300D01*
X157256357Y-112800300D01*
X157409084Y-112759377D01*
X157546016Y-112680320D01*
X157657820Y-112568516D01*
X157736877Y-112431584D01*
X157758485Y-112350943D01*
X162149500Y-112350943D01*
X162149500Y-112509057D01*
X162190423Y-112661784D01*
X162269480Y-112798716D01*
X162381284Y-112910520D01*
X162518216Y-112989577D01*
X162670943Y-113030500D01*
X162670945Y-113030500D01*
X162829055Y-113030500D01*
X162829057Y-113030500D01*
X162981784Y-112989577D01*
X163118716Y-112910520D01*
X163230520Y-112798716D01*
X163309577Y-112661784D01*
X163350500Y-112509057D01*
X163350500Y-112350943D01*
X163309577Y-112198216D01*
X163230520Y-112061284D01*
X163118716Y-111949480D01*
X162981784Y-111870423D01*
X162829057Y-111829500D01*
X162670943Y-111829500D01*
X162518216Y-111870423D01*
X162381284Y-111949480D01*
X162269480Y-112061284D01*
X162190423Y-112198216D01*
X162149500Y-112350943D01*
X157758485Y-112350943D01*
X157777800Y-112278857D01*
X157777800Y-112120743D01*
X157736877Y-111968016D01*
X157657820Y-111831084D01*
X157546016Y-111719280D01*
X157409084Y-111640223D01*
X157256357Y-111599300D01*
X157098243Y-111599300D01*
X156945516Y-111640223D01*
X156808584Y-111719280D01*
X156696780Y-111831084D01*
X156617723Y-111968016D01*
X156576800Y-112120743D01*
X131558885Y-112120743D01*
X131564577Y-112110884D01*
X131605500Y-111958157D01*
X131605500Y-111800043D01*
X131564577Y-111647316D01*
X131485520Y-111510384D01*
X131373716Y-111398580D01*
X131236784Y-111319523D01*
X131084057Y-111278600D01*
X130925943Y-111278600D01*
X130773216Y-111319523D01*
X130636284Y-111398580D01*
X130524480Y-111510384D01*
X130445423Y-111647316D01*
X130404500Y-111800043D01*
X124719415Y-111800043D01*
X124595884Y-111728723D01*
X124456753Y-111691443D01*
X124443154Y-111687799D01*
X124436723Y-111686953D01*
X124437086Y-111684192D01*
X124389998Y-111668893D01*
X124354034Y-111619393D01*
X124352568Y-111614446D01*
X124332277Y-111538716D01*
X124253220Y-111401784D01*
X124141416Y-111289980D01*
X124004484Y-111210923D01*
X123851757Y-111170000D01*
X123693643Y-111170000D01*
X123540916Y-111210923D01*
X123403984Y-111289980D01*
X123292180Y-111401784D01*
X123213123Y-111538716D01*
X123172200Y-111691443D01*
X116841423Y-111691443D01*
X116778920Y-111583184D01*
X116667116Y-111471380D01*
X116530184Y-111392323D01*
X116377457Y-111351400D01*
X116219343Y-111351400D01*
X116066616Y-111392323D01*
X115931840Y-111470135D01*
X115871992Y-111482856D01*
X115816097Y-111457969D01*
X115812356Y-111454420D01*
X115778416Y-111420480D01*
X115641484Y-111341423D01*
X115488757Y-111300500D01*
X115330643Y-111300500D01*
X115177916Y-111341423D01*
X115040984Y-111420480D01*
X114929180Y-111532284D01*
X114850123Y-111669216D01*
X114809200Y-111821943D01*
X93847293Y-111821943D01*
X93880520Y-111788716D01*
X93959577Y-111651784D01*
X94000500Y-111499057D01*
X94000500Y-111340943D01*
X93959577Y-111188216D01*
X93880520Y-111051284D01*
X93768716Y-110939480D01*
X93631784Y-110860423D01*
X93479057Y-110819500D01*
X93320943Y-110819500D01*
X93168216Y-110860423D01*
X93031284Y-110939480D01*
X92919480Y-111051284D01*
X92840423Y-111188216D01*
X92799500Y-111340943D01*
X91500000Y-111340943D01*
X91500000Y-110420943D01*
X95099500Y-110420943D01*
X95099500Y-110579057D01*
X95140423Y-110731784D01*
X95219480Y-110868716D01*
X95331284Y-110980520D01*
X95468216Y-111059577D01*
X95620943Y-111100500D01*
X95620945Y-111100500D01*
X95779055Y-111100500D01*
X95779057Y-111100500D01*
X95931784Y-111059577D01*
X96068716Y-110980520D01*
X96180520Y-110868716D01*
X96259577Y-110731784D01*
X96300500Y-110579057D01*
X96300500Y-110420943D01*
X96259577Y-110268216D01*
X96180520Y-110131284D01*
X96068716Y-110019480D01*
X95931784Y-109940423D01*
X95779057Y-109899500D01*
X95620943Y-109899500D01*
X95468216Y-109940423D01*
X95331284Y-110019480D01*
X95219480Y-110131284D01*
X95140423Y-110268216D01*
X95099500Y-110420943D01*
X91500000Y-110420943D01*
X91500000Y-109546543D01*
X104819200Y-109546543D01*
X104819200Y-109704657D01*
X104860123Y-109857384D01*
X104939180Y-109994316D01*
X105050984Y-110106120D01*
X105187916Y-110185177D01*
X105340643Y-110226100D01*
X105340645Y-110226100D01*
X105498755Y-110226100D01*
X105498757Y-110226100D01*
X105651484Y-110185177D01*
X105687570Y-110164343D01*
X124722500Y-110164343D01*
X124722500Y-110322457D01*
X124763423Y-110475184D01*
X124842480Y-110612116D01*
X124954284Y-110723920D01*
X125091216Y-110802977D01*
X125243943Y-110843900D01*
X125243945Y-110843900D01*
X125402055Y-110843900D01*
X125402057Y-110843900D01*
X125554784Y-110802977D01*
X125691716Y-110723920D01*
X125803520Y-110612116D01*
X125882577Y-110475184D01*
X125914962Y-110354320D01*
X127906737Y-110354320D01*
X127906737Y-110512434D01*
X127947660Y-110665161D01*
X128026717Y-110802093D01*
X128138521Y-110913897D01*
X128275453Y-110992954D01*
X128428180Y-111033877D01*
X128428182Y-111033877D01*
X128586292Y-111033877D01*
X128586294Y-111033877D01*
X128739021Y-110992954D01*
X128845216Y-110931643D01*
X142320500Y-110931643D01*
X142320500Y-111089757D01*
X142361423Y-111242484D01*
X142440480Y-111379416D01*
X142552284Y-111491220D01*
X142689216Y-111570277D01*
X142841943Y-111611200D01*
X142841945Y-111611200D01*
X143000055Y-111611200D01*
X143000057Y-111611200D01*
X143152784Y-111570277D01*
X143289716Y-111491220D01*
X143401520Y-111379416D01*
X143480577Y-111242484D01*
X143521500Y-111089757D01*
X143521500Y-110931643D01*
X143480577Y-110778916D01*
X143401520Y-110641984D01*
X143289716Y-110530180D01*
X143152784Y-110451123D01*
X143000057Y-110410200D01*
X142841943Y-110410200D01*
X142689216Y-110451123D01*
X142552284Y-110530180D01*
X142440480Y-110641984D01*
X142361423Y-110778916D01*
X142320500Y-110931643D01*
X128845216Y-110931643D01*
X128875953Y-110913897D01*
X128987757Y-110802093D01*
X129066814Y-110665161D01*
X129107737Y-110512434D01*
X129107737Y-110354320D01*
X145106737Y-110354320D01*
X145106737Y-110512434D01*
X145147660Y-110665161D01*
X145226717Y-110802093D01*
X145338521Y-110913897D01*
X145475453Y-110992954D01*
X145628180Y-111033877D01*
X145628182Y-111033877D01*
X145786292Y-111033877D01*
X145786294Y-111033877D01*
X145939021Y-110992954D01*
X146075953Y-110913897D01*
X146187757Y-110802093D01*
X146266814Y-110665161D01*
X146307737Y-110512434D01*
X146307737Y-110354320D01*
X146266814Y-110201593D01*
X146187757Y-110064661D01*
X146075953Y-109952857D01*
X145939021Y-109873800D01*
X145786294Y-109832877D01*
X145628180Y-109832877D01*
X145475453Y-109873800D01*
X145338521Y-109952857D01*
X145226717Y-110064661D01*
X145147660Y-110201593D01*
X145106737Y-110354320D01*
X129107737Y-110354320D01*
X129066814Y-110201593D01*
X128987757Y-110064661D01*
X128875953Y-109952857D01*
X128739021Y-109873800D01*
X128586294Y-109832877D01*
X128428180Y-109832877D01*
X128275453Y-109873800D01*
X128138521Y-109952857D01*
X128026717Y-110064661D01*
X127947660Y-110201593D01*
X127906737Y-110354320D01*
X125914962Y-110354320D01*
X125923500Y-110322457D01*
X125923500Y-110164343D01*
X125882577Y-110011616D01*
X125803520Y-109874684D01*
X125694663Y-109765827D01*
X125666888Y-109711313D01*
X125676459Y-109650881D01*
X125712681Y-109612713D01*
X125712570Y-109612569D01*
X125713484Y-109611867D01*
X125715172Y-109610088D01*
X125717716Y-109608620D01*
X125829520Y-109496816D01*
X125908577Y-109359884D01*
X125949500Y-109207157D01*
X125949500Y-109049043D01*
X125924554Y-108955943D01*
X139569700Y-108955943D01*
X139569700Y-109114057D01*
X139610623Y-109266784D01*
X139689680Y-109403716D01*
X139801484Y-109515520D01*
X139938416Y-109594577D01*
X140091143Y-109635500D01*
X140091145Y-109635500D01*
X140249255Y-109635500D01*
X140249257Y-109635500D01*
X140401984Y-109594577D01*
X140538916Y-109515520D01*
X140650720Y-109403716D01*
X140729777Y-109266784D01*
X140770700Y-109114057D01*
X140770700Y-108955943D01*
X142034800Y-108955943D01*
X142034800Y-109114057D01*
X142075723Y-109266784D01*
X142154780Y-109403716D01*
X142266584Y-109515520D01*
X142403516Y-109594577D01*
X142556243Y-109635500D01*
X142556245Y-109635500D01*
X142714355Y-109635500D01*
X142714357Y-109635500D01*
X142867084Y-109594577D01*
X143004016Y-109515520D01*
X143115820Y-109403716D01*
X143194877Y-109266784D01*
X143235800Y-109114057D01*
X143235800Y-108955943D01*
X143194877Y-108803216D01*
X143115820Y-108666284D01*
X143004016Y-108554480D01*
X142867084Y-108475423D01*
X142714357Y-108434500D01*
X142556243Y-108434500D01*
X142403516Y-108475423D01*
X142266584Y-108554480D01*
X142154780Y-108666284D01*
X142075723Y-108803216D01*
X142034800Y-108955943D01*
X140770700Y-108955943D01*
X140729777Y-108803216D01*
X140650720Y-108666284D01*
X140538916Y-108554480D01*
X140401984Y-108475423D01*
X140249257Y-108434500D01*
X140091143Y-108434500D01*
X139938416Y-108475423D01*
X139801484Y-108554480D01*
X139689680Y-108666284D01*
X139610623Y-108803216D01*
X139569700Y-108955943D01*
X125924554Y-108955943D01*
X125908577Y-108896316D01*
X125829520Y-108759384D01*
X125717716Y-108647580D01*
X125580784Y-108568523D01*
X125428057Y-108527600D01*
X125269943Y-108527600D01*
X125117216Y-108568523D01*
X124980284Y-108647580D01*
X124868480Y-108759384D01*
X124789423Y-108896316D01*
X124748500Y-109049043D01*
X124748500Y-109207157D01*
X124789423Y-109359884D01*
X124868480Y-109496816D01*
X124977335Y-109605671D01*
X125005111Y-109660186D01*
X124995540Y-109720618D01*
X124959320Y-109758788D01*
X124959430Y-109758931D01*
X124958527Y-109759623D01*
X124956837Y-109761405D01*
X124954288Y-109762876D01*
X124954284Y-109762880D01*
X124842480Y-109874684D01*
X124763423Y-110011616D01*
X124722500Y-110164343D01*
X105687570Y-110164343D01*
X105788416Y-110106120D01*
X105900220Y-109994316D01*
X105979277Y-109857384D01*
X106020200Y-109704657D01*
X106020200Y-109546543D01*
X105979277Y-109393816D01*
X105900220Y-109256884D01*
X105788416Y-109145080D01*
X105651484Y-109066023D01*
X105498757Y-109025100D01*
X105340643Y-109025100D01*
X105187916Y-109066023D01*
X105050984Y-109145080D01*
X104939180Y-109256884D01*
X104860123Y-109393816D01*
X104819200Y-109546543D01*
X91500000Y-109546543D01*
X91500000Y-107905243D01*
X98501200Y-107905243D01*
X98501200Y-108063357D01*
X98542123Y-108216084D01*
X98621180Y-108353016D01*
X98732984Y-108464820D01*
X98869916Y-108543877D01*
X99022643Y-108584800D01*
X99022645Y-108584800D01*
X99180755Y-108584800D01*
X99180757Y-108584800D01*
X99333484Y-108543877D01*
X99470416Y-108464820D01*
X99582220Y-108353016D01*
X99661277Y-108216084D01*
X99702200Y-108063357D01*
X99702200Y-107905243D01*
X99661277Y-107752516D01*
X99582220Y-107615584D01*
X99470416Y-107503780D01*
X99333484Y-107424723D01*
X99180757Y-107383800D01*
X99022643Y-107383800D01*
X98869916Y-107424723D01*
X98732984Y-107503780D01*
X98621180Y-107615584D01*
X98542123Y-107752516D01*
X98501200Y-107905243D01*
X91500000Y-107905243D01*
X91500000Y-106307566D01*
X105092263Y-106307566D01*
X105092263Y-106465680D01*
X105133186Y-106618407D01*
X105212243Y-106755339D01*
X105324047Y-106867143D01*
X105460979Y-106946200D01*
X105613706Y-106987123D01*
X105613708Y-106987123D01*
X105771818Y-106987123D01*
X105771820Y-106987123D01*
X105924547Y-106946200D01*
X106061479Y-106867143D01*
X106173283Y-106755339D01*
X106252340Y-106618407D01*
X106293263Y-106465680D01*
X106293263Y-106307566D01*
X106252340Y-106154839D01*
X106173283Y-106017907D01*
X106061479Y-105906103D01*
X105995037Y-105867743D01*
X128277300Y-105867743D01*
X128277300Y-106025857D01*
X128318223Y-106178584D01*
X128397280Y-106315516D01*
X128509084Y-106427320D01*
X128646016Y-106506377D01*
X128798743Y-106547300D01*
X128798745Y-106547300D01*
X128956855Y-106547300D01*
X128956857Y-106547300D01*
X129109584Y-106506377D01*
X129123870Y-106498129D01*
X129183718Y-106485406D01*
X129239614Y-106510291D01*
X129259107Y-106534362D01*
X129263180Y-106541416D01*
X129374984Y-106653220D01*
X129511916Y-106732277D01*
X129664643Y-106773200D01*
X129664645Y-106773200D01*
X129822755Y-106773200D01*
X129822757Y-106773200D01*
X129975484Y-106732277D01*
X130112416Y-106653220D01*
X130224220Y-106541416D01*
X130303277Y-106404484D01*
X130344200Y-106251757D01*
X130344200Y-106093643D01*
X130303277Y-105940916D01*
X130224220Y-105803984D01*
X130112416Y-105692180D01*
X129975484Y-105613123D01*
X129822757Y-105572200D01*
X129664643Y-105572200D01*
X129511916Y-105613123D01*
X129511914Y-105613124D01*
X129511913Y-105613124D01*
X129497625Y-105621373D01*
X129437776Y-105634092D01*
X129381882Y-105609204D01*
X129362391Y-105585135D01*
X129358321Y-105578086D01*
X129358320Y-105578084D01*
X129246516Y-105466280D01*
X129109584Y-105387223D01*
X128956857Y-105346300D01*
X128798743Y-105346300D01*
X128646016Y-105387223D01*
X128509084Y-105466280D01*
X128397280Y-105578084D01*
X128318223Y-105715016D01*
X128277300Y-105867743D01*
X105995037Y-105867743D01*
X105924547Y-105827046D01*
X105771820Y-105786123D01*
X105613706Y-105786123D01*
X105460979Y-105827046D01*
X105324047Y-105906103D01*
X105212243Y-106017907D01*
X105133186Y-106154839D01*
X105092263Y-106307566D01*
X91500000Y-106307566D01*
X91500000Y-105027566D01*
X122292263Y-105027566D01*
X122292263Y-105185680D01*
X122333186Y-105338407D01*
X122412243Y-105475339D01*
X122524047Y-105587143D01*
X122660979Y-105666200D01*
X122813706Y-105707123D01*
X122813708Y-105707123D01*
X122971818Y-105707123D01*
X122971820Y-105707123D01*
X123124547Y-105666200D01*
X123261479Y-105587143D01*
X123373283Y-105475339D01*
X123452340Y-105338407D01*
X123493263Y-105185680D01*
X123493263Y-105120943D01*
X142649500Y-105120943D01*
X142649500Y-105279057D01*
X142690423Y-105431784D01*
X142769480Y-105568716D01*
X142881284Y-105680520D01*
X143018216Y-105759577D01*
X143072871Y-105774221D01*
X143124184Y-105807545D01*
X143146111Y-105864667D01*
X143130275Y-105923767D01*
X143082725Y-105962272D01*
X143072871Y-105965474D01*
X143072319Y-105965621D01*
X143072318Y-105965621D01*
X142935384Y-106044680D01*
X142823580Y-106156484D01*
X142744523Y-106293416D01*
X142703600Y-106446143D01*
X142703600Y-106604257D01*
X142744523Y-106756984D01*
X142823580Y-106893916D01*
X142935384Y-107005720D01*
X143072316Y-107084777D01*
X143225043Y-107125700D01*
X143225045Y-107125700D01*
X143383155Y-107125700D01*
X143383157Y-107125700D01*
X143535884Y-107084777D01*
X143672816Y-107005720D01*
X143784620Y-106893916D01*
X143863677Y-106756984D01*
X143904600Y-106604257D01*
X143904600Y-106446143D01*
X143897848Y-106420943D01*
X153687400Y-106420943D01*
X153687400Y-106579057D01*
X153728323Y-106731784D01*
X153807380Y-106868716D01*
X153919184Y-106980520D01*
X154056116Y-107059577D01*
X154208843Y-107100500D01*
X154208845Y-107100500D01*
X154366955Y-107100500D01*
X154366957Y-107100500D01*
X154519684Y-107059577D01*
X154656616Y-106980520D01*
X154768420Y-106868716D01*
X154847477Y-106731784D01*
X154888400Y-106579057D01*
X154888400Y-106420943D01*
X154847477Y-106268216D01*
X154768420Y-106131284D01*
X154656616Y-106019480D01*
X154519684Y-105940423D01*
X154366957Y-105899500D01*
X154208843Y-105899500D01*
X154056116Y-105940423D01*
X153919184Y-106019480D01*
X153807380Y-106131284D01*
X153728323Y-106268216D01*
X153687400Y-106420943D01*
X143897848Y-106420943D01*
X143863677Y-106293416D01*
X143784620Y-106156484D01*
X143672816Y-106044680D01*
X143535884Y-105965623D01*
X143535883Y-105965622D01*
X143535880Y-105965621D01*
X143481228Y-105950977D01*
X143429914Y-105917653D01*
X143407988Y-105860531D01*
X143423824Y-105801431D01*
X143471375Y-105762926D01*
X143481219Y-105759728D01*
X143481784Y-105759577D01*
X143618716Y-105680520D01*
X143730520Y-105568716D01*
X143809577Y-105431784D01*
X143838875Y-105322443D01*
X145841900Y-105322443D01*
X145841900Y-105480557D01*
X145882823Y-105633284D01*
X145961880Y-105770216D01*
X146073684Y-105882020D01*
X146210616Y-105961077D01*
X146363343Y-106002000D01*
X146363345Y-106002000D01*
X146521455Y-106002000D01*
X146521457Y-106002000D01*
X146674184Y-105961077D01*
X146811116Y-105882020D01*
X146922920Y-105770216D01*
X147001977Y-105633284D01*
X147042900Y-105480557D01*
X147042900Y-105322443D01*
X147001977Y-105169716D01*
X146922920Y-105032784D01*
X146811116Y-104920980D01*
X146674184Y-104841923D01*
X146521457Y-104801000D01*
X146363343Y-104801000D01*
X146210616Y-104841923D01*
X146073684Y-104920980D01*
X145961880Y-105032784D01*
X145882823Y-105169716D01*
X145841900Y-105322443D01*
X143838875Y-105322443D01*
X143850500Y-105279057D01*
X143850500Y-105120943D01*
X143809577Y-104968216D01*
X143730520Y-104831284D01*
X143618716Y-104719480D01*
X143481784Y-104640423D01*
X143329057Y-104599500D01*
X143170943Y-104599500D01*
X143018216Y-104640423D01*
X142881284Y-104719480D01*
X142769480Y-104831284D01*
X142690423Y-104968216D01*
X142649500Y-105120943D01*
X123493263Y-105120943D01*
X123493263Y-105027566D01*
X123452340Y-104874839D01*
X123373283Y-104737907D01*
X123261479Y-104626103D01*
X123124547Y-104547046D01*
X122971820Y-104506123D01*
X122813706Y-104506123D01*
X122660979Y-104547046D01*
X122524047Y-104626103D01*
X122412243Y-104737907D01*
X122333186Y-104874839D01*
X122292263Y-105027566D01*
X91500000Y-105027566D01*
X91500000Y-102515547D01*
X95539500Y-102515547D01*
X95539500Y-102724452D01*
X95580255Y-102929335D01*
X95580255Y-102929337D01*
X95660194Y-103122330D01*
X95660200Y-103122342D01*
X95728941Y-103225218D01*
X95776256Y-103296029D01*
X95923971Y-103443744D01*
X95979645Y-103480944D01*
X96097657Y-103559799D01*
X96097669Y-103559805D01*
X96168962Y-103589335D01*
X96290664Y-103639745D01*
X96495550Y-103680500D01*
X96495551Y-103680500D01*
X96704449Y-103680500D01*
X96704450Y-103680500D01*
X96909336Y-103639745D01*
X97102335Y-103559803D01*
X97195498Y-103497552D01*
X97254386Y-103480944D01*
X97311790Y-103502121D01*
X97345783Y-103552994D01*
X97348500Y-103572643D01*
X97348653Y-103572623D01*
X97349499Y-103579054D01*
X97349500Y-103579057D01*
X97390423Y-103731784D01*
X97469480Y-103868716D01*
X97581284Y-103980520D01*
X97718216Y-104059577D01*
X97870943Y-104100500D01*
X97870945Y-104100500D01*
X98029055Y-104100500D01*
X98029057Y-104100500D01*
X98181784Y-104059577D01*
X98318716Y-103980520D01*
X98430520Y-103868716D01*
X98488918Y-103767566D01*
X127906737Y-103767566D01*
X127906737Y-103925680D01*
X127947660Y-104078407D01*
X128026717Y-104215339D01*
X128138521Y-104327143D01*
X128275453Y-104406200D01*
X128428180Y-104447123D01*
X128428182Y-104447123D01*
X128586292Y-104447123D01*
X128586294Y-104447123D01*
X128739021Y-104406200D01*
X128875953Y-104327143D01*
X128987757Y-104215339D01*
X129066814Y-104078407D01*
X129107737Y-103925680D01*
X129107737Y-103767566D01*
X145106737Y-103767566D01*
X145106737Y-103925680D01*
X145147660Y-104078407D01*
X145226717Y-104215339D01*
X145338521Y-104327143D01*
X145475453Y-104406200D01*
X145628180Y-104447123D01*
X145628182Y-104447123D01*
X145786292Y-104447123D01*
X145786294Y-104447123D01*
X145939021Y-104406200D01*
X146075953Y-104327143D01*
X146187757Y-104215339D01*
X146266814Y-104078407D01*
X146307737Y-103925680D01*
X146307737Y-103767566D01*
X146266814Y-103614839D01*
X146187757Y-103477907D01*
X146075953Y-103366103D01*
X145939021Y-103287046D01*
X145786294Y-103246123D01*
X145628180Y-103246123D01*
X145475453Y-103287046D01*
X145338521Y-103366103D01*
X145226717Y-103477907D01*
X145147660Y-103614839D01*
X145106737Y-103767566D01*
X129107737Y-103767566D01*
X129066814Y-103614839D01*
X128987757Y-103477907D01*
X128987754Y-103477904D01*
X128961045Y-103451194D01*
X128933269Y-103396677D01*
X128942841Y-103336246D01*
X128961044Y-103311191D01*
X129047020Y-103225216D01*
X129126077Y-103088284D01*
X129167000Y-102935557D01*
X129167000Y-102777443D01*
X129126077Y-102624716D01*
X129047020Y-102487784D01*
X128935216Y-102375980D01*
X128798284Y-102296923D01*
X128645557Y-102256000D01*
X128487443Y-102256000D01*
X128334716Y-102296923D01*
X128197784Y-102375980D01*
X128085980Y-102487784D01*
X128006923Y-102624716D01*
X127966000Y-102777443D01*
X127966000Y-102935557D01*
X128006923Y-103088284D01*
X128085980Y-103225216D01*
X128085981Y-103225217D01*
X128085982Y-103225218D01*
X128112691Y-103251928D01*
X128140467Y-103306445D01*
X128130895Y-103366876D01*
X128112690Y-103391933D01*
X128026719Y-103477904D01*
X128026717Y-103477906D01*
X128026717Y-103477907D01*
X127947660Y-103614839D01*
X127906737Y-103767566D01*
X98488918Y-103767566D01*
X98509577Y-103731784D01*
X98550500Y-103579057D01*
X98550500Y-103420943D01*
X98509577Y-103268216D01*
X98430520Y-103131284D01*
X98318716Y-103019480D01*
X98181784Y-102940423D01*
X98029057Y-102899500D01*
X97870943Y-102899500D01*
X97861770Y-102901958D01*
X97765651Y-102927712D01*
X97759971Y-102927414D01*
X97754889Y-102929963D01*
X97729871Y-102925836D01*
X97704550Y-102924509D01*
X97700131Y-102920930D01*
X97694519Y-102920005D01*
X97676702Y-102901958D01*
X97657000Y-102886003D01*
X97655528Y-102880509D01*
X97651533Y-102876463D01*
X97648574Y-102854557D01*
X97641165Y-102826903D01*
X97642349Y-102815971D01*
X97642611Y-102814382D01*
X97660500Y-102724450D01*
X97660500Y-102720543D01*
X102748500Y-102720543D01*
X102748500Y-102878657D01*
X102789423Y-103031384D01*
X102868480Y-103168316D01*
X102980284Y-103280120D01*
X103117216Y-103359177D01*
X103269943Y-103400100D01*
X103269945Y-103400100D01*
X103428055Y-103400100D01*
X103428057Y-103400100D01*
X103580784Y-103359177D01*
X103717716Y-103280120D01*
X103829520Y-103168316D01*
X103908577Y-103031384D01*
X103949500Y-102878657D01*
X103949500Y-102720543D01*
X103908577Y-102567816D01*
X103862245Y-102487566D01*
X105092263Y-102487566D01*
X105092263Y-102645680D01*
X105133186Y-102798407D01*
X105212243Y-102935339D01*
X105324047Y-103047143D01*
X105460979Y-103126200D01*
X105613706Y-103167123D01*
X105613708Y-103167123D01*
X105771818Y-103167123D01*
X105771820Y-103167123D01*
X105924547Y-103126200D01*
X106061479Y-103047143D01*
X106173283Y-102935339D01*
X106252340Y-102798407D01*
X106293263Y-102645680D01*
X106293263Y-102605943D01*
X108119800Y-102605943D01*
X108119800Y-102764057D01*
X108160723Y-102916784D01*
X108239780Y-103053716D01*
X108351584Y-103165520D01*
X108488516Y-103244577D01*
X108641243Y-103285500D01*
X108641245Y-103285500D01*
X108799355Y-103285500D01*
X108799357Y-103285500D01*
X108952084Y-103244577D01*
X109089016Y-103165520D01*
X109200820Y-103053716D01*
X109279877Y-102916784D01*
X109320800Y-102764057D01*
X109320800Y-102605943D01*
X109289081Y-102487566D01*
X113692263Y-102487566D01*
X113692263Y-102645680D01*
X113733186Y-102798407D01*
X113812243Y-102935339D01*
X113924047Y-103047143D01*
X114060979Y-103126200D01*
X114213706Y-103167123D01*
X114213708Y-103167123D01*
X114371818Y-103167123D01*
X114371820Y-103167123D01*
X114524547Y-103126200D01*
X114661479Y-103047143D01*
X114773283Y-102935339D01*
X114852340Y-102798407D01*
X114893263Y-102645680D01*
X114893263Y-102487566D01*
X122292263Y-102487566D01*
X122292263Y-102645680D01*
X122333186Y-102798407D01*
X122412243Y-102935339D01*
X122524047Y-103047143D01*
X122660979Y-103126200D01*
X122813706Y-103167123D01*
X122813708Y-103167123D01*
X122971818Y-103167123D01*
X122971820Y-103167123D01*
X123124547Y-103126200D01*
X123261479Y-103047143D01*
X123373283Y-102935339D01*
X123452340Y-102798407D01*
X123493263Y-102645680D01*
X123493263Y-102487566D01*
X123452340Y-102334839D01*
X123373283Y-102197907D01*
X123296319Y-102120943D01*
X136749500Y-102120943D01*
X136749500Y-102279057D01*
X136790423Y-102431784D01*
X136869480Y-102568716D01*
X136981284Y-102680520D01*
X137118216Y-102759577D01*
X137270943Y-102800500D01*
X137270945Y-102800500D01*
X137429055Y-102800500D01*
X137429057Y-102800500D01*
X137581784Y-102759577D01*
X137718716Y-102680520D01*
X137830520Y-102568716D01*
X137877372Y-102487566D01*
X139492263Y-102487566D01*
X139492263Y-102645680D01*
X139533186Y-102798407D01*
X139612243Y-102935339D01*
X139724047Y-103047143D01*
X139860979Y-103126200D01*
X140013706Y-103167123D01*
X140013708Y-103167123D01*
X140171818Y-103167123D01*
X140171820Y-103167123D01*
X140324547Y-103126200D01*
X140461479Y-103047143D01*
X140573283Y-102935339D01*
X140652340Y-102798407D01*
X140693263Y-102645680D01*
X140693263Y-102487566D01*
X156692263Y-102487566D01*
X156692263Y-102645680D01*
X156733186Y-102798407D01*
X156812243Y-102935339D01*
X156924047Y-103047143D01*
X157060979Y-103126200D01*
X157213706Y-103167123D01*
X157213708Y-103167123D01*
X157371818Y-103167123D01*
X157371820Y-103167123D01*
X157524547Y-103126200D01*
X157661479Y-103047143D01*
X157773283Y-102935339D01*
X157852340Y-102798407D01*
X157893263Y-102645680D01*
X157893263Y-102487566D01*
X157852340Y-102334839D01*
X157773283Y-102197907D01*
X157661479Y-102086103D01*
X157524547Y-102007046D01*
X157371820Y-101966123D01*
X157213706Y-101966123D01*
X157060979Y-102007046D01*
X156924047Y-102086103D01*
X156812243Y-102197907D01*
X156733186Y-102334839D01*
X156692263Y-102487566D01*
X140693263Y-102487566D01*
X140652340Y-102334839D01*
X140573283Y-102197907D01*
X140461479Y-102086103D01*
X140324547Y-102007046D01*
X140171820Y-101966123D01*
X140013706Y-101966123D01*
X139860979Y-102007046D01*
X139724047Y-102086103D01*
X139612243Y-102197907D01*
X139533186Y-102334839D01*
X139492263Y-102487566D01*
X137877372Y-102487566D01*
X137909577Y-102431784D01*
X137950500Y-102279057D01*
X137950500Y-102120943D01*
X137909577Y-101968216D01*
X137830520Y-101831284D01*
X137718716Y-101719480D01*
X137581784Y-101640423D01*
X137429057Y-101599500D01*
X137270943Y-101599500D01*
X137118216Y-101640423D01*
X136981284Y-101719480D01*
X136869480Y-101831284D01*
X136790423Y-101968216D01*
X136749500Y-102120943D01*
X123296319Y-102120943D01*
X123261479Y-102086103D01*
X123124547Y-102007046D01*
X122971820Y-101966123D01*
X122813706Y-101966123D01*
X122660979Y-102007046D01*
X122524047Y-102086103D01*
X122412243Y-102197907D01*
X122333186Y-102334839D01*
X122292263Y-102487566D01*
X114893263Y-102487566D01*
X114852340Y-102334839D01*
X114773283Y-102197907D01*
X114661479Y-102086103D01*
X114524547Y-102007046D01*
X114371820Y-101966123D01*
X114213706Y-101966123D01*
X114060979Y-102007046D01*
X113924047Y-102086103D01*
X113812243Y-102197907D01*
X113733186Y-102334839D01*
X113692263Y-102487566D01*
X109289081Y-102487566D01*
X109279877Y-102453216D01*
X109200820Y-102316284D01*
X109089016Y-102204480D01*
X108952084Y-102125423D01*
X108799357Y-102084500D01*
X108641243Y-102084500D01*
X108488516Y-102125423D01*
X108351584Y-102204480D01*
X108239780Y-102316284D01*
X108160723Y-102453216D01*
X108119800Y-102605943D01*
X106293263Y-102605943D01*
X106293263Y-102487566D01*
X106252340Y-102334839D01*
X106173283Y-102197907D01*
X106061479Y-102086103D01*
X105924547Y-102007046D01*
X105771820Y-101966123D01*
X105613706Y-101966123D01*
X105460979Y-102007046D01*
X105324047Y-102086103D01*
X105212243Y-102197907D01*
X105133186Y-102334839D01*
X105092263Y-102487566D01*
X103862245Y-102487566D01*
X103829520Y-102430884D01*
X103805679Y-102407043D01*
X103800115Y-102398578D01*
X103794578Y-102378363D01*
X103785062Y-102359687D01*
X103786674Y-102349508D01*
X103783951Y-102339567D01*
X103791354Y-102319957D01*
X103794633Y-102299255D01*
X103801921Y-102291966D01*
X103805562Y-102282324D01*
X103823075Y-102270812D01*
X103837898Y-102255990D01*
X103850072Y-102253067D01*
X103856691Y-102248717D01*
X103866315Y-102249167D01*
X103882843Y-102245200D01*
X103919055Y-102245200D01*
X103919057Y-102245200D01*
X104071784Y-102204277D01*
X104208716Y-102125220D01*
X104320520Y-102013416D01*
X104399577Y-101876484D01*
X104440500Y-101723757D01*
X104440500Y-101617343D01*
X111988300Y-101617343D01*
X111988300Y-101775457D01*
X112029223Y-101928184D01*
X112108280Y-102065116D01*
X112220084Y-102176920D01*
X112357016Y-102255977D01*
X112509743Y-102296900D01*
X112509745Y-102296900D01*
X112667855Y-102296900D01*
X112667857Y-102296900D01*
X112820584Y-102255977D01*
X112957516Y-102176920D01*
X113069320Y-102065116D01*
X113148377Y-101928184D01*
X113189300Y-101775457D01*
X113189300Y-101617343D01*
X113148377Y-101464616D01*
X113069320Y-101327684D01*
X112957516Y-101215880D01*
X112820584Y-101136823D01*
X112667857Y-101095900D01*
X112509743Y-101095900D01*
X112357016Y-101136823D01*
X112220084Y-101215880D01*
X112108280Y-101327684D01*
X112029223Y-101464616D01*
X111988300Y-101617343D01*
X104440500Y-101617343D01*
X104440500Y-101565643D01*
X104399577Y-101412916D01*
X104320520Y-101275984D01*
X104208716Y-101164180D01*
X104071784Y-101085123D01*
X103919057Y-101044200D01*
X103760943Y-101044200D01*
X103608216Y-101085123D01*
X103471284Y-101164180D01*
X103359480Y-101275984D01*
X103280423Y-101412916D01*
X103239500Y-101565643D01*
X103239500Y-101723757D01*
X103280423Y-101876484D01*
X103359480Y-102013416D01*
X103376162Y-102030098D01*
X103403938Y-102084613D01*
X103394367Y-102145045D01*
X103351102Y-102188310D01*
X103306157Y-102199100D01*
X103269943Y-102199100D01*
X103117216Y-102240023D01*
X102980284Y-102319080D01*
X102868480Y-102430884D01*
X102789423Y-102567816D01*
X102748500Y-102720543D01*
X97660500Y-102720543D01*
X97660500Y-102515550D01*
X97619745Y-102310664D01*
X97551144Y-102145045D01*
X97539805Y-102117669D01*
X97539799Y-102117657D01*
X97470145Y-102013415D01*
X97423744Y-101943971D01*
X97276029Y-101796256D01*
X97226547Y-101763193D01*
X97102342Y-101680200D01*
X97102330Y-101680194D01*
X96909336Y-101600255D01*
X96704452Y-101559500D01*
X96704450Y-101559500D01*
X96495550Y-101559500D01*
X96495547Y-101559500D01*
X96290664Y-101600255D01*
X96290662Y-101600255D01*
X96097669Y-101680194D01*
X96097657Y-101680200D01*
X95923971Y-101796256D01*
X95923967Y-101796259D01*
X95776259Y-101943967D01*
X95776256Y-101943971D01*
X95660200Y-102117657D01*
X95660194Y-102117669D01*
X95580255Y-102310662D01*
X95580255Y-102310664D01*
X95539500Y-102515547D01*
X91500000Y-102515547D01*
X91500000Y-101130543D01*
X101571900Y-101130543D01*
X101571900Y-101288657D01*
X101612823Y-101441384D01*
X101691880Y-101578316D01*
X101803684Y-101690120D01*
X101940616Y-101769177D01*
X102093343Y-101810100D01*
X102093345Y-101810100D01*
X102251455Y-101810100D01*
X102251457Y-101810100D01*
X102404184Y-101769177D01*
X102541116Y-101690120D01*
X102652920Y-101578316D01*
X102731977Y-101441384D01*
X102772900Y-101288657D01*
X102772900Y-101130543D01*
X102738067Y-101000543D01*
X124548800Y-101000543D01*
X124548800Y-101158657D01*
X124589723Y-101311384D01*
X124668780Y-101448316D01*
X124780584Y-101560120D01*
X124917516Y-101639177D01*
X125070243Y-101680100D01*
X125070245Y-101680100D01*
X125228355Y-101680100D01*
X125228357Y-101680100D01*
X125381084Y-101639177D01*
X125518016Y-101560120D01*
X125629820Y-101448316D01*
X125708877Y-101311384D01*
X125749800Y-101158657D01*
X125749800Y-101000543D01*
X125708877Y-100847816D01*
X125629820Y-100710884D01*
X125518016Y-100599080D01*
X125381084Y-100520023D01*
X125228357Y-100479100D01*
X125070243Y-100479100D01*
X124917516Y-100520023D01*
X124780584Y-100599080D01*
X124668780Y-100710884D01*
X124589723Y-100847816D01*
X124548800Y-101000543D01*
X102738067Y-101000543D01*
X102731977Y-100977816D01*
X102652920Y-100840884D01*
X102541116Y-100729080D01*
X102404184Y-100650023D01*
X102251457Y-100609100D01*
X102093343Y-100609100D01*
X101940616Y-100650023D01*
X101803684Y-100729080D01*
X101691880Y-100840884D01*
X101612823Y-100977816D01*
X101571900Y-101130543D01*
X91500000Y-101130543D01*
X91500000Y-100020943D01*
X102479500Y-100020943D01*
X102479500Y-100179057D01*
X102520423Y-100331784D01*
X102599480Y-100468716D01*
X102711284Y-100580520D01*
X102848216Y-100659577D01*
X103000943Y-100700500D01*
X103000945Y-100700500D01*
X103159055Y-100700500D01*
X103159057Y-100700500D01*
X103311784Y-100659577D01*
X103448716Y-100580520D01*
X103560520Y-100468716D01*
X103639577Y-100331784D01*
X103680500Y-100179057D01*
X103680500Y-100020943D01*
X111079500Y-100020943D01*
X111079500Y-100179057D01*
X111120423Y-100331784D01*
X111199480Y-100468716D01*
X111311284Y-100580520D01*
X111448216Y-100659577D01*
X111600943Y-100700500D01*
X111600945Y-100700500D01*
X111759055Y-100700500D01*
X111759057Y-100700500D01*
X111911784Y-100659577D01*
X112048716Y-100580520D01*
X112160520Y-100468716D01*
X112239577Y-100331784D01*
X112280500Y-100179057D01*
X112280500Y-100020943D01*
X119679500Y-100020943D01*
X119679500Y-100179057D01*
X119720423Y-100331784D01*
X119799480Y-100468716D01*
X119911284Y-100580520D01*
X120048216Y-100659577D01*
X120200943Y-100700500D01*
X120200945Y-100700500D01*
X120359055Y-100700500D01*
X120359057Y-100700500D01*
X120511784Y-100659577D01*
X120648716Y-100580520D01*
X120760520Y-100468716D01*
X120839577Y-100331784D01*
X120880500Y-100179057D01*
X120880500Y-100020943D01*
X120860830Y-99947533D01*
X120864033Y-99886433D01*
X120902538Y-99838884D01*
X120906947Y-99836181D01*
X120968716Y-99800520D01*
X121080520Y-99688716D01*
X121159577Y-99551784D01*
X121200500Y-99399057D01*
X121200500Y-99240943D01*
X127999500Y-99240943D01*
X127999500Y-99399057D01*
X128040423Y-99551784D01*
X128119480Y-99688716D01*
X128231284Y-99800520D01*
X128258402Y-99816176D01*
X128299342Y-99861645D01*
X128305738Y-99922495D01*
X128304528Y-99927534D01*
X128285097Y-100000054D01*
X128279500Y-100020943D01*
X128279500Y-100179057D01*
X128320423Y-100331784D01*
X128399480Y-100468716D01*
X128511284Y-100580520D01*
X128648216Y-100659577D01*
X128800943Y-100700500D01*
X128800945Y-100700500D01*
X128959055Y-100700500D01*
X128959057Y-100700500D01*
X129111784Y-100659577D01*
X129248716Y-100580520D01*
X129360520Y-100468716D01*
X129439577Y-100331784D01*
X129480500Y-100179057D01*
X129480500Y-100083143D01*
X132295900Y-100083143D01*
X132295900Y-100241257D01*
X132336823Y-100393984D01*
X132415880Y-100530916D01*
X132527684Y-100642720D01*
X132664616Y-100721777D01*
X132817343Y-100762700D01*
X132817345Y-100762700D01*
X132975455Y-100762700D01*
X132975457Y-100762700D01*
X133128184Y-100721777D01*
X133265116Y-100642720D01*
X133376920Y-100530916D01*
X133455977Y-100393984D01*
X133496900Y-100241257D01*
X133496900Y-100083143D01*
X133455977Y-99930416D01*
X133376920Y-99793484D01*
X133265116Y-99681680D01*
X133128184Y-99602623D01*
X132975457Y-99561700D01*
X132817343Y-99561700D01*
X132664616Y-99602623D01*
X132527684Y-99681680D01*
X132415880Y-99793484D01*
X132336823Y-99930416D01*
X132295900Y-100083143D01*
X129480500Y-100083143D01*
X129480500Y-100020943D01*
X129439577Y-99868216D01*
X129360520Y-99731284D01*
X129248716Y-99619480D01*
X129221597Y-99603823D01*
X129180657Y-99558353D01*
X129174262Y-99497503D01*
X129175464Y-99492489D01*
X129200500Y-99399057D01*
X129200500Y-99240943D01*
X135999500Y-99240943D01*
X135999500Y-99399057D01*
X136040423Y-99551784D01*
X136119480Y-99688716D01*
X136231284Y-99800520D01*
X136368216Y-99879577D01*
X136520943Y-99920500D01*
X136520945Y-99920500D01*
X136679056Y-99920500D01*
X136679057Y-99920500D01*
X136758370Y-99899248D01*
X136819470Y-99902449D01*
X136867020Y-99940954D01*
X136882856Y-100000054D01*
X136879622Y-100020484D01*
X136879501Y-100020935D01*
X136879500Y-100020942D01*
X136879500Y-100020943D01*
X136879500Y-100179057D01*
X136920423Y-100331784D01*
X136999480Y-100468716D01*
X137111284Y-100580520D01*
X137248216Y-100659577D01*
X137400943Y-100700500D01*
X137400945Y-100700500D01*
X137559055Y-100700500D01*
X137559057Y-100700500D01*
X137711784Y-100659577D01*
X137848716Y-100580520D01*
X137960520Y-100468716D01*
X138039577Y-100331784D01*
X138080500Y-100179057D01*
X138080500Y-100020943D01*
X145479500Y-100020943D01*
X145479500Y-100179057D01*
X145520423Y-100331784D01*
X145599480Y-100468716D01*
X145711284Y-100580520D01*
X145848216Y-100659577D01*
X146000943Y-100700500D01*
X146000945Y-100700500D01*
X146159055Y-100700500D01*
X146159057Y-100700500D01*
X146311784Y-100659577D01*
X146448716Y-100580520D01*
X146560520Y-100468716D01*
X146639577Y-100331784D01*
X146680500Y-100179057D01*
X146680500Y-100020943D01*
X154079500Y-100020943D01*
X154079500Y-100179057D01*
X154120423Y-100331784D01*
X154199480Y-100468716D01*
X154311284Y-100580520D01*
X154448216Y-100659577D01*
X154600943Y-100700500D01*
X154600945Y-100700500D01*
X154759055Y-100700500D01*
X154759057Y-100700500D01*
X154911784Y-100659577D01*
X155048716Y-100580520D01*
X155160520Y-100468716D01*
X155239577Y-100331784D01*
X155280500Y-100179057D01*
X155280500Y-100020943D01*
X155239577Y-99868216D01*
X155160520Y-99731284D01*
X155048716Y-99619480D01*
X154911784Y-99540423D01*
X154759057Y-99499500D01*
X154600943Y-99499500D01*
X154448216Y-99540423D01*
X154311284Y-99619480D01*
X154199480Y-99731284D01*
X154120423Y-99868216D01*
X154079500Y-100020943D01*
X146680500Y-100020943D01*
X146639577Y-99868216D01*
X146560520Y-99731284D01*
X146448716Y-99619480D01*
X146311784Y-99540423D01*
X146159057Y-99499500D01*
X146000943Y-99499500D01*
X145848216Y-99540423D01*
X145711284Y-99619480D01*
X145599480Y-99731284D01*
X145520423Y-99868216D01*
X145479500Y-100020943D01*
X138080500Y-100020943D01*
X138039577Y-99868216D01*
X137960520Y-99731284D01*
X137848716Y-99619480D01*
X137711784Y-99540423D01*
X137559057Y-99499500D01*
X137400943Y-99499500D01*
X137321629Y-99520751D01*
X137260528Y-99517549D01*
X137212978Y-99479044D01*
X137197024Y-99423312D01*
X137197245Y-99411201D01*
X137200500Y-99399057D01*
X137200500Y-99240943D01*
X143999500Y-99240943D01*
X143999500Y-99399057D01*
X144040423Y-99551784D01*
X144119480Y-99688716D01*
X144231284Y-99800520D01*
X144368216Y-99879577D01*
X144520943Y-99920500D01*
X144520945Y-99920500D01*
X144679055Y-99920500D01*
X144679057Y-99920500D01*
X144831784Y-99879577D01*
X144968716Y-99800520D01*
X145080520Y-99688716D01*
X145159577Y-99551784D01*
X145200500Y-99399057D01*
X145200500Y-99240943D01*
X145159577Y-99088216D01*
X145080520Y-98951284D01*
X144968716Y-98839480D01*
X144831784Y-98760423D01*
X144679057Y-98719500D01*
X144520943Y-98719500D01*
X144368216Y-98760423D01*
X144231284Y-98839480D01*
X144119480Y-98951284D01*
X144040423Y-99088216D01*
X143999500Y-99240943D01*
X137200500Y-99240943D01*
X137159577Y-99088216D01*
X137080520Y-98951284D01*
X136968716Y-98839480D01*
X136831784Y-98760423D01*
X136679057Y-98719500D01*
X136520943Y-98719500D01*
X136368216Y-98760423D01*
X136231284Y-98839480D01*
X136119480Y-98951284D01*
X136040423Y-99088216D01*
X135999500Y-99240943D01*
X129200500Y-99240943D01*
X129159577Y-99088216D01*
X129080520Y-98951284D01*
X128968716Y-98839480D01*
X128831784Y-98760423D01*
X128679057Y-98719500D01*
X128520943Y-98719500D01*
X128368216Y-98760423D01*
X128231284Y-98839480D01*
X128119480Y-98951284D01*
X128040423Y-99088216D01*
X127999500Y-99240943D01*
X121200500Y-99240943D01*
X121159577Y-99088216D01*
X121080520Y-98951284D01*
X120968716Y-98839480D01*
X120831784Y-98760423D01*
X120679057Y-98719500D01*
X120520943Y-98719500D01*
X120368216Y-98760423D01*
X120231284Y-98839480D01*
X120119480Y-98951284D01*
X120040423Y-99088216D01*
X120013264Y-99189577D01*
X119999500Y-99240944D01*
X119999500Y-99399056D01*
X120019169Y-99472465D01*
X120015966Y-99533566D01*
X119977460Y-99581116D01*
X119973042Y-99583823D01*
X119911288Y-99619476D01*
X119911284Y-99619480D01*
X119799480Y-99731284D01*
X119720423Y-99868216D01*
X119679500Y-100020943D01*
X112280500Y-100020943D01*
X112239577Y-99868216D01*
X112160520Y-99731284D01*
X112048716Y-99619480D01*
X111911784Y-99540423D01*
X111759057Y-99499500D01*
X111600943Y-99499500D01*
X111448216Y-99540423D01*
X111311284Y-99619480D01*
X111199480Y-99731284D01*
X111120423Y-99868216D01*
X111079500Y-100020943D01*
X103680500Y-100020943D01*
X103639577Y-99868216D01*
X103560520Y-99731284D01*
X103448716Y-99619480D01*
X103311784Y-99540423D01*
X103159057Y-99499500D01*
X103000943Y-99499500D01*
X102848216Y-99540423D01*
X102711284Y-99619480D01*
X102599480Y-99731284D01*
X102520423Y-99868216D01*
X102479500Y-100020943D01*
X91500000Y-100020943D01*
X91500000Y-96999000D01*
X91518907Y-96940809D01*
X91568407Y-96904845D01*
X91599000Y-96900000D01*
X95569597Y-96900000D01*
X95627788Y-96918907D01*
G37*
%TD.AperFunction*%
%TD*%
M02*
