M48
; DRILL file KiCad 10.0.6-10.0.6~ubuntu24.04.1 date 2026-10-09T01:50:29
; FORMAT={-:-/ absolute / metric / decimal}
; #@! TF.CreationDate,2026-10-09T01:50:29+00:00
; #@! TF.GenerationSoftware,Kicad,Pcbnew,10.0.6-10.0.6~ubuntu24.04.1
; #@! TF.FileFunction,Plated,1,4,PTH
FMAT,2
METRIC
; #@! TA.AperFunction,Plated,PTH,ViaDrill
T1C0.300
; #@! TA.AperFunction,Plated,PTH,ComponentDrill
T2C0.790
; #@! TA.AperFunction,Plated,PTH,ComponentDrill
T3C1.000
; #@! TA.AperFunction,Plated,PTH,ComponentDrill
T4C2.300
; #@! TA.AperFunction,Plated,PTH,ComponentDrill
T5C3.100
%
G90
G05
T1
X93.4Y-109.18
X93.4Y-111.42
X95.7Y-110.5
X97.95Y-88.0
X97.95Y-101.5
X97.95Y-103.5
X98.3Y-108.6
X98.3Y-112.0
X99.102Y-107.984
X100.83Y-98.05
X102.172Y-101.21
X102.707Y-110.423
X103.08Y-100.1
X103.349Y-102.8
X103.84Y-101.645
X103.85Y-98.63
X104.6Y-90.68
X104.6Y-92.92
X105.32Y-100.1
X105.42Y-109.626
X105.693Y-102.567
X105.693Y-105.107
X105.693Y-106.387
X105.693Y-107.647
X105.93Y-91.85
X106.94Y-104.07
X108.72Y-102.685
X109.726Y-86.399
X110.0Y-81.85
X110.07Y-91.85
X111.307Y-110.423
X111.68Y-100.1
X111.812Y-77.5
X111.85Y-98.63
X112.589Y-101.696
X112.6Y-90.68
X112.6Y-92.92
X113.5Y-77.65
X113.92Y-100.1
X113.93Y-91.85
X114.293Y-102.567
X114.293Y-103.837
X115.41Y-111.901
X115.723Y-68.833
X116.298Y-111.952
X117.57Y-71.51
X117.922Y-68.316
X118.07Y-91.85
X119.85Y-92.23
X119.907Y-110.423
X120.28Y-100.1
X120.6Y-97.08
X120.6Y-99.32
X121.5Y-82.88
X121.85Y-123.6
X121.88Y-91.181
X121.93Y-98.15
X122.52Y-100.1
X122.893Y-102.567
X122.893Y-103.837
X122.893Y-105.107
X123.4Y-82.1
X123.773Y-111.77
X123.95Y-123.03
X124.364Y-112.288
X125.149Y-101.08
X125.323Y-110.243
X125.349Y-109.128
X125.6Y-85.9
X125.8Y-70.45
X125.8Y-73.55
X126.07Y-98.15
X126.1Y-76.88
X126.612Y-112.771
X126.85Y-77.58
X126.85Y-80.08
X127.5Y-82.88
X127.6Y-74.38
X127.6Y-76.62
X127.6Y-79.12
X127.6Y-81.62
X127.686Y-112.412
X127.85Y-92.23
X128.4Y-70.88
X128.4Y-73.12
X128.507Y-103.847
X128.507Y-110.433
X128.566Y-102.856
X128.6Y-97.08
X128.6Y-99.32
X128.878Y-105.947
X128.88Y-100.1
X129.338Y-75.327
X129.43Y-74.21
X129.744Y-106.173
X129.8Y-70.88
X129.8Y-73.12
X129.93Y-98.15
X130.38Y-84.4
X131.005Y-111.879
X131.12Y-100.1
X131.32Y-79.2
X131.493Y-102.577
X131.896Y-79.956
X132.274Y-75.585
X132.62Y-84.4
X132.8Y-80.67
X132.896Y-100.162
X133.0Y-77.0
X133.0Y-78.0
X133.0Y-79.0
X133.6Y-75.33
X133.714Y-83.42
X134.0Y-77.0
X134.0Y-78.0
X134.0Y-79.0
X134.07Y-98.15
X134.35Y-72.3
X134.451Y-80.593
X134.829Y-83.544
X135.0Y-70.88
X135.0Y-77.0
X135.0Y-78.0
X135.0Y-79.0
X135.12Y-84.4
X135.554Y-82.94
X135.6Y-75.33
X135.85Y-92.23
X136.08Y-83.65
X136.32Y-70.0
X136.4Y-75.63
X136.423Y-80.542
X136.6Y-97.08
X136.6Y-99.32
X136.68Y-78.0
X137.107Y-110.423
X137.35Y-102.2
X137.48Y-100.1
X137.62Y-84.4
X137.79Y-82.56
X137.93Y-98.15
X137.986Y-85.994
X138.358Y-74.422
X138.966Y-75.026
X139.06Y-77.333
X139.72Y-100.1
X140.0Y-70.88
X140.093Y-102.567
X140.093Y-103.837
X140.17Y-109.035
X140.4Y-74.38
X140.4Y-76.62
X140.4Y-79.38
X140.4Y-81.62
X141.12Y-70.0
X141.9Y-76.88
X142.07Y-98.15
X142.5Y-79.005
X142.635Y-109.035
X142.921Y-111.011
X143.25Y-105.2
X143.304Y-106.525
X143.626Y-80.702
X143.85Y-92.23
X144.25Y-77.57
X144.6Y-97.08
X144.6Y-99.32
X145.671Y-74.233
X145.707Y-103.847
X145.707Y-110.433
X145.93Y-98.15
X145.932Y-92.052
X146.08Y-100.1
X146.442Y-105.401
X148.32Y-100.1
X148.693Y-102.577
X148.9Y-69.27
X148.945Y-76.96
X150.07Y-98.15
X150.776Y-74.235
X151.149Y-112.785
X152.27Y-77.485
X153.1Y-69.27
X154.288Y-106.5
X154.307Y-110.423
X154.68Y-100.1
X155.9Y-69.27
X156.92Y-100.1
X157.177Y-112.2
X157.293Y-102.567
X157.293Y-103.837
X157.293Y-109.153
X160.1Y-69.27
X162.15Y-74.8
X162.25Y-77.43
X162.75Y-112.43
X164.65Y-74.85
X165.15Y-112.8
T3
X96.6Y-89.92
X96.6Y-92.46
X96.6Y-97.54
X96.6Y-102.62
X102.75Y-72.4
X102.75Y-75.6
X105.25Y-72.4
X105.25Y-75.6
T4
X97.98Y-74.9
X110.02Y-74.9
T2
X107.92Y-113.957G85X107.92Y-113.963
G05
X107.92Y-119.637G85X107.92Y-119.643
G05
X109.3Y-116.797G85X109.3Y-116.803
G05
X110.68Y-113.957G85X110.68Y-113.963
G05
X110.68Y-119.637G85X110.68Y-119.643
G05
X112.06Y-116.797G85X112.06Y-116.803
G05
X113.44Y-113.957G85X113.44Y-113.963
G05
X113.44Y-119.637G85X113.44Y-119.643
G05
X114.82Y-116.797G85X114.82Y-116.803
G05
X116.2Y-113.957G85X116.2Y-113.963
G05
X116.2Y-119.637G85X116.2Y-119.643
G05
X117.58Y-116.797G85X117.58Y-116.803
G05
X118.96Y-113.957G85X118.96Y-113.963
G05
X118.96Y-119.637G85X118.96Y-119.643
G05
X120.34Y-116.797G85X120.34Y-116.803
G05
X121.72Y-113.957G85X121.72Y-113.963
G05
X121.72Y-119.637G85X121.72Y-119.643
G05
X123.1Y-116.797G85X123.1Y-116.803
G05
X124.48Y-113.957G85X124.48Y-113.963
G05
X124.48Y-119.637G85X124.48Y-119.643
G05
X125.86Y-116.797G85X125.86Y-116.803
G05
X127.24Y-113.957G85X127.24Y-113.963
G05
X127.24Y-119.637G85X127.24Y-119.643
G05
X128.62Y-116.797G85X128.62Y-116.803
G05
X130.0Y-113.957G85X130.0Y-113.963
G05
X130.0Y-119.637G85X130.0Y-119.643
G05
X131.38Y-116.797G85X131.38Y-116.803
G05
X132.76Y-113.957G85X132.76Y-113.963
G05
X132.76Y-119.637G85X132.76Y-119.643
G05
X134.14Y-116.797G85X134.14Y-116.803
G05
X135.52Y-113.957G85X135.52Y-113.963
G05
X135.52Y-119.637G85X135.52Y-119.643
G05
X136.9Y-116.797G85X136.9Y-116.803
G05
X138.28Y-113.957G85X138.28Y-113.963
G05
X138.28Y-119.637G85X138.28Y-119.643
G05
X139.66Y-116.797G85X139.66Y-116.803
G05
X141.04Y-113.957G85X141.04Y-113.963
G05
X141.04Y-119.637G85X141.04Y-119.643
G05
X142.42Y-116.797G85X142.42Y-116.803
G05
X143.8Y-113.957G85X143.8Y-113.963
G05
X143.8Y-119.637G85X143.8Y-119.643
G05
X145.18Y-116.797G85X145.18Y-116.803
G05
X146.56Y-113.957G85X146.56Y-113.963
G05
X146.56Y-119.637G85X146.56Y-119.643
G05
X147.94Y-116.797G85X147.94Y-116.803
G05
X149.32Y-113.957G85X149.32Y-113.963
G05
X149.32Y-119.637G85X149.32Y-119.643
G05
X150.7Y-116.797G85X150.7Y-116.803
G05
X152.08Y-113.957G85X152.08Y-113.963
G05
X152.08Y-119.637G85X152.08Y-119.643
G05
T5
X99.45Y-116.8G85X99.45Y-116.8
G05
X160.55Y-116.8G85X160.55Y-116.8
G05
M30
