%TF.GenerationSoftware,KiCad,Pcbnew,10.0.6-10.0.6~ubuntu24.04.1*%
%TF.CreationDate,2026-10-07T19:03:20+00:00*%
%TF.ProjectId,solartron_7075_usb,736f6c61-7274-4726-9f6e-5f373037355f,A*%
%TF.SameCoordinates,Original*%
%TF.FileFunction,Legend,Bot*%
%TF.FilePolarity,Positive*%
%FSLAX46Y46*%
G04 Gerber Fmt 4.6, Leading zero omitted, Abs format (unit mm)*
G04 Created by KiCad (PCBNEW 10.0.6-10.0.6~ubuntu24.04.1) date 2026-10-07 19:03:20*
%MOMM*%
%LPD*%
G01*
G04 APERTURE LIST*
%ADD10C,0.150000*%
%ADD11C,0.250000*%
%ADD12C,0.400000*%
%ADD13R,1.800000X1.800000*%
%ADD14C,1.800000*%
%ADD15C,3.000000*%
%ADD16C,0.990600*%
%ADD17R,1.520000X1.520000*%
%ADD18C,1.520000*%
%ADD19R,1.300000X1.300000*%
%ADD20C,1.300000*%
%ADD21C,4.120000*%
G04 APERTURE END LIST*
D10*
X98869160Y-117154580D02*
X98916779Y-117202200D01*
X98916779Y-117202200D02*
X99059636Y-117249819D01*
X99059636Y-117249819D02*
X99154874Y-117249819D01*
X99154874Y-117249819D02*
X99297731Y-117202200D01*
X99297731Y-117202200D02*
X99392969Y-117106961D01*
X99392969Y-117106961D02*
X99440588Y-117011723D01*
X99440588Y-117011723D02*
X99488207Y-116821247D01*
X99488207Y-116821247D02*
X99488207Y-116678390D01*
X99488207Y-116678390D02*
X99440588Y-116487914D01*
X99440588Y-116487914D02*
X99392969Y-116392676D01*
X99392969Y-116392676D02*
X99297731Y-116297438D01*
X99297731Y-116297438D02*
X99154874Y-116249819D01*
X99154874Y-116249819D02*
X99059636Y-116249819D01*
X99059636Y-116249819D02*
X98916779Y-116297438D01*
X98916779Y-116297438D02*
X98869160Y-116345057D01*
X98440588Y-117249819D02*
X98440588Y-116249819D01*
X98440588Y-116249819D02*
X97869160Y-117249819D01*
X97869160Y-117249819D02*
X97869160Y-116249819D01*
X96869160Y-117249819D02*
X97440588Y-117249819D01*
X97154874Y-117249819D02*
X97154874Y-116249819D01*
X97154874Y-116249819D02*
X97250112Y-116392676D01*
X97250112Y-116392676D02*
X97345350Y-116487914D01*
X97345350Y-116487914D02*
X97440588Y-116535533D01*
%TO.C,CN1*%
D11*
X96680000Y-109300000D02*
X96680000Y-124290000D01*
X96680000Y-124290000D02*
X163330000Y-124290000D01*
X103720000Y-120730000D02*
X105370000Y-112480000D01*
X106640000Y-111340000D02*
X130130000Y-111340000D01*
X130130000Y-111340000D02*
X150450000Y-111340000D01*
X130130000Y-122260000D02*
X105240000Y-122260000D01*
X150450000Y-111340000D02*
X153500000Y-111340000D01*
X152860000Y-122260000D02*
X130130000Y-122260000D01*
X154130000Y-122260000D02*
X154770000Y-122260000D01*
X154260000Y-122260000D02*
X152860000Y-122260000D01*
X156290000Y-120730000D02*
X154900000Y-112610000D01*
X163330000Y-109300000D02*
X96680000Y-109300000D01*
X163330000Y-124290000D02*
X163330000Y-109300000D01*
X105240081Y-122260033D02*
G75*
G02*
X103720000Y-120730000I-81J1520033D01*
G01*
X105370000Y-112610000D02*
G75*
G02*
X106640000Y-111340000I1269999J1D01*
G01*
X153500000Y-111340000D02*
G75*
G02*
X154899964Y-112729982I0J-1400000D01*
G01*
X156290000Y-120730000D02*
G75*
G02*
X154769919Y-122260033I-1520000J-10000D01*
G01*
D12*
X106450000Y-125560000D02*
G75*
G02*
X106050000Y-125560000I-200000J0D01*
G01*
X106050000Y-125560000D02*
G75*
G02*
X106450000Y-125560000I200000J0D01*
G01*
%TD*%
%LPC*%
D13*
%TO.C,U19*%
X105250000Y-72400000D03*
D14*
X102750000Y-72400000D03*
X102750000Y-75600000D03*
X105250000Y-75600000D03*
D15*
X97980000Y-74900000D03*
X110020000Y-74900000D03*
%TD*%
D16*
%TO.C,J1*%
X148460000Y-76000000D03*
X153540000Y-74984000D03*
X153540000Y-77016000D03*
%TD*%
D17*
%TO.C,U2*%
X96600000Y-89920000D03*
D18*
X96600000Y-92460000D03*
X96600000Y-97540000D03*
X96600000Y-102620000D03*
%TD*%
D19*
%TO.C,CN1*%
X107920000Y-119640000D03*
D20*
X110680000Y-119640000D03*
X113440000Y-119640000D03*
X116200000Y-119640000D03*
X118960000Y-119640000D03*
X121720000Y-119640000D03*
X124480000Y-119640000D03*
X127240000Y-119640000D03*
X130000000Y-119640000D03*
X132760000Y-119640000D03*
X135520000Y-119640000D03*
X138280000Y-119640000D03*
X141040000Y-119640000D03*
X143800000Y-119640000D03*
X146560000Y-119640000D03*
X149320000Y-119640000D03*
X152080000Y-119640000D03*
X109300000Y-116800000D03*
X112060000Y-116800000D03*
X114820000Y-116800000D03*
X117580000Y-116800000D03*
X120340000Y-116800000D03*
X123100000Y-116800000D03*
X125860000Y-116800000D03*
X128620000Y-116800000D03*
X131380000Y-116800000D03*
X134140000Y-116800000D03*
X136900000Y-116800000D03*
X139660000Y-116800000D03*
X142420000Y-116800000D03*
X145180000Y-116800000D03*
X147940000Y-116800000D03*
X150700000Y-116800000D03*
X107920000Y-113960000D03*
X110680000Y-113960000D03*
X113440000Y-113960000D03*
X116200000Y-113960000D03*
X118960000Y-113960000D03*
X121720000Y-113960000D03*
X124480000Y-113960000D03*
X127240000Y-113960000D03*
X130000000Y-113960000D03*
X132760000Y-113960000D03*
X135520000Y-113960000D03*
X138280000Y-113960000D03*
X141040000Y-113960000D03*
X143800000Y-113960000D03*
X146560000Y-113960000D03*
X149320000Y-113960000D03*
X152080000Y-113960000D03*
D21*
X99450000Y-116800000D03*
X160550000Y-116800000D03*
%TD*%
%LPD*%
M02*
