M48
; DRILL file KiCad 10.0.6-10.0.6~ubuntu24.04.1 date 2026-10-07T21:05:06
; FORMAT={-:-/ absolute / metric / decimal}
; #@! TF.CreationDate,2026-10-07T21:05:06+00:00
; #@! TF.GenerationSoftware,Kicad,Pcbnew,10.0.6-10.0.6~ubuntu24.04.1
; #@! TF.FileFunction,Plated,1,2,PTH
FMAT,2
METRIC
; #@! TA.AperFunction,Plated,PTH,ViaDrill
T1C0.300
; #@! TA.AperFunction,Plated,PTH,ComponentDrill
T2C0.790
; #@! TA.AperFunction,Plated,PTH,ComponentDrill
T3C1.000
; #@! TA.AperFunction,Plated,PTH,ComponentDrill
T4C2.300
; #@! TA.AperFunction,Plated,PTH,ComponentDrill
T5C3.100
%
G90
G05
T1
X117.57Y-71.51
X117.922Y-68.316
T3
X96.6Y-89.92
X96.6Y-92.46
X96.6Y-97.54
X96.6Y-102.62
X102.75Y-72.4
X102.75Y-75.6
X105.25Y-72.4
X105.25Y-75.6
T4
X97.98Y-74.9
X110.02Y-74.9
T2
X107.92Y-113.957G85X107.92Y-113.963
G05
X107.92Y-119.637G85X107.92Y-119.643
G05
X109.3Y-116.797G85X109.3Y-116.803
G05
X110.68Y-113.957G85X110.68Y-113.963
G05
X110.68Y-119.637G85X110.68Y-119.643
G05
X112.06Y-116.797G85X112.06Y-116.803
G05
X113.44Y-113.957G85X113.44Y-113.963
G05
X113.44Y-119.637G85X113.44Y-119.643
G05
X114.82Y-116.797G85X114.82Y-116.803
G05
X116.2Y-113.957G85X116.2Y-113.963
G05
X116.2Y-119.637G85X116.2Y-119.643
G05
X117.58Y-116.797G85X117.58Y-116.803
G05
X118.96Y-113.957G85X118.96Y-113.963
G05
X118.96Y-119.637G85X118.96Y-119.643
G05
X120.34Y-116.797G85X120.34Y-116.803
G05
X121.72Y-113.957G85X121.72Y-113.963
G05
X121.72Y-119.637G85X121.72Y-119.643
G05
X123.1Y-116.797G85X123.1Y-116.803
G05
X124.48Y-113.957G85X124.48Y-113.963
G05
X124.48Y-119.637G85X124.48Y-119.643
G05
X125.86Y-116.797G85X125.86Y-116.803
G05
X127.24Y-113.957G85X127.24Y-113.963
G05
X127.24Y-119.637G85X127.24Y-119.643
G05
X128.62Y-116.797G85X128.62Y-116.803
G05
X130.0Y-113.957G85X130.0Y-113.963
G05
X130.0Y-119.637G85X130.0Y-119.643
G05
X131.38Y-116.797G85X131.38Y-116.803
G05
X132.76Y-113.957G85X132.76Y-113.963
G05
X132.76Y-119.637G85X132.76Y-119.643
G05
X134.14Y-116.797G85X134.14Y-116.803
G05
X135.52Y-113.957G85X135.52Y-113.963
G05
X135.52Y-119.637G85X135.52Y-119.643
G05
X136.9Y-116.797G85X136.9Y-116.803
G05
X138.28Y-113.957G85X138.28Y-113.963
G05
X138.28Y-119.637G85X138.28Y-119.643
G05
X139.66Y-116.797G85X139.66Y-116.803
G05
X141.04Y-113.957G85X141.04Y-113.963
G05
X141.04Y-119.637G85X141.04Y-119.643
G05
X142.42Y-116.797G85X142.42Y-116.803
G05
X143.8Y-113.957G85X143.8Y-113.963
G05
X143.8Y-119.637G85X143.8Y-119.643
G05
X145.18Y-116.797G85X145.18Y-116.803
G05
X146.56Y-113.957G85X146.56Y-113.963
G05
X146.56Y-119.637G85X146.56Y-119.643
G05
X147.94Y-116.797G85X147.94Y-116.803
G05
X149.32Y-113.957G85X149.32Y-113.963
G05
X149.32Y-119.637G85X149.32Y-119.643
G05
X150.7Y-116.797G85X150.7Y-116.803
G05
X152.08Y-113.957G85X152.08Y-113.963
G05
X152.08Y-119.637G85X152.08Y-119.643
G05
T5
X99.45Y-116.8G85X99.45Y-116.8
G05
X160.55Y-116.8G85X160.55Y-116.8
G05
M30
