%TF.GenerationSoftware,KiCad,Pcbnew,10.0.6-10.0.6~ubuntu24.04.1*%
%TF.CreationDate,2026-10-09T01:50:29+00:00*%
%TF.ProjectId,solartron_7075_usb,736f6c61-7274-4726-9f6e-5f373037355f,A*%
%TF.SameCoordinates,Original*%
%TF.FileFunction,Copper,L3,Inr*%
%TF.FilePolarity,Positive*%
%FSLAX46Y46*%
G04 Gerber Fmt 4.6, Leading zero omitted, Abs format (unit mm)*
G04 Created by KiCad (PCBNEW 10.0.6-10.0.6~ubuntu24.04.1) date 2026-10-09 01:50:29*
%MOMM*%
%LPD*%
G01*
G04 APERTURE LIST*
%TA.AperFunction,ComponentPad*%
%ADD10R,1.800000X1.800000*%
%TD*%
%TA.AperFunction,ComponentPad*%
%ADD11C,1.800000*%
%TD*%
%TA.AperFunction,ComponentPad*%
%ADD12C,3.000000*%
%TD*%
%TA.AperFunction,ComponentPad*%
%ADD13R,1.520000X1.520000*%
%TD*%
%TA.AperFunction,ComponentPad*%
%ADD14C,1.520000*%
%TD*%
%TA.AperFunction,ComponentPad*%
%ADD15R,1.300000X1.300000*%
%TD*%
%TA.AperFunction,ComponentPad*%
%ADD16C,1.300000*%
%TD*%
%TA.AperFunction,ComponentPad*%
%ADD17C,4.120000*%
%TD*%
%TA.AperFunction,ViaPad*%
%ADD18C,0.600000*%
%TD*%
G04 APERTURE END LIST*
D10*
%TO.N,VBUS*%
%TO.C,U19*%
X105250000Y-72400000D03*
D11*
%TO.N,DATA_N*%
X102750000Y-72400000D03*
%TO.N,DATA_P*%
X102750000Y-75600000D03*
%TO.N,GND*%
X105250000Y-75600000D03*
D12*
X97980000Y-74900000D03*
X110020000Y-74900000D03*
%TD*%
D13*
%TO.N,+5V*%
%TO.C,U2*%
X96600000Y-89920000D03*
D14*
%TO.N,GND*%
X96600000Y-92460000D03*
%TO.N,GND_ISO*%
X96600000Y-97540000D03*
%TO.N,+5V_ISO*%
X96600000Y-102620000D03*
%TD*%
D15*
%TO.N,SKB01_D6_1*%
%TO.C,CN1*%
X107920000Y-119640000D03*
D16*
%TO.N,SKB02_D5_8*%
X110680000Y-119640000D03*
%TO.N,SKB03_D5_4*%
X113440000Y-119640000D03*
%TO.N,SKB04_D5_2*%
X116200000Y-119640000D03*
%TO.N,SKB05_D5_1*%
X118960000Y-119640000D03*
%TO.N,SKB06_D4_8*%
X121720000Y-119640000D03*
%TO.N,SKB07_D4_4*%
X124480000Y-119640000D03*
%TO.N,SKB08_D4_2*%
X127240000Y-119640000D03*
%TO.N,SKB09_D4_1*%
X130000000Y-119640000D03*
%TO.N,SKB10_D3_8*%
X132760000Y-119640000D03*
%TO.N,SKB11_D3_4*%
X135520000Y-119640000D03*
%TO.N,SKB12_D3_2*%
X138280000Y-119640000D03*
%TO.N,SKB13_D3_1*%
X141040000Y-119640000D03*
%TO.N,SKB14_D2_8*%
X143800000Y-119640000D03*
%TO.N,SKB15_D2_4*%
X146560000Y-119640000D03*
%TO.N,SKB16_D2_2*%
X149320000Y-119640000D03*
%TO.N,SKB17_D2_1*%
X152080000Y-119640000D03*
%TO.N,SKB18_D1_8*%
X109300000Y-116800000D03*
%TO.N,SKB19_D1_4*%
X112060000Y-116800000D03*
%TO.N,SKB20_D1_2*%
X114820000Y-116800000D03*
%TO.N,SKB21_D1_1*%
X117580000Y-116800000D03*
%TO.N,SKB22_D0_8*%
X120340000Y-116800000D03*
%TO.N,SKB23_D0_4*%
X123100000Y-116800000D03*
%TO.N,SKB24_D0_2*%
X125860000Y-116800000D03*
%TO.N,SKB25_D0_1*%
X128620000Y-116800000D03*
%TO.N,SKB26_POL_POS*%
X131380000Y-116800000D03*
%TO.N,SKB27_POL_NEG*%
X134140000Y-116800000D03*
%TO.N,SKB28_FUNC_OUT_A*%
X136900000Y-116800000D03*
%TO.N,SKB29_FUNC_OUT_B*%
X139660000Y-116800000D03*
%TO.N,SKB30_RANGE_OUT_4*%
X142420000Y-116800000D03*
%TO.N,SKB31_RANGE_OUT_2*%
X145180000Y-116800000D03*
%TO.N,SKB32_RANGE_OUT_1*%
X147940000Y-116800000D03*
%TO.N,SKB33_PRINT_PULSE*%
X150700000Y-116800000D03*
%TO.N,SKB34_PRINT_LEVEL*%
X107920000Y-113960000D03*
%TO.N,SKB35_DATA_CAN_CHANGE*%
X110680000Y-113960000D03*
%TO.N,SKB36_OVERLOAD*%
X113440000Y-113960000D03*
%TO.N,GND_ISO*%
X116200000Y-113960000D03*
%TO.N,SKB38_LOCKOUT*%
X118960000Y-113960000D03*
%TO.N,SKB39_SAMPLE_CONTACT*%
X121720000Y-113960000D03*
%TO.N,SKB40_SAMPLE_PULSE*%
X124480000Y-113960000D03*
%TO.N,SKB41_RATIO*%
X127240000Y-113960000D03*
%TO.N,SKB42_FUNC_CMD_A*%
X130000000Y-113960000D03*
%TO.N,SKB43_FUNC_CMD_B*%
X132760000Y-113960000D03*
%TO.N,SKB44_INT_TIME_4*%
X135520000Y-113960000D03*
%TO.N,SKB45_INT_TIME_2*%
X138280000Y-113960000D03*
%TO.N,SKB46_INT_TIME_1*%
X141040000Y-113960000D03*
%TO.N,SKB47_AUTORANGE*%
X143800000Y-113960000D03*
%TO.N,SKB48_RANGE_CMD_1*%
X146560000Y-113960000D03*
%TO.N,SKB49_RANGE_CMD_2*%
X149320000Y-113960000D03*
%TO.N,SKB50_RANGE_CMD_4*%
X152080000Y-113960000D03*
D17*
%TO.N,GND_ISO*%
X99450000Y-116800000D03*
X160550000Y-116800000D03*
%TD*%
D18*
%TO.N,+5V_ISO*%
X144600000Y-99320000D03*
X128880000Y-100100000D03*
X120600000Y-99320000D03*
X157292763Y-102566623D03*
X100830000Y-98050000D03*
X134070000Y-98150000D03*
X126070000Y-98150000D03*
X150070000Y-98150000D03*
X136600000Y-99320000D03*
X128507237Y-103846623D03*
X103850000Y-98630000D03*
X140092763Y-102566623D03*
X105692763Y-106386623D03*
X111680000Y-100100000D03*
X120280000Y-100100000D03*
X105692763Y-102566623D03*
X93400000Y-111420000D03*
X146080000Y-100100000D03*
X128600000Y-99320000D03*
X142070000Y-98150000D03*
X95700000Y-110500000D03*
X111850000Y-98630000D03*
X154680000Y-100100000D03*
X103080000Y-100100000D03*
X137480000Y-100100000D03*
X122892763Y-102566623D03*
X162750000Y-112430000D03*
X145707237Y-103846623D03*
X114292763Y-102566623D03*
X122892763Y-105106623D03*
X97950000Y-103500000D03*
X145707237Y-110433377D03*
X128507237Y-110433377D03*
%TO.N,GND_ISO*%
X123950000Y-123030000D03*
X122520000Y-100100000D03*
X119907237Y-110423377D03*
X128600000Y-97080000D03*
X93400000Y-109180000D03*
X129930000Y-98150000D03*
X120600000Y-97080000D03*
X98300000Y-108600000D03*
X98300000Y-112000000D03*
X144600000Y-97080000D03*
X148320000Y-100100000D03*
X106940000Y-104070000D03*
X122892763Y-103836623D03*
X137930000Y-98150000D03*
X114292763Y-103836623D03*
X136600000Y-97080000D03*
X165150000Y-112800000D03*
X148692763Y-102576623D03*
X131120000Y-100100000D03*
X140092763Y-103836623D03*
X121850000Y-123600000D03*
X102707237Y-110423377D03*
X157292763Y-109153377D03*
X111307237Y-110423377D03*
X121930000Y-98150000D03*
X139720000Y-100100000D03*
X145930000Y-98150000D03*
X157292763Y-103836623D03*
X105692763Y-105106623D03*
X137107237Y-110423377D03*
X131492763Y-102576623D03*
X97950000Y-101500000D03*
X154307237Y-110423377D03*
X105692763Y-107646623D03*
X105320000Y-100100000D03*
X113920000Y-100100000D03*
X156920000Y-100100000D03*
%TO.N,+3V3*%
X137789950Y-82559949D03*
X144250000Y-77570000D03*
X113930000Y-91850000D03*
X133600000Y-75330000D03*
X119850000Y-92230000D03*
X112600000Y-92920000D03*
X136080000Y-83650000D03*
X136320000Y-70000000D03*
X104600000Y-92920000D03*
X131320000Y-79200000D03*
X127600000Y-79120000D03*
X130380000Y-84400000D03*
X127600000Y-81620000D03*
X135850000Y-92230000D03*
X138357817Y-74422182D03*
X136680000Y-78000000D03*
X132800000Y-80670000D03*
X135600000Y-75330000D03*
X115722763Y-68833377D03*
X129800000Y-73120000D03*
X138965819Y-75025975D03*
X143850000Y-92230000D03*
X129430050Y-74210050D03*
X127600000Y-76620000D03*
X128400000Y-73120000D03*
X134350000Y-72300000D03*
X140400000Y-76620000D03*
X162250000Y-77430000D03*
X105930000Y-91850000D03*
X125800000Y-73550000D03*
X127850000Y-92230000D03*
X140400000Y-81620000D03*
X148944702Y-76960281D03*
%TO.N,GND*%
X135000000Y-78000000D03*
X164650000Y-74850000D03*
X152270000Y-77485000D03*
X140000000Y-70880000D03*
X134000000Y-77000000D03*
X160100000Y-69270000D03*
X125800000Y-70450000D03*
X162150000Y-74800000D03*
X128400000Y-70880000D03*
X118070000Y-91850000D03*
X137620000Y-84400000D03*
X126850000Y-80080000D03*
X126850000Y-77580000D03*
X127600000Y-74380000D03*
X127500000Y-82880000D03*
X123400000Y-82100000D03*
X135000000Y-79000000D03*
X97950000Y-88000000D03*
X126100000Y-76880000D03*
X140400000Y-79380000D03*
X104600000Y-90680000D03*
X153100000Y-69270000D03*
X155900000Y-69270000D03*
X112600000Y-90680000D03*
X117570000Y-71510000D03*
X148900000Y-69270000D03*
X134000000Y-78000000D03*
X133000000Y-79000000D03*
X136400000Y-75630000D03*
X133000000Y-78000000D03*
X135000000Y-70880000D03*
X135120000Y-84400000D03*
X113500000Y-77650000D03*
X133000000Y-77000000D03*
X110000000Y-81850000D03*
X110070000Y-91850000D03*
X140400000Y-74380000D03*
X125600000Y-85900000D03*
X121500000Y-82880000D03*
X129800000Y-70880000D03*
X117921543Y-68316211D03*
X134000000Y-79000000D03*
X135000000Y-77000000D03*
X141120000Y-70000000D03*
X132620000Y-84400000D03*
X141900000Y-76880000D03*
%TO.N,SCK*%
X145931600Y-92051700D03*
X137985800Y-85993900D03*
%TO.N,SCK_ISO*%
X108720300Y-102685000D03*
X146442400Y-105401500D03*
X103349000Y-102799600D03*
X128877800Y-105946800D03*
%TO.N,+1V1*%
X139060000Y-77333000D03*
X133714100Y-83420000D03*
X129337600Y-75326900D03*
%TO.N,CLK*%
X150776200Y-74235300D03*
X134451200Y-80593200D03*
%TO.N,DIO*%
X134829400Y-83543700D03*
X142500100Y-79005400D03*
%TO.N,N_RESET*%
X143626100Y-80702400D03*
X135554400Y-82939700D03*
%TO.N,LATCH*%
X136422600Y-80541900D03*
X121880400Y-91181100D03*
%TO.N,DRDY*%
X131895600Y-79956500D03*
X109726000Y-86399500D03*
%TO.N,QSPI_SS*%
X132274100Y-75585000D03*
X145671100Y-74232700D03*
%TO.N,LATCH_ISO*%
X143250000Y-105200000D03*
X137350000Y-102200000D03*
X103840000Y-101644700D03*
X112588800Y-101696400D03*
%TO.N,SI_CHAIN_1*%
X105419700Y-109625600D03*
X116298400Y-111951900D03*
%TO.N,SI_CHAIN_2*%
X115409700Y-111901000D03*
X124364100Y-112288300D03*
%TO.N,MOSI_ISO*%
X132896400Y-100162200D03*
X125149300Y-101079600D03*
%TO.N,SKB50_RANGE_CMD_4*%
X151148700Y-112784700D03*
%TO.N,OE_N_ISO*%
X102172400Y-101209600D03*
X129743700Y-106172700D03*
%TO.N,SO_CHAIN_1*%
X143304100Y-106525200D03*
X128566500Y-102856500D03*
%TO.N,SKB45_INT_TIME_2*%
X142635300Y-109035000D03*
%TO.N,SI_CHAIN_3*%
X125349000Y-109128100D03*
X140170200Y-109035000D03*
%TO.N,SI_CHAIN_4*%
X157177300Y-112199800D03*
X142921000Y-111010700D03*
%TO.N,VBUS*%
X111812100Y-77500000D03*
%TO.N,SKB02_D5_8*%
X99101700Y-107984300D03*
%TO.N,SKB31_RANGE_OUT_2*%
X154287900Y-106500000D03*
%TO.N,SKB44_INT_TIME_4*%
X131005000Y-111879100D03*
%TO.N,SKB40_SAMPLE_PULSE*%
X127686400Y-112412300D03*
%TO.N,SKB38_LOCKOUT*%
X126611600Y-112771000D03*
%TO.N,SKB25_D0_1*%
X125323000Y-110243400D03*
%TO.N,SKB09_D4_1*%
X123772700Y-111770500D03*
%TD*%
%TA.AperFunction,Conductor*%
%TO.N,+5V_ISO*%
G36*
X95627247Y-96918907D02*
G01*
X95663211Y-96968407D01*
X95663211Y-97029593D01*
X95660520Y-97036885D01*
X95580255Y-97230662D01*
X95580255Y-97230664D01*
X95539500Y-97435547D01*
X95539500Y-97644452D01*
X95580255Y-97849335D01*
X95580255Y-97849337D01*
X95660194Y-98042330D01*
X95660200Y-98042342D01*
X95743193Y-98166547D01*
X95776256Y-98216029D01*
X95923971Y-98363744D01*
X95998023Y-98413224D01*
X96097657Y-98479799D01*
X96097669Y-98479805D01*
X96168962Y-98509335D01*
X96290664Y-98559745D01*
X96495550Y-98600500D01*
X96495551Y-98600500D01*
X96704449Y-98600500D01*
X96704450Y-98600500D01*
X96909336Y-98559745D01*
X97102335Y-98479803D01*
X97102337Y-98479801D01*
X97102342Y-98479799D01*
X97152495Y-98446286D01*
X97276029Y-98363744D01*
X97423744Y-98216029D01*
X97520688Y-98070943D01*
X121329500Y-98070943D01*
X121329500Y-98229057D01*
X121370423Y-98381784D01*
X121449480Y-98518716D01*
X121561284Y-98630520D01*
X121698216Y-98709577D01*
X121850943Y-98750500D01*
X121850945Y-98750500D01*
X122009055Y-98750500D01*
X122009057Y-98750500D01*
X122161784Y-98709577D01*
X122298716Y-98630520D01*
X122410520Y-98518716D01*
X122489577Y-98381784D01*
X122530500Y-98229057D01*
X122530500Y-98070943D01*
X129329500Y-98070943D01*
X129329500Y-98229057D01*
X129370423Y-98381784D01*
X129449480Y-98518716D01*
X129561284Y-98630520D01*
X129698216Y-98709577D01*
X129850943Y-98750500D01*
X129850945Y-98750500D01*
X130009055Y-98750500D01*
X130009057Y-98750500D01*
X130161784Y-98709577D01*
X130298716Y-98630520D01*
X130410520Y-98518716D01*
X130489577Y-98381784D01*
X130530500Y-98229057D01*
X130530500Y-98070943D01*
X137329500Y-98070943D01*
X137329500Y-98229057D01*
X137370423Y-98381784D01*
X137449480Y-98518716D01*
X137561284Y-98630520D01*
X137698216Y-98709577D01*
X137850943Y-98750500D01*
X137850945Y-98750500D01*
X138009055Y-98750500D01*
X138009057Y-98750500D01*
X138161784Y-98709577D01*
X138298716Y-98630520D01*
X138410520Y-98518716D01*
X138489577Y-98381784D01*
X138530500Y-98229057D01*
X138530500Y-98070943D01*
X145329500Y-98070943D01*
X145329500Y-98229057D01*
X145370423Y-98381784D01*
X145449480Y-98518716D01*
X145561284Y-98630520D01*
X145698216Y-98709577D01*
X145850943Y-98750500D01*
X145850945Y-98750500D01*
X146009055Y-98750500D01*
X146009057Y-98750500D01*
X146161784Y-98709577D01*
X146298716Y-98630520D01*
X146410520Y-98518716D01*
X146489577Y-98381784D01*
X146530500Y-98229057D01*
X146530500Y-98070943D01*
X146489577Y-97918216D01*
X146410520Y-97781284D01*
X146298716Y-97669480D01*
X146161784Y-97590423D01*
X146009057Y-97549500D01*
X145850943Y-97549500D01*
X145698216Y-97590423D01*
X145561284Y-97669480D01*
X145449480Y-97781284D01*
X145370423Y-97918216D01*
X145329500Y-98070943D01*
X138530500Y-98070943D01*
X138489577Y-97918216D01*
X138410520Y-97781284D01*
X138298716Y-97669480D01*
X138161784Y-97590423D01*
X138009057Y-97549500D01*
X137850943Y-97549500D01*
X137698216Y-97590423D01*
X137561284Y-97669480D01*
X137449480Y-97781284D01*
X137370423Y-97918216D01*
X137329500Y-98070943D01*
X130530500Y-98070943D01*
X130489577Y-97918216D01*
X130410520Y-97781284D01*
X130298716Y-97669480D01*
X130161784Y-97590423D01*
X130009057Y-97549500D01*
X129850943Y-97549500D01*
X129698216Y-97590423D01*
X129561284Y-97669480D01*
X129449480Y-97781284D01*
X129370423Y-97918216D01*
X129329500Y-98070943D01*
X122530500Y-98070943D01*
X122489577Y-97918216D01*
X122410520Y-97781284D01*
X122298716Y-97669480D01*
X122161784Y-97590423D01*
X122009057Y-97549500D01*
X121850943Y-97549500D01*
X121698216Y-97590423D01*
X121561284Y-97669480D01*
X121449480Y-97781284D01*
X121370423Y-97918216D01*
X121329500Y-98070943D01*
X97520688Y-98070943D01*
X97539799Y-98042342D01*
X97539800Y-98042338D01*
X97539803Y-98042335D01*
X97619745Y-97849336D01*
X97660500Y-97644450D01*
X97660500Y-97435550D01*
X97619745Y-97230664D01*
X97539803Y-97037665D01*
X97539480Y-97036885D01*
X97534679Y-96975889D01*
X97566649Y-96923720D01*
X97623177Y-96900305D01*
X97630944Y-96900000D01*
X119900500Y-96900000D01*
X119958691Y-96918907D01*
X119994655Y-96968407D01*
X119999500Y-96999000D01*
X119999500Y-97000943D01*
X119999500Y-97159057D01*
X120040423Y-97311784D01*
X120119480Y-97448716D01*
X120231284Y-97560520D01*
X120368216Y-97639577D01*
X120520943Y-97680500D01*
X120520945Y-97680500D01*
X120679055Y-97680500D01*
X120679057Y-97680500D01*
X120831784Y-97639577D01*
X120968716Y-97560520D01*
X121080520Y-97448716D01*
X121159577Y-97311784D01*
X121200500Y-97159057D01*
X121200500Y-97000943D01*
X121200500Y-96999000D01*
X121219407Y-96940809D01*
X121268907Y-96904845D01*
X121299500Y-96900000D01*
X127900500Y-96900000D01*
X127958691Y-96918907D01*
X127994655Y-96968407D01*
X127999500Y-96999000D01*
X127999500Y-97000943D01*
X127999500Y-97159057D01*
X128040423Y-97311784D01*
X128119480Y-97448716D01*
X128231284Y-97560520D01*
X128368216Y-97639577D01*
X128520943Y-97680500D01*
X128520945Y-97680500D01*
X128679055Y-97680500D01*
X128679057Y-97680500D01*
X128831784Y-97639577D01*
X128968716Y-97560520D01*
X129080520Y-97448716D01*
X129159577Y-97311784D01*
X129200500Y-97159057D01*
X129200500Y-97000943D01*
X129200500Y-96999000D01*
X129219407Y-96940809D01*
X129268907Y-96904845D01*
X129299500Y-96900000D01*
X135900500Y-96900000D01*
X135958691Y-96918907D01*
X135994655Y-96968407D01*
X135999500Y-96999000D01*
X135999500Y-97000943D01*
X135999500Y-97159057D01*
X136040423Y-97311784D01*
X136119480Y-97448716D01*
X136231284Y-97560520D01*
X136368216Y-97639577D01*
X136520943Y-97680500D01*
X136520945Y-97680500D01*
X136679055Y-97680500D01*
X136679057Y-97680500D01*
X136831784Y-97639577D01*
X136968716Y-97560520D01*
X137080520Y-97448716D01*
X137159577Y-97311784D01*
X137200500Y-97159057D01*
X137200500Y-97000943D01*
X137200500Y-96999000D01*
X137219407Y-96940809D01*
X137268907Y-96904845D01*
X137299500Y-96900000D01*
X143900500Y-96900000D01*
X143958691Y-96918907D01*
X143994655Y-96968407D01*
X143999500Y-96999000D01*
X143999500Y-97000943D01*
X143999500Y-97159057D01*
X144040423Y-97311784D01*
X144119480Y-97448716D01*
X144231284Y-97560520D01*
X144368216Y-97639577D01*
X144520943Y-97680500D01*
X144520945Y-97680500D01*
X144679055Y-97680500D01*
X144679057Y-97680500D01*
X144831784Y-97639577D01*
X144968716Y-97560520D01*
X145080520Y-97448716D01*
X145159577Y-97311784D01*
X145200500Y-97159057D01*
X145200500Y-97000943D01*
X145200500Y-96999000D01*
X145219407Y-96940809D01*
X145268907Y-96904845D01*
X145299500Y-96900000D01*
X168401000Y-96900000D01*
X168459191Y-96918907D01*
X168495155Y-96968407D01*
X168500000Y-96999000D01*
X168500000Y-123764825D01*
X168487890Y-123812271D01*
X168433104Y-123912604D01*
X168425468Y-123924486D01*
X168288643Y-124107263D01*
X168279393Y-124117939D01*
X168117939Y-124279393D01*
X168107263Y-124288643D01*
X167924486Y-124425468D01*
X167912604Y-124433104D01*
X167812272Y-124487890D01*
X167764826Y-124500000D01*
X92235174Y-124500000D01*
X92187728Y-124487890D01*
X92087395Y-124433104D01*
X92075513Y-124425468D01*
X91892736Y-124288643D01*
X91882060Y-124279393D01*
X91720606Y-124117939D01*
X91711356Y-124107263D01*
X91574529Y-123924483D01*
X91566895Y-123912604D01*
X91519527Y-123825855D01*
X91512109Y-123812270D01*
X91500000Y-123764825D01*
X91500000Y-123520943D01*
X121249500Y-123520943D01*
X121249500Y-123679057D01*
X121290423Y-123831784D01*
X121369480Y-123968716D01*
X121481284Y-124080520D01*
X121618216Y-124159577D01*
X121770943Y-124200500D01*
X121770945Y-124200500D01*
X121929055Y-124200500D01*
X121929057Y-124200500D01*
X122081784Y-124159577D01*
X122218716Y-124080520D01*
X122330520Y-123968716D01*
X122409577Y-123831784D01*
X122450500Y-123679057D01*
X122450500Y-123520943D01*
X122409577Y-123368216D01*
X122330520Y-123231284D01*
X122218716Y-123119480D01*
X122081784Y-123040423D01*
X122081783Y-123040422D01*
X122081780Y-123040421D01*
X122080511Y-123040081D01*
X122080508Y-123040081D01*
X121929057Y-122999500D01*
X121770943Y-122999500D01*
X121618216Y-123040423D01*
X121481284Y-123119480D01*
X121369480Y-123231284D01*
X121290423Y-123368216D01*
X121249500Y-123520943D01*
X91500000Y-123520943D01*
X91500000Y-122950943D01*
X123349500Y-122950943D01*
X123349500Y-123109057D01*
X123390423Y-123261784D01*
X123469480Y-123398716D01*
X123581284Y-123510520D01*
X123718216Y-123589577D01*
X123870943Y-123630500D01*
X123870945Y-123630500D01*
X124029055Y-123630500D01*
X124029057Y-123630500D01*
X124181784Y-123589577D01*
X124318716Y-123510520D01*
X124430520Y-123398716D01*
X124509577Y-123261784D01*
X124550500Y-123109057D01*
X124550500Y-122950943D01*
X124509577Y-122798216D01*
X124430520Y-122661284D01*
X124318716Y-122549480D01*
X124181784Y-122470423D01*
X124029057Y-122429500D01*
X123870943Y-122429500D01*
X123718216Y-122470423D01*
X123581284Y-122549480D01*
X123469480Y-122661284D01*
X123390423Y-122798216D01*
X123349500Y-122950943D01*
X91500000Y-122950943D01*
X91500000Y-116645284D01*
X97089500Y-116645284D01*
X97089500Y-116954715D01*
X97128405Y-117250231D01*
X97129889Y-117261499D01*
X97168583Y-117405907D01*
X97209975Y-117560387D01*
X97328386Y-117846259D01*
X97328389Y-117846264D01*
X97483103Y-118114234D01*
X97483105Y-118114237D01*
X97671474Y-118359725D01*
X97890275Y-118578526D01*
X98135763Y-118766895D01*
X98135765Y-118766896D01*
X98403735Y-118921610D01*
X98403740Y-118921613D01*
X98636811Y-119018153D01*
X98689614Y-119040025D01*
X98988501Y-119120111D01*
X99295285Y-119160500D01*
X99295286Y-119160500D01*
X99604714Y-119160500D01*
X99604715Y-119160500D01*
X99911499Y-119120111D01*
X100210386Y-119040025D01*
X100390658Y-118965353D01*
X100439482Y-118945130D01*
X106969500Y-118945130D01*
X106969500Y-120334860D01*
X106969501Y-120334863D01*
X106972414Y-120359990D01*
X106980500Y-120378302D01*
X107017794Y-120462765D01*
X107097235Y-120542206D01*
X107200009Y-120587585D01*
X107225135Y-120590500D01*
X108614864Y-120590499D01*
X108639991Y-120587585D01*
X108742765Y-120542206D01*
X108822206Y-120462765D01*
X108867585Y-120359991D01*
X108870500Y-120334865D01*
X108870499Y-119546381D01*
X109729500Y-119546381D01*
X109729500Y-119733618D01*
X109766026Y-119917249D01*
X109837677Y-120090229D01*
X109837681Y-120090238D01*
X109912065Y-120201559D01*
X109941698Y-120245908D01*
X110074092Y-120378302D01*
X110140463Y-120422649D01*
X110229761Y-120482318D01*
X110229767Y-120482320D01*
X110229769Y-120482322D01*
X110402749Y-120553973D01*
X110586384Y-120590500D01*
X110586385Y-120590500D01*
X110773615Y-120590500D01*
X110773616Y-120590500D01*
X110957251Y-120553973D01*
X111130231Y-120482322D01*
X111130234Y-120482319D01*
X111130238Y-120482318D01*
X111175187Y-120452282D01*
X111285908Y-120378302D01*
X111418302Y-120245908D01*
X111492282Y-120135187D01*
X111522318Y-120090238D01*
X111522319Y-120090234D01*
X111522322Y-120090231D01*
X111593973Y-119917251D01*
X111630500Y-119733616D01*
X111630500Y-119546384D01*
X111630499Y-119546381D01*
X112489500Y-119546381D01*
X112489500Y-119733618D01*
X112526026Y-119917249D01*
X112597677Y-120090229D01*
X112597681Y-120090238D01*
X112672065Y-120201559D01*
X112701698Y-120245908D01*
X112834092Y-120378302D01*
X112900463Y-120422649D01*
X112989761Y-120482318D01*
X112989767Y-120482320D01*
X112989769Y-120482322D01*
X113162749Y-120553973D01*
X113346384Y-120590500D01*
X113346385Y-120590500D01*
X113533615Y-120590500D01*
X113533616Y-120590500D01*
X113717251Y-120553973D01*
X113890231Y-120482322D01*
X113890234Y-120482319D01*
X113890238Y-120482318D01*
X113935187Y-120452282D01*
X114045908Y-120378302D01*
X114178302Y-120245908D01*
X114252282Y-120135187D01*
X114282318Y-120090238D01*
X114282319Y-120090234D01*
X114282322Y-120090231D01*
X114353973Y-119917251D01*
X114390500Y-119733616D01*
X114390500Y-119546384D01*
X114390499Y-119546381D01*
X115249500Y-119546381D01*
X115249500Y-119733618D01*
X115286026Y-119917249D01*
X115357677Y-120090229D01*
X115357681Y-120090238D01*
X115432065Y-120201559D01*
X115461698Y-120245908D01*
X115594092Y-120378302D01*
X115660463Y-120422649D01*
X115749761Y-120482318D01*
X115749767Y-120482320D01*
X115749769Y-120482322D01*
X115922749Y-120553973D01*
X116106384Y-120590500D01*
X116106385Y-120590500D01*
X116293615Y-120590500D01*
X116293616Y-120590500D01*
X116477251Y-120553973D01*
X116650231Y-120482322D01*
X116650234Y-120482319D01*
X116650238Y-120482318D01*
X116695187Y-120452282D01*
X116805908Y-120378302D01*
X116938302Y-120245908D01*
X117012282Y-120135187D01*
X117042318Y-120090238D01*
X117042319Y-120090234D01*
X117042322Y-120090231D01*
X117113973Y-119917251D01*
X117150500Y-119733616D01*
X117150500Y-119546384D01*
X117150499Y-119546381D01*
X118009500Y-119546381D01*
X118009500Y-119733618D01*
X118046026Y-119917249D01*
X118117677Y-120090229D01*
X118117681Y-120090238D01*
X118192065Y-120201559D01*
X118221698Y-120245908D01*
X118354092Y-120378302D01*
X118420463Y-120422649D01*
X118509761Y-120482318D01*
X118509767Y-120482320D01*
X118509769Y-120482322D01*
X118682749Y-120553973D01*
X118866384Y-120590500D01*
X118866385Y-120590500D01*
X119053615Y-120590500D01*
X119053616Y-120590500D01*
X119237251Y-120553973D01*
X119410231Y-120482322D01*
X119410234Y-120482319D01*
X119410238Y-120482318D01*
X119455187Y-120452282D01*
X119565908Y-120378302D01*
X119698302Y-120245908D01*
X119772282Y-120135187D01*
X119802318Y-120090238D01*
X119802319Y-120090234D01*
X119802322Y-120090231D01*
X119873973Y-119917251D01*
X119910500Y-119733616D01*
X119910500Y-119546384D01*
X119910499Y-119546381D01*
X120769500Y-119546381D01*
X120769500Y-119733618D01*
X120806026Y-119917249D01*
X120877677Y-120090229D01*
X120877681Y-120090238D01*
X120952065Y-120201559D01*
X120981698Y-120245908D01*
X121114092Y-120378302D01*
X121180463Y-120422649D01*
X121269761Y-120482318D01*
X121269767Y-120482320D01*
X121269769Y-120482322D01*
X121442749Y-120553973D01*
X121626384Y-120590500D01*
X121626385Y-120590500D01*
X121813615Y-120590500D01*
X121813616Y-120590500D01*
X121997251Y-120553973D01*
X122170231Y-120482322D01*
X122170234Y-120482319D01*
X122170238Y-120482318D01*
X122215187Y-120452282D01*
X122325908Y-120378302D01*
X122458302Y-120245908D01*
X122532282Y-120135187D01*
X122562318Y-120090238D01*
X122562319Y-120090234D01*
X122562322Y-120090231D01*
X122633973Y-119917251D01*
X122670500Y-119733616D01*
X122670500Y-119546384D01*
X122670499Y-119546381D01*
X123529500Y-119546381D01*
X123529500Y-119733618D01*
X123566026Y-119917249D01*
X123637677Y-120090229D01*
X123637681Y-120090238D01*
X123712065Y-120201559D01*
X123741698Y-120245908D01*
X123874092Y-120378302D01*
X123940463Y-120422649D01*
X124029761Y-120482318D01*
X124029767Y-120482320D01*
X124029769Y-120482322D01*
X124202749Y-120553973D01*
X124386384Y-120590500D01*
X124386385Y-120590500D01*
X124573615Y-120590500D01*
X124573616Y-120590500D01*
X124757251Y-120553973D01*
X124930231Y-120482322D01*
X124930234Y-120482319D01*
X124930238Y-120482318D01*
X124975187Y-120452282D01*
X125085908Y-120378302D01*
X125218302Y-120245908D01*
X125292282Y-120135187D01*
X125322318Y-120090238D01*
X125322319Y-120090234D01*
X125322322Y-120090231D01*
X125393973Y-119917251D01*
X125430500Y-119733616D01*
X125430500Y-119546384D01*
X125430499Y-119546381D01*
X126289500Y-119546381D01*
X126289500Y-119733618D01*
X126326026Y-119917249D01*
X126397677Y-120090229D01*
X126397681Y-120090238D01*
X126472065Y-120201559D01*
X126501698Y-120245908D01*
X126634092Y-120378302D01*
X126700463Y-120422649D01*
X126789761Y-120482318D01*
X126789767Y-120482320D01*
X126789769Y-120482322D01*
X126962749Y-120553973D01*
X127146384Y-120590500D01*
X127146385Y-120590500D01*
X127333615Y-120590500D01*
X127333616Y-120590500D01*
X127517251Y-120553973D01*
X127690231Y-120482322D01*
X127690234Y-120482319D01*
X127690238Y-120482318D01*
X127735187Y-120452282D01*
X127845908Y-120378302D01*
X127978302Y-120245908D01*
X128052282Y-120135187D01*
X128082318Y-120090238D01*
X128082319Y-120090234D01*
X128082322Y-120090231D01*
X128153973Y-119917251D01*
X128190500Y-119733616D01*
X128190500Y-119546384D01*
X128190499Y-119546381D01*
X129049500Y-119546381D01*
X129049500Y-119733618D01*
X129086026Y-119917249D01*
X129157677Y-120090229D01*
X129157681Y-120090238D01*
X129232065Y-120201559D01*
X129261698Y-120245908D01*
X129394092Y-120378302D01*
X129460463Y-120422649D01*
X129549761Y-120482318D01*
X129549767Y-120482320D01*
X129549769Y-120482322D01*
X129722749Y-120553973D01*
X129906384Y-120590500D01*
X129906385Y-120590500D01*
X130093615Y-120590500D01*
X130093616Y-120590500D01*
X130277251Y-120553973D01*
X130450231Y-120482322D01*
X130450234Y-120482319D01*
X130450238Y-120482318D01*
X130495187Y-120452282D01*
X130605908Y-120378302D01*
X130738302Y-120245908D01*
X130812282Y-120135187D01*
X130842318Y-120090238D01*
X130842319Y-120090234D01*
X130842322Y-120090231D01*
X130913973Y-119917251D01*
X130950500Y-119733616D01*
X130950500Y-119546384D01*
X130950499Y-119546381D01*
X131809500Y-119546381D01*
X131809500Y-119733618D01*
X131846026Y-119917249D01*
X131917677Y-120090229D01*
X131917681Y-120090238D01*
X131992065Y-120201559D01*
X132021698Y-120245908D01*
X132154092Y-120378302D01*
X132220463Y-120422649D01*
X132309761Y-120482318D01*
X132309767Y-120482320D01*
X132309769Y-120482322D01*
X132482749Y-120553973D01*
X132666384Y-120590500D01*
X132666385Y-120590500D01*
X132853615Y-120590500D01*
X132853616Y-120590500D01*
X133037251Y-120553973D01*
X133210231Y-120482322D01*
X133210234Y-120482319D01*
X133210238Y-120482318D01*
X133255187Y-120452282D01*
X133365908Y-120378302D01*
X133498302Y-120245908D01*
X133572282Y-120135187D01*
X133602318Y-120090238D01*
X133602319Y-120090234D01*
X133602322Y-120090231D01*
X133673973Y-119917251D01*
X133710500Y-119733616D01*
X133710500Y-119546384D01*
X133710499Y-119546381D01*
X134569500Y-119546381D01*
X134569500Y-119733618D01*
X134606026Y-119917249D01*
X134677677Y-120090229D01*
X134677681Y-120090238D01*
X134752065Y-120201559D01*
X134781698Y-120245908D01*
X134914092Y-120378302D01*
X134980463Y-120422649D01*
X135069761Y-120482318D01*
X135069767Y-120482320D01*
X135069769Y-120482322D01*
X135242749Y-120553973D01*
X135426384Y-120590500D01*
X135426385Y-120590500D01*
X135613615Y-120590500D01*
X135613616Y-120590500D01*
X135797251Y-120553973D01*
X135970231Y-120482322D01*
X135970234Y-120482319D01*
X135970238Y-120482318D01*
X136015187Y-120452282D01*
X136125908Y-120378302D01*
X136258302Y-120245908D01*
X136332282Y-120135187D01*
X136362318Y-120090238D01*
X136362319Y-120090234D01*
X136362322Y-120090231D01*
X136433973Y-119917251D01*
X136470500Y-119733616D01*
X136470500Y-119546384D01*
X136470499Y-119546381D01*
X137329500Y-119546381D01*
X137329500Y-119733618D01*
X137366026Y-119917249D01*
X137437677Y-120090229D01*
X137437681Y-120090238D01*
X137512065Y-120201559D01*
X137541698Y-120245908D01*
X137674092Y-120378302D01*
X137740463Y-120422649D01*
X137829761Y-120482318D01*
X137829767Y-120482320D01*
X137829769Y-120482322D01*
X138002749Y-120553973D01*
X138186384Y-120590500D01*
X138186385Y-120590500D01*
X138373615Y-120590500D01*
X138373616Y-120590500D01*
X138557251Y-120553973D01*
X138730231Y-120482322D01*
X138730234Y-120482319D01*
X138730238Y-120482318D01*
X138775187Y-120452282D01*
X138885908Y-120378302D01*
X139018302Y-120245908D01*
X139092282Y-120135187D01*
X139122318Y-120090238D01*
X139122319Y-120090234D01*
X139122322Y-120090231D01*
X139193973Y-119917251D01*
X139230500Y-119733616D01*
X139230500Y-119546384D01*
X139230499Y-119546381D01*
X140089500Y-119546381D01*
X140089500Y-119733618D01*
X140126026Y-119917249D01*
X140197677Y-120090229D01*
X140197681Y-120090238D01*
X140272065Y-120201559D01*
X140301698Y-120245908D01*
X140434092Y-120378302D01*
X140500463Y-120422649D01*
X140589761Y-120482318D01*
X140589767Y-120482320D01*
X140589769Y-120482322D01*
X140762749Y-120553973D01*
X140946384Y-120590500D01*
X140946385Y-120590500D01*
X141133615Y-120590500D01*
X141133616Y-120590500D01*
X141317251Y-120553973D01*
X141490231Y-120482322D01*
X141490234Y-120482319D01*
X141490238Y-120482318D01*
X141535187Y-120452282D01*
X141645908Y-120378302D01*
X141778302Y-120245908D01*
X141852282Y-120135187D01*
X141882318Y-120090238D01*
X141882319Y-120090234D01*
X141882322Y-120090231D01*
X141953973Y-119917251D01*
X141990500Y-119733616D01*
X141990500Y-119546384D01*
X141990499Y-119546381D01*
X142849500Y-119546381D01*
X142849500Y-119733618D01*
X142886026Y-119917249D01*
X142957677Y-120090229D01*
X142957681Y-120090238D01*
X143032065Y-120201559D01*
X143061698Y-120245908D01*
X143194092Y-120378302D01*
X143260463Y-120422649D01*
X143349761Y-120482318D01*
X143349767Y-120482320D01*
X143349769Y-120482322D01*
X143522749Y-120553973D01*
X143706384Y-120590500D01*
X143706385Y-120590500D01*
X143893615Y-120590500D01*
X143893616Y-120590500D01*
X144077251Y-120553973D01*
X144250231Y-120482322D01*
X144250234Y-120482319D01*
X144250238Y-120482318D01*
X144295187Y-120452282D01*
X144405908Y-120378302D01*
X144538302Y-120245908D01*
X144612282Y-120135187D01*
X144642318Y-120090238D01*
X144642319Y-120090234D01*
X144642322Y-120090231D01*
X144713973Y-119917251D01*
X144750500Y-119733616D01*
X144750500Y-119546384D01*
X144750499Y-119546381D01*
X145609500Y-119546381D01*
X145609500Y-119733618D01*
X145646026Y-119917249D01*
X145717677Y-120090229D01*
X145717681Y-120090238D01*
X145792065Y-120201559D01*
X145821698Y-120245908D01*
X145954092Y-120378302D01*
X146020463Y-120422649D01*
X146109761Y-120482318D01*
X146109767Y-120482320D01*
X146109769Y-120482322D01*
X146282749Y-120553973D01*
X146466384Y-120590500D01*
X146466385Y-120590500D01*
X146653615Y-120590500D01*
X146653616Y-120590500D01*
X146837251Y-120553973D01*
X147010231Y-120482322D01*
X147010234Y-120482319D01*
X147010238Y-120482318D01*
X147055187Y-120452282D01*
X147165908Y-120378302D01*
X147298302Y-120245908D01*
X147372282Y-120135187D01*
X147402318Y-120090238D01*
X147402319Y-120090234D01*
X147402322Y-120090231D01*
X147473973Y-119917251D01*
X147510500Y-119733616D01*
X147510500Y-119546384D01*
X147510499Y-119546381D01*
X148369500Y-119546381D01*
X148369500Y-119733618D01*
X148406026Y-119917249D01*
X148477677Y-120090229D01*
X148477681Y-120090238D01*
X148552065Y-120201559D01*
X148581698Y-120245908D01*
X148714092Y-120378302D01*
X148780463Y-120422649D01*
X148869761Y-120482318D01*
X148869767Y-120482320D01*
X148869769Y-120482322D01*
X149042749Y-120553973D01*
X149226384Y-120590500D01*
X149226385Y-120590500D01*
X149413615Y-120590500D01*
X149413616Y-120590500D01*
X149597251Y-120553973D01*
X149770231Y-120482322D01*
X149770234Y-120482319D01*
X149770238Y-120482318D01*
X149815187Y-120452282D01*
X149925908Y-120378302D01*
X150058302Y-120245908D01*
X150132282Y-120135187D01*
X150162318Y-120090238D01*
X150162319Y-120090234D01*
X150162322Y-120090231D01*
X150233973Y-119917251D01*
X150270500Y-119733616D01*
X150270500Y-119546384D01*
X150270499Y-119546381D01*
X151129500Y-119546381D01*
X151129500Y-119733618D01*
X151166026Y-119917249D01*
X151237677Y-120090229D01*
X151237681Y-120090238D01*
X151312065Y-120201559D01*
X151341698Y-120245908D01*
X151474092Y-120378302D01*
X151540463Y-120422649D01*
X151629761Y-120482318D01*
X151629767Y-120482320D01*
X151629769Y-120482322D01*
X151802749Y-120553973D01*
X151986384Y-120590500D01*
X151986385Y-120590500D01*
X152173615Y-120590500D01*
X152173616Y-120590500D01*
X152357251Y-120553973D01*
X152530231Y-120482322D01*
X152530234Y-120482319D01*
X152530238Y-120482318D01*
X152575187Y-120452282D01*
X152685908Y-120378302D01*
X152818302Y-120245908D01*
X152892282Y-120135187D01*
X152922318Y-120090238D01*
X152922319Y-120090234D01*
X152922322Y-120090231D01*
X152993973Y-119917251D01*
X153030500Y-119733616D01*
X153030500Y-119546384D01*
X152993973Y-119362749D01*
X152922322Y-119189769D01*
X152922320Y-119189767D01*
X152922318Y-119189761D01*
X152862649Y-119100463D01*
X152818302Y-119034092D01*
X152685908Y-118901698D01*
X152641559Y-118872065D01*
X152530238Y-118797681D01*
X152530229Y-118797677D01*
X152357249Y-118726026D01*
X152173618Y-118689500D01*
X152173616Y-118689500D01*
X151986384Y-118689500D01*
X151986381Y-118689500D01*
X151802750Y-118726026D01*
X151629770Y-118797677D01*
X151629761Y-118797681D01*
X151474092Y-118901698D01*
X151474088Y-118901701D01*
X151341701Y-119034088D01*
X151341698Y-119034092D01*
X151237681Y-119189761D01*
X151237677Y-119189770D01*
X151166026Y-119362750D01*
X151129500Y-119546381D01*
X150270499Y-119546381D01*
X150233973Y-119362749D01*
X150162322Y-119189769D01*
X150162320Y-119189767D01*
X150162318Y-119189761D01*
X150102649Y-119100463D01*
X150058302Y-119034092D01*
X149925908Y-118901698D01*
X149881559Y-118872065D01*
X149770238Y-118797681D01*
X149770229Y-118797677D01*
X149597249Y-118726026D01*
X149413618Y-118689500D01*
X149413616Y-118689500D01*
X149226384Y-118689500D01*
X149226381Y-118689500D01*
X149042750Y-118726026D01*
X148869770Y-118797677D01*
X148869761Y-118797681D01*
X148714092Y-118901698D01*
X148714088Y-118901701D01*
X148581701Y-119034088D01*
X148581698Y-119034092D01*
X148477681Y-119189761D01*
X148477677Y-119189770D01*
X148406026Y-119362750D01*
X148369500Y-119546381D01*
X147510499Y-119546381D01*
X147473973Y-119362749D01*
X147402322Y-119189769D01*
X147402320Y-119189767D01*
X147402318Y-119189761D01*
X147342649Y-119100463D01*
X147298302Y-119034092D01*
X147165908Y-118901698D01*
X147121559Y-118872065D01*
X147010238Y-118797681D01*
X147010229Y-118797677D01*
X146837249Y-118726026D01*
X146653618Y-118689500D01*
X146653616Y-118689500D01*
X146466384Y-118689500D01*
X146466381Y-118689500D01*
X146282750Y-118726026D01*
X146109770Y-118797677D01*
X146109761Y-118797681D01*
X145954092Y-118901698D01*
X145954088Y-118901701D01*
X145821701Y-119034088D01*
X145821698Y-119034092D01*
X145717681Y-119189761D01*
X145717677Y-119189770D01*
X145646026Y-119362750D01*
X145609500Y-119546381D01*
X144750499Y-119546381D01*
X144713973Y-119362749D01*
X144642322Y-119189769D01*
X144642320Y-119189767D01*
X144642318Y-119189761D01*
X144582649Y-119100463D01*
X144538302Y-119034092D01*
X144405908Y-118901698D01*
X144361559Y-118872065D01*
X144250238Y-118797681D01*
X144250229Y-118797677D01*
X144077249Y-118726026D01*
X143893618Y-118689500D01*
X143893616Y-118689500D01*
X143706384Y-118689500D01*
X143706381Y-118689500D01*
X143522750Y-118726026D01*
X143349770Y-118797677D01*
X143349761Y-118797681D01*
X143194092Y-118901698D01*
X143194088Y-118901701D01*
X143061701Y-119034088D01*
X143061698Y-119034092D01*
X142957681Y-119189761D01*
X142957677Y-119189770D01*
X142886026Y-119362750D01*
X142849500Y-119546381D01*
X141990499Y-119546381D01*
X141953973Y-119362749D01*
X141882322Y-119189769D01*
X141882320Y-119189767D01*
X141882318Y-119189761D01*
X141822649Y-119100463D01*
X141778302Y-119034092D01*
X141645908Y-118901698D01*
X141601559Y-118872065D01*
X141490238Y-118797681D01*
X141490229Y-118797677D01*
X141317249Y-118726026D01*
X141133618Y-118689500D01*
X141133616Y-118689500D01*
X140946384Y-118689500D01*
X140946381Y-118689500D01*
X140762750Y-118726026D01*
X140589770Y-118797677D01*
X140589761Y-118797681D01*
X140434092Y-118901698D01*
X140434088Y-118901701D01*
X140301701Y-119034088D01*
X140301698Y-119034092D01*
X140197681Y-119189761D01*
X140197677Y-119189770D01*
X140126026Y-119362750D01*
X140089500Y-119546381D01*
X139230499Y-119546381D01*
X139193973Y-119362749D01*
X139122322Y-119189769D01*
X139122320Y-119189767D01*
X139122318Y-119189761D01*
X139062649Y-119100463D01*
X139018302Y-119034092D01*
X138885908Y-118901698D01*
X138841559Y-118872065D01*
X138730238Y-118797681D01*
X138730229Y-118797677D01*
X138557249Y-118726026D01*
X138373618Y-118689500D01*
X138373616Y-118689500D01*
X138186384Y-118689500D01*
X138186381Y-118689500D01*
X138002750Y-118726026D01*
X137829770Y-118797677D01*
X137829761Y-118797681D01*
X137674092Y-118901698D01*
X137674088Y-118901701D01*
X137541701Y-119034088D01*
X137541698Y-119034092D01*
X137437681Y-119189761D01*
X137437677Y-119189770D01*
X137366026Y-119362750D01*
X137329500Y-119546381D01*
X136470499Y-119546381D01*
X136433973Y-119362749D01*
X136362322Y-119189769D01*
X136362320Y-119189767D01*
X136362318Y-119189761D01*
X136302649Y-119100463D01*
X136258302Y-119034092D01*
X136125908Y-118901698D01*
X136081559Y-118872065D01*
X135970238Y-118797681D01*
X135970229Y-118797677D01*
X135797249Y-118726026D01*
X135613618Y-118689500D01*
X135613616Y-118689500D01*
X135426384Y-118689500D01*
X135426381Y-118689500D01*
X135242750Y-118726026D01*
X135069770Y-118797677D01*
X135069761Y-118797681D01*
X134914092Y-118901698D01*
X134914088Y-118901701D01*
X134781701Y-119034088D01*
X134781698Y-119034092D01*
X134677681Y-119189761D01*
X134677677Y-119189770D01*
X134606026Y-119362750D01*
X134569500Y-119546381D01*
X133710499Y-119546381D01*
X133673973Y-119362749D01*
X133602322Y-119189769D01*
X133602320Y-119189767D01*
X133602318Y-119189761D01*
X133542649Y-119100463D01*
X133498302Y-119034092D01*
X133365908Y-118901698D01*
X133321559Y-118872065D01*
X133210238Y-118797681D01*
X133210229Y-118797677D01*
X133037249Y-118726026D01*
X132853618Y-118689500D01*
X132853616Y-118689500D01*
X132666384Y-118689500D01*
X132666381Y-118689500D01*
X132482750Y-118726026D01*
X132309770Y-118797677D01*
X132309761Y-118797681D01*
X132154092Y-118901698D01*
X132154088Y-118901701D01*
X132021701Y-119034088D01*
X132021698Y-119034092D01*
X131917681Y-119189761D01*
X131917677Y-119189770D01*
X131846026Y-119362750D01*
X131809500Y-119546381D01*
X130950499Y-119546381D01*
X130913973Y-119362749D01*
X130842322Y-119189769D01*
X130842320Y-119189767D01*
X130842318Y-119189761D01*
X130782649Y-119100463D01*
X130738302Y-119034092D01*
X130605908Y-118901698D01*
X130561559Y-118872065D01*
X130450238Y-118797681D01*
X130450229Y-118797677D01*
X130277249Y-118726026D01*
X130093618Y-118689500D01*
X130093616Y-118689500D01*
X129906384Y-118689500D01*
X129906381Y-118689500D01*
X129722750Y-118726026D01*
X129549770Y-118797677D01*
X129549761Y-118797681D01*
X129394092Y-118901698D01*
X129394088Y-118901701D01*
X129261701Y-119034088D01*
X129261698Y-119034092D01*
X129157681Y-119189761D01*
X129157677Y-119189770D01*
X129086026Y-119362750D01*
X129049500Y-119546381D01*
X128190499Y-119546381D01*
X128153973Y-119362749D01*
X128082322Y-119189769D01*
X128082320Y-119189767D01*
X128082318Y-119189761D01*
X128022649Y-119100463D01*
X127978302Y-119034092D01*
X127845908Y-118901698D01*
X127801559Y-118872065D01*
X127690238Y-118797681D01*
X127690229Y-118797677D01*
X127517249Y-118726026D01*
X127333618Y-118689500D01*
X127333616Y-118689500D01*
X127146384Y-118689500D01*
X127146381Y-118689500D01*
X126962750Y-118726026D01*
X126789770Y-118797677D01*
X126789761Y-118797681D01*
X126634092Y-118901698D01*
X126634088Y-118901701D01*
X126501701Y-119034088D01*
X126501698Y-119034092D01*
X126397681Y-119189761D01*
X126397677Y-119189770D01*
X126326026Y-119362750D01*
X126289500Y-119546381D01*
X125430499Y-119546381D01*
X125393973Y-119362749D01*
X125322322Y-119189769D01*
X125322320Y-119189767D01*
X125322318Y-119189761D01*
X125262649Y-119100463D01*
X125218302Y-119034092D01*
X125085908Y-118901698D01*
X125041559Y-118872065D01*
X124930238Y-118797681D01*
X124930229Y-118797677D01*
X124757249Y-118726026D01*
X124573618Y-118689500D01*
X124573616Y-118689500D01*
X124386384Y-118689500D01*
X124386381Y-118689500D01*
X124202750Y-118726026D01*
X124029770Y-118797677D01*
X124029761Y-118797681D01*
X123874092Y-118901698D01*
X123874088Y-118901701D01*
X123741701Y-119034088D01*
X123741698Y-119034092D01*
X123637681Y-119189761D01*
X123637677Y-119189770D01*
X123566026Y-119362750D01*
X123529500Y-119546381D01*
X122670499Y-119546381D01*
X122633973Y-119362749D01*
X122562322Y-119189769D01*
X122562320Y-119189767D01*
X122562318Y-119189761D01*
X122502649Y-119100463D01*
X122458302Y-119034092D01*
X122325908Y-118901698D01*
X122281559Y-118872065D01*
X122170238Y-118797681D01*
X122170229Y-118797677D01*
X121997249Y-118726026D01*
X121813618Y-118689500D01*
X121813616Y-118689500D01*
X121626384Y-118689500D01*
X121626381Y-118689500D01*
X121442750Y-118726026D01*
X121269770Y-118797677D01*
X121269761Y-118797681D01*
X121114092Y-118901698D01*
X121114088Y-118901701D01*
X120981701Y-119034088D01*
X120981698Y-119034092D01*
X120877681Y-119189761D01*
X120877677Y-119189770D01*
X120806026Y-119362750D01*
X120769500Y-119546381D01*
X119910499Y-119546381D01*
X119873973Y-119362749D01*
X119802322Y-119189769D01*
X119802320Y-119189767D01*
X119802318Y-119189761D01*
X119742649Y-119100463D01*
X119698302Y-119034092D01*
X119565908Y-118901698D01*
X119521559Y-118872065D01*
X119410238Y-118797681D01*
X119410229Y-118797677D01*
X119237249Y-118726026D01*
X119053618Y-118689500D01*
X119053616Y-118689500D01*
X118866384Y-118689500D01*
X118866381Y-118689500D01*
X118682750Y-118726026D01*
X118509770Y-118797677D01*
X118509761Y-118797681D01*
X118354092Y-118901698D01*
X118354088Y-118901701D01*
X118221701Y-119034088D01*
X118221698Y-119034092D01*
X118117681Y-119189761D01*
X118117677Y-119189770D01*
X118046026Y-119362750D01*
X118009500Y-119546381D01*
X117150499Y-119546381D01*
X117113973Y-119362749D01*
X117042322Y-119189769D01*
X117042320Y-119189767D01*
X117042318Y-119189761D01*
X116982649Y-119100463D01*
X116938302Y-119034092D01*
X116805908Y-118901698D01*
X116761559Y-118872065D01*
X116650238Y-118797681D01*
X116650229Y-118797677D01*
X116477249Y-118726026D01*
X116293618Y-118689500D01*
X116293616Y-118689500D01*
X116106384Y-118689500D01*
X116106381Y-118689500D01*
X115922750Y-118726026D01*
X115749770Y-118797677D01*
X115749761Y-118797681D01*
X115594092Y-118901698D01*
X115594088Y-118901701D01*
X115461701Y-119034088D01*
X115461698Y-119034092D01*
X115357681Y-119189761D01*
X115357677Y-119189770D01*
X115286026Y-119362750D01*
X115249500Y-119546381D01*
X114390499Y-119546381D01*
X114353973Y-119362749D01*
X114282322Y-119189769D01*
X114282320Y-119189767D01*
X114282318Y-119189761D01*
X114222649Y-119100463D01*
X114178302Y-119034092D01*
X114045908Y-118901698D01*
X114001559Y-118872065D01*
X113890238Y-118797681D01*
X113890229Y-118797677D01*
X113717249Y-118726026D01*
X113533618Y-118689500D01*
X113533616Y-118689500D01*
X113346384Y-118689500D01*
X113346381Y-118689500D01*
X113162750Y-118726026D01*
X112989770Y-118797677D01*
X112989761Y-118797681D01*
X112834092Y-118901698D01*
X112834088Y-118901701D01*
X112701701Y-119034088D01*
X112701698Y-119034092D01*
X112597681Y-119189761D01*
X112597677Y-119189770D01*
X112526026Y-119362750D01*
X112489500Y-119546381D01*
X111630499Y-119546381D01*
X111593973Y-119362749D01*
X111522322Y-119189769D01*
X111522320Y-119189767D01*
X111522318Y-119189761D01*
X111462649Y-119100463D01*
X111418302Y-119034092D01*
X111285908Y-118901698D01*
X111241559Y-118872065D01*
X111130238Y-118797681D01*
X111130229Y-118797677D01*
X110957249Y-118726026D01*
X110773618Y-118689500D01*
X110773616Y-118689500D01*
X110586384Y-118689500D01*
X110586381Y-118689500D01*
X110402750Y-118726026D01*
X110229770Y-118797677D01*
X110229761Y-118797681D01*
X110074092Y-118901698D01*
X110074088Y-118901701D01*
X109941701Y-119034088D01*
X109941698Y-119034092D01*
X109837681Y-119189761D01*
X109837677Y-119189770D01*
X109766026Y-119362750D01*
X109729500Y-119546381D01*
X108870499Y-119546381D01*
X108870499Y-118945136D01*
X108867585Y-118920009D01*
X108822206Y-118817235D01*
X108742765Y-118737794D01*
X108639991Y-118692415D01*
X108639990Y-118692414D01*
X108639988Y-118692414D01*
X108614868Y-118689500D01*
X107225139Y-118689500D01*
X107225136Y-118689501D01*
X107200009Y-118692414D01*
X107097235Y-118737794D01*
X107017794Y-118817235D01*
X106972414Y-118920011D01*
X106969500Y-118945130D01*
X100439482Y-118945130D01*
X100496259Y-118921613D01*
X100496260Y-118921612D01*
X100496263Y-118921611D01*
X100581745Y-118872257D01*
X100608969Y-118856540D01*
X100710914Y-118797681D01*
X100764237Y-118766895D01*
X101009725Y-118578526D01*
X101228526Y-118359725D01*
X101416895Y-118114237D01*
X101571611Y-117846263D01*
X101690025Y-117560386D01*
X101770111Y-117261499D01*
X101810500Y-116954715D01*
X101810500Y-116706381D01*
X108349500Y-116706381D01*
X108349500Y-116893618D01*
X108386026Y-117077249D01*
X108457677Y-117250229D01*
X108457681Y-117250238D01*
X108532065Y-117361559D01*
X108561698Y-117405908D01*
X108694092Y-117538302D01*
X108727145Y-117560387D01*
X108849761Y-117642318D01*
X108849767Y-117642320D01*
X108849769Y-117642322D01*
X109022749Y-117713973D01*
X109206384Y-117750500D01*
X109206385Y-117750500D01*
X109393615Y-117750500D01*
X109393616Y-117750500D01*
X109577251Y-117713973D01*
X109750231Y-117642322D01*
X109750234Y-117642319D01*
X109750238Y-117642318D01*
X109795187Y-117612282D01*
X109905908Y-117538302D01*
X110038302Y-117405908D01*
X110134798Y-117261492D01*
X110142318Y-117250238D01*
X110142319Y-117250234D01*
X110142322Y-117250231D01*
X110213973Y-117077251D01*
X110250500Y-116893616D01*
X110250500Y-116706384D01*
X110250499Y-116706381D01*
X111109500Y-116706381D01*
X111109500Y-116893618D01*
X111146026Y-117077249D01*
X111217677Y-117250229D01*
X111217681Y-117250238D01*
X111292065Y-117361559D01*
X111321698Y-117405908D01*
X111454092Y-117538302D01*
X111487145Y-117560387D01*
X111609761Y-117642318D01*
X111609767Y-117642320D01*
X111609769Y-117642322D01*
X111782749Y-117713973D01*
X111966384Y-117750500D01*
X111966385Y-117750500D01*
X112153615Y-117750500D01*
X112153616Y-117750500D01*
X112337251Y-117713973D01*
X112510231Y-117642322D01*
X112510234Y-117642319D01*
X112510238Y-117642318D01*
X112555187Y-117612282D01*
X112665908Y-117538302D01*
X112798302Y-117405908D01*
X112894798Y-117261492D01*
X112902318Y-117250238D01*
X112902319Y-117250234D01*
X112902322Y-117250231D01*
X112973973Y-117077251D01*
X113010500Y-116893616D01*
X113010500Y-116706384D01*
X113010499Y-116706381D01*
X113869500Y-116706381D01*
X113869500Y-116893618D01*
X113906026Y-117077249D01*
X113977677Y-117250229D01*
X113977681Y-117250238D01*
X114052065Y-117361559D01*
X114081698Y-117405908D01*
X114214092Y-117538302D01*
X114247145Y-117560387D01*
X114369761Y-117642318D01*
X114369767Y-117642320D01*
X114369769Y-117642322D01*
X114542749Y-117713973D01*
X114726384Y-117750500D01*
X114726385Y-117750500D01*
X114913615Y-117750500D01*
X114913616Y-117750500D01*
X115097251Y-117713973D01*
X115270231Y-117642322D01*
X115270234Y-117642319D01*
X115270238Y-117642318D01*
X115315187Y-117612282D01*
X115425908Y-117538302D01*
X115558302Y-117405908D01*
X115654798Y-117261492D01*
X115662318Y-117250238D01*
X115662319Y-117250234D01*
X115662322Y-117250231D01*
X115733973Y-117077251D01*
X115770500Y-116893616D01*
X115770500Y-116706384D01*
X115770499Y-116706381D01*
X116629500Y-116706381D01*
X116629500Y-116893618D01*
X116666026Y-117077249D01*
X116737677Y-117250229D01*
X116737681Y-117250238D01*
X116812065Y-117361559D01*
X116841698Y-117405908D01*
X116974092Y-117538302D01*
X117007145Y-117560387D01*
X117129761Y-117642318D01*
X117129767Y-117642320D01*
X117129769Y-117642322D01*
X117302749Y-117713973D01*
X117486384Y-117750500D01*
X117486385Y-117750500D01*
X117673615Y-117750500D01*
X117673616Y-117750500D01*
X117857251Y-117713973D01*
X118030231Y-117642322D01*
X118030234Y-117642319D01*
X118030238Y-117642318D01*
X118075187Y-117612282D01*
X118185908Y-117538302D01*
X118318302Y-117405908D01*
X118414798Y-117261492D01*
X118422318Y-117250238D01*
X118422319Y-117250234D01*
X118422322Y-117250231D01*
X118493973Y-117077251D01*
X118530500Y-116893616D01*
X118530500Y-116706384D01*
X118530499Y-116706381D01*
X119389500Y-116706381D01*
X119389500Y-116893618D01*
X119426026Y-117077249D01*
X119497677Y-117250229D01*
X119497681Y-117250238D01*
X119572065Y-117361559D01*
X119601698Y-117405908D01*
X119734092Y-117538302D01*
X119767145Y-117560387D01*
X119889761Y-117642318D01*
X119889767Y-117642320D01*
X119889769Y-117642322D01*
X120062749Y-117713973D01*
X120246384Y-117750500D01*
X120246385Y-117750500D01*
X120433615Y-117750500D01*
X120433616Y-117750500D01*
X120617251Y-117713973D01*
X120790231Y-117642322D01*
X120790234Y-117642319D01*
X120790238Y-117642318D01*
X120835187Y-117612282D01*
X120945908Y-117538302D01*
X121078302Y-117405908D01*
X121174798Y-117261492D01*
X121182318Y-117250238D01*
X121182319Y-117250234D01*
X121182322Y-117250231D01*
X121253973Y-117077251D01*
X121290500Y-116893616D01*
X121290500Y-116706384D01*
X121290499Y-116706381D01*
X122149500Y-116706381D01*
X122149500Y-116893618D01*
X122186026Y-117077249D01*
X122257677Y-117250229D01*
X122257681Y-117250238D01*
X122332065Y-117361559D01*
X122361698Y-117405908D01*
X122494092Y-117538302D01*
X122527145Y-117560387D01*
X122649761Y-117642318D01*
X122649767Y-117642320D01*
X122649769Y-117642322D01*
X122822749Y-117713973D01*
X123006384Y-117750500D01*
X123006385Y-117750500D01*
X123193615Y-117750500D01*
X123193616Y-117750500D01*
X123377251Y-117713973D01*
X123550231Y-117642322D01*
X123550234Y-117642319D01*
X123550238Y-117642318D01*
X123595187Y-117612282D01*
X123705908Y-117538302D01*
X123838302Y-117405908D01*
X123934798Y-117261492D01*
X123942318Y-117250238D01*
X123942319Y-117250234D01*
X123942322Y-117250231D01*
X124013973Y-117077251D01*
X124050500Y-116893616D01*
X124050500Y-116706384D01*
X124050499Y-116706381D01*
X124909500Y-116706381D01*
X124909500Y-116893618D01*
X124946026Y-117077249D01*
X125017677Y-117250229D01*
X125017681Y-117250238D01*
X125092065Y-117361559D01*
X125121698Y-117405908D01*
X125254092Y-117538302D01*
X125287145Y-117560387D01*
X125409761Y-117642318D01*
X125409767Y-117642320D01*
X125409769Y-117642322D01*
X125582749Y-117713973D01*
X125766384Y-117750500D01*
X125766385Y-117750500D01*
X125953615Y-117750500D01*
X125953616Y-117750500D01*
X126137251Y-117713973D01*
X126310231Y-117642322D01*
X126310234Y-117642319D01*
X126310238Y-117642318D01*
X126355187Y-117612282D01*
X126465908Y-117538302D01*
X126598302Y-117405908D01*
X126694798Y-117261492D01*
X126702318Y-117250238D01*
X126702319Y-117250234D01*
X126702322Y-117250231D01*
X126773973Y-117077251D01*
X126810500Y-116893616D01*
X126810500Y-116706384D01*
X126810499Y-116706381D01*
X127669500Y-116706381D01*
X127669500Y-116893618D01*
X127706026Y-117077249D01*
X127777677Y-117250229D01*
X127777681Y-117250238D01*
X127852065Y-117361559D01*
X127881698Y-117405908D01*
X128014092Y-117538302D01*
X128047145Y-117560387D01*
X128169761Y-117642318D01*
X128169767Y-117642320D01*
X128169769Y-117642322D01*
X128342749Y-117713973D01*
X128526384Y-117750500D01*
X128526385Y-117750500D01*
X128713615Y-117750500D01*
X128713616Y-117750500D01*
X128897251Y-117713973D01*
X129070231Y-117642322D01*
X129070234Y-117642319D01*
X129070238Y-117642318D01*
X129115187Y-117612282D01*
X129225908Y-117538302D01*
X129358302Y-117405908D01*
X129454798Y-117261492D01*
X129462318Y-117250238D01*
X129462319Y-117250234D01*
X129462322Y-117250231D01*
X129533973Y-117077251D01*
X129570500Y-116893616D01*
X129570500Y-116706384D01*
X129570499Y-116706381D01*
X130429500Y-116706381D01*
X130429500Y-116893618D01*
X130466026Y-117077249D01*
X130537677Y-117250229D01*
X130537681Y-117250238D01*
X130612065Y-117361559D01*
X130641698Y-117405908D01*
X130774092Y-117538302D01*
X130807145Y-117560387D01*
X130929761Y-117642318D01*
X130929767Y-117642320D01*
X130929769Y-117642322D01*
X131102749Y-117713973D01*
X131286384Y-117750500D01*
X131286385Y-117750500D01*
X131473615Y-117750500D01*
X131473616Y-117750500D01*
X131657251Y-117713973D01*
X131830231Y-117642322D01*
X131830234Y-117642319D01*
X131830238Y-117642318D01*
X131875187Y-117612282D01*
X131985908Y-117538302D01*
X132118302Y-117405908D01*
X132214798Y-117261492D01*
X132222318Y-117250238D01*
X132222319Y-117250234D01*
X132222322Y-117250231D01*
X132293973Y-117077251D01*
X132330500Y-116893616D01*
X132330500Y-116706384D01*
X132330499Y-116706381D01*
X133189500Y-116706381D01*
X133189500Y-116893618D01*
X133226026Y-117077249D01*
X133297677Y-117250229D01*
X133297681Y-117250238D01*
X133372065Y-117361559D01*
X133401698Y-117405908D01*
X133534092Y-117538302D01*
X133567145Y-117560387D01*
X133689761Y-117642318D01*
X133689767Y-117642320D01*
X133689769Y-117642322D01*
X133862749Y-117713973D01*
X134046384Y-117750500D01*
X134046385Y-117750500D01*
X134233615Y-117750500D01*
X134233616Y-117750500D01*
X134417251Y-117713973D01*
X134590231Y-117642322D01*
X134590234Y-117642319D01*
X134590238Y-117642318D01*
X134635187Y-117612282D01*
X134745908Y-117538302D01*
X134878302Y-117405908D01*
X134974798Y-117261492D01*
X134982318Y-117250238D01*
X134982319Y-117250234D01*
X134982322Y-117250231D01*
X135053973Y-117077251D01*
X135090500Y-116893616D01*
X135090500Y-116706384D01*
X135090499Y-116706381D01*
X135949500Y-116706381D01*
X135949500Y-116893618D01*
X135986026Y-117077249D01*
X136057677Y-117250229D01*
X136057681Y-117250238D01*
X136132065Y-117361559D01*
X136161698Y-117405908D01*
X136294092Y-117538302D01*
X136327145Y-117560387D01*
X136449761Y-117642318D01*
X136449767Y-117642320D01*
X136449769Y-117642322D01*
X136622749Y-117713973D01*
X136806384Y-117750500D01*
X136806385Y-117750500D01*
X136993615Y-117750500D01*
X136993616Y-117750500D01*
X137177251Y-117713973D01*
X137350231Y-117642322D01*
X137350234Y-117642319D01*
X137350238Y-117642318D01*
X137395187Y-117612282D01*
X137505908Y-117538302D01*
X137638302Y-117405908D01*
X137734798Y-117261492D01*
X137742318Y-117250238D01*
X137742319Y-117250234D01*
X137742322Y-117250231D01*
X137813973Y-117077251D01*
X137850500Y-116893616D01*
X137850500Y-116706384D01*
X137850499Y-116706381D01*
X138709500Y-116706381D01*
X138709500Y-116893618D01*
X138746026Y-117077249D01*
X138817677Y-117250229D01*
X138817681Y-117250238D01*
X138892065Y-117361559D01*
X138921698Y-117405908D01*
X139054092Y-117538302D01*
X139087145Y-117560387D01*
X139209761Y-117642318D01*
X139209767Y-117642320D01*
X139209769Y-117642322D01*
X139382749Y-117713973D01*
X139566384Y-117750500D01*
X139566385Y-117750500D01*
X139753615Y-117750500D01*
X139753616Y-117750500D01*
X139937251Y-117713973D01*
X140110231Y-117642322D01*
X140110234Y-117642319D01*
X140110238Y-117642318D01*
X140155187Y-117612282D01*
X140265908Y-117538302D01*
X140398302Y-117405908D01*
X140494798Y-117261492D01*
X140502318Y-117250238D01*
X140502319Y-117250234D01*
X140502322Y-117250231D01*
X140573973Y-117077251D01*
X140610500Y-116893616D01*
X140610500Y-116706384D01*
X140610499Y-116706381D01*
X141469500Y-116706381D01*
X141469500Y-116893618D01*
X141506026Y-117077249D01*
X141577677Y-117250229D01*
X141577681Y-117250238D01*
X141652065Y-117361559D01*
X141681698Y-117405908D01*
X141814092Y-117538302D01*
X141847145Y-117560387D01*
X141969761Y-117642318D01*
X141969767Y-117642320D01*
X141969769Y-117642322D01*
X142142749Y-117713973D01*
X142326384Y-117750500D01*
X142326385Y-117750500D01*
X142513615Y-117750500D01*
X142513616Y-117750500D01*
X142697251Y-117713973D01*
X142870231Y-117642322D01*
X142870234Y-117642319D01*
X142870238Y-117642318D01*
X142915187Y-117612282D01*
X143025908Y-117538302D01*
X143158302Y-117405908D01*
X143254798Y-117261492D01*
X143262318Y-117250238D01*
X143262319Y-117250234D01*
X143262322Y-117250231D01*
X143333973Y-117077251D01*
X143370500Y-116893616D01*
X143370500Y-116706384D01*
X143370499Y-116706381D01*
X144229500Y-116706381D01*
X144229500Y-116893618D01*
X144266026Y-117077249D01*
X144337677Y-117250229D01*
X144337681Y-117250238D01*
X144412065Y-117361559D01*
X144441698Y-117405908D01*
X144574092Y-117538302D01*
X144607145Y-117560387D01*
X144729761Y-117642318D01*
X144729767Y-117642320D01*
X144729769Y-117642322D01*
X144902749Y-117713973D01*
X145086384Y-117750500D01*
X145086385Y-117750500D01*
X145273615Y-117750500D01*
X145273616Y-117750500D01*
X145457251Y-117713973D01*
X145630231Y-117642322D01*
X145630234Y-117642319D01*
X145630238Y-117642318D01*
X145675187Y-117612282D01*
X145785908Y-117538302D01*
X145918302Y-117405908D01*
X146014798Y-117261492D01*
X146022318Y-117250238D01*
X146022319Y-117250234D01*
X146022322Y-117250231D01*
X146093973Y-117077251D01*
X146130500Y-116893616D01*
X146130500Y-116706384D01*
X146130499Y-116706381D01*
X146989500Y-116706381D01*
X146989500Y-116893618D01*
X147026026Y-117077249D01*
X147097677Y-117250229D01*
X147097681Y-117250238D01*
X147172065Y-117361559D01*
X147201698Y-117405908D01*
X147334092Y-117538302D01*
X147367145Y-117560387D01*
X147489761Y-117642318D01*
X147489767Y-117642320D01*
X147489769Y-117642322D01*
X147662749Y-117713973D01*
X147846384Y-117750500D01*
X147846385Y-117750500D01*
X148033615Y-117750500D01*
X148033616Y-117750500D01*
X148217251Y-117713973D01*
X148390231Y-117642322D01*
X148390234Y-117642319D01*
X148390238Y-117642318D01*
X148435187Y-117612282D01*
X148545908Y-117538302D01*
X148678302Y-117405908D01*
X148774798Y-117261492D01*
X148782318Y-117250238D01*
X148782319Y-117250234D01*
X148782322Y-117250231D01*
X148853973Y-117077251D01*
X148890500Y-116893616D01*
X148890500Y-116706384D01*
X148890499Y-116706381D01*
X149749500Y-116706381D01*
X149749500Y-116893618D01*
X149786026Y-117077249D01*
X149857677Y-117250229D01*
X149857681Y-117250238D01*
X149932065Y-117361559D01*
X149961698Y-117405908D01*
X150094092Y-117538302D01*
X150127145Y-117560387D01*
X150249761Y-117642318D01*
X150249767Y-117642320D01*
X150249769Y-117642322D01*
X150422749Y-117713973D01*
X150606384Y-117750500D01*
X150606385Y-117750500D01*
X150793615Y-117750500D01*
X150793616Y-117750500D01*
X150977251Y-117713973D01*
X151150231Y-117642322D01*
X151150234Y-117642319D01*
X151150238Y-117642318D01*
X151195187Y-117612282D01*
X151305908Y-117538302D01*
X151438302Y-117405908D01*
X151534798Y-117261492D01*
X151542318Y-117250238D01*
X151542319Y-117250234D01*
X151542322Y-117250231D01*
X151613973Y-117077251D01*
X151650500Y-116893616D01*
X151650500Y-116706384D01*
X151638347Y-116645284D01*
X158189500Y-116645284D01*
X158189500Y-116954715D01*
X158228405Y-117250231D01*
X158229889Y-117261499D01*
X158268583Y-117405907D01*
X158309975Y-117560387D01*
X158428386Y-117846259D01*
X158428389Y-117846264D01*
X158583103Y-118114234D01*
X158583105Y-118114237D01*
X158771474Y-118359725D01*
X158990275Y-118578526D01*
X159235763Y-118766895D01*
X159235765Y-118766896D01*
X159503735Y-118921610D01*
X159503740Y-118921613D01*
X159736811Y-119018153D01*
X159789614Y-119040025D01*
X160088501Y-119120111D01*
X160395285Y-119160500D01*
X160395286Y-119160500D01*
X160704714Y-119160500D01*
X160704715Y-119160500D01*
X161011499Y-119120111D01*
X161310386Y-119040025D01*
X161490658Y-118965353D01*
X161596259Y-118921613D01*
X161596260Y-118921611D01*
X161596263Y-118921611D01*
X161864237Y-118766895D01*
X162109725Y-118578526D01*
X162328526Y-118359725D01*
X162516895Y-118114237D01*
X162671611Y-117846263D01*
X162790025Y-117560386D01*
X162870111Y-117261499D01*
X162910500Y-116954715D01*
X162910500Y-116645285D01*
X162870111Y-116338501D01*
X162790025Y-116039614D01*
X162756086Y-115957677D01*
X162671613Y-115753740D01*
X162671610Y-115753735D01*
X162516896Y-115485765D01*
X162516895Y-115485763D01*
X162328526Y-115240275D01*
X162109725Y-115021474D01*
X161864237Y-114833105D01*
X161810913Y-114802318D01*
X161596264Y-114678389D01*
X161596259Y-114678386D01*
X161310387Y-114559975D01*
X161240354Y-114541210D01*
X161011499Y-114479889D01*
X161011492Y-114479888D01*
X160704715Y-114439500D01*
X160395285Y-114439500D01*
X160395284Y-114439500D01*
X160088507Y-114479888D01*
X160088505Y-114479888D01*
X160088501Y-114479889D01*
X159929677Y-114522445D01*
X159789612Y-114559975D01*
X159503740Y-114678386D01*
X159503735Y-114678389D01*
X159235765Y-114833103D01*
X158990278Y-115021471D01*
X158771471Y-115240278D01*
X158583103Y-115485765D01*
X158428389Y-115753735D01*
X158428386Y-115753740D01*
X158309975Y-116039612D01*
X158272445Y-116179677D01*
X158229889Y-116338501D01*
X158229888Y-116338505D01*
X158229888Y-116338507D01*
X158189500Y-116645284D01*
X151638347Y-116645284D01*
X151613973Y-116522749D01*
X151542322Y-116349769D01*
X151542320Y-116349767D01*
X151542318Y-116349761D01*
X151482649Y-116260463D01*
X151438302Y-116194092D01*
X151305908Y-116061698D01*
X151261559Y-116032065D01*
X151150238Y-115957681D01*
X151150229Y-115957677D01*
X150977249Y-115886026D01*
X150793618Y-115849500D01*
X150793616Y-115849500D01*
X150606384Y-115849500D01*
X150606381Y-115849500D01*
X150422750Y-115886026D01*
X150249770Y-115957677D01*
X150249761Y-115957681D01*
X150094092Y-116061698D01*
X150094088Y-116061701D01*
X149961701Y-116194088D01*
X149961698Y-116194092D01*
X149857681Y-116349761D01*
X149857677Y-116349770D01*
X149786026Y-116522750D01*
X149749500Y-116706381D01*
X148890499Y-116706381D01*
X148853973Y-116522749D01*
X148782322Y-116349769D01*
X148782320Y-116349767D01*
X148782318Y-116349761D01*
X148722649Y-116260463D01*
X148678302Y-116194092D01*
X148545908Y-116061698D01*
X148501559Y-116032065D01*
X148390238Y-115957681D01*
X148390229Y-115957677D01*
X148217249Y-115886026D01*
X148033618Y-115849500D01*
X148033616Y-115849500D01*
X147846384Y-115849500D01*
X147846381Y-115849500D01*
X147662750Y-115886026D01*
X147489770Y-115957677D01*
X147489761Y-115957681D01*
X147334092Y-116061698D01*
X147334088Y-116061701D01*
X147201701Y-116194088D01*
X147201698Y-116194092D01*
X147097681Y-116349761D01*
X147097677Y-116349770D01*
X147026026Y-116522750D01*
X146989500Y-116706381D01*
X146130499Y-116706381D01*
X146093973Y-116522749D01*
X146022322Y-116349769D01*
X146022320Y-116349767D01*
X146022318Y-116349761D01*
X145962649Y-116260463D01*
X145918302Y-116194092D01*
X145785908Y-116061698D01*
X145741559Y-116032065D01*
X145630238Y-115957681D01*
X145630229Y-115957677D01*
X145457249Y-115886026D01*
X145273618Y-115849500D01*
X145273616Y-115849500D01*
X145086384Y-115849500D01*
X145086381Y-115849500D01*
X144902750Y-115886026D01*
X144729770Y-115957677D01*
X144729761Y-115957681D01*
X144574092Y-116061698D01*
X144574088Y-116061701D01*
X144441701Y-116194088D01*
X144441698Y-116194092D01*
X144337681Y-116349761D01*
X144337677Y-116349770D01*
X144266026Y-116522750D01*
X144229500Y-116706381D01*
X143370499Y-116706381D01*
X143333973Y-116522749D01*
X143262322Y-116349769D01*
X143262320Y-116349767D01*
X143262318Y-116349761D01*
X143202649Y-116260463D01*
X143158302Y-116194092D01*
X143025908Y-116061698D01*
X142981559Y-116032065D01*
X142870238Y-115957681D01*
X142870229Y-115957677D01*
X142697249Y-115886026D01*
X142513618Y-115849500D01*
X142513616Y-115849500D01*
X142326384Y-115849500D01*
X142326381Y-115849500D01*
X142142750Y-115886026D01*
X141969770Y-115957677D01*
X141969761Y-115957681D01*
X141814092Y-116061698D01*
X141814088Y-116061701D01*
X141681701Y-116194088D01*
X141681698Y-116194092D01*
X141577681Y-116349761D01*
X141577677Y-116349770D01*
X141506026Y-116522750D01*
X141469500Y-116706381D01*
X140610499Y-116706381D01*
X140573973Y-116522749D01*
X140502322Y-116349769D01*
X140502320Y-116349767D01*
X140502318Y-116349761D01*
X140442649Y-116260463D01*
X140398302Y-116194092D01*
X140265908Y-116061698D01*
X140221559Y-116032065D01*
X140110238Y-115957681D01*
X140110229Y-115957677D01*
X139937249Y-115886026D01*
X139753618Y-115849500D01*
X139753616Y-115849500D01*
X139566384Y-115849500D01*
X139566381Y-115849500D01*
X139382750Y-115886026D01*
X139209770Y-115957677D01*
X139209761Y-115957681D01*
X139054092Y-116061698D01*
X139054088Y-116061701D01*
X138921701Y-116194088D01*
X138921698Y-116194092D01*
X138817681Y-116349761D01*
X138817677Y-116349770D01*
X138746026Y-116522750D01*
X138709500Y-116706381D01*
X137850499Y-116706381D01*
X137813973Y-116522749D01*
X137742322Y-116349769D01*
X137742320Y-116349767D01*
X137742318Y-116349761D01*
X137682649Y-116260463D01*
X137638302Y-116194092D01*
X137505908Y-116061698D01*
X137461559Y-116032065D01*
X137350238Y-115957681D01*
X137350229Y-115957677D01*
X137177249Y-115886026D01*
X136993618Y-115849500D01*
X136993616Y-115849500D01*
X136806384Y-115849500D01*
X136806381Y-115849500D01*
X136622750Y-115886026D01*
X136449770Y-115957677D01*
X136449761Y-115957681D01*
X136294092Y-116061698D01*
X136294088Y-116061701D01*
X136161701Y-116194088D01*
X136161698Y-116194092D01*
X136057681Y-116349761D01*
X136057677Y-116349770D01*
X135986026Y-116522750D01*
X135949500Y-116706381D01*
X135090499Y-116706381D01*
X135053973Y-116522749D01*
X134982322Y-116349769D01*
X134982320Y-116349767D01*
X134982318Y-116349761D01*
X134922649Y-116260463D01*
X134878302Y-116194092D01*
X134745908Y-116061698D01*
X134701559Y-116032065D01*
X134590238Y-115957681D01*
X134590229Y-115957677D01*
X134417249Y-115886026D01*
X134233618Y-115849500D01*
X134233616Y-115849500D01*
X134046384Y-115849500D01*
X134046381Y-115849500D01*
X133862750Y-115886026D01*
X133689770Y-115957677D01*
X133689761Y-115957681D01*
X133534092Y-116061698D01*
X133534088Y-116061701D01*
X133401701Y-116194088D01*
X133401698Y-116194092D01*
X133297681Y-116349761D01*
X133297677Y-116349770D01*
X133226026Y-116522750D01*
X133189500Y-116706381D01*
X132330499Y-116706381D01*
X132293973Y-116522749D01*
X132222322Y-116349769D01*
X132222320Y-116349767D01*
X132222318Y-116349761D01*
X132162649Y-116260463D01*
X132118302Y-116194092D01*
X131985908Y-116061698D01*
X131941559Y-116032065D01*
X131830238Y-115957681D01*
X131830229Y-115957677D01*
X131657249Y-115886026D01*
X131473618Y-115849500D01*
X131473616Y-115849500D01*
X131286384Y-115849500D01*
X131286381Y-115849500D01*
X131102750Y-115886026D01*
X130929770Y-115957677D01*
X130929761Y-115957681D01*
X130774092Y-116061698D01*
X130774088Y-116061701D01*
X130641701Y-116194088D01*
X130641698Y-116194092D01*
X130537681Y-116349761D01*
X130537677Y-116349770D01*
X130466026Y-116522750D01*
X130429500Y-116706381D01*
X129570499Y-116706381D01*
X129533973Y-116522749D01*
X129462322Y-116349769D01*
X129462320Y-116349767D01*
X129462318Y-116349761D01*
X129402649Y-116260463D01*
X129358302Y-116194092D01*
X129225908Y-116061698D01*
X129181559Y-116032065D01*
X129070238Y-115957681D01*
X129070229Y-115957677D01*
X128897249Y-115886026D01*
X128713618Y-115849500D01*
X128713616Y-115849500D01*
X128526384Y-115849500D01*
X128526381Y-115849500D01*
X128342750Y-115886026D01*
X128169770Y-115957677D01*
X128169761Y-115957681D01*
X128014092Y-116061698D01*
X128014088Y-116061701D01*
X127881701Y-116194088D01*
X127881698Y-116194092D01*
X127777681Y-116349761D01*
X127777677Y-116349770D01*
X127706026Y-116522750D01*
X127669500Y-116706381D01*
X126810499Y-116706381D01*
X126773973Y-116522749D01*
X126702322Y-116349769D01*
X126702320Y-116349767D01*
X126702318Y-116349761D01*
X126642649Y-116260463D01*
X126598302Y-116194092D01*
X126465908Y-116061698D01*
X126421559Y-116032065D01*
X126310238Y-115957681D01*
X126310229Y-115957677D01*
X126137249Y-115886026D01*
X125953618Y-115849500D01*
X125953616Y-115849500D01*
X125766384Y-115849500D01*
X125766381Y-115849500D01*
X125582750Y-115886026D01*
X125409770Y-115957677D01*
X125409761Y-115957681D01*
X125254092Y-116061698D01*
X125254088Y-116061701D01*
X125121701Y-116194088D01*
X125121698Y-116194092D01*
X125017681Y-116349761D01*
X125017677Y-116349770D01*
X124946026Y-116522750D01*
X124909500Y-116706381D01*
X124050499Y-116706381D01*
X124013973Y-116522749D01*
X123942322Y-116349769D01*
X123942320Y-116349767D01*
X123942318Y-116349761D01*
X123882649Y-116260463D01*
X123838302Y-116194092D01*
X123705908Y-116061698D01*
X123661559Y-116032065D01*
X123550238Y-115957681D01*
X123550229Y-115957677D01*
X123377249Y-115886026D01*
X123193618Y-115849500D01*
X123193616Y-115849500D01*
X123006384Y-115849500D01*
X123006381Y-115849500D01*
X122822750Y-115886026D01*
X122649770Y-115957677D01*
X122649761Y-115957681D01*
X122494092Y-116061698D01*
X122494088Y-116061701D01*
X122361701Y-116194088D01*
X122361698Y-116194092D01*
X122257681Y-116349761D01*
X122257677Y-116349770D01*
X122186026Y-116522750D01*
X122149500Y-116706381D01*
X121290499Y-116706381D01*
X121253973Y-116522749D01*
X121182322Y-116349769D01*
X121182320Y-116349767D01*
X121182318Y-116349761D01*
X121122649Y-116260463D01*
X121078302Y-116194092D01*
X120945908Y-116061698D01*
X120901559Y-116032065D01*
X120790238Y-115957681D01*
X120790229Y-115957677D01*
X120617249Y-115886026D01*
X120433618Y-115849500D01*
X120433616Y-115849500D01*
X120246384Y-115849500D01*
X120246381Y-115849500D01*
X120062750Y-115886026D01*
X119889770Y-115957677D01*
X119889761Y-115957681D01*
X119734092Y-116061698D01*
X119734088Y-116061701D01*
X119601701Y-116194088D01*
X119601698Y-116194092D01*
X119497681Y-116349761D01*
X119497677Y-116349770D01*
X119426026Y-116522750D01*
X119389500Y-116706381D01*
X118530499Y-116706381D01*
X118493973Y-116522749D01*
X118422322Y-116349769D01*
X118422320Y-116349767D01*
X118422318Y-116349761D01*
X118362649Y-116260463D01*
X118318302Y-116194092D01*
X118185908Y-116061698D01*
X118141559Y-116032065D01*
X118030238Y-115957681D01*
X118030229Y-115957677D01*
X117857249Y-115886026D01*
X117673618Y-115849500D01*
X117673616Y-115849500D01*
X117486384Y-115849500D01*
X117486381Y-115849500D01*
X117302750Y-115886026D01*
X117129770Y-115957677D01*
X117129761Y-115957681D01*
X116974092Y-116061698D01*
X116974088Y-116061701D01*
X116841701Y-116194088D01*
X116841698Y-116194092D01*
X116737681Y-116349761D01*
X116737677Y-116349770D01*
X116666026Y-116522750D01*
X116629500Y-116706381D01*
X115770499Y-116706381D01*
X115733973Y-116522749D01*
X115662322Y-116349769D01*
X115662320Y-116349767D01*
X115662318Y-116349761D01*
X115602649Y-116260463D01*
X115558302Y-116194092D01*
X115425908Y-116061698D01*
X115381559Y-116032065D01*
X115270238Y-115957681D01*
X115270229Y-115957677D01*
X115097249Y-115886026D01*
X114913618Y-115849500D01*
X114913616Y-115849500D01*
X114726384Y-115849500D01*
X114726381Y-115849500D01*
X114542750Y-115886026D01*
X114369770Y-115957677D01*
X114369761Y-115957681D01*
X114214092Y-116061698D01*
X114214088Y-116061701D01*
X114081701Y-116194088D01*
X114081698Y-116194092D01*
X113977681Y-116349761D01*
X113977677Y-116349770D01*
X113906026Y-116522750D01*
X113869500Y-116706381D01*
X113010499Y-116706381D01*
X112973973Y-116522749D01*
X112902322Y-116349769D01*
X112902320Y-116349767D01*
X112902318Y-116349761D01*
X112842649Y-116260463D01*
X112798302Y-116194092D01*
X112665908Y-116061698D01*
X112621559Y-116032065D01*
X112510238Y-115957681D01*
X112510229Y-115957677D01*
X112337249Y-115886026D01*
X112153618Y-115849500D01*
X112153616Y-115849500D01*
X111966384Y-115849500D01*
X111966381Y-115849500D01*
X111782750Y-115886026D01*
X111609770Y-115957677D01*
X111609761Y-115957681D01*
X111454092Y-116061698D01*
X111454088Y-116061701D01*
X111321701Y-116194088D01*
X111321698Y-116194092D01*
X111217681Y-116349761D01*
X111217677Y-116349770D01*
X111146026Y-116522750D01*
X111109500Y-116706381D01*
X110250499Y-116706381D01*
X110213973Y-116522749D01*
X110142322Y-116349769D01*
X110142320Y-116349767D01*
X110142318Y-116349761D01*
X110082649Y-116260463D01*
X110038302Y-116194092D01*
X109905908Y-116061698D01*
X109861559Y-116032065D01*
X109750238Y-115957681D01*
X109750229Y-115957677D01*
X109577249Y-115886026D01*
X109393618Y-115849500D01*
X109393616Y-115849500D01*
X109206384Y-115849500D01*
X109206381Y-115849500D01*
X109022750Y-115886026D01*
X108849770Y-115957677D01*
X108849761Y-115957681D01*
X108694092Y-116061698D01*
X108694088Y-116061701D01*
X108561701Y-116194088D01*
X108561698Y-116194092D01*
X108457681Y-116349761D01*
X108457677Y-116349770D01*
X108386026Y-116522750D01*
X108349500Y-116706381D01*
X101810500Y-116706381D01*
X101810500Y-116645285D01*
X101770111Y-116338501D01*
X101690025Y-116039614D01*
X101656086Y-115957677D01*
X101571613Y-115753740D01*
X101571610Y-115753735D01*
X101416896Y-115485765D01*
X101416895Y-115485763D01*
X101228526Y-115240275D01*
X101009725Y-115021474D01*
X100764237Y-114833105D01*
X100710913Y-114802318D01*
X100496264Y-114678389D01*
X100496259Y-114678386D01*
X100210387Y-114559975D01*
X100140354Y-114541210D01*
X99911499Y-114479889D01*
X99911492Y-114479888D01*
X99604715Y-114439500D01*
X99295285Y-114439500D01*
X99295284Y-114439500D01*
X98988507Y-114479888D01*
X98988505Y-114479888D01*
X98988501Y-114479889D01*
X98829677Y-114522445D01*
X98689612Y-114559975D01*
X98403740Y-114678386D01*
X98403735Y-114678389D01*
X98135765Y-114833103D01*
X97890278Y-115021471D01*
X97671471Y-115240278D01*
X97483103Y-115485765D01*
X97328389Y-115753735D01*
X97328386Y-115753740D01*
X97209975Y-116039612D01*
X97172445Y-116179677D01*
X97129889Y-116338501D01*
X97129888Y-116338505D01*
X97129888Y-116338507D01*
X97089500Y-116645284D01*
X91500000Y-116645284D01*
X91500000Y-113866381D01*
X106969500Y-113866381D01*
X106969500Y-114053618D01*
X107006026Y-114237249D01*
X107077677Y-114410229D01*
X107077681Y-114410238D01*
X107152065Y-114521559D01*
X107181698Y-114565908D01*
X107314092Y-114698302D01*
X107380463Y-114742649D01*
X107469761Y-114802318D01*
X107469767Y-114802320D01*
X107469769Y-114802322D01*
X107642749Y-114873973D01*
X107826384Y-114910500D01*
X107826385Y-114910500D01*
X108013615Y-114910500D01*
X108013616Y-114910500D01*
X108197251Y-114873973D01*
X108370231Y-114802322D01*
X108370234Y-114802319D01*
X108370238Y-114802318D01*
X108415187Y-114772282D01*
X108525908Y-114698302D01*
X108658302Y-114565908D01*
X108742765Y-114439500D01*
X108762318Y-114410238D01*
X108762319Y-114410234D01*
X108762322Y-114410231D01*
X108833973Y-114237251D01*
X108870500Y-114053616D01*
X108870500Y-113866384D01*
X108870499Y-113866381D01*
X109729500Y-113866381D01*
X109729500Y-114053618D01*
X109766026Y-114237249D01*
X109837677Y-114410229D01*
X109837681Y-114410238D01*
X109912065Y-114521559D01*
X109941698Y-114565908D01*
X110074092Y-114698302D01*
X110140463Y-114742649D01*
X110229761Y-114802318D01*
X110229767Y-114802320D01*
X110229769Y-114802322D01*
X110402749Y-114873973D01*
X110586384Y-114910500D01*
X110586385Y-114910500D01*
X110773615Y-114910500D01*
X110773616Y-114910500D01*
X110957251Y-114873973D01*
X111130231Y-114802322D01*
X111130234Y-114802319D01*
X111130238Y-114802318D01*
X111175187Y-114772282D01*
X111285908Y-114698302D01*
X111418302Y-114565908D01*
X111502765Y-114439500D01*
X111522318Y-114410238D01*
X111522319Y-114410234D01*
X111522322Y-114410231D01*
X111593973Y-114237251D01*
X111630500Y-114053616D01*
X111630500Y-113866384D01*
X111630499Y-113866381D01*
X112489500Y-113866381D01*
X112489500Y-114053618D01*
X112526026Y-114237249D01*
X112597677Y-114410229D01*
X112597681Y-114410238D01*
X112672065Y-114521559D01*
X112701698Y-114565908D01*
X112834092Y-114698302D01*
X112900463Y-114742649D01*
X112989761Y-114802318D01*
X112989767Y-114802320D01*
X112989769Y-114802322D01*
X113162749Y-114873973D01*
X113346384Y-114910500D01*
X113346385Y-114910500D01*
X113533615Y-114910500D01*
X113533616Y-114910500D01*
X113717251Y-114873973D01*
X113890231Y-114802322D01*
X113890234Y-114802319D01*
X113890238Y-114802318D01*
X113935187Y-114772282D01*
X114045908Y-114698302D01*
X114178302Y-114565908D01*
X114262765Y-114439500D01*
X114282318Y-114410238D01*
X114282319Y-114410234D01*
X114282322Y-114410231D01*
X114353973Y-114237251D01*
X114390500Y-114053616D01*
X114390500Y-113866384D01*
X114390499Y-113866381D01*
X115249500Y-113866381D01*
X115249500Y-114053618D01*
X115286026Y-114237249D01*
X115357677Y-114410229D01*
X115357681Y-114410238D01*
X115432065Y-114521559D01*
X115461698Y-114565908D01*
X115594092Y-114698302D01*
X115660463Y-114742649D01*
X115749761Y-114802318D01*
X115749767Y-114802320D01*
X115749769Y-114802322D01*
X115922749Y-114873973D01*
X116106384Y-114910500D01*
X116106385Y-114910500D01*
X116293615Y-114910500D01*
X116293616Y-114910500D01*
X116477251Y-114873973D01*
X116650231Y-114802322D01*
X116650234Y-114802319D01*
X116650238Y-114802318D01*
X116695187Y-114772282D01*
X116805908Y-114698302D01*
X116938302Y-114565908D01*
X117022765Y-114439500D01*
X117042318Y-114410238D01*
X117042319Y-114410234D01*
X117042322Y-114410231D01*
X117113973Y-114237251D01*
X117150500Y-114053616D01*
X117150500Y-113866384D01*
X117150499Y-113866381D01*
X118009500Y-113866381D01*
X118009500Y-114053618D01*
X118046026Y-114237249D01*
X118117677Y-114410229D01*
X118117681Y-114410238D01*
X118192065Y-114521559D01*
X118221698Y-114565908D01*
X118354092Y-114698302D01*
X118420463Y-114742649D01*
X118509761Y-114802318D01*
X118509767Y-114802320D01*
X118509769Y-114802322D01*
X118682749Y-114873973D01*
X118866384Y-114910500D01*
X118866385Y-114910500D01*
X119053615Y-114910500D01*
X119053616Y-114910500D01*
X119237251Y-114873973D01*
X119410231Y-114802322D01*
X119410234Y-114802319D01*
X119410238Y-114802318D01*
X119455187Y-114772282D01*
X119565908Y-114698302D01*
X119698302Y-114565908D01*
X119782765Y-114439500D01*
X119802318Y-114410238D01*
X119802319Y-114410234D01*
X119802322Y-114410231D01*
X119873973Y-114237251D01*
X119910500Y-114053616D01*
X119910500Y-113866384D01*
X119910499Y-113866381D01*
X120769500Y-113866381D01*
X120769500Y-114053618D01*
X120806026Y-114237249D01*
X120877677Y-114410229D01*
X120877681Y-114410238D01*
X120952065Y-114521559D01*
X120981698Y-114565908D01*
X121114092Y-114698302D01*
X121180463Y-114742649D01*
X121269761Y-114802318D01*
X121269767Y-114802320D01*
X121269769Y-114802322D01*
X121442749Y-114873973D01*
X121626384Y-114910500D01*
X121626385Y-114910500D01*
X121813615Y-114910500D01*
X121813616Y-114910500D01*
X121997251Y-114873973D01*
X122170231Y-114802322D01*
X122170234Y-114802319D01*
X122170238Y-114802318D01*
X122215187Y-114772282D01*
X122325908Y-114698302D01*
X122458302Y-114565908D01*
X122542765Y-114439500D01*
X122562318Y-114410238D01*
X122562319Y-114410234D01*
X122562322Y-114410231D01*
X122633973Y-114237251D01*
X122670500Y-114053616D01*
X122670500Y-113866384D01*
X122633973Y-113682749D01*
X122562322Y-113509769D01*
X122562320Y-113509767D01*
X122562318Y-113509761D01*
X122489311Y-113400500D01*
X122458302Y-113354092D01*
X122325908Y-113221698D01*
X122281559Y-113192065D01*
X122170238Y-113117681D01*
X122170229Y-113117677D01*
X121997249Y-113046026D01*
X121813618Y-113009500D01*
X121813616Y-113009500D01*
X121626384Y-113009500D01*
X121626381Y-113009500D01*
X121442750Y-113046026D01*
X121269770Y-113117677D01*
X121269761Y-113117681D01*
X121114092Y-113221698D01*
X121114088Y-113221701D01*
X120981701Y-113354088D01*
X120981698Y-113354092D01*
X120877681Y-113509761D01*
X120877677Y-113509770D01*
X120806026Y-113682750D01*
X120769500Y-113866381D01*
X119910499Y-113866381D01*
X119873973Y-113682749D01*
X119802322Y-113509769D01*
X119802320Y-113509767D01*
X119802318Y-113509761D01*
X119729311Y-113400500D01*
X119698302Y-113354092D01*
X119565908Y-113221698D01*
X119521559Y-113192065D01*
X119410238Y-113117681D01*
X119410229Y-113117677D01*
X119237249Y-113046026D01*
X119053618Y-113009500D01*
X119053616Y-113009500D01*
X118866384Y-113009500D01*
X118866381Y-113009500D01*
X118682750Y-113046026D01*
X118509770Y-113117677D01*
X118509761Y-113117681D01*
X118354092Y-113221698D01*
X118354088Y-113221701D01*
X118221701Y-113354088D01*
X118221698Y-113354092D01*
X118117681Y-113509761D01*
X118117677Y-113509770D01*
X118046026Y-113682750D01*
X118009500Y-113866381D01*
X117150499Y-113866381D01*
X117113973Y-113682749D01*
X117042322Y-113509769D01*
X117042320Y-113509767D01*
X117042318Y-113509761D01*
X116969311Y-113400500D01*
X116938302Y-113354092D01*
X116805908Y-113221698D01*
X116761559Y-113192065D01*
X116650238Y-113117681D01*
X116650229Y-113117677D01*
X116477249Y-113046026D01*
X116293618Y-113009500D01*
X116293616Y-113009500D01*
X116106384Y-113009500D01*
X116106381Y-113009500D01*
X115922750Y-113046026D01*
X115749770Y-113117677D01*
X115749761Y-113117681D01*
X115594092Y-113221698D01*
X115594088Y-113221701D01*
X115461701Y-113354088D01*
X115461698Y-113354092D01*
X115357681Y-113509761D01*
X115357677Y-113509770D01*
X115286026Y-113682750D01*
X115249500Y-113866381D01*
X114390499Y-113866381D01*
X114353973Y-113682749D01*
X114282322Y-113509769D01*
X114282320Y-113509767D01*
X114282318Y-113509761D01*
X114209311Y-113400500D01*
X114178302Y-113354092D01*
X114045908Y-113221698D01*
X114001559Y-113192065D01*
X113890238Y-113117681D01*
X113890229Y-113117677D01*
X113717249Y-113046026D01*
X113533618Y-113009500D01*
X113533616Y-113009500D01*
X113346384Y-113009500D01*
X113346381Y-113009500D01*
X113162750Y-113046026D01*
X112989770Y-113117677D01*
X112989761Y-113117681D01*
X112834092Y-113221698D01*
X112834088Y-113221701D01*
X112701701Y-113354088D01*
X112701698Y-113354092D01*
X112597681Y-113509761D01*
X112597677Y-113509770D01*
X112526026Y-113682750D01*
X112489500Y-113866381D01*
X111630499Y-113866381D01*
X111593973Y-113682749D01*
X111522322Y-113509769D01*
X111522320Y-113509767D01*
X111522318Y-113509761D01*
X111449311Y-113400500D01*
X111418302Y-113354092D01*
X111285908Y-113221698D01*
X111241559Y-113192065D01*
X111130238Y-113117681D01*
X111130229Y-113117677D01*
X110957249Y-113046026D01*
X110773618Y-113009500D01*
X110773616Y-113009500D01*
X110586384Y-113009500D01*
X110586381Y-113009500D01*
X110402750Y-113046026D01*
X110229770Y-113117677D01*
X110229761Y-113117681D01*
X110074092Y-113221698D01*
X110074088Y-113221701D01*
X109941701Y-113354088D01*
X109941698Y-113354092D01*
X109837681Y-113509761D01*
X109837677Y-113509770D01*
X109766026Y-113682750D01*
X109729500Y-113866381D01*
X108870499Y-113866381D01*
X108833973Y-113682749D01*
X108762322Y-113509769D01*
X108762320Y-113509767D01*
X108762318Y-113509761D01*
X108689311Y-113400500D01*
X108658302Y-113354092D01*
X108525908Y-113221698D01*
X108481559Y-113192065D01*
X108370238Y-113117681D01*
X108370229Y-113117677D01*
X108197249Y-113046026D01*
X108013618Y-113009500D01*
X108013616Y-113009500D01*
X107826384Y-113009500D01*
X107826381Y-113009500D01*
X107642750Y-113046026D01*
X107469770Y-113117677D01*
X107469761Y-113117681D01*
X107314092Y-113221698D01*
X107314088Y-113221701D01*
X107181701Y-113354088D01*
X107181698Y-113354092D01*
X107077681Y-113509761D01*
X107077677Y-113509770D01*
X107006026Y-113682750D01*
X106969500Y-113866381D01*
X91500000Y-113866381D01*
X91500000Y-111920943D01*
X97699500Y-111920943D01*
X97699500Y-112079057D01*
X97740423Y-112231784D01*
X97819480Y-112368716D01*
X97931284Y-112480520D01*
X98068216Y-112559577D01*
X98220943Y-112600500D01*
X98220945Y-112600500D01*
X98379055Y-112600500D01*
X98379057Y-112600500D01*
X98531784Y-112559577D01*
X98668716Y-112480520D01*
X98780520Y-112368716D01*
X98859577Y-112231784D01*
X98900500Y-112079057D01*
X98900500Y-111920943D01*
X98873973Y-111821943D01*
X114809200Y-111821943D01*
X114809200Y-111980057D01*
X114850123Y-112132784D01*
X114929180Y-112269716D01*
X115040984Y-112381520D01*
X115177916Y-112460577D01*
X115330643Y-112501500D01*
X115330645Y-112501500D01*
X115488755Y-112501500D01*
X115488757Y-112501500D01*
X115641484Y-112460577D01*
X115776260Y-112382764D01*
X115836106Y-112370043D01*
X115892002Y-112394929D01*
X115895742Y-112398478D01*
X115929684Y-112432420D01*
X116066616Y-112511477D01*
X116219343Y-112552400D01*
X116219345Y-112552400D01*
X116377455Y-112552400D01*
X116377457Y-112552400D01*
X116530184Y-112511477D01*
X116667116Y-112432420D01*
X116778920Y-112320616D01*
X116857977Y-112183684D01*
X116898900Y-112030957D01*
X116898900Y-111872843D01*
X116857977Y-111720116D01*
X116841423Y-111691443D01*
X123172200Y-111691443D01*
X123172200Y-111849557D01*
X123213123Y-112002284D01*
X123292180Y-112139216D01*
X123403984Y-112251020D01*
X123540916Y-112330077D01*
X123693643Y-112371000D01*
X123693645Y-112371000D01*
X123700077Y-112371847D01*
X123699713Y-112374607D01*
X123746802Y-112389907D01*
X123782766Y-112439407D01*
X123784231Y-112444353D01*
X123804523Y-112520084D01*
X123883580Y-112657016D01*
X123995384Y-112768820D01*
X124132316Y-112847877D01*
X124183851Y-112861685D01*
X124235164Y-112895009D01*
X124257091Y-112952131D01*
X124241255Y-113011231D01*
X124196113Y-113048775D01*
X124146305Y-113069407D01*
X124029770Y-113117677D01*
X124029761Y-113117681D01*
X123874092Y-113221698D01*
X123874088Y-113221701D01*
X123741701Y-113354088D01*
X123741698Y-113354092D01*
X123637681Y-113509761D01*
X123637677Y-113509770D01*
X123566026Y-113682750D01*
X123529500Y-113866381D01*
X123529500Y-114053618D01*
X123566026Y-114237249D01*
X123637677Y-114410229D01*
X123637681Y-114410238D01*
X123712065Y-114521559D01*
X123741698Y-114565908D01*
X123874092Y-114698302D01*
X123940463Y-114742649D01*
X124029761Y-114802318D01*
X124029767Y-114802320D01*
X124029769Y-114802322D01*
X124202749Y-114873973D01*
X124386384Y-114910500D01*
X124386385Y-114910500D01*
X124573615Y-114910500D01*
X124573616Y-114910500D01*
X124757251Y-114873973D01*
X124930231Y-114802322D01*
X124930234Y-114802319D01*
X124930238Y-114802318D01*
X124975187Y-114772282D01*
X125085908Y-114698302D01*
X125218302Y-114565908D01*
X125302765Y-114439500D01*
X125322318Y-114410238D01*
X125322319Y-114410234D01*
X125322322Y-114410231D01*
X125393973Y-114237251D01*
X125430500Y-114053616D01*
X125430500Y-113866384D01*
X125393973Y-113682749D01*
X125322322Y-113509769D01*
X125322320Y-113509767D01*
X125322318Y-113509761D01*
X125249311Y-113400500D01*
X125218302Y-113354092D01*
X125085908Y-113221698D01*
X125041559Y-113192065D01*
X124930238Y-113117681D01*
X124930229Y-113117677D01*
X124757249Y-113046026D01*
X124639954Y-113022695D01*
X124586570Y-112992798D01*
X124560954Y-112937233D01*
X124572891Y-112877223D01*
X124609765Y-112839862D01*
X124732816Y-112768820D01*
X124809693Y-112691943D01*
X126011100Y-112691943D01*
X126011100Y-112850057D01*
X126052023Y-113002784D01*
X126131080Y-113139716D01*
X126242884Y-113251520D01*
X126379816Y-113330577D01*
X126379818Y-113330577D01*
X126385436Y-113333821D01*
X126384205Y-113335951D01*
X126422647Y-113368767D01*
X126436945Y-113428258D01*
X126420565Y-113475515D01*
X126397677Y-113509770D01*
X126326026Y-113682750D01*
X126289500Y-113866381D01*
X126289500Y-114053618D01*
X126326026Y-114237249D01*
X126397677Y-114410229D01*
X126397681Y-114410238D01*
X126472065Y-114521559D01*
X126501698Y-114565908D01*
X126634092Y-114698302D01*
X126700463Y-114742649D01*
X126789761Y-114802318D01*
X126789767Y-114802320D01*
X126789769Y-114802322D01*
X126962749Y-114873973D01*
X127146384Y-114910500D01*
X127146385Y-114910500D01*
X127333615Y-114910500D01*
X127333616Y-114910500D01*
X127517251Y-114873973D01*
X127690231Y-114802322D01*
X127690234Y-114802319D01*
X127690238Y-114802318D01*
X127735187Y-114772282D01*
X127845908Y-114698302D01*
X127978302Y-114565908D01*
X128062765Y-114439500D01*
X128082318Y-114410238D01*
X128082319Y-114410234D01*
X128082322Y-114410231D01*
X128153973Y-114237251D01*
X128190500Y-114053616D01*
X128190500Y-113866384D01*
X128190499Y-113866381D01*
X129049500Y-113866381D01*
X129049500Y-114053618D01*
X129086026Y-114237249D01*
X129157677Y-114410229D01*
X129157681Y-114410238D01*
X129232065Y-114521559D01*
X129261698Y-114565908D01*
X129394092Y-114698302D01*
X129460463Y-114742649D01*
X129549761Y-114802318D01*
X129549767Y-114802320D01*
X129549769Y-114802322D01*
X129722749Y-114873973D01*
X129906384Y-114910500D01*
X129906385Y-114910500D01*
X130093615Y-114910500D01*
X130093616Y-114910500D01*
X130277251Y-114873973D01*
X130450231Y-114802322D01*
X130450234Y-114802319D01*
X130450238Y-114802318D01*
X130495187Y-114772282D01*
X130605908Y-114698302D01*
X130738302Y-114565908D01*
X130822765Y-114439500D01*
X130842318Y-114410238D01*
X130842319Y-114410234D01*
X130842322Y-114410231D01*
X130913973Y-114237251D01*
X130950500Y-114053616D01*
X130950500Y-113866384D01*
X130950499Y-113866381D01*
X131809500Y-113866381D01*
X131809500Y-114053618D01*
X131846026Y-114237249D01*
X131917677Y-114410229D01*
X131917681Y-114410238D01*
X131992065Y-114521559D01*
X132021698Y-114565908D01*
X132154092Y-114698302D01*
X132220463Y-114742649D01*
X132309761Y-114802318D01*
X132309767Y-114802320D01*
X132309769Y-114802322D01*
X132482749Y-114873973D01*
X132666384Y-114910500D01*
X132666385Y-114910500D01*
X132853615Y-114910500D01*
X132853616Y-114910500D01*
X133037251Y-114873973D01*
X133210231Y-114802322D01*
X133210234Y-114802319D01*
X133210238Y-114802318D01*
X133255187Y-114772282D01*
X133365908Y-114698302D01*
X133498302Y-114565908D01*
X133582765Y-114439500D01*
X133602318Y-114410238D01*
X133602319Y-114410234D01*
X133602322Y-114410231D01*
X133673973Y-114237251D01*
X133710500Y-114053616D01*
X133710500Y-113866384D01*
X133710499Y-113866381D01*
X134569500Y-113866381D01*
X134569500Y-114053618D01*
X134606026Y-114237249D01*
X134677677Y-114410229D01*
X134677681Y-114410238D01*
X134752065Y-114521559D01*
X134781698Y-114565908D01*
X134914092Y-114698302D01*
X134980463Y-114742649D01*
X135069761Y-114802318D01*
X135069767Y-114802320D01*
X135069769Y-114802322D01*
X135242749Y-114873973D01*
X135426384Y-114910500D01*
X135426385Y-114910500D01*
X135613615Y-114910500D01*
X135613616Y-114910500D01*
X135797251Y-114873973D01*
X135970231Y-114802322D01*
X135970234Y-114802319D01*
X135970238Y-114802318D01*
X136015187Y-114772282D01*
X136125908Y-114698302D01*
X136258302Y-114565908D01*
X136342765Y-114439500D01*
X136362318Y-114410238D01*
X136362319Y-114410234D01*
X136362322Y-114410231D01*
X136433973Y-114237251D01*
X136470500Y-114053616D01*
X136470500Y-113866384D01*
X136470499Y-113866381D01*
X137329500Y-113866381D01*
X137329500Y-114053618D01*
X137366026Y-114237249D01*
X137437677Y-114410229D01*
X137437681Y-114410238D01*
X137512065Y-114521559D01*
X137541698Y-114565908D01*
X137674092Y-114698302D01*
X137740463Y-114742649D01*
X137829761Y-114802318D01*
X137829767Y-114802320D01*
X137829769Y-114802322D01*
X138002749Y-114873973D01*
X138186384Y-114910500D01*
X138186385Y-114910500D01*
X138373615Y-114910500D01*
X138373616Y-114910500D01*
X138557251Y-114873973D01*
X138730231Y-114802322D01*
X138730234Y-114802319D01*
X138730238Y-114802318D01*
X138775187Y-114772282D01*
X138885908Y-114698302D01*
X139018302Y-114565908D01*
X139102765Y-114439500D01*
X139122318Y-114410238D01*
X139122319Y-114410234D01*
X139122322Y-114410231D01*
X139193973Y-114237251D01*
X139230500Y-114053616D01*
X139230500Y-113866384D01*
X139230499Y-113866381D01*
X140089500Y-113866381D01*
X140089500Y-114053618D01*
X140126026Y-114237249D01*
X140197677Y-114410229D01*
X140197681Y-114410238D01*
X140272065Y-114521559D01*
X140301698Y-114565908D01*
X140434092Y-114698302D01*
X140500463Y-114742649D01*
X140589761Y-114802318D01*
X140589767Y-114802320D01*
X140589769Y-114802322D01*
X140762749Y-114873973D01*
X140946384Y-114910500D01*
X140946385Y-114910500D01*
X141133615Y-114910500D01*
X141133616Y-114910500D01*
X141317251Y-114873973D01*
X141490231Y-114802322D01*
X141490234Y-114802319D01*
X141490238Y-114802318D01*
X141535187Y-114772282D01*
X141645908Y-114698302D01*
X141778302Y-114565908D01*
X141862765Y-114439500D01*
X141882318Y-114410238D01*
X141882319Y-114410234D01*
X141882322Y-114410231D01*
X141953973Y-114237251D01*
X141990500Y-114053616D01*
X141990500Y-113866384D01*
X141990499Y-113866381D01*
X142849500Y-113866381D01*
X142849500Y-114053618D01*
X142886026Y-114237249D01*
X142957677Y-114410229D01*
X142957681Y-114410238D01*
X143032065Y-114521559D01*
X143061698Y-114565908D01*
X143194092Y-114698302D01*
X143260463Y-114742649D01*
X143349761Y-114802318D01*
X143349767Y-114802320D01*
X143349769Y-114802322D01*
X143522749Y-114873973D01*
X143706384Y-114910500D01*
X143706385Y-114910500D01*
X143893615Y-114910500D01*
X143893616Y-114910500D01*
X144077251Y-114873973D01*
X144250231Y-114802322D01*
X144250234Y-114802319D01*
X144250238Y-114802318D01*
X144295187Y-114772282D01*
X144405908Y-114698302D01*
X144538302Y-114565908D01*
X144622765Y-114439500D01*
X144642318Y-114410238D01*
X144642319Y-114410234D01*
X144642322Y-114410231D01*
X144713973Y-114237251D01*
X144750500Y-114053616D01*
X144750500Y-113866384D01*
X144750499Y-113866381D01*
X145609500Y-113866381D01*
X145609500Y-114053618D01*
X145646026Y-114237249D01*
X145717677Y-114410229D01*
X145717681Y-114410238D01*
X145792065Y-114521559D01*
X145821698Y-114565908D01*
X145954092Y-114698302D01*
X146020463Y-114742649D01*
X146109761Y-114802318D01*
X146109767Y-114802320D01*
X146109769Y-114802322D01*
X146282749Y-114873973D01*
X146466384Y-114910500D01*
X146466385Y-114910500D01*
X146653615Y-114910500D01*
X146653616Y-114910500D01*
X146837251Y-114873973D01*
X147010231Y-114802322D01*
X147010234Y-114802319D01*
X147010238Y-114802318D01*
X147055187Y-114772282D01*
X147165908Y-114698302D01*
X147298302Y-114565908D01*
X147382765Y-114439500D01*
X147402318Y-114410238D01*
X147402319Y-114410234D01*
X147402322Y-114410231D01*
X147473973Y-114237251D01*
X147510500Y-114053616D01*
X147510500Y-113866384D01*
X147510499Y-113866381D01*
X148369500Y-113866381D01*
X148369500Y-114053618D01*
X148406026Y-114237249D01*
X148477677Y-114410229D01*
X148477681Y-114410238D01*
X148552065Y-114521559D01*
X148581698Y-114565908D01*
X148714092Y-114698302D01*
X148780463Y-114742649D01*
X148869761Y-114802318D01*
X148869767Y-114802320D01*
X148869769Y-114802322D01*
X149042749Y-114873973D01*
X149226384Y-114910500D01*
X149226385Y-114910500D01*
X149413615Y-114910500D01*
X149413616Y-114910500D01*
X149597251Y-114873973D01*
X149770231Y-114802322D01*
X149770234Y-114802319D01*
X149770238Y-114802318D01*
X149815187Y-114772282D01*
X149925908Y-114698302D01*
X150058302Y-114565908D01*
X150142765Y-114439500D01*
X150162318Y-114410238D01*
X150162319Y-114410234D01*
X150162322Y-114410231D01*
X150233973Y-114237251D01*
X150270500Y-114053616D01*
X150270500Y-113866384D01*
X150233973Y-113682749D01*
X150162322Y-113509769D01*
X150162320Y-113509767D01*
X150162318Y-113509761D01*
X150089311Y-113400500D01*
X150058302Y-113354092D01*
X149925908Y-113221698D01*
X149881559Y-113192065D01*
X149770238Y-113117681D01*
X149770229Y-113117677D01*
X149597249Y-113046026D01*
X149413618Y-113009500D01*
X149413616Y-113009500D01*
X149226384Y-113009500D01*
X149226381Y-113009500D01*
X149042750Y-113046026D01*
X148869770Y-113117677D01*
X148869761Y-113117681D01*
X148714092Y-113221698D01*
X148714088Y-113221701D01*
X148581701Y-113354088D01*
X148581698Y-113354092D01*
X148477681Y-113509761D01*
X148477677Y-113509770D01*
X148406026Y-113682750D01*
X148369500Y-113866381D01*
X147510499Y-113866381D01*
X147473973Y-113682749D01*
X147402322Y-113509769D01*
X147402320Y-113509767D01*
X147402318Y-113509761D01*
X147329311Y-113400500D01*
X147298302Y-113354092D01*
X147165908Y-113221698D01*
X147121559Y-113192065D01*
X147010238Y-113117681D01*
X147010229Y-113117677D01*
X146837249Y-113046026D01*
X146653618Y-113009500D01*
X146653616Y-113009500D01*
X146466384Y-113009500D01*
X146466381Y-113009500D01*
X146282750Y-113046026D01*
X146109770Y-113117677D01*
X146109761Y-113117681D01*
X145954092Y-113221698D01*
X145954088Y-113221701D01*
X145821701Y-113354088D01*
X145821698Y-113354092D01*
X145717681Y-113509761D01*
X145717677Y-113509770D01*
X145646026Y-113682750D01*
X145609500Y-113866381D01*
X144750499Y-113866381D01*
X144713973Y-113682749D01*
X144642322Y-113509769D01*
X144642320Y-113509767D01*
X144642318Y-113509761D01*
X144569311Y-113400500D01*
X144538302Y-113354092D01*
X144405908Y-113221698D01*
X144361559Y-113192065D01*
X144250238Y-113117681D01*
X144250229Y-113117677D01*
X144077249Y-113046026D01*
X143893618Y-113009500D01*
X143893616Y-113009500D01*
X143706384Y-113009500D01*
X143706381Y-113009500D01*
X143522750Y-113046026D01*
X143349770Y-113117677D01*
X143349761Y-113117681D01*
X143194092Y-113221698D01*
X143194088Y-113221701D01*
X143061701Y-113354088D01*
X143061698Y-113354092D01*
X142957681Y-113509761D01*
X142957677Y-113509770D01*
X142886026Y-113682750D01*
X142849500Y-113866381D01*
X141990499Y-113866381D01*
X141953973Y-113682749D01*
X141882322Y-113509769D01*
X141882320Y-113509767D01*
X141882318Y-113509761D01*
X141809311Y-113400500D01*
X141778302Y-113354092D01*
X141645908Y-113221698D01*
X141601559Y-113192065D01*
X141490238Y-113117681D01*
X141490229Y-113117677D01*
X141317249Y-113046026D01*
X141133618Y-113009500D01*
X141133616Y-113009500D01*
X140946384Y-113009500D01*
X140946381Y-113009500D01*
X140762750Y-113046026D01*
X140589770Y-113117677D01*
X140589761Y-113117681D01*
X140434092Y-113221698D01*
X140434088Y-113221701D01*
X140301701Y-113354088D01*
X140301698Y-113354092D01*
X140197681Y-113509761D01*
X140197677Y-113509770D01*
X140126026Y-113682750D01*
X140089500Y-113866381D01*
X139230499Y-113866381D01*
X139193973Y-113682749D01*
X139122322Y-113509769D01*
X139122320Y-113509767D01*
X139122318Y-113509761D01*
X139049311Y-113400500D01*
X139018302Y-113354092D01*
X138885908Y-113221698D01*
X138841559Y-113192065D01*
X138730238Y-113117681D01*
X138730229Y-113117677D01*
X138557249Y-113046026D01*
X138373618Y-113009500D01*
X138373616Y-113009500D01*
X138186384Y-113009500D01*
X138186381Y-113009500D01*
X138002750Y-113046026D01*
X137829770Y-113117677D01*
X137829761Y-113117681D01*
X137674092Y-113221698D01*
X137674088Y-113221701D01*
X137541701Y-113354088D01*
X137541698Y-113354092D01*
X137437681Y-113509761D01*
X137437677Y-113509770D01*
X137366026Y-113682750D01*
X137329500Y-113866381D01*
X136470499Y-113866381D01*
X136433973Y-113682749D01*
X136362322Y-113509769D01*
X136362320Y-113509767D01*
X136362318Y-113509761D01*
X136289311Y-113400500D01*
X136258302Y-113354092D01*
X136125908Y-113221698D01*
X136081559Y-113192065D01*
X135970238Y-113117681D01*
X135970229Y-113117677D01*
X135797249Y-113046026D01*
X135613618Y-113009500D01*
X135613616Y-113009500D01*
X135426384Y-113009500D01*
X135426381Y-113009500D01*
X135242750Y-113046026D01*
X135069770Y-113117677D01*
X135069761Y-113117681D01*
X134914092Y-113221698D01*
X134914088Y-113221701D01*
X134781701Y-113354088D01*
X134781698Y-113354092D01*
X134677681Y-113509761D01*
X134677677Y-113509770D01*
X134606026Y-113682750D01*
X134569500Y-113866381D01*
X133710499Y-113866381D01*
X133673973Y-113682749D01*
X133602322Y-113509769D01*
X133602320Y-113509767D01*
X133602318Y-113509761D01*
X133529311Y-113400500D01*
X133498302Y-113354092D01*
X133365908Y-113221698D01*
X133321559Y-113192065D01*
X133210238Y-113117681D01*
X133210229Y-113117677D01*
X133037249Y-113046026D01*
X132853618Y-113009500D01*
X132853616Y-113009500D01*
X132666384Y-113009500D01*
X132666381Y-113009500D01*
X132482750Y-113046026D01*
X132309770Y-113117677D01*
X132309761Y-113117681D01*
X132154092Y-113221698D01*
X132154088Y-113221701D01*
X132021701Y-113354088D01*
X132021698Y-113354092D01*
X131917681Y-113509761D01*
X131917677Y-113509770D01*
X131846026Y-113682750D01*
X131809500Y-113866381D01*
X130950499Y-113866381D01*
X130913973Y-113682749D01*
X130842322Y-113509769D01*
X130842320Y-113509767D01*
X130842318Y-113509761D01*
X130769311Y-113400500D01*
X130738302Y-113354092D01*
X130605908Y-113221698D01*
X130561559Y-113192065D01*
X130450238Y-113117681D01*
X130450229Y-113117677D01*
X130277249Y-113046026D01*
X130093618Y-113009500D01*
X130093616Y-113009500D01*
X129906384Y-113009500D01*
X129906381Y-113009500D01*
X129722750Y-113046026D01*
X129549770Y-113117677D01*
X129549761Y-113117681D01*
X129394092Y-113221698D01*
X129394088Y-113221701D01*
X129261701Y-113354088D01*
X129261698Y-113354092D01*
X129157681Y-113509761D01*
X129157677Y-113509770D01*
X129086026Y-113682750D01*
X129049500Y-113866381D01*
X128190499Y-113866381D01*
X128153973Y-113682749D01*
X128082322Y-113509769D01*
X128082320Y-113509767D01*
X128082318Y-113509761D01*
X128009311Y-113400500D01*
X127978302Y-113354092D01*
X127845908Y-113221698D01*
X127845907Y-113221697D01*
X127781402Y-113178596D01*
X127743523Y-113130546D01*
X127741121Y-113069407D01*
X127775115Y-113018534D01*
X127810776Y-113000656D01*
X127918184Y-112971877D01*
X128055116Y-112892820D01*
X128166920Y-112781016D01*
X128210436Y-112705643D01*
X150548200Y-112705643D01*
X150548200Y-112863757D01*
X150589123Y-113016484D01*
X150668180Y-113153416D01*
X150779984Y-113265220D01*
X150916916Y-113344277D01*
X151069643Y-113385200D01*
X151069645Y-113385200D01*
X151141112Y-113385200D01*
X151199303Y-113404107D01*
X151235267Y-113453607D01*
X151235267Y-113514793D01*
X151232576Y-113522086D01*
X151166026Y-113682750D01*
X151129500Y-113866381D01*
X151129500Y-114053618D01*
X151166026Y-114237249D01*
X151237677Y-114410229D01*
X151237681Y-114410238D01*
X151312065Y-114521559D01*
X151341698Y-114565908D01*
X151474092Y-114698302D01*
X151540463Y-114742649D01*
X151629761Y-114802318D01*
X151629767Y-114802320D01*
X151629769Y-114802322D01*
X151802749Y-114873973D01*
X151986384Y-114910500D01*
X151986385Y-114910500D01*
X152173615Y-114910500D01*
X152173616Y-114910500D01*
X152357251Y-114873973D01*
X152530231Y-114802322D01*
X152530234Y-114802319D01*
X152530238Y-114802318D01*
X152575187Y-114772282D01*
X152685908Y-114698302D01*
X152818302Y-114565908D01*
X152902765Y-114439500D01*
X152922318Y-114410238D01*
X152922319Y-114410234D01*
X152922322Y-114410231D01*
X152993973Y-114237251D01*
X153030500Y-114053616D01*
X153030500Y-113866384D01*
X152993973Y-113682749D01*
X152922322Y-113509769D01*
X152922320Y-113509767D01*
X152922318Y-113509761D01*
X152849311Y-113400500D01*
X152818302Y-113354092D01*
X152685908Y-113221698D01*
X152641559Y-113192065D01*
X152530238Y-113117681D01*
X152530229Y-113117677D01*
X152357249Y-113046026D01*
X152173618Y-113009500D01*
X152173616Y-113009500D01*
X151986384Y-113009500D01*
X151986378Y-113009500D01*
X151850741Y-113036480D01*
X151789980Y-113029288D01*
X151745051Y-112987755D01*
X151733114Y-112927745D01*
X151735802Y-112913758D01*
X151740826Y-112895009D01*
X151749200Y-112863757D01*
X151749200Y-112705643D01*
X151708277Y-112552916D01*
X151629220Y-112415984D01*
X151517416Y-112304180D01*
X151380484Y-112225123D01*
X151227757Y-112184200D01*
X151069643Y-112184200D01*
X150916916Y-112225123D01*
X150779984Y-112304180D01*
X150668180Y-112415984D01*
X150589123Y-112552916D01*
X150548200Y-112705643D01*
X128210436Y-112705643D01*
X128245977Y-112644084D01*
X128286900Y-112491357D01*
X128286900Y-112333243D01*
X128245977Y-112180516D01*
X128166920Y-112043584D01*
X128055116Y-111931780D01*
X127918184Y-111852723D01*
X127765457Y-111811800D01*
X127607343Y-111811800D01*
X127498080Y-111841077D01*
X127454616Y-111852723D01*
X127317684Y-111931780D01*
X127205880Y-112043584D01*
X127126821Y-112180518D01*
X127126821Y-112180519D01*
X127115069Y-112224379D01*
X127081745Y-112275693D01*
X127024623Y-112297619D01*
X126969945Y-112284492D01*
X126843384Y-112211423D01*
X126690657Y-112170500D01*
X126532543Y-112170500D01*
X126379816Y-112211423D01*
X126242884Y-112290480D01*
X126131080Y-112402284D01*
X126052023Y-112539216D01*
X126011100Y-112691943D01*
X124809693Y-112691943D01*
X124844620Y-112657016D01*
X124923677Y-112520084D01*
X124964600Y-112367357D01*
X124964600Y-112209243D01*
X124923677Y-112056516D01*
X124844620Y-111919584D01*
X124732816Y-111807780D01*
X124719415Y-111800043D01*
X130404500Y-111800043D01*
X130404500Y-111958157D01*
X130445423Y-112110884D01*
X130524480Y-112247816D01*
X130636284Y-112359620D01*
X130773216Y-112438677D01*
X130925943Y-112479600D01*
X130925945Y-112479600D01*
X131084055Y-112479600D01*
X131084057Y-112479600D01*
X131236784Y-112438677D01*
X131373716Y-112359620D01*
X131485520Y-112247816D01*
X131558885Y-112120743D01*
X156576800Y-112120743D01*
X156576800Y-112278857D01*
X156617723Y-112431584D01*
X156696780Y-112568516D01*
X156808584Y-112680320D01*
X156945516Y-112759377D01*
X157098243Y-112800300D01*
X157098245Y-112800300D01*
X157256355Y-112800300D01*
X157256357Y-112800300D01*
X157409084Y-112759377D01*
X157475654Y-112720943D01*
X164549500Y-112720943D01*
X164549500Y-112879057D01*
X164590423Y-113031784D01*
X164669480Y-113168716D01*
X164781284Y-113280520D01*
X164918216Y-113359577D01*
X165070943Y-113400500D01*
X165070945Y-113400500D01*
X165229055Y-113400500D01*
X165229057Y-113400500D01*
X165381784Y-113359577D01*
X165518716Y-113280520D01*
X165630520Y-113168716D01*
X165709577Y-113031784D01*
X165750500Y-112879057D01*
X165750500Y-112720943D01*
X165709577Y-112568216D01*
X165630520Y-112431284D01*
X165518716Y-112319480D01*
X165381784Y-112240423D01*
X165229057Y-112199500D01*
X165070943Y-112199500D01*
X164918216Y-112240423D01*
X164781284Y-112319480D01*
X164669480Y-112431284D01*
X164590423Y-112568216D01*
X164549500Y-112720943D01*
X157475654Y-112720943D01*
X157546016Y-112680320D01*
X157657820Y-112568516D01*
X157736877Y-112431584D01*
X157777800Y-112278857D01*
X157777800Y-112120743D01*
X157736877Y-111968016D01*
X157657820Y-111831084D01*
X157546016Y-111719280D01*
X157409084Y-111640223D01*
X157256357Y-111599300D01*
X157098243Y-111599300D01*
X156945516Y-111640223D01*
X156808584Y-111719280D01*
X156696780Y-111831084D01*
X156617723Y-111968016D01*
X156576800Y-112120743D01*
X131558885Y-112120743D01*
X131564577Y-112110884D01*
X131605500Y-111958157D01*
X131605500Y-111800043D01*
X131564577Y-111647316D01*
X131485520Y-111510384D01*
X131373716Y-111398580D01*
X131236784Y-111319523D01*
X131084057Y-111278600D01*
X130925943Y-111278600D01*
X130773216Y-111319523D01*
X130636284Y-111398580D01*
X130524480Y-111510384D01*
X130445423Y-111647316D01*
X130404500Y-111800043D01*
X124719415Y-111800043D01*
X124595884Y-111728723D01*
X124456753Y-111691443D01*
X124443154Y-111687799D01*
X124436723Y-111686953D01*
X124437086Y-111684192D01*
X124389998Y-111668893D01*
X124354034Y-111619393D01*
X124352568Y-111614446D01*
X124332277Y-111538716D01*
X124253220Y-111401784D01*
X124141416Y-111289980D01*
X124004484Y-111210923D01*
X123851757Y-111170000D01*
X123693643Y-111170000D01*
X123540916Y-111210923D01*
X123403984Y-111289980D01*
X123292180Y-111401784D01*
X123213123Y-111538716D01*
X123172200Y-111691443D01*
X116841423Y-111691443D01*
X116778920Y-111583184D01*
X116667116Y-111471380D01*
X116530184Y-111392323D01*
X116377457Y-111351400D01*
X116219343Y-111351400D01*
X116066616Y-111392323D01*
X115931840Y-111470135D01*
X115871992Y-111482856D01*
X115816097Y-111457969D01*
X115812356Y-111454420D01*
X115778416Y-111420480D01*
X115641484Y-111341423D01*
X115488757Y-111300500D01*
X115330643Y-111300500D01*
X115177916Y-111341423D01*
X115040984Y-111420480D01*
X114929180Y-111532284D01*
X114850123Y-111669216D01*
X114809200Y-111821943D01*
X98873973Y-111821943D01*
X98859577Y-111768216D01*
X98780520Y-111631284D01*
X98668716Y-111519480D01*
X98531784Y-111440423D01*
X98379057Y-111399500D01*
X98220943Y-111399500D01*
X98068216Y-111440423D01*
X97931284Y-111519480D01*
X97819480Y-111631284D01*
X97740423Y-111768216D01*
X97699500Y-111920943D01*
X91500000Y-111920943D01*
X91500000Y-110344320D01*
X102106737Y-110344320D01*
X102106737Y-110502434D01*
X102147660Y-110655161D01*
X102226717Y-110792093D01*
X102338521Y-110903897D01*
X102475453Y-110982954D01*
X102628180Y-111023877D01*
X102628182Y-111023877D01*
X102786292Y-111023877D01*
X102786294Y-111023877D01*
X102939021Y-110982954D01*
X103075953Y-110903897D01*
X103187757Y-110792093D01*
X103266814Y-110655161D01*
X103307737Y-110502434D01*
X103307737Y-110344320D01*
X110706737Y-110344320D01*
X110706737Y-110502434D01*
X110747660Y-110655161D01*
X110826717Y-110792093D01*
X110938521Y-110903897D01*
X111075453Y-110982954D01*
X111228180Y-111023877D01*
X111228182Y-111023877D01*
X111386292Y-111023877D01*
X111386294Y-111023877D01*
X111539021Y-110982954D01*
X111675953Y-110903897D01*
X111787757Y-110792093D01*
X111866814Y-110655161D01*
X111907737Y-110502434D01*
X111907737Y-110344320D01*
X119306737Y-110344320D01*
X119306737Y-110502434D01*
X119347660Y-110655161D01*
X119426717Y-110792093D01*
X119538521Y-110903897D01*
X119675453Y-110982954D01*
X119828180Y-111023877D01*
X119828182Y-111023877D01*
X119986292Y-111023877D01*
X119986294Y-111023877D01*
X120139021Y-110982954D01*
X120275953Y-110903897D01*
X120387757Y-110792093D01*
X120466814Y-110655161D01*
X120507737Y-110502434D01*
X120507737Y-110344320D01*
X120466814Y-110191593D01*
X120451081Y-110164343D01*
X124722500Y-110164343D01*
X124722500Y-110322457D01*
X124763423Y-110475184D01*
X124842480Y-110612116D01*
X124954284Y-110723920D01*
X125091216Y-110802977D01*
X125243943Y-110843900D01*
X125243945Y-110843900D01*
X125402055Y-110843900D01*
X125402057Y-110843900D01*
X125554784Y-110802977D01*
X125691716Y-110723920D01*
X125803520Y-110612116D01*
X125882577Y-110475184D01*
X125917642Y-110344320D01*
X136506737Y-110344320D01*
X136506737Y-110502434D01*
X136547660Y-110655161D01*
X136626717Y-110792093D01*
X136738521Y-110903897D01*
X136875453Y-110982954D01*
X137028180Y-111023877D01*
X137028182Y-111023877D01*
X137186292Y-111023877D01*
X137186294Y-111023877D01*
X137339021Y-110982954D01*
X137427895Y-110931643D01*
X142320500Y-110931643D01*
X142320500Y-111089757D01*
X142361423Y-111242484D01*
X142440480Y-111379416D01*
X142552284Y-111491220D01*
X142689216Y-111570277D01*
X142841943Y-111611200D01*
X142841945Y-111611200D01*
X143000055Y-111611200D01*
X143000057Y-111611200D01*
X143152784Y-111570277D01*
X143289716Y-111491220D01*
X143401520Y-111379416D01*
X143480577Y-111242484D01*
X143521500Y-111089757D01*
X143521500Y-110931643D01*
X143480577Y-110778916D01*
X143401520Y-110641984D01*
X143289716Y-110530180D01*
X143152784Y-110451123D01*
X143000057Y-110410200D01*
X142841943Y-110410200D01*
X142689216Y-110451123D01*
X142552284Y-110530180D01*
X142440480Y-110641984D01*
X142361423Y-110778916D01*
X142320500Y-110931643D01*
X137427895Y-110931643D01*
X137475953Y-110903897D01*
X137587757Y-110792093D01*
X137666814Y-110655161D01*
X137707737Y-110502434D01*
X137707737Y-110344320D01*
X153706737Y-110344320D01*
X153706737Y-110502434D01*
X153747660Y-110655161D01*
X153826717Y-110792093D01*
X153938521Y-110903897D01*
X154075453Y-110982954D01*
X154228180Y-111023877D01*
X154228182Y-111023877D01*
X154386292Y-111023877D01*
X154386294Y-111023877D01*
X154539021Y-110982954D01*
X154675953Y-110903897D01*
X154787757Y-110792093D01*
X154866814Y-110655161D01*
X154907737Y-110502434D01*
X154907737Y-110344320D01*
X154866814Y-110191593D01*
X154787757Y-110054661D01*
X154675953Y-109942857D01*
X154539021Y-109863800D01*
X154386294Y-109822877D01*
X154228180Y-109822877D01*
X154075453Y-109863800D01*
X153938521Y-109942857D01*
X153826717Y-110054661D01*
X153747660Y-110191593D01*
X153706737Y-110344320D01*
X137707737Y-110344320D01*
X137666814Y-110191593D01*
X137587757Y-110054661D01*
X137475953Y-109942857D01*
X137339021Y-109863800D01*
X137186294Y-109822877D01*
X137028180Y-109822877D01*
X136875453Y-109863800D01*
X136738521Y-109942857D01*
X136626717Y-110054661D01*
X136547660Y-110191593D01*
X136506737Y-110344320D01*
X125917642Y-110344320D01*
X125923500Y-110322457D01*
X125923500Y-110164343D01*
X125882577Y-110011616D01*
X125803520Y-109874684D01*
X125694663Y-109765827D01*
X125666888Y-109711313D01*
X125676459Y-109650881D01*
X125712681Y-109612713D01*
X125712570Y-109612569D01*
X125713484Y-109611867D01*
X125715172Y-109610088D01*
X125717716Y-109608620D01*
X125829520Y-109496816D01*
X125908577Y-109359884D01*
X125949500Y-109207157D01*
X125949500Y-109049043D01*
X125924554Y-108955943D01*
X139569700Y-108955943D01*
X139569700Y-109114057D01*
X139610623Y-109266784D01*
X139689680Y-109403716D01*
X139801484Y-109515520D01*
X139938416Y-109594577D01*
X140091143Y-109635500D01*
X140091145Y-109635500D01*
X140249255Y-109635500D01*
X140249257Y-109635500D01*
X140401984Y-109594577D01*
X140538916Y-109515520D01*
X140650720Y-109403716D01*
X140729777Y-109266784D01*
X140770700Y-109114057D01*
X140770700Y-108955943D01*
X142034800Y-108955943D01*
X142034800Y-109114057D01*
X142075723Y-109266784D01*
X142154780Y-109403716D01*
X142266584Y-109515520D01*
X142403516Y-109594577D01*
X142556243Y-109635500D01*
X142556245Y-109635500D01*
X142714355Y-109635500D01*
X142714357Y-109635500D01*
X142867084Y-109594577D01*
X143004016Y-109515520D01*
X143115820Y-109403716D01*
X143194877Y-109266784D01*
X143235800Y-109114057D01*
X143235800Y-109074320D01*
X156692263Y-109074320D01*
X156692263Y-109232434D01*
X156733186Y-109385161D01*
X156812243Y-109522093D01*
X156924047Y-109633897D01*
X157060979Y-109712954D01*
X157213706Y-109753877D01*
X157213708Y-109753877D01*
X157371818Y-109753877D01*
X157371820Y-109753877D01*
X157524547Y-109712954D01*
X157661479Y-109633897D01*
X157773283Y-109522093D01*
X157852340Y-109385161D01*
X157893263Y-109232434D01*
X157893263Y-109074320D01*
X157852340Y-108921593D01*
X157773283Y-108784661D01*
X157661479Y-108672857D01*
X157524547Y-108593800D01*
X157371820Y-108552877D01*
X157213706Y-108552877D01*
X157060979Y-108593800D01*
X156924047Y-108672857D01*
X156812243Y-108784661D01*
X156733186Y-108921593D01*
X156692263Y-109074320D01*
X143235800Y-109074320D01*
X143235800Y-108955943D01*
X143194877Y-108803216D01*
X143115820Y-108666284D01*
X143004016Y-108554480D01*
X142867084Y-108475423D01*
X142714357Y-108434500D01*
X142556243Y-108434500D01*
X142403516Y-108475423D01*
X142266584Y-108554480D01*
X142154780Y-108666284D01*
X142075723Y-108803216D01*
X142034800Y-108955943D01*
X140770700Y-108955943D01*
X140729777Y-108803216D01*
X140650720Y-108666284D01*
X140538916Y-108554480D01*
X140401984Y-108475423D01*
X140249257Y-108434500D01*
X140091143Y-108434500D01*
X139938416Y-108475423D01*
X139801484Y-108554480D01*
X139689680Y-108666284D01*
X139610623Y-108803216D01*
X139569700Y-108955943D01*
X125924554Y-108955943D01*
X125908577Y-108896316D01*
X125829520Y-108759384D01*
X125717716Y-108647580D01*
X125580784Y-108568523D01*
X125428057Y-108527600D01*
X125269943Y-108527600D01*
X125117216Y-108568523D01*
X124980284Y-108647580D01*
X124868480Y-108759384D01*
X124789423Y-108896316D01*
X124748500Y-109049043D01*
X124748500Y-109207157D01*
X124789423Y-109359884D01*
X124868480Y-109496816D01*
X124977335Y-109605671D01*
X125005111Y-109660186D01*
X124995540Y-109720618D01*
X124959320Y-109758788D01*
X124959430Y-109758931D01*
X124958527Y-109759623D01*
X124956837Y-109761405D01*
X124954288Y-109762876D01*
X124954284Y-109762880D01*
X124842480Y-109874684D01*
X124763423Y-110011616D01*
X124722500Y-110164343D01*
X120451081Y-110164343D01*
X120387757Y-110054661D01*
X120275953Y-109942857D01*
X120139021Y-109863800D01*
X119986294Y-109822877D01*
X119828180Y-109822877D01*
X119675453Y-109863800D01*
X119538521Y-109942857D01*
X119426717Y-110054661D01*
X119347660Y-110191593D01*
X119306737Y-110344320D01*
X111907737Y-110344320D01*
X111866814Y-110191593D01*
X111787757Y-110054661D01*
X111675953Y-109942857D01*
X111539021Y-109863800D01*
X111386294Y-109822877D01*
X111228180Y-109822877D01*
X111075453Y-109863800D01*
X110938521Y-109942857D01*
X110826717Y-110054661D01*
X110747660Y-110191593D01*
X110706737Y-110344320D01*
X103307737Y-110344320D01*
X103266814Y-110191593D01*
X103187757Y-110054661D01*
X103075953Y-109942857D01*
X102939021Y-109863800D01*
X102786294Y-109822877D01*
X102628180Y-109822877D01*
X102475453Y-109863800D01*
X102338521Y-109942857D01*
X102226717Y-110054661D01*
X102147660Y-110191593D01*
X102106737Y-110344320D01*
X91500000Y-110344320D01*
X91500000Y-109100943D01*
X92799500Y-109100943D01*
X92799500Y-109259057D01*
X92840423Y-109411784D01*
X92919480Y-109548716D01*
X93031284Y-109660520D01*
X93168216Y-109739577D01*
X93320943Y-109780500D01*
X93320945Y-109780500D01*
X93479055Y-109780500D01*
X93479057Y-109780500D01*
X93631784Y-109739577D01*
X93768716Y-109660520D01*
X93880520Y-109548716D01*
X93881775Y-109546543D01*
X104819200Y-109546543D01*
X104819200Y-109704657D01*
X104860123Y-109857384D01*
X104939180Y-109994316D01*
X105050984Y-110106120D01*
X105187916Y-110185177D01*
X105340643Y-110226100D01*
X105340645Y-110226100D01*
X105498755Y-110226100D01*
X105498757Y-110226100D01*
X105651484Y-110185177D01*
X105788416Y-110106120D01*
X105900220Y-109994316D01*
X105979277Y-109857384D01*
X106020200Y-109704657D01*
X106020200Y-109546543D01*
X105979277Y-109393816D01*
X105900220Y-109256884D01*
X105788416Y-109145080D01*
X105651484Y-109066023D01*
X105498757Y-109025100D01*
X105340643Y-109025100D01*
X105187916Y-109066023D01*
X105050984Y-109145080D01*
X104939180Y-109256884D01*
X104860123Y-109393816D01*
X104819200Y-109546543D01*
X93881775Y-109546543D01*
X93959577Y-109411784D01*
X94000500Y-109259057D01*
X94000500Y-109100943D01*
X93959577Y-108948216D01*
X93880520Y-108811284D01*
X93768716Y-108699480D01*
X93631784Y-108620423D01*
X93479057Y-108579500D01*
X93320943Y-108579500D01*
X93168216Y-108620423D01*
X93031284Y-108699480D01*
X92919480Y-108811284D01*
X92840423Y-108948216D01*
X92799500Y-109100943D01*
X91500000Y-109100943D01*
X91500000Y-108520943D01*
X97699500Y-108520943D01*
X97699500Y-108679057D01*
X97740423Y-108831784D01*
X97819480Y-108968716D01*
X97931284Y-109080520D01*
X98068216Y-109159577D01*
X98220943Y-109200500D01*
X98220945Y-109200500D01*
X98379055Y-109200500D01*
X98379057Y-109200500D01*
X98531784Y-109159577D01*
X98668716Y-109080520D01*
X98780520Y-108968716D01*
X98859577Y-108831784D01*
X98900500Y-108679057D01*
X98900500Y-108679054D01*
X98901347Y-108672623D01*
X98903173Y-108672863D01*
X98919407Y-108622900D01*
X98968907Y-108586936D01*
X99015978Y-108585705D01*
X99016209Y-108583953D01*
X99022642Y-108584800D01*
X99022643Y-108584800D01*
X99180755Y-108584800D01*
X99180757Y-108584800D01*
X99333484Y-108543877D01*
X99470416Y-108464820D01*
X99582220Y-108353016D01*
X99661277Y-108216084D01*
X99702200Y-108063357D01*
X99702200Y-107905243D01*
X99661277Y-107752516D01*
X99582220Y-107615584D01*
X99534202Y-107567566D01*
X105092263Y-107567566D01*
X105092263Y-107725680D01*
X105133186Y-107878407D01*
X105212243Y-108015339D01*
X105324047Y-108127143D01*
X105460979Y-108206200D01*
X105613706Y-108247123D01*
X105613708Y-108247123D01*
X105771818Y-108247123D01*
X105771820Y-108247123D01*
X105924547Y-108206200D01*
X106061479Y-108127143D01*
X106173283Y-108015339D01*
X106252340Y-107878407D01*
X106293263Y-107725680D01*
X106293263Y-107567566D01*
X106252340Y-107414839D01*
X106173283Y-107277907D01*
X106061479Y-107166103D01*
X105924547Y-107087046D01*
X105771820Y-107046123D01*
X105613706Y-107046123D01*
X105460979Y-107087046D01*
X105324047Y-107166103D01*
X105212243Y-107277907D01*
X105133186Y-107414839D01*
X105092263Y-107567566D01*
X99534202Y-107567566D01*
X99470416Y-107503780D01*
X99333484Y-107424723D01*
X99180757Y-107383800D01*
X99022643Y-107383800D01*
X98906804Y-107414839D01*
X98869916Y-107424723D01*
X98732984Y-107503780D01*
X98621180Y-107615584D01*
X98542123Y-107752516D01*
X98501199Y-107905245D01*
X98500353Y-107911677D01*
X98498526Y-107911436D01*
X98482293Y-107961399D01*
X98432793Y-107997363D01*
X98385718Y-107998601D01*
X98385489Y-108000347D01*
X98379057Y-107999500D01*
X98220943Y-107999500D01*
X98068216Y-108040423D01*
X97931284Y-108119480D01*
X97819480Y-108231284D01*
X97740423Y-108368216D01*
X97699500Y-108520943D01*
X91500000Y-108520943D01*
X91500000Y-105867743D01*
X128277300Y-105867743D01*
X128277300Y-106025857D01*
X128318223Y-106178584D01*
X128397280Y-106315516D01*
X128509084Y-106427320D01*
X128646016Y-106506377D01*
X128798743Y-106547300D01*
X128798745Y-106547300D01*
X128956855Y-106547300D01*
X128956857Y-106547300D01*
X129109584Y-106506377D01*
X129123870Y-106498129D01*
X129183718Y-106485406D01*
X129239614Y-106510291D01*
X129259107Y-106534362D01*
X129263180Y-106541416D01*
X129374984Y-106653220D01*
X129511916Y-106732277D01*
X129664643Y-106773200D01*
X129664645Y-106773200D01*
X129822755Y-106773200D01*
X129822757Y-106773200D01*
X129975484Y-106732277D01*
X130112416Y-106653220D01*
X130224220Y-106541416D01*
X130303277Y-106404484D01*
X130344200Y-106251757D01*
X130344200Y-106093643D01*
X130303277Y-105940916D01*
X130224220Y-105803984D01*
X130112416Y-105692180D01*
X129975484Y-105613123D01*
X129822757Y-105572200D01*
X129664643Y-105572200D01*
X129511916Y-105613123D01*
X129511914Y-105613124D01*
X129511913Y-105613124D01*
X129497625Y-105621373D01*
X129437776Y-105634092D01*
X129381882Y-105609204D01*
X129362391Y-105585135D01*
X129358321Y-105578086D01*
X129358320Y-105578084D01*
X129246516Y-105466280D01*
X129109584Y-105387223D01*
X128956857Y-105346300D01*
X128798743Y-105346300D01*
X128646016Y-105387223D01*
X128509084Y-105466280D01*
X128397280Y-105578084D01*
X128318223Y-105715016D01*
X128277300Y-105867743D01*
X91500000Y-105867743D01*
X91500000Y-105027566D01*
X105092263Y-105027566D01*
X105092263Y-105185680D01*
X105133186Y-105338407D01*
X105212243Y-105475339D01*
X105324047Y-105587143D01*
X105460979Y-105666200D01*
X105613706Y-105707123D01*
X105613708Y-105707123D01*
X105771818Y-105707123D01*
X105771820Y-105707123D01*
X105924547Y-105666200D01*
X106061479Y-105587143D01*
X106173283Y-105475339D01*
X106252340Y-105338407D01*
X106293263Y-105185680D01*
X106293263Y-105120943D01*
X142649500Y-105120943D01*
X142649500Y-105279057D01*
X142690423Y-105431784D01*
X142769480Y-105568716D01*
X142881284Y-105680520D01*
X143018216Y-105759577D01*
X143072871Y-105774221D01*
X143124184Y-105807545D01*
X143146111Y-105864667D01*
X143130275Y-105923767D01*
X143082725Y-105962272D01*
X143072871Y-105965474D01*
X143072319Y-105965621D01*
X143072318Y-105965621D01*
X142935384Y-106044680D01*
X142823580Y-106156484D01*
X142744523Y-106293416D01*
X142703600Y-106446143D01*
X142703600Y-106604257D01*
X142744523Y-106756984D01*
X142823580Y-106893916D01*
X142935384Y-107005720D01*
X143072316Y-107084777D01*
X143225043Y-107125700D01*
X143225045Y-107125700D01*
X143383155Y-107125700D01*
X143383157Y-107125700D01*
X143535884Y-107084777D01*
X143672816Y-107005720D01*
X143784620Y-106893916D01*
X143863677Y-106756984D01*
X143904600Y-106604257D01*
X143904600Y-106446143D01*
X143897848Y-106420943D01*
X153687400Y-106420943D01*
X153687400Y-106579057D01*
X153728323Y-106731784D01*
X153807380Y-106868716D01*
X153919184Y-106980520D01*
X154056116Y-107059577D01*
X154208843Y-107100500D01*
X154208845Y-107100500D01*
X154366955Y-107100500D01*
X154366957Y-107100500D01*
X154519684Y-107059577D01*
X154656616Y-106980520D01*
X154768420Y-106868716D01*
X154847477Y-106731784D01*
X154888400Y-106579057D01*
X154888400Y-106420943D01*
X154847477Y-106268216D01*
X154768420Y-106131284D01*
X154656616Y-106019480D01*
X154519684Y-105940423D01*
X154366957Y-105899500D01*
X154208843Y-105899500D01*
X154056116Y-105940423D01*
X153919184Y-106019480D01*
X153807380Y-106131284D01*
X153728323Y-106268216D01*
X153687400Y-106420943D01*
X143897848Y-106420943D01*
X143863677Y-106293416D01*
X143784620Y-106156484D01*
X143672816Y-106044680D01*
X143535884Y-105965623D01*
X143535883Y-105965622D01*
X143535880Y-105965621D01*
X143481228Y-105950977D01*
X143429914Y-105917653D01*
X143407988Y-105860531D01*
X143423824Y-105801431D01*
X143471375Y-105762926D01*
X143481219Y-105759728D01*
X143481784Y-105759577D01*
X143618716Y-105680520D01*
X143730520Y-105568716D01*
X143809577Y-105431784D01*
X143838875Y-105322443D01*
X145841900Y-105322443D01*
X145841900Y-105480557D01*
X145882823Y-105633284D01*
X145961880Y-105770216D01*
X146073684Y-105882020D01*
X146210616Y-105961077D01*
X146363343Y-106002000D01*
X146363345Y-106002000D01*
X146521455Y-106002000D01*
X146521457Y-106002000D01*
X146674184Y-105961077D01*
X146811116Y-105882020D01*
X146922920Y-105770216D01*
X147001977Y-105633284D01*
X147042900Y-105480557D01*
X147042900Y-105322443D01*
X147001977Y-105169716D01*
X146922920Y-105032784D01*
X146811116Y-104920980D01*
X146674184Y-104841923D01*
X146521457Y-104801000D01*
X146363343Y-104801000D01*
X146210616Y-104841923D01*
X146073684Y-104920980D01*
X145961880Y-105032784D01*
X145882823Y-105169716D01*
X145841900Y-105322443D01*
X143838875Y-105322443D01*
X143850500Y-105279057D01*
X143850500Y-105120943D01*
X143809577Y-104968216D01*
X143730520Y-104831284D01*
X143618716Y-104719480D01*
X143481784Y-104640423D01*
X143329057Y-104599500D01*
X143170943Y-104599500D01*
X143018216Y-104640423D01*
X142881284Y-104719480D01*
X142769480Y-104831284D01*
X142690423Y-104968216D01*
X142649500Y-105120943D01*
X106293263Y-105120943D01*
X106293263Y-105027566D01*
X106252340Y-104874839D01*
X106173283Y-104737907D01*
X106061479Y-104626103D01*
X105924547Y-104547046D01*
X105771820Y-104506123D01*
X105613706Y-104506123D01*
X105460979Y-104547046D01*
X105324047Y-104626103D01*
X105212243Y-104737907D01*
X105133186Y-104874839D01*
X105092263Y-105027566D01*
X91500000Y-105027566D01*
X91500000Y-103990943D01*
X106339500Y-103990943D01*
X106339500Y-104149057D01*
X106380423Y-104301784D01*
X106459480Y-104438716D01*
X106571284Y-104550520D01*
X106708216Y-104629577D01*
X106860943Y-104670500D01*
X106860945Y-104670500D01*
X107019055Y-104670500D01*
X107019057Y-104670500D01*
X107171784Y-104629577D01*
X107308716Y-104550520D01*
X107420520Y-104438716D01*
X107499577Y-104301784D01*
X107540500Y-104149057D01*
X107540500Y-103990943D01*
X107499577Y-103838216D01*
X107453014Y-103757566D01*
X113692263Y-103757566D01*
X113692263Y-103915680D01*
X113733186Y-104068407D01*
X113812243Y-104205339D01*
X113924047Y-104317143D01*
X114060979Y-104396200D01*
X114213706Y-104437123D01*
X114213708Y-104437123D01*
X114371818Y-104437123D01*
X114371820Y-104437123D01*
X114524547Y-104396200D01*
X114661479Y-104317143D01*
X114773283Y-104205339D01*
X114852340Y-104068407D01*
X114893263Y-103915680D01*
X114893263Y-103757566D01*
X122292263Y-103757566D01*
X122292263Y-103915680D01*
X122333186Y-104068407D01*
X122412243Y-104205339D01*
X122524047Y-104317143D01*
X122660979Y-104396200D01*
X122813706Y-104437123D01*
X122813708Y-104437123D01*
X122971818Y-104437123D01*
X122971820Y-104437123D01*
X123124547Y-104396200D01*
X123261479Y-104317143D01*
X123373283Y-104205339D01*
X123452340Y-104068407D01*
X123493263Y-103915680D01*
X123493263Y-103757566D01*
X139492263Y-103757566D01*
X139492263Y-103915680D01*
X139533186Y-104068407D01*
X139612243Y-104205339D01*
X139724047Y-104317143D01*
X139860979Y-104396200D01*
X140013706Y-104437123D01*
X140013708Y-104437123D01*
X140171818Y-104437123D01*
X140171820Y-104437123D01*
X140324547Y-104396200D01*
X140461479Y-104317143D01*
X140573283Y-104205339D01*
X140652340Y-104068407D01*
X140693263Y-103915680D01*
X140693263Y-103757566D01*
X156692263Y-103757566D01*
X156692263Y-103915680D01*
X156733186Y-104068407D01*
X156812243Y-104205339D01*
X156924047Y-104317143D01*
X157060979Y-104396200D01*
X157213706Y-104437123D01*
X157213708Y-104437123D01*
X157371818Y-104437123D01*
X157371820Y-104437123D01*
X157524547Y-104396200D01*
X157661479Y-104317143D01*
X157773283Y-104205339D01*
X157852340Y-104068407D01*
X157893263Y-103915680D01*
X157893263Y-103757566D01*
X157852340Y-103604839D01*
X157773283Y-103467907D01*
X157661479Y-103356103D01*
X157524547Y-103277046D01*
X157371820Y-103236123D01*
X157213706Y-103236123D01*
X157060979Y-103277046D01*
X156924047Y-103356103D01*
X156812243Y-103467907D01*
X156733186Y-103604839D01*
X156692263Y-103757566D01*
X140693263Y-103757566D01*
X140652340Y-103604839D01*
X140573283Y-103467907D01*
X140461479Y-103356103D01*
X140324547Y-103277046D01*
X140171820Y-103236123D01*
X140013706Y-103236123D01*
X139860979Y-103277046D01*
X139724047Y-103356103D01*
X139612243Y-103467907D01*
X139533186Y-103604839D01*
X139492263Y-103757566D01*
X123493263Y-103757566D01*
X123452340Y-103604839D01*
X123373283Y-103467907D01*
X123261479Y-103356103D01*
X123124547Y-103277046D01*
X122971820Y-103236123D01*
X122813706Y-103236123D01*
X122660979Y-103277046D01*
X122524047Y-103356103D01*
X122412243Y-103467907D01*
X122333186Y-103604839D01*
X122292263Y-103757566D01*
X114893263Y-103757566D01*
X114852340Y-103604839D01*
X114773283Y-103467907D01*
X114661479Y-103356103D01*
X114524547Y-103277046D01*
X114371820Y-103236123D01*
X114213706Y-103236123D01*
X114060979Y-103277046D01*
X113924047Y-103356103D01*
X113812243Y-103467907D01*
X113733186Y-103604839D01*
X113692263Y-103757566D01*
X107453014Y-103757566D01*
X107420520Y-103701284D01*
X107308716Y-103589480D01*
X107171784Y-103510423D01*
X107019057Y-103469500D01*
X106860943Y-103469500D01*
X106708216Y-103510423D01*
X106571284Y-103589480D01*
X106459480Y-103701284D01*
X106380423Y-103838216D01*
X106339500Y-103990943D01*
X91500000Y-103990943D01*
X91500000Y-102515596D01*
X95540000Y-102515596D01*
X95540000Y-102724403D01*
X95580734Y-102929189D01*
X95660639Y-103122096D01*
X95660643Y-103122105D01*
X95750813Y-103257052D01*
X96156329Y-102851535D01*
X96199902Y-102927006D01*
X96292994Y-103020098D01*
X96368461Y-103063669D01*
X95962946Y-103469185D01*
X96097903Y-103559360D01*
X96290810Y-103639265D01*
X96495596Y-103679999D01*
X96495600Y-103680000D01*
X96704400Y-103680000D01*
X96704403Y-103679999D01*
X96909189Y-103639265D01*
X97102097Y-103559360D01*
X97237052Y-103469185D01*
X96831537Y-103063670D01*
X96907006Y-103020098D01*
X97000098Y-102927006D01*
X97043669Y-102851537D01*
X97449185Y-103257052D01*
X97539360Y-103122097D01*
X97619265Y-102929189D01*
X97659999Y-102724403D01*
X97660000Y-102724399D01*
X97660000Y-102720543D01*
X102748500Y-102720543D01*
X102748500Y-102878657D01*
X102789423Y-103031384D01*
X102868480Y-103168316D01*
X102980284Y-103280120D01*
X103117216Y-103359177D01*
X103269943Y-103400100D01*
X103269945Y-103400100D01*
X103428055Y-103400100D01*
X103428057Y-103400100D01*
X103580784Y-103359177D01*
X103717716Y-103280120D01*
X103829520Y-103168316D01*
X103908577Y-103031384D01*
X103949500Y-102878657D01*
X103949500Y-102720543D01*
X103923920Y-102625076D01*
X103923920Y-102625074D01*
X103918794Y-102605943D01*
X108119800Y-102605943D01*
X108119800Y-102764057D01*
X108160723Y-102916784D01*
X108239780Y-103053716D01*
X108351584Y-103165520D01*
X108488516Y-103244577D01*
X108641243Y-103285500D01*
X108641245Y-103285500D01*
X108799355Y-103285500D01*
X108799357Y-103285500D01*
X108952084Y-103244577D01*
X109089016Y-103165520D01*
X109200820Y-103053716D01*
X109279877Y-102916784D01*
X109317213Y-102777443D01*
X127966000Y-102777443D01*
X127966000Y-102935557D01*
X128006923Y-103088284D01*
X128085980Y-103225216D01*
X128197784Y-103337020D01*
X128334716Y-103416077D01*
X128487443Y-103457000D01*
X128487445Y-103457000D01*
X128645555Y-103457000D01*
X128645557Y-103457000D01*
X128798284Y-103416077D01*
X128935216Y-103337020D01*
X129047020Y-103225216D01*
X129126077Y-103088284D01*
X129167000Y-102935557D01*
X129167000Y-102777443D01*
X129126077Y-102624716D01*
X129052668Y-102497566D01*
X130892263Y-102497566D01*
X130892263Y-102655680D01*
X130933186Y-102808407D01*
X131012243Y-102945339D01*
X131124047Y-103057143D01*
X131260979Y-103136200D01*
X131413706Y-103177123D01*
X131413708Y-103177123D01*
X131571818Y-103177123D01*
X131571820Y-103177123D01*
X131724547Y-103136200D01*
X131861479Y-103057143D01*
X131973283Y-102945339D01*
X132052340Y-102808407D01*
X132093263Y-102655680D01*
X132093263Y-102497566D01*
X132052340Y-102344839D01*
X131973283Y-102207907D01*
X131886319Y-102120943D01*
X136749500Y-102120943D01*
X136749500Y-102279057D01*
X136790423Y-102431784D01*
X136869480Y-102568716D01*
X136981284Y-102680520D01*
X137118216Y-102759577D01*
X137270943Y-102800500D01*
X137270945Y-102800500D01*
X137429055Y-102800500D01*
X137429057Y-102800500D01*
X137581784Y-102759577D01*
X137718716Y-102680520D01*
X137830520Y-102568716D01*
X137871598Y-102497566D01*
X148092263Y-102497566D01*
X148092263Y-102655680D01*
X148133186Y-102808407D01*
X148212243Y-102945339D01*
X148324047Y-103057143D01*
X148460979Y-103136200D01*
X148613706Y-103177123D01*
X148613708Y-103177123D01*
X148771818Y-103177123D01*
X148771820Y-103177123D01*
X148924547Y-103136200D01*
X149061479Y-103057143D01*
X149173283Y-102945339D01*
X149252340Y-102808407D01*
X149293263Y-102655680D01*
X149293263Y-102497566D01*
X149252340Y-102344839D01*
X149173283Y-102207907D01*
X149061479Y-102096103D01*
X148924547Y-102017046D01*
X148771820Y-101976123D01*
X148613706Y-101976123D01*
X148460979Y-102017046D01*
X148324047Y-102096103D01*
X148212243Y-102207907D01*
X148133186Y-102344839D01*
X148092263Y-102497566D01*
X137871598Y-102497566D01*
X137909577Y-102431784D01*
X137950500Y-102279057D01*
X137950500Y-102120943D01*
X137909577Y-101968216D01*
X137830520Y-101831284D01*
X137718716Y-101719480D01*
X137581784Y-101640423D01*
X137429057Y-101599500D01*
X137270943Y-101599500D01*
X137118216Y-101640423D01*
X136981284Y-101719480D01*
X136869480Y-101831284D01*
X136790423Y-101968216D01*
X136749500Y-102120943D01*
X131886319Y-102120943D01*
X131861479Y-102096103D01*
X131724547Y-102017046D01*
X131571820Y-101976123D01*
X131413706Y-101976123D01*
X131260979Y-102017046D01*
X131124047Y-102096103D01*
X131012243Y-102207907D01*
X130933186Y-102344839D01*
X130892263Y-102497566D01*
X129052668Y-102497566D01*
X129047020Y-102487784D01*
X128935216Y-102375980D01*
X128798284Y-102296923D01*
X128645557Y-102256000D01*
X128487443Y-102256000D01*
X128334716Y-102296923D01*
X128197784Y-102375980D01*
X128085980Y-102487784D01*
X128006923Y-102624716D01*
X127966000Y-102777443D01*
X109317213Y-102777443D01*
X109320800Y-102764057D01*
X109320800Y-102605943D01*
X109279877Y-102453216D01*
X109200820Y-102316284D01*
X109089016Y-102204480D01*
X108952084Y-102125423D01*
X108799357Y-102084500D01*
X108641243Y-102084500D01*
X108488516Y-102125423D01*
X108351584Y-102204480D01*
X108239780Y-102316284D01*
X108160723Y-102453216D01*
X108119800Y-102605943D01*
X103918794Y-102605943D01*
X103908578Y-102567819D01*
X103908578Y-102567818D01*
X103900701Y-102554174D01*
X103829520Y-102430884D01*
X103812837Y-102414201D01*
X103785062Y-102359687D01*
X103794633Y-102299255D01*
X103837898Y-102255990D01*
X103882843Y-102245200D01*
X103919055Y-102245200D01*
X103919057Y-102245200D01*
X104071784Y-102204277D01*
X104208716Y-102125220D01*
X104320520Y-102013416D01*
X104399577Y-101876484D01*
X104440500Y-101723757D01*
X104440500Y-101617343D01*
X111988300Y-101617343D01*
X111988300Y-101775457D01*
X112029223Y-101928184D01*
X112108280Y-102065116D01*
X112220084Y-102176920D01*
X112357016Y-102255977D01*
X112509743Y-102296900D01*
X112509745Y-102296900D01*
X112667855Y-102296900D01*
X112667857Y-102296900D01*
X112820584Y-102255977D01*
X112957516Y-102176920D01*
X113069320Y-102065116D01*
X113148377Y-101928184D01*
X113189300Y-101775457D01*
X113189300Y-101617343D01*
X113148377Y-101464616D01*
X113069320Y-101327684D01*
X112957516Y-101215880D01*
X112820584Y-101136823D01*
X112667857Y-101095900D01*
X112509743Y-101095900D01*
X112357016Y-101136823D01*
X112220084Y-101215880D01*
X112108280Y-101327684D01*
X112029223Y-101464616D01*
X111988300Y-101617343D01*
X104440500Y-101617343D01*
X104440500Y-101565643D01*
X104399577Y-101412916D01*
X104320520Y-101275984D01*
X104208716Y-101164180D01*
X104071784Y-101085123D01*
X103919057Y-101044200D01*
X103760943Y-101044200D01*
X103608216Y-101085123D01*
X103471284Y-101164180D01*
X103359480Y-101275984D01*
X103280423Y-101412916D01*
X103239500Y-101565643D01*
X103239500Y-101723757D01*
X103280423Y-101876484D01*
X103359480Y-102013416D01*
X103376162Y-102030098D01*
X103403938Y-102084613D01*
X103394367Y-102145045D01*
X103351102Y-102188310D01*
X103306157Y-102199100D01*
X103269943Y-102199100D01*
X103117216Y-102240023D01*
X102980284Y-102319080D01*
X102868480Y-102430884D01*
X102789423Y-102567816D01*
X102748500Y-102720543D01*
X97660000Y-102720543D01*
X97660000Y-102515600D01*
X97659999Y-102515596D01*
X97619265Y-102310810D01*
X97562998Y-102174970D01*
X97558197Y-102113973D01*
X97590167Y-102061804D01*
X97646694Y-102038389D01*
X97703961Y-102051347D01*
X97718216Y-102059577D01*
X97870943Y-102100500D01*
X97870945Y-102100500D01*
X98029055Y-102100500D01*
X98029057Y-102100500D01*
X98181784Y-102059577D01*
X98318716Y-101980520D01*
X98430520Y-101868716D01*
X98509577Y-101731784D01*
X98550500Y-101579057D01*
X98550500Y-101420943D01*
X98509577Y-101268216D01*
X98449512Y-101164180D01*
X98430521Y-101131286D01*
X98430520Y-101131284D01*
X98429779Y-101130543D01*
X101571900Y-101130543D01*
X101571900Y-101288657D01*
X101612823Y-101441384D01*
X101691880Y-101578316D01*
X101803684Y-101690120D01*
X101940616Y-101769177D01*
X102093343Y-101810100D01*
X102093345Y-101810100D01*
X102251455Y-101810100D01*
X102251457Y-101810100D01*
X102404184Y-101769177D01*
X102541116Y-101690120D01*
X102652920Y-101578316D01*
X102731977Y-101441384D01*
X102772900Y-101288657D01*
X102772900Y-101130543D01*
X102738067Y-101000543D01*
X124548800Y-101000543D01*
X124548800Y-101158657D01*
X124589723Y-101311384D01*
X124668780Y-101448316D01*
X124780584Y-101560120D01*
X124917516Y-101639177D01*
X125070243Y-101680100D01*
X125070245Y-101680100D01*
X125228355Y-101680100D01*
X125228357Y-101680100D01*
X125381084Y-101639177D01*
X125518016Y-101560120D01*
X125629820Y-101448316D01*
X125708877Y-101311384D01*
X125749800Y-101158657D01*
X125749800Y-101000543D01*
X125708877Y-100847816D01*
X125629820Y-100710884D01*
X125518016Y-100599080D01*
X125381084Y-100520023D01*
X125228357Y-100479100D01*
X125070243Y-100479100D01*
X124917516Y-100520023D01*
X124780584Y-100599080D01*
X124668780Y-100710884D01*
X124589723Y-100847816D01*
X124548800Y-101000543D01*
X102738067Y-101000543D01*
X102731977Y-100977816D01*
X102652920Y-100840884D01*
X102541116Y-100729080D01*
X102404184Y-100650023D01*
X102251457Y-100609100D01*
X102093343Y-100609100D01*
X101940616Y-100650023D01*
X101803684Y-100729080D01*
X101691880Y-100840884D01*
X101612823Y-100977816D01*
X101571900Y-101130543D01*
X98429779Y-101130543D01*
X98318716Y-101019480D01*
X98181784Y-100940423D01*
X98029057Y-100899500D01*
X97870943Y-100899500D01*
X97718216Y-100940423D01*
X97581284Y-101019480D01*
X97469480Y-101131284D01*
X97390423Y-101268216D01*
X97378857Y-101311383D01*
X97349500Y-101420944D01*
X97349500Y-101579056D01*
X97368530Y-101650079D01*
X97365327Y-101711180D01*
X97326822Y-101758730D01*
X97267721Y-101774565D01*
X97217902Y-101758017D01*
X97102097Y-101680639D01*
X96909189Y-101600734D01*
X96704403Y-101560000D01*
X96495596Y-101560000D01*
X96290810Y-101600734D01*
X96097902Y-101680639D01*
X95962946Y-101770813D01*
X96368462Y-102176330D01*
X96292994Y-102219902D01*
X96199902Y-102312994D01*
X96156329Y-102388462D01*
X95750813Y-101982946D01*
X95660639Y-102117902D01*
X95580734Y-102310810D01*
X95540000Y-102515596D01*
X91500000Y-102515596D01*
X91500000Y-100020943D01*
X104719500Y-100020943D01*
X104719500Y-100179057D01*
X104760423Y-100331784D01*
X104839480Y-100468716D01*
X104951284Y-100580520D01*
X105088216Y-100659577D01*
X105240943Y-100700500D01*
X105240945Y-100700500D01*
X105399055Y-100700500D01*
X105399057Y-100700500D01*
X105551784Y-100659577D01*
X105688716Y-100580520D01*
X105800520Y-100468716D01*
X105879577Y-100331784D01*
X105920500Y-100179057D01*
X105920500Y-100020943D01*
X113319500Y-100020943D01*
X113319500Y-100179057D01*
X113360423Y-100331784D01*
X113439480Y-100468716D01*
X113551284Y-100580520D01*
X113688216Y-100659577D01*
X113840943Y-100700500D01*
X113840945Y-100700500D01*
X113999055Y-100700500D01*
X113999057Y-100700500D01*
X114151784Y-100659577D01*
X114288716Y-100580520D01*
X114400520Y-100468716D01*
X114479577Y-100331784D01*
X114520500Y-100179057D01*
X114520500Y-100020943D01*
X121919500Y-100020943D01*
X121919500Y-100179057D01*
X121960423Y-100331784D01*
X122039480Y-100468716D01*
X122151284Y-100580520D01*
X122288216Y-100659577D01*
X122440943Y-100700500D01*
X122440945Y-100700500D01*
X122599055Y-100700500D01*
X122599057Y-100700500D01*
X122751784Y-100659577D01*
X122888716Y-100580520D01*
X123000520Y-100468716D01*
X123079577Y-100331784D01*
X123120500Y-100179057D01*
X123120500Y-100020943D01*
X130519500Y-100020943D01*
X130519500Y-100179057D01*
X130560423Y-100331784D01*
X130639480Y-100468716D01*
X130751284Y-100580520D01*
X130888216Y-100659577D01*
X131040943Y-100700500D01*
X131040945Y-100700500D01*
X131199055Y-100700500D01*
X131199057Y-100700500D01*
X131351784Y-100659577D01*
X131488716Y-100580520D01*
X131600520Y-100468716D01*
X131679577Y-100331784D01*
X131720500Y-100179057D01*
X131720500Y-100083143D01*
X132295900Y-100083143D01*
X132295900Y-100241257D01*
X132336823Y-100393984D01*
X132415880Y-100530916D01*
X132527684Y-100642720D01*
X132664616Y-100721777D01*
X132817343Y-100762700D01*
X132817345Y-100762700D01*
X132975455Y-100762700D01*
X132975457Y-100762700D01*
X133128184Y-100721777D01*
X133265116Y-100642720D01*
X133376920Y-100530916D01*
X133455977Y-100393984D01*
X133496900Y-100241257D01*
X133496900Y-100083143D01*
X133480234Y-100020943D01*
X139119500Y-100020943D01*
X139119500Y-100179057D01*
X139160423Y-100331784D01*
X139239480Y-100468716D01*
X139351284Y-100580520D01*
X139488216Y-100659577D01*
X139640943Y-100700500D01*
X139640945Y-100700500D01*
X139799055Y-100700500D01*
X139799057Y-100700500D01*
X139951784Y-100659577D01*
X140088716Y-100580520D01*
X140200520Y-100468716D01*
X140279577Y-100331784D01*
X140320500Y-100179057D01*
X140320500Y-100020943D01*
X147719500Y-100020943D01*
X147719500Y-100179057D01*
X147760423Y-100331784D01*
X147839480Y-100468716D01*
X147951284Y-100580520D01*
X148088216Y-100659577D01*
X148240943Y-100700500D01*
X148240945Y-100700500D01*
X148399055Y-100700500D01*
X148399057Y-100700500D01*
X148551784Y-100659577D01*
X148688716Y-100580520D01*
X148800520Y-100468716D01*
X148879577Y-100331784D01*
X148920500Y-100179057D01*
X148920500Y-100020943D01*
X156319500Y-100020943D01*
X156319500Y-100179057D01*
X156360423Y-100331784D01*
X156439480Y-100468716D01*
X156551284Y-100580520D01*
X156688216Y-100659577D01*
X156840943Y-100700500D01*
X156840945Y-100700500D01*
X156999055Y-100700500D01*
X156999057Y-100700500D01*
X157151784Y-100659577D01*
X157288716Y-100580520D01*
X157400520Y-100468716D01*
X157479577Y-100331784D01*
X157520500Y-100179057D01*
X157520500Y-100020943D01*
X157479577Y-99868216D01*
X157400520Y-99731284D01*
X157288716Y-99619480D01*
X157151784Y-99540423D01*
X156999057Y-99499500D01*
X156840943Y-99499500D01*
X156688216Y-99540423D01*
X156551284Y-99619480D01*
X156439480Y-99731284D01*
X156360423Y-99868216D01*
X156319500Y-100020943D01*
X148920500Y-100020943D01*
X148879577Y-99868216D01*
X148800520Y-99731284D01*
X148688716Y-99619480D01*
X148551784Y-99540423D01*
X148399057Y-99499500D01*
X148240943Y-99499500D01*
X148088216Y-99540423D01*
X147951284Y-99619480D01*
X147839480Y-99731284D01*
X147760423Y-99868216D01*
X147719500Y-100020943D01*
X140320500Y-100020943D01*
X140279577Y-99868216D01*
X140200520Y-99731284D01*
X140088716Y-99619480D01*
X139951784Y-99540423D01*
X139799057Y-99499500D01*
X139640943Y-99499500D01*
X139488216Y-99540423D01*
X139351284Y-99619480D01*
X139239480Y-99731284D01*
X139160423Y-99868216D01*
X139119500Y-100020943D01*
X133480234Y-100020943D01*
X133455977Y-99930416D01*
X133376920Y-99793484D01*
X133265116Y-99681680D01*
X133128184Y-99602623D01*
X132975457Y-99561700D01*
X132817343Y-99561700D01*
X132664616Y-99602623D01*
X132527684Y-99681680D01*
X132415880Y-99793484D01*
X132336823Y-99930416D01*
X132295900Y-100083143D01*
X131720500Y-100083143D01*
X131720500Y-100020943D01*
X131679577Y-99868216D01*
X131600520Y-99731284D01*
X131488716Y-99619480D01*
X131351784Y-99540423D01*
X131199057Y-99499500D01*
X131040943Y-99499500D01*
X130888216Y-99540423D01*
X130751284Y-99619480D01*
X130639480Y-99731284D01*
X130560423Y-99868216D01*
X130519500Y-100020943D01*
X123120500Y-100020943D01*
X123079577Y-99868216D01*
X123000520Y-99731284D01*
X122888716Y-99619480D01*
X122751784Y-99540423D01*
X122599057Y-99499500D01*
X122440943Y-99499500D01*
X122288216Y-99540423D01*
X122151284Y-99619480D01*
X122039480Y-99731284D01*
X121960423Y-99868216D01*
X121919500Y-100020943D01*
X114520500Y-100020943D01*
X114479577Y-99868216D01*
X114400520Y-99731284D01*
X114288716Y-99619480D01*
X114151784Y-99540423D01*
X113999057Y-99499500D01*
X113840943Y-99499500D01*
X113688216Y-99540423D01*
X113551284Y-99619480D01*
X113439480Y-99731284D01*
X113360423Y-99868216D01*
X113319500Y-100020943D01*
X105920500Y-100020943D01*
X105879577Y-99868216D01*
X105800520Y-99731284D01*
X105688716Y-99619480D01*
X105551784Y-99540423D01*
X105399057Y-99499500D01*
X105240943Y-99499500D01*
X105088216Y-99540423D01*
X104951284Y-99619480D01*
X104839480Y-99731284D01*
X104760423Y-99868216D01*
X104719500Y-100020943D01*
X91500000Y-100020943D01*
X91500000Y-96999000D01*
X91518907Y-96940809D01*
X91568407Y-96904845D01*
X91599000Y-96900000D01*
X95569056Y-96900000D01*
X95627247Y-96918907D01*
G37*
%TD.AperFunction*%
%TD*%
%TA.AperFunction,Conductor*%
%TO.N,+3V3*%
G36*
X167812271Y-65512110D02*
G01*
X167912603Y-65566895D01*
X167924483Y-65574529D01*
X168107263Y-65711356D01*
X168117939Y-65720606D01*
X168279393Y-65882060D01*
X168288643Y-65892736D01*
X168425468Y-66075513D01*
X168433104Y-66087395D01*
X168487890Y-66187728D01*
X168500000Y-66235173D01*
X168500000Y-93001000D01*
X168481093Y-93059191D01*
X168431593Y-93095155D01*
X168401000Y-93100000D01*
X97630944Y-93100000D01*
X97572753Y-93081093D01*
X97536789Y-93031593D01*
X97536789Y-92970407D01*
X97539480Y-92963115D01*
X97549476Y-92938982D01*
X97619745Y-92769336D01*
X97660500Y-92564450D01*
X97660500Y-92355550D01*
X97619745Y-92150664D01*
X97591214Y-92081783D01*
X97539805Y-91957669D01*
X97539799Y-91957658D01*
X97481555Y-91870491D01*
X97423744Y-91783971D01*
X97410716Y-91770943D01*
X109469500Y-91770943D01*
X109469500Y-91929057D01*
X109510423Y-92081784D01*
X109589480Y-92218716D01*
X109701284Y-92330520D01*
X109838216Y-92409577D01*
X109990943Y-92450500D01*
X109990945Y-92450500D01*
X110149055Y-92450500D01*
X110149057Y-92450500D01*
X110301784Y-92409577D01*
X110438716Y-92330520D01*
X110550520Y-92218716D01*
X110629577Y-92081784D01*
X110670500Y-91929057D01*
X110670500Y-91770943D01*
X117469500Y-91770943D01*
X117469500Y-91929057D01*
X117510423Y-92081784D01*
X117589480Y-92218716D01*
X117701284Y-92330520D01*
X117838216Y-92409577D01*
X117990943Y-92450500D01*
X117990945Y-92450500D01*
X118149055Y-92450500D01*
X118149057Y-92450500D01*
X118301784Y-92409577D01*
X118438716Y-92330520D01*
X118550520Y-92218716D01*
X118629577Y-92081784D01*
X118658821Y-91972643D01*
X145331100Y-91972643D01*
X145331100Y-92130757D01*
X145372023Y-92283484D01*
X145451080Y-92420416D01*
X145562884Y-92532220D01*
X145699816Y-92611277D01*
X145852543Y-92652200D01*
X145852545Y-92652200D01*
X146010655Y-92652200D01*
X146010657Y-92652200D01*
X146163384Y-92611277D01*
X146300316Y-92532220D01*
X146412120Y-92420416D01*
X146491177Y-92283484D01*
X146532100Y-92130757D01*
X146532100Y-91972643D01*
X146491177Y-91819916D01*
X146412120Y-91682984D01*
X146300316Y-91571180D01*
X146163384Y-91492123D01*
X146010657Y-91451200D01*
X145852543Y-91451200D01*
X145699816Y-91492123D01*
X145562884Y-91571180D01*
X145451080Y-91682984D01*
X145372023Y-91819916D01*
X145331100Y-91972643D01*
X118658821Y-91972643D01*
X118670500Y-91929057D01*
X118670500Y-91770943D01*
X118629577Y-91618216D01*
X118550520Y-91481284D01*
X118438716Y-91369480D01*
X118301784Y-91290423D01*
X118149057Y-91249500D01*
X117990943Y-91249500D01*
X117838216Y-91290423D01*
X117701284Y-91369480D01*
X117589480Y-91481284D01*
X117510423Y-91618216D01*
X117469500Y-91770943D01*
X110670500Y-91770943D01*
X110629577Y-91618216D01*
X110550520Y-91481284D01*
X110438716Y-91369480D01*
X110301784Y-91290423D01*
X110149057Y-91249500D01*
X109990943Y-91249500D01*
X109838216Y-91290423D01*
X109701284Y-91369480D01*
X109589480Y-91481284D01*
X109510423Y-91618216D01*
X109469500Y-91770943D01*
X97410716Y-91770943D01*
X97276029Y-91636256D01*
X97226547Y-91603193D01*
X97102342Y-91520200D01*
X97102330Y-91520194D01*
X96909336Y-91440255D01*
X96704452Y-91399500D01*
X96704450Y-91399500D01*
X96495550Y-91399500D01*
X96495547Y-91399500D01*
X96290664Y-91440255D01*
X96290662Y-91440255D01*
X96097669Y-91520194D01*
X96097657Y-91520200D01*
X95923971Y-91636256D01*
X95923967Y-91636259D01*
X95776259Y-91783967D01*
X95776256Y-91783971D01*
X95660200Y-91957657D01*
X95660194Y-91957669D01*
X95580255Y-92150662D01*
X95580255Y-92150664D01*
X95539500Y-92355547D01*
X95539500Y-92564452D01*
X95580255Y-92769335D01*
X95580255Y-92769337D01*
X95660520Y-92963115D01*
X95665321Y-93024111D01*
X95633351Y-93076280D01*
X95576823Y-93099695D01*
X95569056Y-93100000D01*
X91599000Y-93100000D01*
X91540809Y-93081093D01*
X91504845Y-93031593D01*
X91500000Y-93001000D01*
X91500000Y-89115130D01*
X95539500Y-89115130D01*
X95539500Y-90724860D01*
X95539501Y-90724863D01*
X95542414Y-90749990D01*
X95546417Y-90759055D01*
X95587794Y-90852765D01*
X95667235Y-90932206D01*
X95770009Y-90977585D01*
X95795135Y-90980500D01*
X97404864Y-90980499D01*
X97429991Y-90977585D01*
X97532765Y-90932206D01*
X97612206Y-90852765D01*
X97657585Y-90749991D01*
X97660500Y-90724865D01*
X97660500Y-90600943D01*
X103999500Y-90600943D01*
X103999500Y-90759057D01*
X104040423Y-90911784D01*
X104119480Y-91048716D01*
X104231284Y-91160520D01*
X104368216Y-91239577D01*
X104520943Y-91280500D01*
X104520945Y-91280500D01*
X104679055Y-91280500D01*
X104679057Y-91280500D01*
X104831784Y-91239577D01*
X104968716Y-91160520D01*
X105080520Y-91048716D01*
X105159577Y-90911784D01*
X105200500Y-90759057D01*
X105200500Y-90600943D01*
X111999500Y-90600943D01*
X111999500Y-90759057D01*
X112040423Y-90911784D01*
X112119480Y-91048716D01*
X112231284Y-91160520D01*
X112368216Y-91239577D01*
X112520943Y-91280500D01*
X112520945Y-91280500D01*
X112679055Y-91280500D01*
X112679057Y-91280500D01*
X112831784Y-91239577D01*
X112968716Y-91160520D01*
X113027193Y-91102043D01*
X121279900Y-91102043D01*
X121279900Y-91260157D01*
X121320823Y-91412884D01*
X121399880Y-91549816D01*
X121511684Y-91661620D01*
X121648616Y-91740677D01*
X121801343Y-91781600D01*
X121801345Y-91781600D01*
X121959455Y-91781600D01*
X121959457Y-91781600D01*
X122112184Y-91740677D01*
X122249116Y-91661620D01*
X122360920Y-91549816D01*
X122439977Y-91412884D01*
X122480900Y-91260157D01*
X122480900Y-91102043D01*
X122439977Y-90949316D01*
X122360920Y-90812384D01*
X122249116Y-90700580D01*
X122112184Y-90621523D01*
X121959457Y-90580600D01*
X121801343Y-90580600D01*
X121648616Y-90621523D01*
X121511684Y-90700580D01*
X121399880Y-90812384D01*
X121320823Y-90949316D01*
X121279900Y-91102043D01*
X113027193Y-91102043D01*
X113080520Y-91048716D01*
X113159577Y-90911784D01*
X113200500Y-90759057D01*
X113200500Y-90600943D01*
X113159577Y-90448216D01*
X113080520Y-90311284D01*
X112968716Y-90199480D01*
X112831784Y-90120423D01*
X112679057Y-90079500D01*
X112520943Y-90079500D01*
X112368216Y-90120423D01*
X112231284Y-90199480D01*
X112119480Y-90311284D01*
X112040423Y-90448216D01*
X111999500Y-90600943D01*
X105200500Y-90600943D01*
X105159577Y-90448216D01*
X105080520Y-90311284D01*
X104968716Y-90199480D01*
X104831784Y-90120423D01*
X104679057Y-90079500D01*
X104520943Y-90079500D01*
X104368216Y-90120423D01*
X104231284Y-90199480D01*
X104119480Y-90311284D01*
X104040423Y-90448216D01*
X103999500Y-90600943D01*
X97660500Y-90600943D01*
X97660499Y-89115136D01*
X97657585Y-89090009D01*
X97612206Y-88987235D01*
X97532765Y-88907794D01*
X97429991Y-88862415D01*
X97429990Y-88862414D01*
X97429988Y-88862414D01*
X97404868Y-88859500D01*
X95795139Y-88859500D01*
X95795136Y-88859501D01*
X95770009Y-88862414D01*
X95667235Y-88907794D01*
X95587794Y-88987235D01*
X95542414Y-89090011D01*
X95539500Y-89115130D01*
X91500000Y-89115130D01*
X91500000Y-87920943D01*
X97349500Y-87920943D01*
X97349500Y-88079057D01*
X97390423Y-88231784D01*
X97469480Y-88368716D01*
X97581284Y-88480520D01*
X97718216Y-88559577D01*
X97870943Y-88600500D01*
X97870945Y-88600500D01*
X98029055Y-88600500D01*
X98029057Y-88600500D01*
X98181784Y-88559577D01*
X98318716Y-88480520D01*
X98430520Y-88368716D01*
X98509577Y-88231784D01*
X98550500Y-88079057D01*
X98550500Y-87920943D01*
X98509577Y-87768216D01*
X98430520Y-87631284D01*
X98318716Y-87519480D01*
X98181784Y-87440423D01*
X98029057Y-87399500D01*
X97870943Y-87399500D01*
X97718216Y-87440423D01*
X97581284Y-87519480D01*
X97469480Y-87631284D01*
X97390423Y-87768216D01*
X97349500Y-87920943D01*
X91500000Y-87920943D01*
X91500000Y-86320443D01*
X109125500Y-86320443D01*
X109125500Y-86478557D01*
X109166423Y-86631284D01*
X109245480Y-86768216D01*
X109357284Y-86880020D01*
X109494216Y-86959077D01*
X109646943Y-87000000D01*
X109646945Y-87000000D01*
X109805055Y-87000000D01*
X109805057Y-87000000D01*
X109957784Y-86959077D01*
X110094716Y-86880020D01*
X110206520Y-86768216D01*
X110285577Y-86631284D01*
X110326500Y-86478557D01*
X110326500Y-86320443D01*
X110285577Y-86167716D01*
X110206520Y-86030784D01*
X110094716Y-85918980D01*
X109957784Y-85839923D01*
X109886950Y-85820943D01*
X124999500Y-85820943D01*
X124999500Y-85979057D01*
X125040423Y-86131784D01*
X125119480Y-86268716D01*
X125231284Y-86380520D01*
X125368216Y-86459577D01*
X125520943Y-86500500D01*
X125520945Y-86500500D01*
X125679055Y-86500500D01*
X125679057Y-86500500D01*
X125831784Y-86459577D01*
X125968716Y-86380520D01*
X126080520Y-86268716D01*
X126159577Y-86131784D01*
X126200500Y-85979057D01*
X126200500Y-85914843D01*
X137385300Y-85914843D01*
X137385300Y-86072957D01*
X137426223Y-86225684D01*
X137505280Y-86362616D01*
X137617084Y-86474420D01*
X137754016Y-86553477D01*
X137906743Y-86594400D01*
X137906745Y-86594400D01*
X138064855Y-86594400D01*
X138064857Y-86594400D01*
X138217584Y-86553477D01*
X138354516Y-86474420D01*
X138466320Y-86362616D01*
X138545377Y-86225684D01*
X138586300Y-86072957D01*
X138586300Y-85914843D01*
X138545377Y-85762116D01*
X138466320Y-85625184D01*
X138354516Y-85513380D01*
X138217584Y-85434323D01*
X138064857Y-85393400D01*
X137906743Y-85393400D01*
X137754016Y-85434323D01*
X137617084Y-85513380D01*
X137505280Y-85625184D01*
X137426223Y-85762116D01*
X137385300Y-85914843D01*
X126200500Y-85914843D01*
X126200500Y-85820943D01*
X126159577Y-85668216D01*
X126080520Y-85531284D01*
X125968716Y-85419480D01*
X125831784Y-85340423D01*
X125679057Y-85299500D01*
X125520943Y-85299500D01*
X125368216Y-85340423D01*
X125231284Y-85419480D01*
X125119480Y-85531284D01*
X125040423Y-85668216D01*
X124999500Y-85820943D01*
X109886950Y-85820943D01*
X109805057Y-85799000D01*
X109646943Y-85799000D01*
X109494216Y-85839923D01*
X109357284Y-85918980D01*
X109245480Y-86030784D01*
X109166423Y-86167716D01*
X109125500Y-86320443D01*
X91500000Y-86320443D01*
X91500000Y-84320943D01*
X132019500Y-84320943D01*
X132019500Y-84479057D01*
X132060423Y-84631784D01*
X132139480Y-84768716D01*
X132251284Y-84880520D01*
X132388216Y-84959577D01*
X132540943Y-85000500D01*
X132540945Y-85000500D01*
X132699055Y-85000500D01*
X132699057Y-85000500D01*
X132851784Y-84959577D01*
X132988716Y-84880520D01*
X133100520Y-84768716D01*
X133179577Y-84631784D01*
X133220500Y-84479057D01*
X133220500Y-84320943D01*
X133179577Y-84168216D01*
X133100520Y-84031284D01*
X132988716Y-83919480D01*
X132851784Y-83840423D01*
X132699057Y-83799500D01*
X132540943Y-83799500D01*
X132388216Y-83840423D01*
X132251284Y-83919480D01*
X132139480Y-84031284D01*
X132060423Y-84168216D01*
X132019500Y-84320943D01*
X91500000Y-84320943D01*
X91500000Y-82800943D01*
X120899500Y-82800943D01*
X120899500Y-82959057D01*
X120940423Y-83111784D01*
X121019480Y-83248716D01*
X121131284Y-83360520D01*
X121268216Y-83439577D01*
X121420943Y-83480500D01*
X121420945Y-83480500D01*
X121579055Y-83480500D01*
X121579057Y-83480500D01*
X121731784Y-83439577D01*
X121868716Y-83360520D01*
X121980520Y-83248716D01*
X122059577Y-83111784D01*
X122100500Y-82959057D01*
X122100500Y-82800943D01*
X126899500Y-82800943D01*
X126899500Y-82959057D01*
X126940423Y-83111784D01*
X127019480Y-83248716D01*
X127131284Y-83360520D01*
X127268216Y-83439577D01*
X127420943Y-83480500D01*
X127420945Y-83480500D01*
X127579055Y-83480500D01*
X127579057Y-83480500D01*
X127731784Y-83439577D01*
X127868716Y-83360520D01*
X127888293Y-83340943D01*
X133113600Y-83340943D01*
X133113600Y-83499057D01*
X133154523Y-83651784D01*
X133233580Y-83788716D01*
X133345384Y-83900520D01*
X133482316Y-83979577D01*
X133635043Y-84020500D01*
X133635045Y-84020500D01*
X133793155Y-84020500D01*
X133793157Y-84020500D01*
X133945884Y-83979577D01*
X134082816Y-83900520D01*
X134155911Y-83827424D01*
X134210425Y-83799648D01*
X134270857Y-83809219D01*
X134311648Y-83847928D01*
X134348880Y-83912416D01*
X134460684Y-84024220D01*
X134514687Y-84055398D01*
X134555628Y-84100866D01*
X134562024Y-84161716D01*
X134560814Y-84166757D01*
X134560423Y-84168215D01*
X134560423Y-84168216D01*
X134519500Y-84320943D01*
X134519500Y-84479057D01*
X134560423Y-84631784D01*
X134639480Y-84768716D01*
X134751284Y-84880520D01*
X134888216Y-84959577D01*
X135040943Y-85000500D01*
X135040945Y-85000500D01*
X135199055Y-85000500D01*
X135199057Y-85000500D01*
X135351784Y-84959577D01*
X135488716Y-84880520D01*
X135600520Y-84768716D01*
X135679577Y-84631784D01*
X135720500Y-84479057D01*
X135720500Y-84320943D01*
X137019500Y-84320943D01*
X137019500Y-84479057D01*
X137060423Y-84631784D01*
X137139480Y-84768716D01*
X137251284Y-84880520D01*
X137388216Y-84959577D01*
X137540943Y-85000500D01*
X137540945Y-85000500D01*
X137699055Y-85000500D01*
X137699057Y-85000500D01*
X137851784Y-84959577D01*
X137988716Y-84880520D01*
X138100520Y-84768716D01*
X138179577Y-84631784D01*
X138220500Y-84479057D01*
X138220500Y-84320943D01*
X138179577Y-84168216D01*
X138100520Y-84031284D01*
X137988716Y-83919480D01*
X137851784Y-83840423D01*
X137699057Y-83799500D01*
X137540943Y-83799500D01*
X137388216Y-83840423D01*
X137251284Y-83919480D01*
X137139480Y-84031284D01*
X137060423Y-84168216D01*
X137019500Y-84320943D01*
X135720500Y-84320943D01*
X135679577Y-84168216D01*
X135600520Y-84031284D01*
X135488716Y-83919480D01*
X135434710Y-83888300D01*
X135393771Y-83842832D01*
X135387375Y-83781982D01*
X135388585Y-83776941D01*
X135388974Y-83775489D01*
X135388977Y-83775484D01*
X135429900Y-83622757D01*
X135429900Y-83622754D01*
X135431579Y-83616488D01*
X135433821Y-83617088D01*
X135455768Y-83571062D01*
X135509535Y-83541860D01*
X135527589Y-83540200D01*
X135633455Y-83540200D01*
X135633457Y-83540200D01*
X135786184Y-83499277D01*
X135923116Y-83420220D01*
X136034920Y-83308416D01*
X136113977Y-83171484D01*
X136154900Y-83018757D01*
X136154900Y-82860643D01*
X136113977Y-82707916D01*
X136034920Y-82570984D01*
X135923116Y-82459180D01*
X135786184Y-82380123D01*
X135633457Y-82339200D01*
X135475343Y-82339200D01*
X135322616Y-82380123D01*
X135185684Y-82459180D01*
X135073880Y-82570984D01*
X134994823Y-82707916D01*
X134964925Y-82819500D01*
X134952221Y-82866911D01*
X134949979Y-82866310D01*
X134928032Y-82912338D01*
X134874265Y-82941540D01*
X134856211Y-82943200D01*
X134750343Y-82943200D01*
X134597616Y-82984123D01*
X134460681Y-83063182D01*
X134387589Y-83136274D01*
X134333072Y-83164051D01*
X134272640Y-83154479D01*
X134231851Y-83115771D01*
X134194620Y-83051284D01*
X134082816Y-82939480D01*
X133945884Y-82860423D01*
X133793157Y-82819500D01*
X133635043Y-82819500D01*
X133482316Y-82860423D01*
X133345384Y-82939480D01*
X133233580Y-83051284D01*
X133154523Y-83188216D01*
X133113600Y-83340943D01*
X127888293Y-83340943D01*
X127980520Y-83248716D01*
X128059577Y-83111784D01*
X128100500Y-82959057D01*
X128100500Y-82800943D01*
X128059577Y-82648216D01*
X127980520Y-82511284D01*
X127868716Y-82399480D01*
X127731784Y-82320423D01*
X127579057Y-82279500D01*
X127420943Y-82279500D01*
X127268216Y-82320423D01*
X127131284Y-82399480D01*
X127019480Y-82511284D01*
X126940423Y-82648216D01*
X126899500Y-82800943D01*
X122100500Y-82800943D01*
X122059577Y-82648216D01*
X121980520Y-82511284D01*
X121868716Y-82399480D01*
X121731784Y-82320423D01*
X121579057Y-82279500D01*
X121420943Y-82279500D01*
X121268216Y-82320423D01*
X121131284Y-82399480D01*
X121019480Y-82511284D01*
X120940423Y-82648216D01*
X120899500Y-82800943D01*
X91500000Y-82800943D01*
X91500000Y-81770943D01*
X109399500Y-81770943D01*
X109399500Y-81929057D01*
X109440423Y-82081784D01*
X109519480Y-82218716D01*
X109631284Y-82330520D01*
X109768216Y-82409577D01*
X109920943Y-82450500D01*
X109920945Y-82450500D01*
X110079055Y-82450500D01*
X110079057Y-82450500D01*
X110231784Y-82409577D01*
X110368716Y-82330520D01*
X110480520Y-82218716D01*
X110559577Y-82081784D01*
X110575879Y-82020943D01*
X122799500Y-82020943D01*
X122799500Y-82179057D01*
X122840423Y-82331784D01*
X122919480Y-82468716D01*
X123031284Y-82580520D01*
X123168216Y-82659577D01*
X123320943Y-82700500D01*
X123320945Y-82700500D01*
X123479055Y-82700500D01*
X123479057Y-82700500D01*
X123631784Y-82659577D01*
X123768716Y-82580520D01*
X123880520Y-82468716D01*
X123959577Y-82331784D01*
X124000500Y-82179057D01*
X124000500Y-82020943D01*
X123959577Y-81868216D01*
X123880520Y-81731284D01*
X123768716Y-81619480D01*
X123631784Y-81540423D01*
X123479057Y-81499500D01*
X123320943Y-81499500D01*
X123168216Y-81540423D01*
X123031284Y-81619480D01*
X122919480Y-81731284D01*
X122840423Y-81868216D01*
X122799500Y-82020943D01*
X110575879Y-82020943D01*
X110600500Y-81929057D01*
X110600500Y-81770943D01*
X110559577Y-81618216D01*
X110480520Y-81481284D01*
X110368716Y-81369480D01*
X110231784Y-81290423D01*
X110079057Y-81249500D01*
X109920943Y-81249500D01*
X109768216Y-81290423D01*
X109631284Y-81369480D01*
X109519480Y-81481284D01*
X109440423Y-81618216D01*
X109399500Y-81770943D01*
X91500000Y-81770943D01*
X91500000Y-80000943D01*
X126249500Y-80000943D01*
X126249500Y-80159057D01*
X126290423Y-80311784D01*
X126369480Y-80448716D01*
X126481284Y-80560520D01*
X126618216Y-80639577D01*
X126770943Y-80680500D01*
X126770945Y-80680500D01*
X126929055Y-80680500D01*
X126929057Y-80680500D01*
X127081784Y-80639577D01*
X127218716Y-80560520D01*
X127330520Y-80448716D01*
X127409577Y-80311784D01*
X127450500Y-80159057D01*
X127450500Y-80000943D01*
X127417408Y-79877443D01*
X131295100Y-79877443D01*
X131295100Y-80035557D01*
X131336023Y-80188284D01*
X131415080Y-80325216D01*
X131526884Y-80437020D01*
X131663816Y-80516077D01*
X131816543Y-80557000D01*
X131816545Y-80557000D01*
X131974655Y-80557000D01*
X131974657Y-80557000D01*
X132127384Y-80516077D01*
X132130734Y-80514143D01*
X133850700Y-80514143D01*
X133850700Y-80672257D01*
X133891623Y-80824984D01*
X133970680Y-80961916D01*
X134082484Y-81073720D01*
X134219416Y-81152777D01*
X134372143Y-81193700D01*
X134372145Y-81193700D01*
X134530255Y-81193700D01*
X134530257Y-81193700D01*
X134682984Y-81152777D01*
X134819916Y-81073720D01*
X134931720Y-80961916D01*
X135010777Y-80824984D01*
X135051700Y-80672257D01*
X135051700Y-80514143D01*
X135037954Y-80462843D01*
X135822100Y-80462843D01*
X135822100Y-80620957D01*
X135863023Y-80773684D01*
X135942080Y-80910616D01*
X136053884Y-81022420D01*
X136190816Y-81101477D01*
X136343543Y-81142400D01*
X136343545Y-81142400D01*
X136501655Y-81142400D01*
X136501657Y-81142400D01*
X136654384Y-81101477D01*
X136791316Y-81022420D01*
X136903120Y-80910616D01*
X136982177Y-80773684D01*
X137022461Y-80623343D01*
X143025600Y-80623343D01*
X143025600Y-80781457D01*
X143066523Y-80934184D01*
X143145580Y-81071116D01*
X143257384Y-81182920D01*
X143394316Y-81261977D01*
X143547043Y-81302900D01*
X143547045Y-81302900D01*
X143705155Y-81302900D01*
X143705157Y-81302900D01*
X143857884Y-81261977D01*
X143994816Y-81182920D01*
X144106620Y-81071116D01*
X144185677Y-80934184D01*
X144226600Y-80781457D01*
X144226600Y-80623343D01*
X144185677Y-80470616D01*
X144106620Y-80333684D01*
X143994816Y-80221880D01*
X143857884Y-80142823D01*
X143705157Y-80101900D01*
X143547043Y-80101900D01*
X143394316Y-80142823D01*
X143257384Y-80221880D01*
X143145580Y-80333684D01*
X143066523Y-80470616D01*
X143025600Y-80623343D01*
X137022461Y-80623343D01*
X137023100Y-80620957D01*
X137023100Y-80462843D01*
X136982177Y-80310116D01*
X136903120Y-80173184D01*
X136791316Y-80061380D01*
X136654384Y-79982323D01*
X136501657Y-79941400D01*
X136343543Y-79941400D01*
X136190816Y-79982323D01*
X136053884Y-80061380D01*
X135942080Y-80173184D01*
X135863023Y-80310116D01*
X135822100Y-80462843D01*
X135037954Y-80462843D01*
X135010777Y-80361416D01*
X134931720Y-80224484D01*
X134819916Y-80112680D01*
X134682984Y-80033623D01*
X134530257Y-79992700D01*
X134372143Y-79992700D01*
X134219416Y-80033623D01*
X134082484Y-80112680D01*
X133970680Y-80224484D01*
X133891623Y-80361416D01*
X133850700Y-80514143D01*
X132130734Y-80514143D01*
X132264316Y-80437020D01*
X132376120Y-80325216D01*
X132455177Y-80188284D01*
X132496100Y-80035557D01*
X132496100Y-79877443D01*
X132455177Y-79724716D01*
X132376120Y-79587784D01*
X132264316Y-79475980D01*
X132127384Y-79396923D01*
X131974657Y-79356000D01*
X131816543Y-79356000D01*
X131663816Y-79396923D01*
X131526884Y-79475980D01*
X131415080Y-79587784D01*
X131336023Y-79724716D01*
X131295100Y-79877443D01*
X127417408Y-79877443D01*
X127409577Y-79848216D01*
X127330520Y-79711284D01*
X127218716Y-79599480D01*
X127081784Y-79520423D01*
X126929057Y-79479500D01*
X126770943Y-79479500D01*
X126618216Y-79520423D01*
X126481284Y-79599480D01*
X126369480Y-79711284D01*
X126290423Y-79848216D01*
X126249500Y-80000943D01*
X91500000Y-80000943D01*
X91500000Y-77420943D01*
X111211600Y-77420943D01*
X111211600Y-77579057D01*
X111252523Y-77731784D01*
X111331580Y-77868716D01*
X111443384Y-77980520D01*
X111580316Y-78059577D01*
X111733043Y-78100500D01*
X111733045Y-78100500D01*
X111891155Y-78100500D01*
X111891157Y-78100500D01*
X112043884Y-78059577D01*
X112180816Y-77980520D01*
X112292620Y-77868716D01*
X112371677Y-77731784D01*
X112412600Y-77579057D01*
X112412600Y-77570943D01*
X112899500Y-77570943D01*
X112899500Y-77729057D01*
X112940423Y-77881784D01*
X113019480Y-78018716D01*
X113131284Y-78130520D01*
X113268216Y-78209577D01*
X113420943Y-78250500D01*
X113420945Y-78250500D01*
X113579055Y-78250500D01*
X113579057Y-78250500D01*
X113731784Y-78209577D01*
X113868716Y-78130520D01*
X113980520Y-78018716D01*
X114059577Y-77881784D01*
X114100500Y-77729057D01*
X114100500Y-77570943D01*
X114059577Y-77418216D01*
X113980520Y-77281284D01*
X113868716Y-77169480D01*
X113731784Y-77090423D01*
X113579057Y-77049500D01*
X113420943Y-77049500D01*
X113268216Y-77090423D01*
X113131284Y-77169480D01*
X113019480Y-77281284D01*
X112940423Y-77418216D01*
X112899500Y-77570943D01*
X112412600Y-77570943D01*
X112412600Y-77420943D01*
X112371677Y-77268216D01*
X112292620Y-77131284D01*
X112180816Y-77019480D01*
X112043884Y-76940423D01*
X111891157Y-76899500D01*
X111733043Y-76899500D01*
X111580316Y-76940423D01*
X111443384Y-77019480D01*
X111331580Y-77131284D01*
X111252523Y-77268216D01*
X111211600Y-77420943D01*
X91500000Y-77420943D01*
X91500000Y-76800943D01*
X125499500Y-76800943D01*
X125499500Y-76959057D01*
X125540423Y-77111784D01*
X125619480Y-77248716D01*
X125731284Y-77360520D01*
X125868216Y-77439577D01*
X126020943Y-77480500D01*
X126020945Y-77480500D01*
X126150500Y-77480500D01*
X126208691Y-77499407D01*
X126244655Y-77548907D01*
X126249500Y-77579500D01*
X126249500Y-77659057D01*
X126290423Y-77811784D01*
X126369480Y-77948716D01*
X126481284Y-78060520D01*
X126618216Y-78139577D01*
X126770943Y-78180500D01*
X126770945Y-78180500D01*
X126929055Y-78180500D01*
X126929057Y-78180500D01*
X127081784Y-78139577D01*
X127218716Y-78060520D01*
X127330520Y-77948716D01*
X127409577Y-77811784D01*
X127450500Y-77659057D01*
X127450500Y-77500943D01*
X127409577Y-77348216D01*
X127330520Y-77211284D01*
X127218716Y-77099480D01*
X127081784Y-77020423D01*
X126929057Y-76979500D01*
X126799500Y-76979500D01*
X126741309Y-76960593D01*
X126712501Y-76920943D01*
X132399500Y-76920943D01*
X132399500Y-77079057D01*
X132440423Y-77231784D01*
X132519480Y-77368716D01*
X132580762Y-77429998D01*
X132608538Y-77484513D01*
X132598967Y-77544945D01*
X132580763Y-77570000D01*
X132519480Y-77631284D01*
X132440423Y-77768216D01*
X132399500Y-77920943D01*
X132399500Y-78079057D01*
X132440423Y-78231784D01*
X132519480Y-78368716D01*
X132580762Y-78429998D01*
X132608538Y-78484513D01*
X132598967Y-78544945D01*
X132580763Y-78570000D01*
X132519480Y-78631284D01*
X132440423Y-78768216D01*
X132399500Y-78920943D01*
X132399500Y-79079057D01*
X132440423Y-79231784D01*
X132519480Y-79368716D01*
X132631284Y-79480520D01*
X132768216Y-79559577D01*
X132920943Y-79600500D01*
X132920945Y-79600500D01*
X133079055Y-79600500D01*
X133079057Y-79600500D01*
X133231784Y-79559577D01*
X133368716Y-79480520D01*
X133429998Y-79419237D01*
X133484513Y-79391462D01*
X133544945Y-79401033D01*
X133570000Y-79419236D01*
X133631284Y-79480520D01*
X133768216Y-79559577D01*
X133920943Y-79600500D01*
X133920945Y-79600500D01*
X134079055Y-79600500D01*
X134079057Y-79600500D01*
X134231784Y-79559577D01*
X134368716Y-79480520D01*
X134429998Y-79419237D01*
X134484513Y-79391462D01*
X134544945Y-79401033D01*
X134570000Y-79419236D01*
X134631284Y-79480520D01*
X134768216Y-79559577D01*
X134920943Y-79600500D01*
X134920945Y-79600500D01*
X135079055Y-79600500D01*
X135079057Y-79600500D01*
X135231784Y-79559577D01*
X135368716Y-79480520D01*
X135480520Y-79368716D01*
X135519648Y-79300943D01*
X139799500Y-79300943D01*
X139799500Y-79459057D01*
X139840423Y-79611784D01*
X139919480Y-79748716D01*
X140031284Y-79860520D01*
X140168216Y-79939577D01*
X140320943Y-79980500D01*
X140320945Y-79980500D01*
X140479055Y-79980500D01*
X140479057Y-79980500D01*
X140631784Y-79939577D01*
X140768716Y-79860520D01*
X140880520Y-79748716D01*
X140959577Y-79611784D01*
X141000500Y-79459057D01*
X141000500Y-79300943D01*
X140959577Y-79148216D01*
X140880520Y-79011284D01*
X140795579Y-78926343D01*
X141899600Y-78926343D01*
X141899600Y-79084457D01*
X141940523Y-79237184D01*
X142019580Y-79374116D01*
X142131384Y-79485920D01*
X142268316Y-79564977D01*
X142421043Y-79605900D01*
X142421045Y-79605900D01*
X142579155Y-79605900D01*
X142579157Y-79605900D01*
X142731884Y-79564977D01*
X142868816Y-79485920D01*
X142980620Y-79374116D01*
X143059677Y-79237184D01*
X143100600Y-79084457D01*
X143100600Y-78926343D01*
X143059677Y-78773616D01*
X142980620Y-78636684D01*
X142868816Y-78524880D01*
X142731884Y-78445823D01*
X142579157Y-78404900D01*
X142421043Y-78404900D01*
X142268316Y-78445823D01*
X142131384Y-78524880D01*
X142019580Y-78636684D01*
X141940523Y-78773616D01*
X141899600Y-78926343D01*
X140795579Y-78926343D01*
X140768716Y-78899480D01*
X140631784Y-78820423D01*
X140479057Y-78779500D01*
X140320943Y-78779500D01*
X140168216Y-78820423D01*
X140031284Y-78899480D01*
X139919480Y-79011284D01*
X139840423Y-79148216D01*
X139799500Y-79300943D01*
X135519648Y-79300943D01*
X135559577Y-79231784D01*
X135600500Y-79079057D01*
X135600500Y-78920943D01*
X135559577Y-78768216D01*
X135480520Y-78631284D01*
X135419237Y-78570001D01*
X135391462Y-78515487D01*
X135401033Y-78455055D01*
X135419236Y-78429999D01*
X135480520Y-78368716D01*
X135559577Y-78231784D01*
X135600500Y-78079057D01*
X135600500Y-77920943D01*
X135559577Y-77768216D01*
X135480520Y-77631284D01*
X135419237Y-77570001D01*
X135391462Y-77515487D01*
X135401033Y-77455055D01*
X135419236Y-77429999D01*
X135480520Y-77368716D01*
X135546784Y-77253943D01*
X138459500Y-77253943D01*
X138459500Y-77412057D01*
X138500423Y-77564784D01*
X138579480Y-77701716D01*
X138691284Y-77813520D01*
X138828216Y-77892577D01*
X138980943Y-77933500D01*
X138980945Y-77933500D01*
X139139055Y-77933500D01*
X139139057Y-77933500D01*
X139291784Y-77892577D01*
X139428716Y-77813520D01*
X139540520Y-77701716D01*
X139619577Y-77564784D01*
X139660500Y-77412057D01*
X139660500Y-77253943D01*
X139619577Y-77101216D01*
X139540520Y-76964284D01*
X139428716Y-76852480D01*
X139339450Y-76800943D01*
X141299500Y-76800943D01*
X141299500Y-76959057D01*
X141340423Y-77111784D01*
X141419480Y-77248716D01*
X141531284Y-77360520D01*
X141668216Y-77439577D01*
X141820943Y-77480500D01*
X141820945Y-77480500D01*
X141979055Y-77480500D01*
X141979057Y-77480500D01*
X142131784Y-77439577D01*
X142190040Y-77405943D01*
X151669500Y-77405943D01*
X151669500Y-77564057D01*
X151710423Y-77716784D01*
X151789480Y-77853716D01*
X151901284Y-77965520D01*
X152038216Y-78044577D01*
X152190943Y-78085500D01*
X152190945Y-78085500D01*
X152349055Y-78085500D01*
X152349057Y-78085500D01*
X152501784Y-78044577D01*
X152638716Y-77965520D01*
X152750520Y-77853716D01*
X152829577Y-77716784D01*
X152860531Y-77601261D01*
X152893854Y-77549949D01*
X152950976Y-77528022D01*
X153010076Y-77543858D01*
X153026161Y-77556882D01*
X153064580Y-77595301D01*
X153186731Y-77676920D01*
X153322458Y-77733140D01*
X153466545Y-77761800D01*
X153466547Y-77761800D01*
X153613453Y-77761800D01*
X153613455Y-77761800D01*
X153757542Y-77733140D01*
X153893269Y-77676920D01*
X154015420Y-77595301D01*
X154119301Y-77491420D01*
X154200920Y-77369269D01*
X154257140Y-77233542D01*
X154285800Y-77089455D01*
X154285800Y-76942545D01*
X154257140Y-76798458D01*
X154223457Y-76717139D01*
X154200921Y-76662733D01*
X154200921Y-76662732D01*
X154179908Y-76631284D01*
X154119301Y-76540580D01*
X154015420Y-76436699D01*
X153893269Y-76355080D01*
X153893268Y-76355079D01*
X153893266Y-76355078D01*
X153757542Y-76298860D01*
X153613457Y-76270200D01*
X153613455Y-76270200D01*
X153466545Y-76270200D01*
X153466542Y-76270200D01*
X153322458Y-76298860D01*
X153322456Y-76298860D01*
X153186733Y-76355078D01*
X153186732Y-76355078D01*
X153064580Y-76436699D01*
X153064576Y-76436702D01*
X152960702Y-76540576D01*
X152960699Y-76540580D01*
X152879078Y-76662732D01*
X152879078Y-76662733D01*
X152822860Y-76798456D01*
X152822860Y-76798458D01*
X152793981Y-76943641D01*
X152764084Y-76997025D01*
X152708519Y-77022641D01*
X152648509Y-77010704D01*
X152641520Y-77006100D01*
X152638718Y-77004482D01*
X152638716Y-77004480D01*
X152501784Y-76925423D01*
X152349057Y-76884500D01*
X152190943Y-76884500D01*
X152038216Y-76925423D01*
X151901284Y-77004480D01*
X151789480Y-77116284D01*
X151710423Y-77253216D01*
X151669500Y-77405943D01*
X142190040Y-77405943D01*
X142268716Y-77360520D01*
X142380520Y-77248716D01*
X142459577Y-77111784D01*
X142500500Y-76959057D01*
X142500500Y-76800943D01*
X142459577Y-76648216D01*
X142380520Y-76511284D01*
X142268716Y-76399480D01*
X142131784Y-76320423D01*
X141979057Y-76279500D01*
X141820943Y-76279500D01*
X141668216Y-76320423D01*
X141531284Y-76399480D01*
X141419480Y-76511284D01*
X141340423Y-76648216D01*
X141299500Y-76800943D01*
X139339450Y-76800943D01*
X139291784Y-76773423D01*
X139139057Y-76732500D01*
X138980943Y-76732500D01*
X138828216Y-76773423D01*
X138691284Y-76852480D01*
X138579480Y-76964284D01*
X138500423Y-77101216D01*
X138459500Y-77253943D01*
X135546784Y-77253943D01*
X135559577Y-77231784D01*
X135600500Y-77079057D01*
X135600500Y-76920943D01*
X135559577Y-76768216D01*
X135480520Y-76631284D01*
X135368716Y-76519480D01*
X135231784Y-76440423D01*
X135079057Y-76399500D01*
X134920943Y-76399500D01*
X134768216Y-76440423D01*
X134631284Y-76519480D01*
X134570001Y-76580762D01*
X134515487Y-76608538D01*
X134455055Y-76598967D01*
X134429999Y-76580763D01*
X134368716Y-76519480D01*
X134231784Y-76440423D01*
X134079057Y-76399500D01*
X133920943Y-76399500D01*
X133768216Y-76440423D01*
X133631284Y-76519480D01*
X133570001Y-76580762D01*
X133515487Y-76608538D01*
X133455055Y-76598967D01*
X133429999Y-76580763D01*
X133368716Y-76519480D01*
X133231784Y-76440423D01*
X133079057Y-76399500D01*
X132920943Y-76399500D01*
X132768216Y-76440423D01*
X132631284Y-76519480D01*
X132519480Y-76631284D01*
X132440423Y-76768216D01*
X132399500Y-76920943D01*
X126712501Y-76920943D01*
X126705345Y-76911093D01*
X126700500Y-76880500D01*
X126700500Y-76800944D01*
X126699834Y-76798458D01*
X126659577Y-76648216D01*
X126580520Y-76511284D01*
X126468716Y-76399480D01*
X126331784Y-76320423D01*
X126179057Y-76279500D01*
X126020943Y-76279500D01*
X125868216Y-76320423D01*
X125731284Y-76399480D01*
X125619480Y-76511284D01*
X125540423Y-76648216D01*
X125499500Y-76800943D01*
X91500000Y-76800943D01*
X91500000Y-74781987D01*
X96179500Y-74781987D01*
X96179500Y-75018012D01*
X96210306Y-75252006D01*
X96210306Y-75252011D01*
X96271393Y-75479992D01*
X96361713Y-75698044D01*
X96368070Y-75709055D01*
X96470504Y-75886476D01*
X96479729Y-75902453D01*
X96623402Y-76089692D01*
X96623404Y-76089694D01*
X96623408Y-76089699D01*
X96790301Y-76256592D01*
X96790305Y-76256595D01*
X96790307Y-76256597D01*
X96976543Y-76399500D01*
X96977550Y-76400273D01*
X97181951Y-76518284D01*
X97181952Y-76518284D01*
X97181955Y-76518286D01*
X97332783Y-76580761D01*
X97400007Y-76608606D01*
X97627986Y-76669693D01*
X97861989Y-76700500D01*
X97861990Y-76700500D01*
X98098010Y-76700500D01*
X98098011Y-76700500D01*
X98332014Y-76669693D01*
X98559993Y-76608606D01*
X98778049Y-76518284D01*
X98982450Y-76400273D01*
X99169699Y-76256592D01*
X99336592Y-76089699D01*
X99480273Y-75902450D01*
X99598284Y-75698049D01*
X99678034Y-75505515D01*
X101549500Y-75505515D01*
X101549500Y-75694484D01*
X101579058Y-75881113D01*
X101637453Y-76060832D01*
X101703051Y-76189577D01*
X101723240Y-76229199D01*
X101834310Y-76382073D01*
X101967927Y-76515690D01*
X102120801Y-76626760D01*
X102289168Y-76712547D01*
X102468882Y-76770940D01*
X102468883Y-76770940D01*
X102468886Y-76770941D01*
X102655516Y-76800500D01*
X102655519Y-76800500D01*
X102844484Y-76800500D01*
X103031113Y-76770941D01*
X103031114Y-76770940D01*
X103031118Y-76770940D01*
X103210832Y-76712547D01*
X103379199Y-76626760D01*
X103532073Y-76515690D01*
X103665690Y-76382073D01*
X103776760Y-76229199D01*
X103862547Y-76060832D01*
X103905845Y-75927572D01*
X103941809Y-75878074D01*
X104000000Y-75859167D01*
X104058191Y-75878074D01*
X104094154Y-75927572D01*
X104102649Y-75953716D01*
X104137453Y-76060832D01*
X104203051Y-76189577D01*
X104223240Y-76229199D01*
X104334310Y-76382073D01*
X104467927Y-76515690D01*
X104620801Y-76626760D01*
X104789168Y-76712547D01*
X104968882Y-76770940D01*
X104968883Y-76770940D01*
X104968886Y-76770941D01*
X105155516Y-76800500D01*
X105155519Y-76800500D01*
X105344484Y-76800500D01*
X105531113Y-76770941D01*
X105531114Y-76770940D01*
X105531118Y-76770940D01*
X105710832Y-76712547D01*
X105879199Y-76626760D01*
X106032073Y-76515690D01*
X106165690Y-76382073D01*
X106276760Y-76229199D01*
X106362547Y-76060832D01*
X106420940Y-75881118D01*
X106421422Y-75878074D01*
X106450500Y-75694484D01*
X106450500Y-75505515D01*
X106420941Y-75318886D01*
X106420940Y-75318882D01*
X106362547Y-75139168D01*
X106276760Y-74970801D01*
X106165690Y-74817927D01*
X106129750Y-74781987D01*
X108219500Y-74781987D01*
X108219500Y-75018012D01*
X108250306Y-75252006D01*
X108250306Y-75252011D01*
X108311393Y-75479992D01*
X108401713Y-75698044D01*
X108408070Y-75709055D01*
X108510504Y-75886476D01*
X108519729Y-75902453D01*
X108663402Y-76089692D01*
X108663404Y-76089694D01*
X108663408Y-76089699D01*
X108830301Y-76256592D01*
X108830305Y-76256595D01*
X108830307Y-76256597D01*
X109016543Y-76399500D01*
X109017550Y-76400273D01*
X109221951Y-76518284D01*
X109221952Y-76518284D01*
X109221955Y-76518286D01*
X109372783Y-76580761D01*
X109440007Y-76608606D01*
X109667986Y-76669693D01*
X109901989Y-76700500D01*
X109901990Y-76700500D01*
X110138010Y-76700500D01*
X110138011Y-76700500D01*
X110372014Y-76669693D01*
X110599993Y-76608606D01*
X110818049Y-76518284D01*
X111022450Y-76400273D01*
X111209699Y-76256592D01*
X111376592Y-76089699D01*
X111520273Y-75902450D01*
X111638284Y-75698049D01*
X111728606Y-75479993D01*
X111789693Y-75252014D01*
X111790242Y-75247843D01*
X128737100Y-75247843D01*
X128737100Y-75405957D01*
X128778023Y-75558684D01*
X128857080Y-75695616D01*
X128968884Y-75807420D01*
X129105816Y-75886477D01*
X129258543Y-75927400D01*
X129258545Y-75927400D01*
X129416655Y-75927400D01*
X129416657Y-75927400D01*
X129569384Y-75886477D01*
X129706316Y-75807420D01*
X129818120Y-75695616D01*
X129897177Y-75558684D01*
X129911309Y-75505943D01*
X131673600Y-75505943D01*
X131673600Y-75664057D01*
X131714523Y-75816784D01*
X131793580Y-75953716D01*
X131905384Y-76065520D01*
X132042316Y-76144577D01*
X132195043Y-76185500D01*
X132195045Y-76185500D01*
X132353155Y-76185500D01*
X132353157Y-76185500D01*
X132505884Y-76144577D01*
X132642816Y-76065520D01*
X132754620Y-75953716D01*
X132833677Y-75816784D01*
X132874600Y-75664057D01*
X132874600Y-75550943D01*
X135799500Y-75550943D01*
X135799500Y-75709057D01*
X135840423Y-75861784D01*
X135919480Y-75998716D01*
X136031284Y-76110520D01*
X136168216Y-76189577D01*
X136320943Y-76230500D01*
X136320945Y-76230500D01*
X136479055Y-76230500D01*
X136479057Y-76230500D01*
X136631784Y-76189577D01*
X136768716Y-76110520D01*
X136880520Y-75998716D01*
X136922189Y-75926542D01*
X147714200Y-75926542D01*
X147714200Y-76073457D01*
X147742860Y-76217541D01*
X147742860Y-76217543D01*
X147799078Y-76353266D01*
X147799078Y-76353267D01*
X147818325Y-76382071D01*
X147880699Y-76475420D01*
X147984580Y-76579301D01*
X148106731Y-76660920D01*
X148106732Y-76660920D01*
X148106733Y-76660921D01*
X148111108Y-76662733D01*
X148242458Y-76717140D01*
X148386545Y-76745800D01*
X148386547Y-76745800D01*
X148533453Y-76745800D01*
X148533455Y-76745800D01*
X148677542Y-76717140D01*
X148813269Y-76660920D01*
X148935420Y-76579301D01*
X149039301Y-76475420D01*
X149120920Y-76353269D01*
X149177140Y-76217542D01*
X149205800Y-76073455D01*
X149205800Y-75926545D01*
X149177140Y-75782458D01*
X149120921Y-75646733D01*
X149120921Y-75646732D01*
X149100585Y-75616298D01*
X149039301Y-75524580D01*
X148935420Y-75420699D01*
X148813269Y-75339080D01*
X148813268Y-75339079D01*
X148813266Y-75339078D01*
X148677542Y-75282860D01*
X148533457Y-75254200D01*
X148533455Y-75254200D01*
X148386545Y-75254200D01*
X148386542Y-75254200D01*
X148242458Y-75282860D01*
X148242456Y-75282860D01*
X148106733Y-75339078D01*
X148106732Y-75339078D01*
X147984580Y-75420699D01*
X147984576Y-75420702D01*
X147880702Y-75524576D01*
X147880699Y-75524580D01*
X147799078Y-75646732D01*
X147799078Y-75646733D01*
X147742860Y-75782456D01*
X147742860Y-75782458D01*
X147714200Y-75926542D01*
X136922189Y-75926542D01*
X136959577Y-75861784D01*
X137000500Y-75709057D01*
X137000500Y-75550943D01*
X136959577Y-75398216D01*
X136880520Y-75261284D01*
X136768716Y-75149480D01*
X136631784Y-75070423D01*
X136479057Y-75029500D01*
X136320943Y-75029500D01*
X136168216Y-75070423D01*
X136031284Y-75149480D01*
X135919480Y-75261284D01*
X135840423Y-75398216D01*
X135799500Y-75550943D01*
X132874600Y-75550943D01*
X132874600Y-75505943D01*
X132833677Y-75353216D01*
X132754620Y-75216284D01*
X132642816Y-75104480D01*
X132505884Y-75025423D01*
X132353157Y-74984500D01*
X132195043Y-74984500D01*
X132042316Y-75025423D01*
X131905384Y-75104480D01*
X131793580Y-75216284D01*
X131714523Y-75353216D01*
X131673600Y-75505943D01*
X129911309Y-75505943D01*
X129938100Y-75405957D01*
X129938100Y-75247843D01*
X129897177Y-75095116D01*
X129818120Y-74958184D01*
X129706316Y-74846380D01*
X129569384Y-74767323D01*
X129416657Y-74726400D01*
X129258543Y-74726400D01*
X129105816Y-74767323D01*
X128968884Y-74846380D01*
X128857080Y-74958184D01*
X128778023Y-75095116D01*
X128737100Y-75247843D01*
X111790242Y-75247843D01*
X111820500Y-75018011D01*
X111820500Y-74781989D01*
X111789693Y-74547986D01*
X111741862Y-74369480D01*
X111728625Y-74320077D01*
X111728625Y-74320074D01*
X111728610Y-74320018D01*
X111728608Y-74320013D01*
X111728387Y-74319480D01*
X111720709Y-74300943D01*
X126999500Y-74300943D01*
X126999500Y-74459057D01*
X127040423Y-74611784D01*
X127119480Y-74748716D01*
X127231284Y-74860520D01*
X127368216Y-74939577D01*
X127520943Y-74980500D01*
X127520945Y-74980500D01*
X127679055Y-74980500D01*
X127679057Y-74980500D01*
X127831784Y-74939577D01*
X127968716Y-74860520D01*
X128080520Y-74748716D01*
X128159577Y-74611784D01*
X128200500Y-74459057D01*
X128200500Y-74300943D01*
X139799500Y-74300943D01*
X139799500Y-74459057D01*
X139840423Y-74611784D01*
X139919480Y-74748716D01*
X140031284Y-74860520D01*
X140168216Y-74939577D01*
X140320943Y-74980500D01*
X140320945Y-74980500D01*
X140479055Y-74980500D01*
X140479057Y-74980500D01*
X140631784Y-74939577D01*
X140682075Y-74910542D01*
X152794200Y-74910542D01*
X152794200Y-75057457D01*
X152810453Y-75139167D01*
X152816330Y-75168715D01*
X152822860Y-75201541D01*
X152822860Y-75201543D01*
X152879078Y-75337266D01*
X152879078Y-75337267D01*
X152919749Y-75398134D01*
X152960699Y-75459420D01*
X153064580Y-75563301D01*
X153186731Y-75644920D01*
X153186732Y-75644920D01*
X153186733Y-75644921D01*
X153191108Y-75646733D01*
X153322458Y-75701140D01*
X153466545Y-75729800D01*
X153466547Y-75729800D01*
X153613453Y-75729800D01*
X153613455Y-75729800D01*
X153757542Y-75701140D01*
X153893269Y-75644920D01*
X154015420Y-75563301D01*
X154119301Y-75459420D01*
X154200920Y-75337269D01*
X154257140Y-75201542D01*
X154285800Y-75057455D01*
X154285800Y-74910545D01*
X154257140Y-74766458D01*
X154238287Y-74720943D01*
X161549500Y-74720943D01*
X161549500Y-74879057D01*
X161590423Y-75031784D01*
X161669480Y-75168716D01*
X161781284Y-75280520D01*
X161918216Y-75359577D01*
X162070943Y-75400500D01*
X162070945Y-75400500D01*
X162229055Y-75400500D01*
X162229057Y-75400500D01*
X162381784Y-75359577D01*
X162518716Y-75280520D01*
X162630520Y-75168716D01*
X162709577Y-75031784D01*
X162750500Y-74879057D01*
X162750500Y-74770943D01*
X164049500Y-74770943D01*
X164049500Y-74929057D01*
X164090423Y-75081784D01*
X164169480Y-75218716D01*
X164281284Y-75330520D01*
X164418216Y-75409577D01*
X164570943Y-75450500D01*
X164570945Y-75450500D01*
X164729055Y-75450500D01*
X164729057Y-75450500D01*
X164881784Y-75409577D01*
X165018716Y-75330520D01*
X165130520Y-75218716D01*
X165209577Y-75081784D01*
X165250500Y-74929057D01*
X165250500Y-74770943D01*
X165209577Y-74618216D01*
X165130520Y-74481284D01*
X165018716Y-74369480D01*
X164881784Y-74290423D01*
X164729057Y-74249500D01*
X164570943Y-74249500D01*
X164418216Y-74290423D01*
X164281284Y-74369480D01*
X164169480Y-74481284D01*
X164090423Y-74618216D01*
X164049500Y-74770943D01*
X162750500Y-74770943D01*
X162750500Y-74720943D01*
X162709577Y-74568216D01*
X162630520Y-74431284D01*
X162518716Y-74319480D01*
X162381784Y-74240423D01*
X162229057Y-74199500D01*
X162070943Y-74199500D01*
X161918216Y-74240423D01*
X161781284Y-74319480D01*
X161669480Y-74431284D01*
X161590423Y-74568216D01*
X161549500Y-74720943D01*
X154238287Y-74720943D01*
X154200920Y-74630731D01*
X154119301Y-74508580D01*
X154015420Y-74404699D01*
X153893269Y-74323080D01*
X153893268Y-74323079D01*
X153893266Y-74323078D01*
X153757542Y-74266860D01*
X153613457Y-74238200D01*
X153613455Y-74238200D01*
X153466545Y-74238200D01*
X153466542Y-74238200D01*
X153322458Y-74266860D01*
X153322456Y-74266860D01*
X153186733Y-74323078D01*
X153186732Y-74323078D01*
X153064580Y-74404699D01*
X153064576Y-74404702D01*
X152960702Y-74508576D01*
X152960699Y-74508580D01*
X152879078Y-74630732D01*
X152879078Y-74630733D01*
X152822860Y-74766456D01*
X152822860Y-74766458D01*
X152794200Y-74910542D01*
X140682075Y-74910542D01*
X140768716Y-74860520D01*
X140880520Y-74748716D01*
X140959577Y-74611784D01*
X141000500Y-74459057D01*
X141000500Y-74300943D01*
X140966158Y-74172776D01*
X140966158Y-74172774D01*
X140961031Y-74153643D01*
X145070600Y-74153643D01*
X145070600Y-74311757D01*
X145111523Y-74464484D01*
X145190580Y-74601416D01*
X145302384Y-74713220D01*
X145439316Y-74792277D01*
X145592043Y-74833200D01*
X145592045Y-74833200D01*
X145750155Y-74833200D01*
X145750157Y-74833200D01*
X145902884Y-74792277D01*
X146039816Y-74713220D01*
X146151620Y-74601416D01*
X146230677Y-74464484D01*
X146271600Y-74311757D01*
X146271600Y-74156243D01*
X150175700Y-74156243D01*
X150175700Y-74314357D01*
X150216623Y-74467084D01*
X150295680Y-74604016D01*
X150407484Y-74715820D01*
X150544416Y-74794877D01*
X150697143Y-74835800D01*
X150697145Y-74835800D01*
X150855255Y-74835800D01*
X150855257Y-74835800D01*
X151007984Y-74794877D01*
X151144916Y-74715820D01*
X151256720Y-74604016D01*
X151335777Y-74467084D01*
X151376700Y-74314357D01*
X151376700Y-74156243D01*
X151335777Y-74003516D01*
X151256720Y-73866584D01*
X151144916Y-73754780D01*
X151007984Y-73675723D01*
X150855257Y-73634800D01*
X150697143Y-73634800D01*
X150544416Y-73675723D01*
X150407484Y-73754780D01*
X150295680Y-73866584D01*
X150216623Y-74003516D01*
X150175700Y-74156243D01*
X146271600Y-74156243D01*
X146271600Y-74153643D01*
X146230677Y-74000916D01*
X146151620Y-73863984D01*
X146039816Y-73752180D01*
X145902884Y-73673123D01*
X145750157Y-73632200D01*
X145592043Y-73632200D01*
X145439316Y-73673123D01*
X145302384Y-73752180D01*
X145190580Y-73863984D01*
X145111523Y-74000916D01*
X145070600Y-74153643D01*
X140961031Y-74153643D01*
X140959578Y-74148219D01*
X140959578Y-74148218D01*
X140932866Y-74101951D01*
X140880520Y-74011284D01*
X140768716Y-73899480D01*
X140631784Y-73820423D01*
X140479057Y-73779500D01*
X140320943Y-73779500D01*
X140168216Y-73820423D01*
X140031284Y-73899480D01*
X139919480Y-74011284D01*
X139840423Y-74148216D01*
X139799500Y-74300943D01*
X128200500Y-74300943D01*
X128159577Y-74148216D01*
X128080520Y-74011284D01*
X127968716Y-73899480D01*
X127831784Y-73820423D01*
X127679057Y-73779500D01*
X127520943Y-73779500D01*
X127368216Y-73820423D01*
X127231284Y-73899480D01*
X127119480Y-74011284D01*
X127040423Y-74148216D01*
X126999500Y-74300943D01*
X111720709Y-74300943D01*
X111657449Y-74148219D01*
X111638286Y-74101955D01*
X111585937Y-74011284D01*
X111520273Y-73897550D01*
X111494517Y-73863984D01*
X111376597Y-73710307D01*
X111376595Y-73710305D01*
X111376592Y-73710301D01*
X111209699Y-73543408D01*
X111209694Y-73543404D01*
X111209692Y-73543402D01*
X111022453Y-73399729D01*
X110970945Y-73369991D01*
X110818049Y-73281716D01*
X110818044Y-73281713D01*
X110599992Y-73191393D01*
X110444277Y-73149670D01*
X110372014Y-73130307D01*
X110372011Y-73130306D01*
X110372009Y-73130306D01*
X110138012Y-73099500D01*
X110138011Y-73099500D01*
X109901989Y-73099500D01*
X109901987Y-73099500D01*
X109667993Y-73130306D01*
X109667988Y-73130306D01*
X109440007Y-73191393D01*
X109221955Y-73281713D01*
X109017546Y-73399729D01*
X108830307Y-73543402D01*
X108663402Y-73710307D01*
X108519729Y-73897546D01*
X108401713Y-74101955D01*
X108311393Y-74320007D01*
X108250306Y-74547988D01*
X108250306Y-74547993D01*
X108219500Y-74781987D01*
X106129750Y-74781987D01*
X106032073Y-74684310D01*
X105879199Y-74573240D01*
X105879198Y-74573239D01*
X105879196Y-74573238D01*
X105710832Y-74487453D01*
X105531113Y-74429058D01*
X105344484Y-74399500D01*
X105344481Y-74399500D01*
X105155519Y-74399500D01*
X105155516Y-74399500D01*
X104968886Y-74429058D01*
X104789167Y-74487453D01*
X104620803Y-74573238D01*
X104467928Y-74684309D01*
X104334309Y-74817928D01*
X104223238Y-74970803D01*
X104137453Y-75139167D01*
X104104881Y-75239413D01*
X104100790Y-75252006D01*
X104094155Y-75272425D01*
X104058191Y-75321925D01*
X104000000Y-75340832D01*
X103941809Y-75321925D01*
X103905845Y-75272425D01*
X103899211Y-75252007D01*
X103862547Y-75139168D01*
X103776760Y-74970801D01*
X103665690Y-74817927D01*
X103532073Y-74684310D01*
X103379199Y-74573240D01*
X103379198Y-74573239D01*
X103379196Y-74573238D01*
X103210832Y-74487453D01*
X103031113Y-74429058D01*
X102844484Y-74399500D01*
X102844481Y-74399500D01*
X102655519Y-74399500D01*
X102655516Y-74399500D01*
X102468886Y-74429058D01*
X102289167Y-74487453D01*
X102120803Y-74573238D01*
X101967928Y-74684309D01*
X101834309Y-74817928D01*
X101723238Y-74970803D01*
X101637453Y-75139167D01*
X101579058Y-75318886D01*
X101549500Y-75505515D01*
X99678034Y-75505515D01*
X99688606Y-75479993D01*
X99749693Y-75252014D01*
X99780500Y-75018011D01*
X99780500Y-74781989D01*
X99749693Y-74547986D01*
X99688606Y-74320007D01*
X99617449Y-74148219D01*
X99598286Y-74101955D01*
X99545937Y-74011284D01*
X99480273Y-73897550D01*
X99454517Y-73863984D01*
X99336597Y-73710307D01*
X99336595Y-73710305D01*
X99336592Y-73710301D01*
X99169699Y-73543408D01*
X99169694Y-73543404D01*
X99169692Y-73543402D01*
X98982453Y-73399729D01*
X98930945Y-73369991D01*
X98778049Y-73281716D01*
X98778044Y-73281713D01*
X98559992Y-73191393D01*
X98404277Y-73149670D01*
X98332014Y-73130307D01*
X98332011Y-73130306D01*
X98332009Y-73130306D01*
X98098012Y-73099500D01*
X98098011Y-73099500D01*
X97861989Y-73099500D01*
X97861987Y-73099500D01*
X97627993Y-73130306D01*
X97627988Y-73130306D01*
X97400007Y-73191393D01*
X97181955Y-73281713D01*
X96977546Y-73399729D01*
X96790307Y-73543402D01*
X96623402Y-73710307D01*
X96479729Y-73897546D01*
X96361713Y-74101955D01*
X96271393Y-74320007D01*
X96210306Y-74547988D01*
X96210306Y-74547993D01*
X96179500Y-74781987D01*
X91500000Y-74781987D01*
X91500000Y-72305515D01*
X101549500Y-72305515D01*
X101549500Y-72494484D01*
X101579058Y-72681113D01*
X101637453Y-72860832D01*
X101723237Y-73029195D01*
X101723240Y-73029199D01*
X101834310Y-73182073D01*
X101967927Y-73315690D01*
X102120801Y-73426760D01*
X102289168Y-73512547D01*
X102468882Y-73570940D01*
X102468883Y-73570940D01*
X102468886Y-73570941D01*
X102655516Y-73600500D01*
X102655519Y-73600500D01*
X102844484Y-73600500D01*
X103031113Y-73570941D01*
X103031114Y-73570940D01*
X103031118Y-73570940D01*
X103210832Y-73512547D01*
X103379199Y-73426760D01*
X103532073Y-73315690D01*
X103665690Y-73182073D01*
X103776760Y-73029199D01*
X103862291Y-72861333D01*
X103905554Y-72818070D01*
X103965986Y-72808498D01*
X104020503Y-72836275D01*
X104048281Y-72890791D01*
X104049500Y-72906279D01*
X104049500Y-73344860D01*
X104049501Y-73344863D01*
X104052414Y-73369990D01*
X104077481Y-73426760D01*
X104097794Y-73472765D01*
X104177235Y-73552206D01*
X104280009Y-73597585D01*
X104305135Y-73600500D01*
X106194864Y-73600499D01*
X106219991Y-73597585D01*
X106322765Y-73552206D01*
X106402206Y-73472765D01*
X106447585Y-73369991D01*
X106450500Y-73344865D01*
X106450499Y-71455136D01*
X106447693Y-71430943D01*
X116969500Y-71430943D01*
X116969500Y-71589057D01*
X117010423Y-71741784D01*
X117089480Y-71878716D01*
X117201284Y-71990520D01*
X117338216Y-72069577D01*
X117490943Y-72110500D01*
X117490945Y-72110500D01*
X117649055Y-72110500D01*
X117649057Y-72110500D01*
X117801784Y-72069577D01*
X117938716Y-71990520D01*
X118050520Y-71878716D01*
X118129577Y-71741784D01*
X118170500Y-71589057D01*
X118170500Y-71430943D01*
X118129577Y-71278216D01*
X118050520Y-71141284D01*
X117938716Y-71029480D01*
X117801784Y-70950423D01*
X117649057Y-70909500D01*
X117490943Y-70909500D01*
X117338216Y-70950423D01*
X117201284Y-71029480D01*
X117089480Y-71141284D01*
X117010423Y-71278216D01*
X116969500Y-71430943D01*
X106447693Y-71430943D01*
X106447585Y-71430009D01*
X106402206Y-71327235D01*
X106322765Y-71247794D01*
X106219991Y-71202415D01*
X106219990Y-71202414D01*
X106219988Y-71202414D01*
X106194868Y-71199500D01*
X104305139Y-71199500D01*
X104305136Y-71199501D01*
X104280009Y-71202414D01*
X104177235Y-71247794D01*
X104097794Y-71327235D01*
X104052414Y-71430011D01*
X104049500Y-71455130D01*
X104049500Y-71893719D01*
X104030593Y-71951910D01*
X103981093Y-71987874D01*
X103919907Y-71987874D01*
X103870407Y-71951910D01*
X103862290Y-71938664D01*
X103839389Y-71893719D01*
X103776760Y-71770801D01*
X103665690Y-71617927D01*
X103532073Y-71484310D01*
X103379199Y-71373240D01*
X103379198Y-71373239D01*
X103379196Y-71373238D01*
X103210832Y-71287453D01*
X103031113Y-71229058D01*
X102844484Y-71199500D01*
X102844481Y-71199500D01*
X102655519Y-71199500D01*
X102655516Y-71199500D01*
X102468886Y-71229058D01*
X102289167Y-71287453D01*
X102120803Y-71373238D01*
X101967928Y-71484309D01*
X101834309Y-71617928D01*
X101723238Y-71770803D01*
X101637453Y-71939167D01*
X101579058Y-72118886D01*
X101549500Y-72305515D01*
X91500000Y-72305515D01*
X91500000Y-70370943D01*
X125199500Y-70370943D01*
X125199500Y-70529057D01*
X125240423Y-70681784D01*
X125319480Y-70818716D01*
X125431284Y-70930520D01*
X125568216Y-71009577D01*
X125720943Y-71050500D01*
X125720945Y-71050500D01*
X125879055Y-71050500D01*
X125879057Y-71050500D01*
X126031784Y-71009577D01*
X126168716Y-70930520D01*
X126280520Y-70818716D01*
X126290781Y-70800943D01*
X127799500Y-70800943D01*
X127799500Y-70959057D01*
X127840423Y-71111784D01*
X127919480Y-71248716D01*
X128031284Y-71360520D01*
X128168216Y-71439577D01*
X128320943Y-71480500D01*
X128320945Y-71480500D01*
X128479055Y-71480500D01*
X128479057Y-71480500D01*
X128631784Y-71439577D01*
X128768716Y-71360520D01*
X128880520Y-71248716D01*
X128959577Y-71111784D01*
X129000500Y-70959057D01*
X129000500Y-70800943D01*
X129199500Y-70800943D01*
X129199500Y-70959057D01*
X129240423Y-71111784D01*
X129319480Y-71248716D01*
X129431284Y-71360520D01*
X129568216Y-71439577D01*
X129720943Y-71480500D01*
X129720945Y-71480500D01*
X129879055Y-71480500D01*
X129879057Y-71480500D01*
X130031784Y-71439577D01*
X130168716Y-71360520D01*
X130280520Y-71248716D01*
X130359577Y-71111784D01*
X130400500Y-70959057D01*
X130400500Y-70800943D01*
X134399500Y-70800943D01*
X134399500Y-70959057D01*
X134440423Y-71111784D01*
X134519480Y-71248716D01*
X134631284Y-71360520D01*
X134768216Y-71439577D01*
X134920943Y-71480500D01*
X134920945Y-71480500D01*
X135079055Y-71480500D01*
X135079057Y-71480500D01*
X135231784Y-71439577D01*
X135368716Y-71360520D01*
X135480520Y-71248716D01*
X135559577Y-71111784D01*
X135600500Y-70959057D01*
X135600500Y-70800943D01*
X139399500Y-70800943D01*
X139399500Y-70959057D01*
X139440423Y-71111784D01*
X139519480Y-71248716D01*
X139631284Y-71360520D01*
X139768216Y-71439577D01*
X139920943Y-71480500D01*
X139920945Y-71480500D01*
X140079055Y-71480500D01*
X140079057Y-71480500D01*
X140231784Y-71439577D01*
X140368716Y-71360520D01*
X140480520Y-71248716D01*
X140559577Y-71111784D01*
X140600500Y-70959057D01*
X140600500Y-70800943D01*
X140559577Y-70648216D01*
X140480520Y-70511284D01*
X140368716Y-70399480D01*
X140231784Y-70320423D01*
X140079057Y-70279500D01*
X139920943Y-70279500D01*
X139768216Y-70320423D01*
X139631284Y-70399480D01*
X139519480Y-70511284D01*
X139440423Y-70648216D01*
X139399500Y-70800943D01*
X135600500Y-70800943D01*
X135559577Y-70648216D01*
X135480520Y-70511284D01*
X135368716Y-70399480D01*
X135231784Y-70320423D01*
X135079057Y-70279500D01*
X134920943Y-70279500D01*
X134768216Y-70320423D01*
X134631284Y-70399480D01*
X134519480Y-70511284D01*
X134440423Y-70648216D01*
X134399500Y-70800943D01*
X130400500Y-70800943D01*
X130359577Y-70648216D01*
X130280520Y-70511284D01*
X130168716Y-70399480D01*
X130031784Y-70320423D01*
X129879057Y-70279500D01*
X129720943Y-70279500D01*
X129568216Y-70320423D01*
X129431284Y-70399480D01*
X129319480Y-70511284D01*
X129240423Y-70648216D01*
X129199500Y-70800943D01*
X129000500Y-70800943D01*
X128959577Y-70648216D01*
X128880520Y-70511284D01*
X128768716Y-70399480D01*
X128631784Y-70320423D01*
X128479057Y-70279500D01*
X128320943Y-70279500D01*
X128168216Y-70320423D01*
X128031284Y-70399480D01*
X127919480Y-70511284D01*
X127840423Y-70648216D01*
X127799500Y-70800943D01*
X126290781Y-70800943D01*
X126359577Y-70681784D01*
X126400500Y-70529057D01*
X126400500Y-70370943D01*
X126359577Y-70218216D01*
X126280520Y-70081284D01*
X126168716Y-69969480D01*
X126084647Y-69920943D01*
X140519500Y-69920943D01*
X140519500Y-70079057D01*
X140560423Y-70231784D01*
X140639480Y-70368716D01*
X140751284Y-70480520D01*
X140888216Y-70559577D01*
X141040943Y-70600500D01*
X141040945Y-70600500D01*
X141199055Y-70600500D01*
X141199057Y-70600500D01*
X141351784Y-70559577D01*
X141488716Y-70480520D01*
X141600520Y-70368716D01*
X141679577Y-70231784D01*
X141720500Y-70079057D01*
X141720500Y-69920943D01*
X141679577Y-69768216D01*
X141600520Y-69631284D01*
X141488716Y-69519480D01*
X141351784Y-69440423D01*
X141199057Y-69399500D01*
X141040943Y-69399500D01*
X140888216Y-69440423D01*
X140751284Y-69519480D01*
X140639480Y-69631284D01*
X140560423Y-69768216D01*
X140519500Y-69920943D01*
X126084647Y-69920943D01*
X126031784Y-69890423D01*
X125879057Y-69849500D01*
X125720943Y-69849500D01*
X125568216Y-69890423D01*
X125431284Y-69969480D01*
X125319480Y-70081284D01*
X125240423Y-70218216D01*
X125199500Y-70370943D01*
X91500000Y-70370943D01*
X91500000Y-69190943D01*
X148299500Y-69190943D01*
X148299500Y-69349057D01*
X148340423Y-69501784D01*
X148419480Y-69638716D01*
X148531284Y-69750520D01*
X148668216Y-69829577D01*
X148820943Y-69870500D01*
X148820945Y-69870500D01*
X148979055Y-69870500D01*
X148979057Y-69870500D01*
X149131784Y-69829577D01*
X149268716Y-69750520D01*
X149380520Y-69638716D01*
X149459577Y-69501784D01*
X149500500Y-69349057D01*
X149500500Y-69190943D01*
X152499500Y-69190943D01*
X152499500Y-69349057D01*
X152540423Y-69501784D01*
X152619480Y-69638716D01*
X152731284Y-69750520D01*
X152868216Y-69829577D01*
X153020943Y-69870500D01*
X153020945Y-69870500D01*
X153179055Y-69870500D01*
X153179057Y-69870500D01*
X153331784Y-69829577D01*
X153468716Y-69750520D01*
X153580520Y-69638716D01*
X153659577Y-69501784D01*
X153700500Y-69349057D01*
X153700500Y-69190943D01*
X155299500Y-69190943D01*
X155299500Y-69349057D01*
X155340423Y-69501784D01*
X155419480Y-69638716D01*
X155531284Y-69750520D01*
X155668216Y-69829577D01*
X155820943Y-69870500D01*
X155820945Y-69870500D01*
X155979055Y-69870500D01*
X155979057Y-69870500D01*
X156131784Y-69829577D01*
X156268716Y-69750520D01*
X156380520Y-69638716D01*
X156459577Y-69501784D01*
X156500500Y-69349057D01*
X156500500Y-69190943D01*
X159499500Y-69190943D01*
X159499500Y-69349057D01*
X159540423Y-69501784D01*
X159619480Y-69638716D01*
X159731284Y-69750520D01*
X159868216Y-69829577D01*
X160020943Y-69870500D01*
X160020945Y-69870500D01*
X160179055Y-69870500D01*
X160179057Y-69870500D01*
X160331784Y-69829577D01*
X160468716Y-69750520D01*
X160580520Y-69638716D01*
X160659577Y-69501784D01*
X160700500Y-69349057D01*
X160700500Y-69190943D01*
X160659577Y-69038216D01*
X160580520Y-68901284D01*
X160468716Y-68789480D01*
X160331784Y-68710423D01*
X160179057Y-68669500D01*
X160020943Y-68669500D01*
X159868216Y-68710423D01*
X159731284Y-68789480D01*
X159619480Y-68901284D01*
X159540423Y-69038216D01*
X159499500Y-69190943D01*
X156500500Y-69190943D01*
X156459577Y-69038216D01*
X156380520Y-68901284D01*
X156268716Y-68789480D01*
X156131784Y-68710423D01*
X155979057Y-68669500D01*
X155820943Y-68669500D01*
X155668216Y-68710423D01*
X155531284Y-68789480D01*
X155419480Y-68901284D01*
X155340423Y-69038216D01*
X155299500Y-69190943D01*
X153700500Y-69190943D01*
X153659577Y-69038216D01*
X153580520Y-68901284D01*
X153468716Y-68789480D01*
X153331784Y-68710423D01*
X153179057Y-68669500D01*
X153020943Y-68669500D01*
X152868216Y-68710423D01*
X152731284Y-68789480D01*
X152619480Y-68901284D01*
X152540423Y-69038216D01*
X152499500Y-69190943D01*
X149500500Y-69190943D01*
X149459577Y-69038216D01*
X149380520Y-68901284D01*
X149268716Y-68789480D01*
X149131784Y-68710423D01*
X148979057Y-68669500D01*
X148820943Y-68669500D01*
X148668216Y-68710423D01*
X148531284Y-68789480D01*
X148419480Y-68901284D01*
X148340423Y-69038216D01*
X148299500Y-69190943D01*
X91500000Y-69190943D01*
X91500000Y-68237154D01*
X117321043Y-68237154D01*
X117321043Y-68395268D01*
X117361966Y-68547995D01*
X117441023Y-68684927D01*
X117552827Y-68796731D01*
X117689759Y-68875788D01*
X117842486Y-68916711D01*
X117842488Y-68916711D01*
X118000598Y-68916711D01*
X118000600Y-68916711D01*
X118153327Y-68875788D01*
X118290259Y-68796731D01*
X118402063Y-68684927D01*
X118481120Y-68547995D01*
X118522043Y-68395268D01*
X118522043Y-68237154D01*
X118481120Y-68084427D01*
X118402063Y-67947495D01*
X118290259Y-67835691D01*
X118153327Y-67756634D01*
X118000600Y-67715711D01*
X117842486Y-67715711D01*
X117689759Y-67756634D01*
X117552827Y-67835691D01*
X117441023Y-67947495D01*
X117361966Y-68084427D01*
X117321043Y-68237154D01*
X91500000Y-68237154D01*
X91500000Y-66235173D01*
X91512110Y-66187728D01*
X91566895Y-66087396D01*
X91574524Y-66075522D01*
X91711363Y-65892727D01*
X91720599Y-65882067D01*
X91882067Y-65720599D01*
X91892727Y-65711363D01*
X92075522Y-65574524D01*
X92087381Y-65566903D01*
X92187730Y-65512108D01*
X92235174Y-65500000D01*
X167764826Y-65500000D01*
X167812271Y-65512110D01*
G37*
%TD.AperFunction*%
%TD*%
M02*
