%TF.GenerationSoftware,KiCad,Pcbnew,10.0.6-10.0.6~ubuntu24.04.1*%
%TF.CreationDate,2026-10-07T19:03:20+00:00*%
%TF.ProjectId,solartron_7075_usb,736f6c61-7274-4726-9f6e-5f373037355f,A*%
%TF.SameCoordinates,Original*%
%TF.FileFunction,Paste,Top*%
%TF.FilePolarity,Positive*%
%FSLAX46Y46*%
G04 Gerber Fmt 4.6, Leading zero omitted, Abs format (unit mm)*
G04 Created by KiCad (PCBNEW 10.0.6-10.0.6~ubuntu24.04.1) date 2026-10-07 19:03:20*
%MOMM*%
%LPD*%
G01*
G04 APERTURE LIST*
%ADD10R,0.540000X0.500000*%
%ADD11R,0.540000X0.570000*%
%ADD12R,0.900000X0.800000*%
%ADD13O,0.650000X2.000000*%
%ADD14R,0.570000X0.540000*%
%ADD15R,0.500000X0.540000*%
%ADD16R,0.880000X0.200000*%
%ADD17R,0.200000X0.880000*%
%ADD18R,3.400000X3.400000*%
%ADD19O,1.970000X0.600000*%
%ADD20R,1.100000X0.600000*%
%ADD21R,1.400000X1.200000*%
%ADD22R,0.800000X0.800000*%
%ADD23R,1.410000X1.350000*%
%ADD24R,1.190000X1.730000*%
%ADD25R,0.530000X1.070000*%
%ADD26R,1.000000X0.650000*%
%ADD27R,1.000000X1.600000*%
%ADD28R,1.350000X1.410000*%
%ADD29R,1.050000X0.700000*%
%ADD30O,0.610000X0.360000*%
G04 APERTURE END LIST*
D10*
%TO.C,C25*%
X120600000Y-98620000D03*
X120600000Y-97780000D03*
%TD*%
D11*
%TO.C,R15*%
X104600000Y-92230000D03*
X104600000Y-91370000D03*
%TD*%
D12*
%TO.C,C6*%
X125800000Y-72700000D03*
X125800000Y-71300000D03*
%TD*%
D13*
%TO.C,U11*%
X133270000Y-91850000D03*
X130730000Y-91830000D03*
X130730000Y-98150000D03*
X132000000Y-98180000D03*
X133270000Y-98150000D03*
%TD*%
D14*
%TO.C,R5*%
X124070000Y-87200000D03*
X124930000Y-87200000D03*
%TD*%
D11*
%TO.C,R17*%
X163000000Y-77430000D03*
X163000000Y-76570000D03*
%TD*%
D10*
%TO.C,C23*%
X140000000Y-72420000D03*
X140000000Y-71580000D03*
%TD*%
D15*
%TO.C,C34*%
X146780000Y-100100000D03*
X147620000Y-100100000D03*
%TD*%
D11*
%TO.C,R2*%
X115820000Y-69580000D03*
X115820000Y-70440000D03*
%TD*%
%TO.C,R7*%
X132600000Y-72430000D03*
X132600000Y-71570000D03*
%TD*%
D16*
%TO.C,U5*%
X130420000Y-75200000D03*
X130420000Y-75600000D03*
X130420000Y-76000000D03*
X130420000Y-76400000D03*
X130420000Y-76800000D03*
X130420000Y-77200000D03*
X130420000Y-77600000D03*
X130420000Y-78000000D03*
X130420000Y-78400000D03*
X130420000Y-78800000D03*
X130420000Y-79200000D03*
X130420000Y-79600000D03*
X130420000Y-80000000D03*
X130420000Y-80400000D03*
X130420000Y-80800000D03*
D17*
X131200000Y-81570000D03*
X131600000Y-81570000D03*
X132000000Y-81570000D03*
X132400000Y-81570000D03*
X132800000Y-81570000D03*
X133200000Y-81570000D03*
X133600000Y-81570000D03*
X134000000Y-81570000D03*
X134400000Y-81570000D03*
X134800000Y-81570000D03*
X135200000Y-81570000D03*
X135600000Y-81570000D03*
X136000000Y-81570000D03*
X136400000Y-81570000D03*
X136800000Y-81570000D03*
D16*
X137580000Y-80800000D03*
X137580000Y-80400000D03*
X137580000Y-80000000D03*
X137580000Y-79600000D03*
X137580000Y-79200000D03*
X137580000Y-78800000D03*
X137580000Y-78400000D03*
X137580000Y-78000000D03*
X137580000Y-77600000D03*
X137580000Y-77200000D03*
X137580000Y-76800000D03*
X137580000Y-76400000D03*
X137580000Y-76000000D03*
X137580000Y-75600000D03*
X137580000Y-75200000D03*
D17*
X136800000Y-74430000D03*
X136400000Y-74430000D03*
X136000000Y-74430000D03*
X135600000Y-74430000D03*
X135200000Y-74430000D03*
X134800000Y-74430000D03*
X134400000Y-74430000D03*
X134000000Y-74430000D03*
X133600000Y-74430000D03*
X133200000Y-74430000D03*
X132800000Y-74430000D03*
X132400000Y-74430000D03*
X132000000Y-74430000D03*
X131600000Y-74430000D03*
X131200000Y-74430000D03*
D18*
X134000000Y-78000000D03*
%TD*%
D19*
%TO.C,U15*%
X124140000Y-110950000D03*
X124140000Y-109680000D03*
X124140000Y-108410000D03*
X124140000Y-107130000D03*
X124140000Y-105870000D03*
X124140000Y-104600000D03*
X124140000Y-103330000D03*
X124140000Y-102060000D03*
X118660000Y-102060000D03*
X118660000Y-103330000D03*
X118660000Y-104600000D03*
X118660000Y-105870000D03*
X118660000Y-107130000D03*
X118660000Y-108410000D03*
X118660000Y-109680000D03*
X118660000Y-110950000D03*
%TD*%
D13*
%TO.C,U7*%
X125270000Y-91850000D03*
X122730000Y-91830000D03*
X122730000Y-98150000D03*
X124000000Y-98180000D03*
X125270000Y-98150000D03*
%TD*%
D11*
%TO.C,R18*%
X166500000Y-108430000D03*
X166500000Y-107570000D03*
%TD*%
D13*
%TO.C,U9*%
X117270000Y-91850000D03*
X114730000Y-91830000D03*
X114730000Y-98150000D03*
X116000000Y-98180000D03*
X117270000Y-98150000D03*
%TD*%
D10*
%TO.C,C9*%
X141000000Y-78420000D03*
X141000000Y-77580000D03*
%TD*%
%TO.C,C24*%
X144600000Y-92220000D03*
X144600000Y-91380000D03*
%TD*%
D14*
%TO.C,R3*%
X115820000Y-71760000D03*
X116680000Y-71760000D03*
%TD*%
D19*
%TO.C,U17*%
X132740000Y-110950000D03*
X132740000Y-109680000D03*
X132740000Y-108410000D03*
X132740000Y-107130000D03*
X132740000Y-105870000D03*
X132740000Y-104600000D03*
X132740000Y-103330000D03*
X132740000Y-102060000D03*
X127260000Y-102060000D03*
X127260000Y-103330000D03*
X127260000Y-104600000D03*
X127260000Y-105870000D03*
X127260000Y-107130000D03*
X127260000Y-108410000D03*
X127260000Y-109680000D03*
X127260000Y-110950000D03*
%TD*%
D20*
%TO.C,U1*%
X164800000Y-102450000D03*
X164800000Y-101500000D03*
X164800000Y-100550000D03*
X162200000Y-100550000D03*
X162200000Y-102450000D03*
%TD*%
D21*
%TO.C,U4*%
X123400000Y-84850000D03*
X125600000Y-84850000D03*
X125600000Y-83150000D03*
X123400000Y-83150000D03*
%TD*%
D13*
%TO.C,U10*%
X109270000Y-91850000D03*
X106730000Y-91830000D03*
X106730000Y-98150000D03*
X108000000Y-98180000D03*
X109270000Y-98150000D03*
%TD*%
D11*
%TO.C,R19*%
X165500000Y-77430000D03*
X165500000Y-76570000D03*
%TD*%
D22*
%TO.C,LED2*%
X163000000Y-74800000D03*
X163000000Y-73200000D03*
%TD*%
D23*
%TO.C,C37*%
X108000000Y-83000000D03*
X110000000Y-83000000D03*
%TD*%
D10*
%TO.C,C13*%
X128500000Y-78420000D03*
X128500000Y-77580000D03*
%TD*%
D15*
%TO.C,C15*%
X131080000Y-83500000D03*
X131920000Y-83500000D03*
%TD*%
D10*
%TO.C,C11*%
X127500000Y-84420000D03*
X127500000Y-83580000D03*
%TD*%
D15*
%TO.C,C36*%
X103780000Y-100100000D03*
X104620000Y-100100000D03*
%TD*%
D10*
%TO.C,C17*%
X139500000Y-80920000D03*
X139500000Y-80080000D03*
%TD*%
%TO.C,C12*%
X128500000Y-75920000D03*
X128500000Y-75080000D03*
%TD*%
%TO.C,C22*%
X135000000Y-72420000D03*
X135000000Y-71580000D03*
%TD*%
D13*
%TO.C,U6*%
X146730000Y-98150000D03*
X149270000Y-98170000D03*
X149270000Y-91850000D03*
X148000000Y-91820000D03*
X146730000Y-91850000D03*
%TD*%
D15*
%TO.C,C4*%
X120110000Y-71760000D03*
X119270000Y-71760000D03*
%TD*%
D11*
%TO.C,R16*%
X128600000Y-92230000D03*
X128600000Y-91370000D03*
%TD*%
D22*
%TO.C,LED1*%
X166000000Y-112800000D03*
X166000000Y-111200000D03*
%TD*%
D10*
%TO.C,C14*%
X128500000Y-80920000D03*
X128500000Y-80080000D03*
%TD*%
%TO.C,C18*%
X139500000Y-75920000D03*
X139500000Y-75080000D03*
%TD*%
D19*
%TO.C,U13*%
X115540000Y-110950000D03*
X115540000Y-109680000D03*
X115540000Y-108410000D03*
X115540000Y-107130000D03*
X115540000Y-105870000D03*
X115540000Y-104600000D03*
X115540000Y-103330000D03*
X115540000Y-102060000D03*
X110060000Y-102060000D03*
X110060000Y-103330000D03*
X110060000Y-104600000D03*
X110060000Y-105870000D03*
X110060000Y-107130000D03*
X110060000Y-108410000D03*
X110060000Y-109680000D03*
X110060000Y-110950000D03*
%TD*%
D15*
%TO.C,C31*%
X112380000Y-100100000D03*
X113220000Y-100100000D03*
%TD*%
D24*
%TO.C,F1*%
X112050000Y-82000000D03*
X114950000Y-82000000D03*
%TD*%
D25*
%TO.C,D4*%
X112550000Y-78650000D03*
X113500000Y-78650000D03*
X114450000Y-78650000D03*
X114450000Y-76350000D03*
X113500000Y-76350000D03*
X112550000Y-76350000D03*
%TD*%
D26*
%TO.C,Q1*%
X165000000Y-108950000D03*
X165000000Y-107050000D03*
X163000000Y-108000000D03*
%TD*%
D19*
%TO.C,U16*%
X149940000Y-110950000D03*
X149940000Y-109680000D03*
X149940000Y-108410000D03*
X149940000Y-107130000D03*
X149940000Y-105870000D03*
X149940000Y-104600000D03*
X149940000Y-103330000D03*
X149940000Y-102060000D03*
X144460000Y-102060000D03*
X144460000Y-103330000D03*
X144460000Y-104600000D03*
X144460000Y-105870000D03*
X144460000Y-107130000D03*
X144460000Y-108410000D03*
X144460000Y-109680000D03*
X144460000Y-110950000D03*
%TD*%
D27*
%TO.C,L1*%
X136500000Y-72000000D03*
X138500000Y-72000000D03*
%TD*%
D28*
%TO.C,C2*%
X99100000Y-90000000D03*
X99100000Y-88000000D03*
%TD*%
D10*
%TO.C,C26*%
X136600000Y-92220000D03*
X136600000Y-91380000D03*
%TD*%
%TO.C,C27*%
X112600000Y-98620000D03*
X112600000Y-97780000D03*
%TD*%
%TO.C,C29*%
X128600000Y-98620000D03*
X128600000Y-97780000D03*
%TD*%
D15*
%TO.C,C1*%
X163080000Y-104000000D03*
X163920000Y-104000000D03*
%TD*%
D11*
%TO.C,R14*%
X112600000Y-92230000D03*
X112600000Y-91370000D03*
%TD*%
D14*
%TO.C,R9*%
X137070000Y-70000000D03*
X137930000Y-70000000D03*
%TD*%
D19*
%TO.C,U12*%
X158540000Y-110950000D03*
X158540000Y-109680000D03*
X158540000Y-108410000D03*
X158540000Y-107130000D03*
X158540000Y-105870000D03*
X158540000Y-104600000D03*
X158540000Y-103330000D03*
X158540000Y-102060000D03*
X153060000Y-102060000D03*
X153060000Y-103330000D03*
X153060000Y-104600000D03*
X153060000Y-105870000D03*
X153060000Y-107130000D03*
X153060000Y-108410000D03*
X153060000Y-109680000D03*
X153060000Y-110950000D03*
%TD*%
D29*
%TO.C,SW2*%
X155900000Y-67930000D03*
X160100000Y-67930000D03*
X155900000Y-70070000D03*
X160100000Y-70070000D03*
%TD*%
D10*
%TO.C,C28*%
X104600000Y-98620000D03*
X104600000Y-97780000D03*
%TD*%
D15*
%TO.C,C33*%
X120980000Y-100100000D03*
X121820000Y-100100000D03*
%TD*%
%TO.C,C16*%
X136080000Y-83500000D03*
X136920000Y-83500000D03*
%TD*%
D11*
%TO.C,R11*%
X144600000Y-98630000D03*
X144600000Y-97770000D03*
%TD*%
D10*
%TO.C,C10*%
X121500000Y-84420000D03*
X121500000Y-83580000D03*
%TD*%
D15*
%TO.C,C32*%
X138180000Y-100100000D03*
X139020000Y-100100000D03*
%TD*%
D11*
%TO.C,R4*%
X146500000Y-74430000D03*
X146500000Y-73570000D03*
%TD*%
D10*
%TO.C,C7*%
X127000000Y-78420000D03*
X127000000Y-77580000D03*
%TD*%
%TO.C,C19*%
X129800000Y-72420000D03*
X129800000Y-71580000D03*
%TD*%
D15*
%TO.C,C21*%
X139580000Y-70000000D03*
X140420000Y-70000000D03*
%TD*%
D10*
%TO.C,C20*%
X128400000Y-72420000D03*
X128400000Y-71580000D03*
%TD*%
D14*
%TO.C,R10*%
X99970000Y-98800000D03*
X100830000Y-98800000D03*
%TD*%
D15*
%TO.C,C30*%
X155380000Y-100100000D03*
X156220000Y-100100000D03*
%TD*%
D30*
%TO.C,U3*%
X116970000Y-69350000D03*
X116970000Y-70000000D03*
X116970000Y-70650000D03*
X119030000Y-70650000D03*
X119030000Y-70000000D03*
X119030000Y-69350000D03*
D27*
X118000000Y-70000000D03*
%TD*%
D11*
%TO.C,R8*%
X131400000Y-72430000D03*
X131400000Y-71570000D03*
%TD*%
D15*
%TO.C,C8*%
X133580000Y-83500000D03*
X134420000Y-83500000D03*
%TD*%
D13*
%TO.C,U8*%
X138730000Y-98150000D03*
X141270000Y-98170000D03*
X141270000Y-91850000D03*
X140000000Y-91820000D03*
X138730000Y-91850000D03*
%TD*%
D29*
%TO.C,SW1*%
X148900000Y-67930000D03*
X153100000Y-67930000D03*
X148900000Y-70070000D03*
X153100000Y-70070000D03*
%TD*%
D19*
%TO.C,U18*%
X106940000Y-110950000D03*
X106940000Y-109680000D03*
X106940000Y-108410000D03*
X106940000Y-107130000D03*
X106940000Y-105870000D03*
X106940000Y-104600000D03*
X106940000Y-103330000D03*
X106940000Y-102060000D03*
X101460000Y-102060000D03*
X101460000Y-103330000D03*
X101460000Y-104600000D03*
X101460000Y-105870000D03*
X101460000Y-107130000D03*
X101460000Y-108410000D03*
X101460000Y-109680000D03*
X101460000Y-110950000D03*
%TD*%
D15*
%TO.C,C35*%
X129580000Y-100100000D03*
X130420000Y-100100000D03*
%TD*%
D19*
%TO.C,U14*%
X141340000Y-110950000D03*
X141340000Y-109680000D03*
X141340000Y-108410000D03*
X141340000Y-107130000D03*
X141340000Y-105870000D03*
X141340000Y-104600000D03*
X141340000Y-103330000D03*
X141340000Y-102060000D03*
X135860000Y-102060000D03*
X135860000Y-103330000D03*
X135860000Y-104600000D03*
X135860000Y-105870000D03*
X135860000Y-107130000D03*
X135860000Y-108410000D03*
X135860000Y-109680000D03*
X135860000Y-110950000D03*
%TD*%
D11*
%TO.C,R12*%
X120600000Y-92230000D03*
X120600000Y-91370000D03*
%TD*%
%TO.C,R1*%
X163500000Y-112430000D03*
X163500000Y-111570000D03*
%TD*%
D22*
%TO.C,LED3*%
X165500000Y-73150000D03*
X165500000Y-74850000D03*
%TD*%
D11*
%TO.C,R13*%
X136600000Y-98630000D03*
X136600000Y-97770000D03*
%TD*%
%TO.C,R6*%
X145000000Y-78430000D03*
X145000000Y-77570000D03*
%TD*%
D28*
%TO.C,C3*%
X99100000Y-103500000D03*
X99100000Y-101500000D03*
%TD*%
D15*
%TO.C,C5*%
X116064604Y-68271861D03*
X116904604Y-68271861D03*
%TD*%
M02*
